<?xml version="1.0" encoding="utf-8"?>
<svg x="0pt" y="0pt" width="256pt" height="256pt" viewBox="0 0 256 256" xmlns="http://www.w3.org/2000/svg" xmlns:xlink="http://www.w3.org/1999/xlink">
  <g id="1">
    <title>Layer 1</title>
    <defs>
      <title>Shape 35</title>
      <g id="2">
        <defs>
          <path id="3" d="M114.224,114.161 C114.971,112.83,112.452,111.514,114.373,109.967 C117.035,114.624,119.651,119.2,122.305,123.858 C123.367,121.271,116.803,105.062,113.244,101.01 C112.99,106.004,109.977,110.041,107.801,114.43 C110.321,108.142,110.111,100.973,113.782,95.1261 C116.392,90.9169,117.274,85.9302,120.287,81.9229 C123.666,77.4371,127.524,73.2952,130.073,68.1739 C131.24,65.8488,133.662,66.0506,135.965,66.2824 C139.822,66.6637,141.946,64.7871,142.746,61.0041 C143.164,59.0827,141.931,56.7276,144.241,55.2249 C145.056,54.7015,144.241,54.0511,143.755,53.8642 C142.596,53.4006,141.415,53.1165,140.435,54.3875 C139.224,55.9426,137.968,57.4603,136.63,58.8733 C136.383,59.2225,136.004,59.4563,135.582,59.5212 C135.159,59.586,134.728,59.4763,134.387,59.2172 C135.927,57.4827,137.894,56.0996,138.596,53.8118 C132.877,51.2026,130.126,52.0549,126.881,57.1463 C125.823,58.674,124.588,60.0718,123.202,61.3106 C121.797,62.6489,119.995,63.6133,119.958,65.9459 C119.958,66.3945,119.3,67.0599,118.806,67.2394 C111.382,69.9383,110.022,76.9586,107.54,83.1191 C106.246,86.319,105.222,89.6235,103.158,92.4421 C101.663,94.513,103.158,96.9279,102.336,99.0138 C102.336,99.0138,101.514,99.9558,101.514,99.9558 C100.766,99.8661,100.467,99.597,100.632,98.7521 C100.886,97.4587,102.702,95.5149,100.467,95.014 C99.4423,94.78,98.3666,94.9717,97.4859,95.5453 C96.6051,96.1188,95.9948,97.0251,95.7943,98.0568 C94.1869,104.307,91.3085,110.206,90.8525,116.748 C90.4637,122.31,86.9797,126.788,85.2602,131.902 C84.7892,133.293,84.5126,134.242,85.006,135.64 C86.576,140.171,86.1275,144.859,85.7537,149.517 C85.7014,150.1,85.634,150.78,84.7668,151.012 C84.0192,146.81,83.2043,142.638,82.4641,138.444 C82.2772,137.367,82.4641,135.7,81.2978,135.596 C79.3976,135.282,77.5456,136.375,76.9017,138.19 C75.2045,142.676,73.3654,147.161,71.6683,151.647 C70.3524,155.161,68.7749,158.413,65.6124,160.716 C63.4667,162.286,62.4425,164.761,61.3135,167.056 C57.5754,174.615,53.7175,182.069,48.8281,188.962 C45.0899,194.195,40.2153,198.098,35.2137,201.956 C28.3803,207.234,19.7377,209.312,12.9117,214.598 C12.1516,215.02,11.3287,215.318,10.4744,215.48 C9.48754,215.802,8.29883,216.123,7.93245,214.875 C7.62594,213.82,8.553,213.282,9.56977,212.826 C13.7609,211.061,17.7022,208.754,21.2927,205.963 C21.8519,205.467,22.5127,205.1,23.2291,204.886 C36.0809,201.821,43.0564,191.72,49.8598,181.874 C54.1587,175.646,56.9623,168.417,60.4762,161.621 C60.8426,160.695,61.4244,159.869,62.1733,159.213 C68.289,155.154,69.2011,148.178,71.8926,142.205 C72.8496,140.074,73.7841,137.936,74.599,135.753 C75.4588,133.435,76.7747,131.865,79.4961,132.082 C81.1333,132.216,81.9931,131.289,82.4866,129.839 C84.2959,124.516,87.4284,119.671,87.72,113.787 C87.9069,109.66,90.5461,106.243,91.7946,102.401 C92.2977,101.148,92.5516,99.81,92.5421,98.4605 C92.2879,94.827,93.7757,92.4196,97.3867,91.7318 C100.138,91.216,101.245,89.2721,102.164,87.0516 C104.826,80.6668,107.076,74.0951,110.979,68.286 C111.614,67.3365,112.175,66.3646,113.222,65.8786 C118.941,63.1722,122.432,58.2378,125.819,53.2436 C127.449,50.8362,129.61,49.5054,132.376,49.9465 C135.142,50.3876,137.909,50.0362,140.667,49.6998 C144.248,49.2587,146.753,51.0007,148.891,53.6473 C152.734,58.3798,154.342,64.3833,157.863,69.2579 C160.525,72.9213,162.08,77.8931,167.769,78.2295 C168.935,78.3043,169.085,79.2762,169.264,80.0762 C171.395,88.517,173.376,96.9653,173.13,105.787 C173.055,108.464,172.539,111.948,177.361,111.2 C179.185,110.916,179.387,112.823,179.799,114.011 C181.294,118.37,181.668,122.931,182.139,127.469 C182.333,129.323,181.511,132.104,185.473,130.9 C187.185,130.385,192.202,137.517,191.663,139.797 C191.237,141.509,191.873,141.883,192.979,142.616 C198.512,146.287,202.243,151.812,206.863,156.432 C208.498,158.135,209.494,160.351,209.681,162.705 C209.951,171.22,215.266,176.813,220.096,182.891 C226.152,190.539,233.733,196.573,240.492,203.466 C242.832,205.866,246.241,206.666,248.932,208.909 C244.708,210.509,240.596,208.438,232.484,200.797 C232.619,203.66,236.155,204.535,235.909,207.81 C233.501,205.911,232.731,203.085,230.436,201.716 C229.89,202.464,230.488,202.965,230.683,203.511 C230.877,204.057,230.967,204.834,230.279,205.103 C229.591,205.372,229.27,204.7,228.956,204.146 C223.919,195.119,218.169,186.508,211.76,178.398 C206.063,171.176,201.472,163.191,197.054,155.079 C194.362,150.13,192.269,144.672,187.783,140.747 C189.75,144.769,191.791,148.769,193.645,152.851 C194.108,153.853,196.157,155.057,193.645,156.335 C192.897,156.701,194.004,157.583,194.392,158.137 C204.508,173.022,214.399,188.079,225.045,202.621 C225.98,203.899,227.692,204.55,228.163,206.935 C224.178,204.281,221.808,200.774,219.438,197.35 C207.611,180.399,195.863,163.385,184.195,146.309 C177.586,136.655,171.38,126.746,165.579,116.583 C164.676,114.849,163.468,113.291,162.012,111.985 C162.334,111.671,161.81,110.453,162.76,110.968 C163.552,111.402,164.008,112.464,164.636,113.211 C167.298,116.336,168.554,120.471,171.821,123.155 C173.182,127.641,176.382,130.99,179.118,134.751 C178.027,129.734,179.589,124.388,176.666,119.506 C176.09,121.129,175.612,122.706,174.161,120.306 C172.262,117.166,170.244,114.094,168.307,110.968 C165.94,107.131,163.582,103.285,161.235,99.4324 C160.637,101.959,161.452,103.776,162.73,105.571 C166.468,110.899,170.117,116.289,173.675,121.742 C174.984,123.746,175.918,125.981,177.047,128.112 C174.146,127.364,174.371,123.985,171.762,123.222 C169.571,117.092,165.332,112.277,161.541,107.096 C161.781,108.77,160.719,110.527,162.147,111.955 C161.287,114.886,162.745,116.912,164.338,119.275 C168.532,125.495,172.27,131.984,176.173,138.429 C184.471,152.058,193.757,165.037,202.676,178.256 C208.966,187.571,215.234,196.897,221.479,206.232 C221.79,206.797,221.852,207.466,221.651,208.079 C200.822,179.818,180.905,150.989,163.261,120.157 C163.134,125.032,164.009,126.938,168.666,134.198 C178.759,149.838,188.987,165.381,199.678,180.618 C205.659,189.179,211.513,197.866,217.427,206.494 C217.756,206.972,218.347,207.368,217.427,208.737 C200.77,185.201,183.731,162.383,169.369,137.711 C167.635,140.014,167.717,139.954,170.117,143.977 C175.245,152.544,180.584,161,186.296,169.164 C193.772,179.728,201.159,190.322,208.762,200.774 C210.781,203.548,211.543,207.047,213.898,209.641 C208.523,205.275,205.3,199.13,201.188,193.739 C196.942,188.169,193.114,182.278,189.017,176.588 C184.92,170.899,180.666,165.307,177.1,159.243 C173.439,153.013,169.778,146.783,166.117,140.552 C165.459,144.477,166.117,146.825,167.956,149.449 C174.618,158.922,180.868,168.686,187.26,178.345 C192.262,185.904,197.129,193.567,202.302,201.014 C204.545,204.281,205.801,207.869,206.855,211.652 C193.944,190.509,178.528,171.026,166.109,149.546 C176.576,170.899,190.953,190.016,201.375,211.368 C189.062,192.879,177.025,174.241,166.072,154.421 C165.324,157.83,166.423,159.983,167.911,162.473 C177.316,178.173,187.843,193.246,196.441,209.454 C197.189,210.853,199.23,212.535,197.189,214.337 C195.342,215.966,193.301,215.966,191.073,214.583 C187.215,212.191,182.849,210.733,179.38,207.533 C177.944,208.4,180.202,209.701,178.558,210.524 C175.425,209.148,174.513,205.096,170.588,202.987 C171.844,204.954,172.659,206.24,173.496,207.518 C173.93,208.184,175.066,208.879,173.982,209.641 C172.898,210.404,172.689,209.126,172.218,208.475 C171.877,208.125,171.48,207.834,171.044,207.615 C170.296,206.389,169.549,205.163,168.801,203.937 C166.797,199.72,163.934,196.079,161.22,192.326 C159.964,190.591,158.91,189.919,157.018,191.249 C155.239,192.498,154.304,191.571,153.22,189.964 C150.043,185.246,147.426,180.095,142.581,175.975 C143.979,180.573,147.658,183.624,148.278,188.057 C140.338,176.842,132.855,165.389,127.539,152.402 C126.702,153.516,126.477,155.909,125.034,152.971 C120.99,144.747,116.676,136.612,112.422,128.471 C111.756,127.2,111.33,125.742,110.074,124.792 C109.087,126.661,109.573,128.321,110.5,130.026 C114.283,137.076,117.379,144.604,121.924,151.124 C128.025,159.856,133.684,168.843,139.344,177.844 C146.14,188.677,152.802,199.571,159.53,210.464 C159.927,211.107,160.57,211.862,159.867,213.237 C156.323,209.26,154.177,204.737,151.523,200.565 C143.546,188.012,135.434,175.542,128.1,162.593 C127.517,161.553,126.896,159.49,125.565,160.245 C123.95,161.165,124.601,163.236,125.416,164.671 C130.933,174.39,137.43,183.549,143.695,192.812 C147.837,198.928,151.523,205.297,155.239,211.66 C155.71,212.467,156.368,213.349,155.882,214.763 C152.51,211.181,150.731,206.8,148.189,202.95 C140.966,191.997,133.901,180.94,126.739,169.942 C126.193,169.104,125.244,167.46,124.384,168.491 C123.337,169.725,121.962,171.998,123.539,173.463 C132.189,181.493,136.884,192.378,144.069,201.447 C146.693,204.752,149.19,208.176,151.8,211.488 C152.96,212.803,153.675,214.452,153.841,216.198 C148.959,210.778,144.936,205.791,141.064,200.632 C135.576,193.32,131.524,185.037,125.573,178.084 C119.801,171.355,116.9,163.131,113.468,155.206 C111.592,150.903,109.488,146.703,107.166,142.623 C106.642,145.023,106.254,147.356,107.472,149.621 C112.19,158.398,117.027,167.116,121.154,176.2 C121.422,176.616,121.744,176.996,122.111,177.328 C120.526,177.134,119.606,176.282,118.866,174.801 C115.128,167.265,111.48,159.654,106.725,151.789 C106.889,164.178,115.696,171.534,120.13,181.388 C121.528,179.743,120.085,177.829,122.104,177.321 C121.79,181.059,123.92,183.377,126.32,185.904 C129.592,189.276,132.417,193.055,134.724,197.148 C137.826,202.763,142.409,207.309,145.848,212.677 C146.342,213.424,147.8,214.269,146.716,215.077 C145.632,215.884,144.929,214.329,144.286,213.581 C137.901,205.828,132.892,197.133,127.016,188.984 C125.879,187.422,124.085,186.48,123.367,184.498 C121.977,187.982,122.276,190.921,124.713,193.874 C129.453,199.623,133.909,205.604,138.432,211.525 C138.963,212.221,140.017,212.886,139.03,214.576 C135.718,210.494,132.466,206.636,129.393,202.614 C126.709,199.137,124.653,195.032,121.491,192.147 C119.143,189.978,122.343,187.534,120.13,185.949 C120.601,185.201,121.087,184.139,120.549,183.496 C116.437,178.585,113.768,172.708,109.469,166.779 C110.216,170.794,110.097,173.725,113.125,176.289 C116.153,178.854,117.356,183.018,120.212,185.881 C120.07,186.584,120.601,187.571,119.801,187.945 C118.807,188.401,118.306,187.571,117.797,186.779 C116.152,183.969,114.363,181.247,112.437,178.622 C116.28,190.18,123.539,199.847,129.408,210.411 C129.408,210.411,121.857,201.634,121.857,201.634 C122.006,205.97,125.453,207.869,126.006,211.039 C126.141,211.839,127.801,212.714,126.238,213.484 C124.892,214.15,124.653,212.677,124.22,211.922 C117.274,199.758,110.403,187.549,105.065,174.54 C103.226,177.942,103.316,177.897,105.065,181.149 C110.231,190.965,115.285,200.842,120.855,210.441 C121.199,211.024,122.657,212.273,121.079,212.834 C120.04,213.208,119.345,211.735,118.837,210.845 C114.351,202.531,109.865,194.21,105.596,185.807 C104.707,184.107,103.426,182.643,101.858,181.538 C100.789,183.646,102.411,184.984,103.151,186.338 C107.405,194.098,111.854,201.746,116.212,209.447 C116.691,210.299,116.96,211.286,117.498,212.086 C118.037,212.886,117.887,213.581,117.132,213.91 C116.153,214.381,116.01,213.417,115.696,212.819 C112.504,206.838,109.342,200.857,106.104,194.935 C104.527,192.042,102.822,189.216,101.095,186.225 C98.7252,191.459,103.338,194.233,104.946,197.918 C106.919,202.539,109.686,206.815,112.041,211.286 C112.502,212.335,112.877,213.421,113.162,214.531 C112.758,214.713,112.355,214.895,111.951,215.077 C107.861,207.496,103.779,199.915,99.5402,192.064 C98.0898,193.56,97.9103,194.457,99.1141,196.259 C102.665,201.574,105.768,207.197,109.065,212.707 C109.529,213.454,110.022,214.202,108.945,215.376 C104.146,210.74,102.83,203.982,98.3814,199.204 C99.1963,205.933,103.69,210.838,107.398,216.265 C105.013,215.518,105.013,215.518,99.3833,208.041 C99.1713,210.155,99.069,212.279,99.0766,214.404 C99.1289,215.473,99.0094,216.25,97.9627,216.288 C97.0656,216.288,96.9684,215.391,96.8935,214.636 C96.0493,205.963,96.671,197.211,98.7327,188.745 C99.9139,183.855,101.432,179.145,103.047,174.443 C103.846,172.11,102.441,170.256,102.359,168.207 C102.209,164.574,101.663,160.881,103.024,157.098 C99.8242,158.443,99.8092,162.331,96.8711,163.632 C96.5495,158.159,101.11,153.337,105.559,154.989 C103.48,151.946,105.768,148.447,103.533,145.711 C106.239,143.775,105.222,140.866,105.245,138.369 C105.29,132.456,108.235,127.342,109.454,121.779 C110.038,119.249,111.049,116.837,112.444,114.647 C113.095,113.608,113.678,114.348,114.276,114.228 C113.11,116.471,113.738,118.325,115.091,120.314 C116.381,122.416,117.559,124.584,118.62,126.811 C120.678,130.659,122.744,134.504,124.818,138.347 C124.257,128.815,119.457,121.39,114.224,114.161 z M151.164,183.96 C152.921,184.027,153.504,185.523,154.394,186.629 C154.91,187.272,155.336,188.423,156.308,187.893 C157.452,187.265,156.308,186.397,156.091,185.65 C155.771,184.866,155.409,184.1,155.007,183.354 C154.259,181.784,153.624,181.396,152.764,183.354 C152.607,183.713,151.695,183.751,151.127,183.938 C152.443,180.297,153.16,176.461,156.069,173.471 C158.798,170.69,158.543,165.852,161.302,163.52 C164.644,160.686,164.203,157.494,164.293,154.129 C164.382,150.765,164.412,147.161,164.293,143.663 C164.24,142.526,165.265,140.515,163.268,140.38 C161.773,140.283,160.084,140.754,159.59,143.094 C159.167,145.411,157.629,147.369,155.478,148.328 C157.534,145.233,158.184,141.726,159.321,138.384 C160.682,134.347,162.977,130.512,162.087,126.018 C160.27,116.905,159.844,107.664,159.097,98.4306 C158.698,94.7239,158.044,91.0492,157.138,87.4329 C155.515,80.1734,151.792,73.3924,149.146,66.3347 C148.016,63.0568,146.716,59.8401,145.25,56.6977 C143.688,58.7686,144.974,60.1069,145.602,61.7143 C148.989,70.3046,152.099,79.0071,153.826,88.1208 C154.095,89.5338,155.366,90.9543,153.826,92.9057 C152.981,90.2441,152.226,87.8816,151.396,85.2947 C149.946,87.7096,150.013,90.0347,150.245,92.3524 C150.783,97.8475,151.239,103.358,152.001,108.8 C152.764,114.243,151.71,119.88,153.788,125.189 C154.342,126.609,153.512,127.431,152.218,128 C150.259,128.807,151.246,126.901,150.723,126.407 C149.871,125.66,149.916,123.985,148.525,123.903 C146.095,131.289,142.94,138.108,137.019,143.251 C136.383,143.812,135.576,144.231,135.89,145.36 C136.772,148.537,137.385,151.797,138.499,154.892 C139.18,156.799,140.51,157.314,141.879,155.109 C142.786,153.923,143.786,152.81,144.869,151.782 C144.802,154.115,143.695,155.303,142.85,156.552 C142.103,157.643,140.757,158.443,141.228,160.043 C142.559,164.604,143.037,169.419,145.624,173.613 C147.598,176.962,149.295,180.536,151.142,183.982 z M126.447,120.972 C126.343,121.31,126.273,121.659,126.238,122.011 C126.238,125.674,129.408,128.829,127.958,132.799 C127.778,133.3,128.571,134.452,129.513,134.683 C131.875,135.274,132.914,136.665,133.139,139.169 C133.318,141.203,134.634,141.756,136.01,139.865 C139.83,134.683,143.157,129.196,144.084,122.706 C144.406,120.463,144.914,118.968,147.239,118.333 C147.927,118.146,149.063,118.183,148.794,116.77 C148.047,113.114,148.854,109.413,148.129,105.675 C147,99.8287,146.275,93.87,146.933,87.8217 C147.142,85.9152,148.562,83.934,147.508,82.1023 C145.497,78.6033,143.157,75.2988,140.981,71.8971 C140.017,70.4018,138.574,70.9775,138.641,72.0765 C138.858,75.553,136.032,76.495,134.156,78.2146 C133.057,79.2164,132.219,80.5322,132.473,81.7509 C133.221,85.3021,131.958,88.5618,131.726,91.9112 C131.19,97.7076,130.035,103.43,128.279,108.98 C127.621,111.223,129.715,113.854,127.068,115.993 C126.582,116.389,127.815,118.886,128.249,120.411 C128.414,120.994,128.705,121.787,128.144,122.078 C127.173,122.587,127.18,121.121,126.425,120.994 z M196.972,213.312 C191.507,202.509,183.918,193.126,178.012,182.734 C174.52,176.573,170.917,170.473,167.351,164.357 C166.797,163.4,166.476,161.785,164.898,162.645 C163.321,163.505,164.509,164.477,165.078,165.404 C166.094,167.071,167.044,168.791,168.068,170.473 C176.292,184.424,184.853,198.21,193.877,211.69 C194.534,212.766,194.923,214.015,196.949,213.335 z M193.166,213.888 C182.139,197.866,171.717,181.508,162.663,164.051 C161.168,166.914,161.168,166.884,162.394,168.963 C170.169,182.188,178.565,195.018,187.066,207.765 C188.733,210.269,190.004,212.849,193.144,213.91 z M122.313,168.663 C121.378,156.028,112.407,146.87,108.041,135.386 C106.635,138.197,117.214,163.011,122.29,168.686 z M160.988,169.351 C160.388,169.6,159.787,169.85,159.186,170.099 C161.429,177.523,166.842,183.332,171.029,189.732 C175.417,196.46,178.43,204.251,185.608,208.834 C176.644,196.146,168.21,183.13,160.966,169.374 z M112.728,118.467 C110.485,123.282,110.485,123.282,124.234,145.719 C123.569,135.483,116.182,128.119,112.728,118.467 z M141.983,174.181 C141.236,172.394,140.122,170.675,139.793,168.813 C138.395,160.843,133.154,154.698,129.946,147.595 C129.483,146.563,127.935,147.453,127.008,147.528 C126.081,147.603,126.746,148.537,127.12,149.18 C128.421,151.423,129.647,153.666,130.858,155.909 C134.163,162.241,137.55,168.506,141.961,174.181 z M123.15,160.342 C120.354,149.232,113.154,140.156,109.035,129.577 C107.345,131.312,107.428,132.448,108.706,134.063 C110.134,135.85,110.837,138.197,111.996,140.208 C115.809,146.818,119.188,153.688,123.128,160.342 z M173.242,197.29 C168.756,190.031,164.218,182.756,159.65,175.527 C159.239,174.884,159.119,173.217,157.624,174.286 C156.413,175.145,157.34,176.035,157.803,176.805 C160.981,182.039,164.218,187.272,167.365,192.506 C168.714,194.748,170.811,196.442,173.287,197.29 z M122.919,115.895 C123.547,107.784,118.433,101.69,115.188,94.9616 C114.119,103.245,120.631,108.823,122.934,115.895 z M104.504,159.086 C102.127,167.415,106.074,173.934,110.321,180.379 C108.332,173.299,106.321,166.219,104.504,159.086 z M159.082,87.4105 C159.082,88.6216,159.082,89.616,159.082,90.6029 C159.082,91.3505,159.426,91.7243,160.203,91.7019 C160.981,91.6794,161.227,91.3356,161.287,90.5804 C161.482,87.9189,162.356,86.0946,164.554,83.605 C165.048,83.0518,165.197,82.4985,164.622,82.0275 C163.502,81.0007,162.063,80.3908,160.547,80.3005 C160.3,80.3005,158.992,80.4201,159.396,81.2126 C160.577,83.5078,158.095,85.4517,159.082,87.4105 z M198.489,154.182 C201.066,158.974,203.643,163.766,206.22,168.559 C207.05,161.92,203.992,157.389,198.504,154.182 z M184.613,138.564 C182.37,145.09,188.763,148.036,190.923,152.806 C189.877,147.655,187.11,143.214,184.628,138.564 z M125.834,104.023 C125.311,98.0418,123.008,92.614,119.995,87.4404 C120.646,93.399,123.793,98.5054,125.849,104.023 z M124.077,109.204 C124.384,109.099,124.69,108.995,124.997,108.89 C122.776,102.72,120.556,96.5491,118.335,90.3786 C117.837,90.548,117.339,90.7175,116.84,90.8869 C117.453,97.6232,122.56,102.797,124.092,109.204 z M162.027,187.429 C160.158,184.132,158.454,181.082,156.689,178.061 C156.42,177.59,156.054,176.85,155.321,177.239 C154.934,177.516,154.666,177.93,154.573,178.398 C154.035,180.738,158.977,187.093,162.027,187.429 z M132.982,149.696 C133.286,149.591,133.59,149.487,133.894,149.382 C132.872,147.719,132.457,145.754,132.72,143.82 C132.922,141.816,131.457,141.442,130.627,140.395 C130.297,139.851,129.592,139.671,129.042,139.992 C128.703,140.163,128.457,140.473,128.368,140.842 C128.279,141.21,128.355,141.599,128.578,141.906 C129.991,144.522,131.501,147.094,132.982,149.688 z M169.152,98.8942 C169.982,93.2122,166.244,90.7225,163.874,87.5376 C163.433,92.1655,167.089,94.7224,169.152,98.8867 z M127.113,98.1465 C126.251,92.9149,124.48,87.8745,121.879,83.2537 C122.575,88.4946,124.69,93.3467,127.113,98.1091 z M161.586,94.5803 C161.227,94.8295,160.868,95.0788,160.51,95.3279 C163.378,99.7639,166.246,104.2,169.115,108.636 C169.364,108.476,169.613,108.317,169.863,108.157 z M168.943,103.365 C168.689,98.5428,165.107,95.5971,161.945,92.3748 z M124.13,81.0407 C124.705,85.1601,126.425,88.7861,128.279,93.1075 C128.713,87.9039,125.722,84.6592,124.13,81.0033 z"/>
        </defs>
        <use xlink:href="#3" style="fill:#000000;fill-opacity:1;fill-rule:evenodd;opacity:1;stroke:none;"/>
      </g>
    </defs>
    <use xlink:href="#2"/>
  </g>
</svg>
