<?xml version="1.0" encoding="UTF-8"?>
<!-- Generated by Pixelmator Pro 2.4.2 -->
<svg width="454" height="454" viewBox="0 0 454 454" xmlns="http://www.w3.org/2000/svg" xmlns:xlink="http://www.w3.org/1999/xlink">
    <path id="Path" fill="#413c43" fill-rule="evenodd" stroke="none" d="M 203.065323 201.841324 C 204.393326 199.475998 199.914673 197.136017 203.32933 194.385345 C 208.062668 202.665329 212.713333 210.800003 217.430664 219.081345 C 219.318665 214.481323 207.649338 185.665314 201.322678 178.462677 C 200.870667 187.339996 195.514664 194.517334 191.646667 202.320007 C 196.126663 191.141327 195.753342 178.395996 202.278671 168.001343 C 206.918655 160.518677 208.486679 151.65332 213.843994 144.529327 C 219.850662 136.554657 226.709335 129.191467 231.241333 120.086945 C 233.315994 115.953461 237.621338 116.312134 241.716003 116.724274 C 248.572006 117.40213 252.348007 114.06601 253.770676 107.340668 C 254.513321 103.924805 252.321335 99.738007 256.428009 97.066528 C 257.87735 96.135986 256.428009 94.979736 255.564011 94.647461 C 253.504013 93.823334 251.403992 93.318268 249.662659 95.577728 C 247.509338 98.342407 245.276001 101.040527 242.897339 103.552521 C 242.458664 104.17334 241.785339 104.588928 241.034668 104.704407 C 240.282669 104.819611 239.515991 104.624542 238.91066 104.163879 C 241.647995 101.080414 245.145325 98.62146 246.393326 94.55426 C 236.225342 89.915741 231.334671 91.430939 225.566666 100.482269 C 223.685349 103.198273 221.489334 105.683197 219.02533 107.885468 C 216.528 110.264679 213.32399 111.979187 213.258667 116.126007 C 213.258667 116.923615 212.08934 118.106537 211.210678 118.425598 C 198.012009 123.223602 195.594666 135.70401 191.182663 146.656006 C 188.881332 152.345337 187.06134 158.220001 183.392014 163.230652 C 180.734665 166.911987 183.392014 171.205353 181.930664 174.91333 C 181.930664 174.91333 180.469345 176.587982 180.469345 176.587982 C 179.139999 176.428009 178.607986 175.950653 178.901321 174.447998 C 179.353333 172.149323 182.581345 168.693329 178.607986 167.802673 C 176.786667 167.386658 174.873337 167.727997 173.307999 168.746674 C 171.742676 169.766663 170.657333 171.37735 170.301331 173.212006 C 167.444 184.324005 162.326675 194.810669 161.516006 206.44133 C 160.82399 216.32933 154.630661 224.289322 151.573334 233.381332 C 150.736008 235.854675 150.244003 237.541336 151.121338 240.026672 C 153.91333 248.081345 153.115997 256.416016 152.450668 264.697327 C 152.358658 265.733337 152.238663 266.942688 150.695999 267.354675 C 149.367996 259.883972 147.918671 252.468002 146.602676 245.012009 C 146.270676 243.097336 146.602676 240.133347 144.529343 239.947998 C 141.150665 239.390671 137.858658 241.333328 136.714676 244.559998 C 133.697342 252.534668 130.427338 260.507996 127.410271 268.484009 C 125.07093 274.730652 122.266533 280.512024 116.644264 284.606689 C 112.829735 287.397339 111.008934 291.797363 109.001732 295.877319 C 102.356262 309.315979 95.497734 322.56665 86.805473 334.82132 C 80.159866 344.123993 71.493866 351.062653 62.602131 357.921356 C 50.453869 367.305328 35.089199 370.998657 22.954132 380.395996 C 21.6028 381.146637 20.139868 381.675995 18.621201 381.963989 C 16.8668 382.537354 14.753467 383.108002 14.102134 380.889313 C 13.5572 379.013336 15.205334 378.057343 17.012934 377.246674 C 24.463867 374.108002 31.470533 370.006683 37.853733 365.045319 C 38.847866 364.163971 40.022533 363.510651 41.296131 363.130646 C 64.143867 357.681305 76.54467 339.723999 88.639595 322.219971 C 96.282135 311.14801 101.266266 298.297363 107.513206 286.214661 C 108.164665 284.569336 109.198936 283.099976 110.530266 281.934692 C 121.402672 274.718689 123.024132 262.315979 127.809059 251.697327 C 129.510391 247.909348 131.171738 244.107986 132.620407 240.228012 C 134.149338 236.106674 136.487991 233.315994 141.326675 233.70134 C 144.237335 233.940002 145.765335 232.291992 146.64267 229.713333 C 149.860001 220.250671 155.427994 211.637329 155.946671 201.177322 C 156.278671 193.839996 160.970657 187.76535 163.190659 180.934662 C 164.085342 178.708008 164.535995 176.329315 164.518661 173.929352 C 164.068008 167.470673 166.71199 163.190674 173.132004 161.967987 C 178.022659 161.050659 179.990662 157.594666 181.62532 153.646667 C 186.357346 142.29599 190.357346 130.613464 197.296005 120.286255 C 198.425339 118.598267 199.422668 116.870392 201.283997 116.006409 C 211.450668 111.195068 217.657333 102.422791 223.678665 93.544128 C 226.576004 89.264404 230.417343 86.898529 235.334671 87.682678 C 240.251999 88.466797 245.171997 87.842133 250.074661 87.244141 C 256.441315 86.459869 260.894684 89.556793 264.694672 94.261871 C 271.526672 102.675201 274.385345 113.348145 280.645325 122.014008 C 285.37735 128.526794 288.14267 137.365326 298.256012 137.963989 C 300.329315 138.096008 300.596008 139.824005 300.91333 141.246674 C 304.702667 156.252014 308.223999 171.272003 307.786652 186.954681 C 307.653351 191.713348 306.735992 197.90799 315.308014 196.577332 C 318.550659 196.073334 318.910675 199.462662 319.64267 201.574661 C 322.300018 209.32399 322.965332 217.433334 323.802673 225.5 C 324.14798 228.796005 322.686676 233.73999 329.72934 231.599991 C 332.773346 230.684006 341.692017 243.363998 340.73465 247.417343 C 339.977325 250.460007 341.108002 251.12532 343.073334 252.427994 C 352.910675 258.954651 359.542694 268.777344 367.755981 276.990662 C 370.662689 280.017334 372.43335 283.957336 372.766693 288.142639 C 373.246674 303.280029 382.694672 313.222656 391.281342 324.028015 C 402.048004 337.625336 415.52536 348.35202 427.541351 360.606659 C 431.701324 364.873322 437.761353 366.294678 442.545319 370.282684 C 435.036011 373.126678 427.726685 369.445343 413.305328 355.861328 C 413.545319 360.950684 419.830658 362.506683 419.393341 368.329346 C 415.113312 364.953339 413.744019 359.929321 409.663971 357.494659 C 408.693329 358.825317 409.755981 359.715973 410.102661 360.686676 C 410.447998 361.657349 410.608002 363.038666 409.385345 363.515991 C 408.161346 363.994659 407.590668 362.800018 407.033325 361.814667 C 398.078644 345.766693 387.855988 330.458649 376.462646 316.041321 C 366.334686 303.201355 358.171997 289.006653 350.318695 274.585327 C 345.531982 265.786682 341.812012 256.083984 333.835999 249.105331 C 337.333344 256.255981 340.961334 263.366638 344.257324 270.624023 C 345.081329 272.405334 348.723999 274.545349 344.257324 276.817322 C 342.928009 277.468018 344.895996 279.036011 345.585327 280.021362 C 363.569336 306.484009 381.15332 333.251984 400.079987 359.104004 C 401.742676 361.376007 404.785309 362.533325 405.622681 366.773315 C 398.538666 362.054657 394.325317 355.819977 390.11203 349.733307 C 369.08667 319.598694 348.201324 289.350647 327.457336 258.993347 C 315.708008 241.830673 304.675995 224.214661 294.362671 206.147995 C 292.757324 203.065323 290.609344 200.294662 288.021332 197.973328 C 288.593353 197.414673 287.662659 195.249329 289.350677 196.165314 C 290.758667 196.937347 291.569336 198.825333 292.686676 200.153336 C 297.418671 205.708008 299.652008 213.059998 305.459991 217.830673 C 307.878662 225.806656 313.567993 231.76001 318.432007 238.446671 C 316.492004 229.526672 319.269318 220.022659 314.073334 211.343994 C 313.049347 214.229324 312.198669 217.033325 309.619995 212.766663 C 306.243988 207.184006 302.656006 201.722672 299.212006 196.165314 C 295.003998 189.343994 290.811981 182.506683 286.639984 175.657318 C 285.577332 180.149323 287.02533 183.380005 289.297333 186.570648 C 295.942657 196.042664 302.430664 205.62532 308.756012 215.318665 C 311.082672 218.881332 312.742676 222.854675 314.750671 226.643997 C 309.593353 225.313339 309.993317 219.306656 305.354675 217.950668 C 301.459991 207.052002 293.923981 198.492004 287.18399 189.281342 C 287.610657 192.257324 285.722687 195.381317 288.261322 197.920013 C 286.731995 203.130676 289.324005 206.731995 292.156006 210.933334 C 299.612 221.990662 306.257324 233.526672 313.196014 244.985336 C 327.947998 269.214661 344.457306 292.288025 360.313324 315.788025 C 371.494659 332.347992 382.638672 348.928009 393.73999 365.524017 C 394.293335 366.527985 394.404022 367.717316 394.046661 368.806671 C 357.017334 318.565308 321.609344 267.313354 290.241333 212.501343 C 290.015991 221.168015 291.571991 224.556015 299.850677 237.462662 C 317.793335 265.268005 335.977325 292.900024 354.982666 319.987976 C 365.615997 335.206665 376.022675 350.650665 386.537354 365.989349 C 387.121338 366.838654 388.171997 367.542694 386.537354 369.977325 C 356.923981 328.134674 326.633331 287.569336 301.100006 243.708008 C 298.017334 247.802673 298.164001 247.695999 302.430664 254.848007 C 311.546661 270.078674 321.038666 285.110657 331.193329 299.625305 C 344.484009 318.405334 357.615997 337.238678 371.131989 355.819977 C 374.721313 360.751984 376.076019 366.972015 380.262665 371.583984 C 370.708008 363.822662 364.977325 352.897339 357.667999 343.313324 C 350.118652 333.412018 343.313324 322.93866 336.03067 312.822693 C 328.746674 302.709351 321.18399 292.768005 314.843994 281.987976 C 308.335999 270.911987 301.828003 259.835999 295.318665 248.758667 C 294.149323 255.73732 295.318665 259.910645 298.587982 264.575989 C 310.432007 281.417358 321.542664 298.774658 332.906647 315.946655 C 341.798676 329.385345 350.451996 343.008026 359.64798 356.246674 C 363.635986 362.054657 365.868011 368.43335 367.742676 375.158661 C 344.789337 337.571991 317.38266 302.934692 295.305328 264.747986 C 313.91333 302.709351 339.472015 336.694672 358 374.654663 C 336.110657 341.785309 314.710663 308.650696 295.238678 273.414673 C 293.909332 279.476013 295.862671 283.302673 298.507996 287.729309 C 315.227997 315.641357 333.942657 342.437347 349.227997 371.251984 C 350.558685 373.738647 354.186676 376.72934 350.558685 379.932007 C 347.274658 382.828003 343.646637 382.828003 339.685333 380.369354 C 332.82666 376.11734 325.065338 373.52536 318.897339 367.836029 C 316.345337 369.377319 320.358673 371.690674 317.436005 373.15332 C 311.866669 370.708008 310.245331 363.503998 303.268005 359.754669 C 305.5 363.251984 306.949341 365.537354 308.437347 367.809326 C 309.20932 368.993317 311.227997 370.22934 309.301331 371.583984 C 307.374664 372.939972 307.002655 370.667999 306.165314 369.510651 C 305.558685 368.889313 304.853333 368.371979 304.078674 367.982666 C 302.748016 365.802643 301.420013 363.622681 300.090668 361.444 C 296.527985 353.946655 291.43866 347.473358 286.613342 340.801361 C 284.380005 337.717316 282.506683 336.522675 279.14267 338.886658 C 275.980011 341.108002 274.318665 339.459991 272.390656 336.602661 C 266.742676 328.214661 262.090668 319.057312 253.477341 311.733337 C 255.962662 319.90802 262.502655 325.33197 263.605316 333.212006 C 249.489334 313.274658 236.186661 292.91333 226.736008 269.825317 C 225.248001 271.806641 224.848007 276.059998 222.282669 270.837341 C 215.093338 256.217346 207.423996 241.754654 199.861328 227.281326 C 198.677322 225.022659 197.919998 222.430664 195.686661 220.741333 C 193.932007 224.064011 194.796005 227.014664 196.443985 230.046677 C 203.169327 242.580002 208.67334 255.962662 216.753342 267.553345 C 227.599991 283.077332 237.659988 299.054688 247.722672 315.05603 C 259.803986 334.314667 271.64798 353.681305 283.609344 373.046661 C 284.314667 374.190674 285.457336 375.531982 284.208008 377.977325 C 277.90799 370.906647 274.09201 362.865326 269.374664 355.449341 C 255.193344 333.131989 240.771988 310.963989 227.733337 287.942688 C 226.697327 286.094666 225.593338 282.426697 223.226669 283.769348 C 220.356003 285.403992 221.513321 289.08667 222.961319 291.637329 C 232.769333 308.916016 244.320007 325.198669 255.457336 341.665314 C 262.82132 352.538666 269.374664 363.861328 275.980011 375.17334 C 276.817352 376.608002 277.988007 378.175995 277.123993 380.689331 C 271.129333 374.32132 267.966675 366.533325 263.446686 359.689331 C 250.606674 340.217316 238.046677 320.559998 225.313339 301.007996 C 224.342667 299.518677 222.656006 296.596008 221.126663 298.427979 C 219.265335 300.622681 216.821335 304.662659 219.62532 307.268005 C 235.00267 321.542664 243.349319 340.894653 256.12265 357.017334 C 260.787994 362.891998 265.226654 368.97998 269.866669 374.868011 C 271.929352 377.205322 273.199982 380.137329 273.494659 383.241333 C 264.81601 373.605347 257.664001 364.73999 250.780014 355.567993 C 241.024002 342.569336 233.820007 327.843994 223.241333 315.482666 C 212.979996 303.52002 207.822678 288.900024 201.721329 274.810669 C 198.38533 267.161316 194.645325 259.694641 190.517334 252.44133 C 189.585327 256.708008 188.895996 260.854675 191.06134 264.881348 C 199.449341 280.485352 208.047989 295.984009 215.38533 312.133362 C 215.861328 312.873352 216.433334 313.547974 217.08667 314.138672 C 214.268005 313.793335 212.633347 312.278687 211.317337 309.646667 C 204.671997 296.249329 198.186661 282.718689 189.733337 268.736023 C 190.02533 290.761353 205.681335 303.838684 213.564011 321.356018 C 216.049332 318.432007 213.484009 315.029358 217.073318 314.126648 C 216.515991 320.771973 220.302673 324.892029 224.569336 329.385345 C 230.38533 335.380005 235.408005 342.097321 239.509338 349.374664 C 245.024002 359.355988 253.171997 367.43869 259.285339 376.981323 C 260.164001 378.309326 262.756012 379.812012 260.828003 381.248016 C 258.901337 382.682648 257.652008 379.918671 256.507996 378.588013 C 245.157333 364.805328 236.251999 349.347992 225.806656 334.860016 C 223.785339 332.084015 220.596008 330.409332 219.318665 326.885345 C 216.848007 333.078674 217.380005 338.303986 221.71199 343.553345 C 230.138672 353.774658 238.059998 364.406647 246.101334 374.93335 C 247.045334 376.170654 248.918655 377.353363 247.164001 380.35733 C 241.276001 373.100006 235.494675 366.241333 230.031998 359.09201 C 225.26001 352.910675 221.605331 345.61203 215.984009 340.484009 C 211.809326 336.627991 217.498657 332.282684 213.564011 329.465332 C 214.401321 328.134674 215.265335 326.246674 214.309326 325.104004 C 206.998657 316.373352 202.254654 305.925354 194.612 295.385315 C 195.940002 302.522644 195.728012 307.733337 201.110657 312.291992 C 206.494675 316.85199 208.633347 324.254639 213.710678 329.343994 C 213.457336 330.593353 214.401321 332.347992 212.979996 333.013336 C 211.21199 333.824005 210.321335 332.347992 209.417343 330.940002 C 206.492004 325.945313 203.311996 321.105347 199.888 316.43866 C 206.719986 336.986664 219.62532 354.171997 230.05867 372.953339 C 230.05867 372.953339 216.634659 357.349335 216.634659 357.349335 C 216.900009 365.057343 223.028 368.43335 224.010666 374.069336 C 224.250671 375.491974 227.20134 377.046661 224.422668 378.416016 C 222.030655 379.600006 221.605331 376.981323 220.835999 375.638672 C 208.486679 354.014648 196.271988 332.309326 186.782669 309.182678 C 183.513321 315.230652 183.67334 315.150696 186.782669 320.932007 C 195.966675 338.38266 204.950668 355.941315 214.853333 373.006683 C 215.465332 374.042694 218.057327 376.262665 215.251999 377.26001 C 213.403992 377.925323 212.169327 375.306671 211.265335 373.723999 C 203.290665 358.944 195.315994 344.150665 187.726669 329.212006 C 186.145325 326.190674 183.867996 323.588013 181.081345 321.622681 C 179.179993 325.370667 182.064011 327.749329 183.380005 330.156006 C 190.942673 343.951996 198.852005 357.548004 206.598679 371.238647 C 207.450668 372.753326 207.929337 374.508026 208.88533 375.930664 C 209.843994 377.353363 209.577332 378.588013 208.234665 379.17334 C 206.494675 380.010651 206.23999 378.297333 205.681335 377.233307 C 200.006668 366.601318 194.38533 355.968018 188.629333 345.439972 C 185.825333 340.297333 182.794662 335.273346 179.723999 329.955994 C 175.512009 339.26001 183.71199 344.192017 186.570663 350.742676 C 190.078674 358.958649 194.99733 366.560028 199.184006 374.508026 C 200.004013 376.373322 200.67067 378.303986 201.177322 380.277344 C 200.458664 380.601318 199.742676 380.923981 199.024002 381.248016 C 191.753342 367.77066 184.495987 354.293335 176.960007 340.335999 C 174.381332 342.996002 174.062668 344.590668 176.202652 347.793335 C 182.515991 357.242676 188.031998 367.238647 193.893326 377.034668 C 194.718674 378.362671 195.594666 379.692017 193.679993 381.779999 C 185.147995 373.537354 182.809326 361.524017 174.900009 353.029327 C 176.349319 364.991974 184.337341 373.712006 190.929337 383.359985 C 186.689331 382.031982 186.689331 382.031982 176.681335 368.73999 C 176.304001 372.497314 176.122665 376.273315 176.136002 380.052002 C 176.229324 381.951996 176.017334 383.333344 174.156006 383.401337 C 172.56134 383.401337 172.388 381.806671 172.254654 380.463989 C 170.754654 365.045319 171.860001 349.486664 175.52533 334.436005 C 177.62532 325.742676 180.32399 317.369324 183.194656 309.009338 C 184.61467 304.862671 182.117325 301.56665 181.972 297.924011 C 181.705338 291.465332 180.734665 284.900024 183.153336 278.174683 C 177.465332 280.565308 177.43866 287.477356 172.214661 289.790649 C 171.643997 280.059998 179.750671 271.487976 187.659988 274.425354 C 183.964005 269.014648 188.031998 262.794678 184.05867 257.930664 C 188.869324 254.489334 187.06134 249.317337 187.102661 244.878662 C 187.182663 234.366653 192.417343 225.274658 194.585327 215.38533 C 195.622665 210.886658 197.419998 206.598679 199.900009 202.705338 C 201.057327 200.858658 202.094666 202.174667 203.157333 201.961319 C 201.084 205.947998 202.20134 209.244003 204.606674 212.780014 C 206.900009 216.517334 208.993332 220.372009 210.880005 224.330673 C 214.538681 231.171997 218.21199 238.006668 221.898666 244.838669 C 220.901321 227.893326 212.367996 214.693344 203.065323 201.841324 Z M 268.735992 325.929321 C 271.860016 326.048004 272.895996 328.708008 274.478668 330.67334 C 275.395996 331.817352 276.153351 333.862671 277.881317 332.921326 C 279.914673 331.803986 277.881317 330.261322 277.494659 328.933319 C 276.926666 327.540009 276.282684 326.177338 275.567993 324.85199 C 274.238678 322.059998 273.109344 321.370667 271.579987 324.85199 C 271.301331 325.489319 269.679993 325.557312 268.670685 325.889343 C 271.009338 319.417358 272.283997 312.597351 277.455994 307.281311 C 282.308014 302.337341 281.854675 293.737305 286.758667 289.590637 C 292.699982 284.553345 291.915985 278.878662 292.076019 272.895996 C 292.23465 266.916016 292.287994 260.507996 292.076019 254.289322 C 291.982666 252.268005 293.803986 248.693344 290.254669 248.453323 C 287.596008 248.281326 284.593353 249.118668 283.716003 253.278671 C 282.96402 257.397339 280.22934 260.878662 276.405334 262.582642 C 280.059998 257.08136 281.216003 250.846664 283.237335 244.905334 C 285.657318 237.728012 289.737335 230.91066 288.154663 222.921326 C 284.923981 206.719986 284.166656 190.291992 282.838654 173.876007 C 282.129333 167.286652 280.966675 160.754669 279.355988 154.325348 C 276.470673 141.420013 269.85202 129.364258 265.14798 116.8172 C 263.139984 110.989868 260.828003 105.271332 258.222687 99.684814 C 255.445328 103.366394 257.731995 105.745605 258.847992 108.60321 C 264.869324 123.874786 270.398651 139.345337 273.467987 155.548004 C 273.946686 158.059998 276.206665 160.585327 273.467987 164.054657 C 271.966675 159.322662 270.623993 155.122681 269.14798 150.523987 C 266.570648 154.817322 266.689331 158.950653 267.102661 163.070679 C 268.058685 172.839996 268.869324 182.636017 270.223999 192.310669 C 271.579987 201.987991 269.706665 212.009338 273.401337 221.446671 C 274.385345 223.972 272.910675 225.433334 270.609344 226.443985 C 267.126678 227.878662 268.881317 224.490662 267.951996 223.612 C 266.437347 222.283997 266.517334 219.306656 264.044006 219.161331 C 259.723999 232.291992 254.116013 244.414673 243.58934 253.557327 C 242.458664 254.554672 241.024002 255.300003 241.582657 257.306641 C 243.150681 262.954651 244.23999 268.750671 246.219986 274.252014 C 247.430664 277.642639 249.796005 278.558655 252.229324 274.638672 C 253.841324 272.529358 255.619995 270.550659 257.545319 268.723999 C 257.425323 272.870667 255.457336 274.982666 253.955994 277.203979 C 252.627991 279.142639 250.234665 280.565308 251.072006 283.409363 C 253.43866 291.518677 254.28801 300.078674 258.886658 307.534668 C 262.395996 313.487976 265.41333 319.841309 268.697327 325.968018 Z M 224.794662 213.950668 C 224.609329 214.550659 224.485336 215.171997 224.422668 215.797348 C 224.422668 222.309326 230.05867 227.918655 227.481323 234.975998 C 227.161331 235.866653 228.570663 237.914673 230.245346 238.325333 C 234.443985 239.375992 236.291992 241.849319 236.692001 246.300003 C 237.009338 249.916 239.349319 250.900009 241.796005 247.537338 C 248.58667 238.325333 254.501343 228.570663 256.149323 217.033325 C 256.721344 213.045334 257.625336 210.388 261.758667 209.258667 C 262.981323 208.926682 265.001343 208.992004 264.522675 206.479996 C 263.194672 199.979996 264.629333 193.401337 263.339996 186.756012 C 261.333344 176.362671 260.044006 165.769348 261.214661 155.015991 C 261.585327 151.626678 264.110657 148.105347 262.235992 144.847992 C 258.661346 138.627991 254.501343 132.753326 250.633347 126.705994 C 248.918655 124.047607 246.353333 125.071075 246.473328 127.024933 C 246.858658 133.205322 241.834671 134.880005 238.5 137.937347 C 236.545334 139.718658 235.056015 142.057343 235.507996 144.223999 C 236.837341 150.537323 234.591995 156.332001 234.179993 162.286652 C 233.226669 172.590668 231.17334 182.764008 228.052002 192.630676 C 226.881332 196.618683 230.604004 201.296005 225.898666 205.098679 C 225.034668 205.802673 227.226669 210.241333 227.998657 212.953323 C 228.291992 213.989334 228.809326 215.398666 227.811996 215.916 C 226.085327 216.821335 226.097336 214.214661 224.755997 213.989334 Z M 350.171997 378.110687 C 340.457336 358.905304 326.965332 342.223999 316.465332 323.749329 C 310.257324 312.796021 303.85202 301.952026 297.513336 291.078674 C 296.527985 289.377319 295.957336 286.506653 293.152008 288.036011 C 290.347992 289.564026 292.459991 291.291992 293.472015 292.940002 C 295.278656 295.903992 296.966675 298.961304 298.787994 301.952026 C 313.40799 326.753326 328.627991 351.262665 344.670654 375.226685 C 345.838654 377.140015 346.529327 379.359985 350.131989 378.150665 Z M 343.406647 379.134674 C 323.802673 350.650665 305.274658 321.569336 289.17868 290.534668 C 286.521332 295.625305 286.521332 295.572021 288.699982 299.268005 C 302.522675 322.778687 317.449341 345.588013 332.56134 368.249359 C 335.52533 372.699982 337.785339 377.286652 343.366669 379.17334 Z M 217.445328 298.73468 C 215.782669 276.271973 199.834671 259.990662 192.073318 239.574661 C 189.573318 244.572006 208.380005 288.686646 217.403992 298.774658 Z M 286.201324 299.957336 C 285.134674 300.400024 284.065338 300.843994 282.997345 301.286682 C 286.985321 314.485352 296.608002 324.812012 304.052002 336.190674 C 311.85202 348.150665 317.20932 362.001343 329.96933 370.149323 C 314.033325 347.593353 299.040009 324.453308 286.161346 299.998657 Z M 200.405334 209.49733 C 196.417343 218.057327 196.417343 218.057327 220.860001 257.945313 C 219.678665 239.748001 206.545334 226.656006 200.405334 209.49733 Z M 252.414673 308.544006 C 251.08667 305.366638 249.105331 302.310669 248.521347 299.001343 C 246.035995 284.83197 236.718674 273.90802 231.014664 261.280029 C 230.192001 259.445313 227.440002 261.028015 225.791992 261.161316 C 224.143997 261.294678 225.32666 262.954651 225.990662 264.097351 C 228.304001 268.085327 230.484009 272.073303 232.636002 276.059998 C 238.512009 287.317322 244.533325 298.454651 252.37468 308.544006 Z M 218.933334 283.941345 C 213.962662 264.190674 201.162659 248.054672 193.840012 229.248001 C 190.835999 232.331985 190.982666 234.352005 193.254654 237.222672 C 195.793335 240.400009 197.044006 244.572006 199.104004 248.147995 C 205.882675 259.898682 211.889343 272.112 218.894669 283.941345 Z M 307.985321 349.626678 C 300.010651 336.721344 291.942657 323.788025 283.822662 310.937317 C 283.09201 309.793335 282.878662 306.830688 280.220001 308.730652 C 278.067993 310.257324 279.716003 311.840027 280.538666 313.209351 C 286.188019 322.513306 291.942657 331.817352 297.537323 341.121338 C 299.936005 345.108002 303.664001 348.118652 308.065338 349.626678 Z M 218.522659 204.923996 C 219.638672 190.505341 210.547989 179.670685 204.778671 167.70932 C 202.878662 182.436005 214.454666 192.35202 218.549332 204.923996 Z M 185.785339 281.708008 C 181.55867 296.515991 188.576004 308.105347 196.126663 319.562683 C 192.590652 306.976013 189.014664 294.389343 185.785339 281.708008 Z M 282.811981 154.285339 C 282.811981 156.43866 282.811981 158.206665 282.811981 159.961334 C 282.811981 161.289337 283.423981 161.954681 284.805328 161.914673 C 286.188019 161.874664 286.625336 161.262665 286.731995 159.921326 C 287.078674 155.189331 288.633331 151.945343 292.540009 147.519989 C 293.418671 146.536011 293.68399 145.553345 292.661346 144.716003 C 290.670685 142.890656 288.112 141.805328 285.417328 141.645325 C 284.977325 141.645325 282.652008 141.85733 283.370667 143.266663 C 285.470673 147.34668 281.057343 150.802673 282.811981 154.285339 Z M 352.869354 272.990662 C 357.450684 281.509338 362.031982 290.028015 366.613312 298.549316 C 368.089325 286.746643 362.652008 278.692017 352.895996 272.990662 Z M 328.201324 245.225342 C 324.213348 256.82666 335.578674 262.064026 339.418671 270.544006 C 337.558685 261.386658 332.639984 253.492004 328.227997 245.225342 Z M 223.705338 183.818665 C 222.774658 173.185333 218.681335 163.536011 213.32399 154.338654 C 214.481323 164.932007 220.076004 174.009338 223.731995 183.818665 Z M 220.581345 193.029327 C 221.126663 192.842682 221.67067 192.657318 222.217331 192.470673 C 218.268005 181.502655 214.321335 170.532013 210.373337 159.56134 C 209.487991 159.862671 208.602661 160.164001 207.716003 160.465332 C 208.805344 172.441315 217.883987 181.638672 220.607986 193.029327 Z M 288.048004 332.096008 C 284.725342 326.23465 281.696014 320.812012 278.558685 315.441345 C 278.079987 314.604004 277.429352 313.289307 276.126678 313.97998 C 275.43866 314.473328 274.961334 315.209351 274.79599 316.041321 C 273.839996 320.201355 282.625336 331.498657 288.048004 332.096008 Z M 236.412003 265.014648 C 236.953323 264.828003 237.493332 264.643982 238.033325 264.457336 C 236.217331 261.5 235.478653 258.006653 235.946671 254.569336 C 236.305344 251.006668 233.70134 250.341324 232.225342 248.479996 C 231.638672 247.513321 230.38533 247.193344 229.408005 247.763992 C 228.805344 248.067993 228.367996 248.618668 228.209335 249.274658 C 228.052002 249.929337 228.186661 250.619995 228.582657 251.166672 C 231.094666 255.817337 233.780014 260.389343 236.412003 265.001343 Z M 300.714661 174.701324 C 302.190674 164.600006 295.545319 160.17334 291.332001 154.510681 C 290.548004 162.738678 297.046661 167.283997 300.714661 174.688019 Z M 225.978653 173.372009 C 224.446671 164.070679 221.297348 155.110657 216.67334 146.895996 C 217.91066 156.212006 221.67067 164.838654 225.978653 173.305328 Z M 287.264008 167.032013 C 286.625336 167.47467 285.988007 167.917328 285.350677 168.361328 C 290.449341 176.246674 295.548004 184.133331 300.649323 192.019989 C 301.09201 191.73465 301.534668 191.451996 301.978668 191.167999 Z M 300.342682 182.649323 C 299.891998 174.076019 293.524017 168.838654 287.902679 163.110657 Z M 220.67601 142.961334 C 221.697327 150.283997 224.755997 156.730652 228.052002 164.41333 C 228.822678 155.162659 223.505325 149.394653 220.67601 142.894653 Z"/>
</svg>
