<?xml version="1.0" encoding="UTF-8"?>
<!-- Generated by Pixelmator Pro 2.4.2 -->
<svg width="341" height="341" viewBox="0 0 341 341" xmlns="http://www.w3.org/2000/svg" xmlns:xlink="http://www.w3.org/1999/xlink">
    <path id="Path" fill="#413c43" stroke="none" d="M 287.011993 217.526672 C 287.334686 220.970673 290.604004 222.131989 292.428009 224.397339 C 293.41333 225.621338 294.830658 226.514679 295.714661 227.933319 C 292.096008 227.490662 290.254669 224.76535 288.081329 222.453339 C 287.242676 221.533325 286.238678 219.829315 284.91333 221.238678 C 283.817352 222.40799 285.649323 223.134674 286.32132 223.945343 C 288.164001 226.210663 290.153351 228.402679 292.639984 231.313324 C 289.269318 230.742676 288.310669 228.402679 286.625336 227.021332 C 284.940002 225.639984 284.166656 223.015991 281.366669 223.226654 C 279.782684 220.46402 280.133331 216.845337 277.68399 214.37735 C 273.161346 209.882675 268.47467 205.526672 264.35733 200.656006 C 262.598663 198.574661 261.594666 198.473328 259.82666 199.734665 C 262.737335 202.994675 265.35202 206.393326 268.47467 209.311996 C 273.078674 213.667999 275.951996 219.654663 281.486664 223.125336 C 282.96933 226.809326 285.428009 229.849335 287.685333 233.201324 C 269.865326 216.522675 253.610657 198.150681 234.270676 183.222672 C 233.935989 183.529343 233.601334 183.835999 233.266663 184.142654 C 234.529343 185.893326 235.458664 188.066666 237.098679 189.337341 C 248.416 198.205338 256.677338 210.104004 267.378662 219.570648 C 270.306671 222.167999 272.654663 225.639984 275.933319 227.601349 C 281.274658 230.806671 282.380005 236.70932 285.805328 241.056 C 286.102661 241.553314 286.130676 242.165314 285.880005 242.686676 C 284.808014 243.574677 283.289337 243.681335 282.104004 242.953339 C 278.742676 240.64267 274.93866 239.076019 271.835999 236.322662 C 269.156006 233.937347 266.309326 231.718658 262.322662 230.981323 C 264.587982 233.449341 266.806671 235.96402 269.146667 238.349335 C 270.150665 239.361328 271.355988 240.660004 270.205353 241.645325 C 269.054657 242.630676 267.636017 241.333344 266.798676 240.246674 C 258.233337 229.001343 247.357346 219.847992 238.765335 208.390671 C 238.286667 210.71199 237.678665 212.425339 240.073318 214.735992 C 245.276001 219.756012 249.806656 225.493317 254.549332 230.981323 C 257.220001 234.085327 259.808014 237.262665 262.368011 240.466675 C 262.940002 241.185333 264.633331 241.866669 263.473328 242.962677 C 262.313324 244.058685 261.134674 242.806671 260.489349 241.830658 C 255.636002 234.462677 249.12532 228.374664 243.840012 221.32132 C 242.199997 219.14798 240.375992 217.102661 238.636002 214.994659 C 236.241333 217.453339 238.258667 219.368011 239.47467 221.062653 C 244.078674 227.445343 249.686661 233.034668 255.065323 238.717316 C 256.713348 240.374664 258.094666 242.274658 259.164001 244.353333 C 254.79866 244.067993 253.472 240.227997 251.427994 238.071991 C 246.73999 233.136017 241.858658 228.273346 237.992004 222.582672 C 237.43866 221.772003 236.738663 220.593353 235.449341 221.661346 C 233.699997 223.153351 235.91066 223.134674 236.370667 223.706665 C 241.085327 230.152008 245.893326 236.497345 250.580002 242.953339 C 251.077332 243.644012 252.375992 244.40799 250.985336 246.194672 C 245.119995 240.346649 241.582657 232.749329 235.624008 227.160004 C 237.539993 232.933319 241.850662 237.335999 244.446671 242.705353 C 244.908005 243.625336 245.634659 244.46402 246.132004 245.393341 C 246.888 246.802673 245.580002 247.806671 244.934677 248.478668 C 243.968002 249.482666 243.277328 248.294647 242.567993 247.410675 C 234.473328 237.345337 227.401321 226.570648 220.290665 215.813324 C 219.757324 215.021332 219.776001 213.630676 218.348007 213.566681 C 216.054672 219.027985 219.637329 222.932007 222.280014 226.698669 C 227.32666 233.901337 232.945328 240.706665 238.322678 247.667999 C 239.031998 248.589325 240.587997 249.308014 239.750671 250.708008 C 238.690674 252.466675 238.129333 250.496002 237.346664 250.145325 C 236.849319 249.925323 236.729324 250.293335 236.425339 250.625336 C 234.989334 252.11734 234.998657 252.024017 233.662659 250.524017 C 228.035995 244.077332 222.758667 237.354675 217.71199 230.447998 C 217.307999 229.885345 217.214661 228.282684 215.926682 229.241333 C 214.637329 230.198669 216.091995 230.733337 216.542664 231.332001 C 221.58934 237.967987 226.645325 244.605316 231.710678 251.241333 C 232.245346 251.950653 232.632004 252.779999 233.386658 254.003998 C 229.777328 253.654663 227.962662 255.93866 226.018677 257.918671 C 221.82933 250.717316 215.059998 245.661346 210.584 238.127991 C 208.935989 240.890656 209.921326 242.373322 211.238663 244.011993 C 215.151993 248.855988 218.909348 253.838654 222.703995 258.748016 C 223.613342 259.750671 224.081345 261.078674 224.00267 262.430664 C 217.556015 256.803986 213.485336 249.713348 208.116013 243.644012 C 209.728012 250.347992 216.174667 254.465332 217.132004 261.546661 C 217.132004 261.546661 207.195999 247.254669 207.195999 247.254669 C 204.331985 255.717316 213.577332 258.839996 214.222672 265.598663 C 212.067993 263.038666 209.793335 260.570648 207.776001 257.909332 C 205.08667 254.32666 202.738663 254.47467 199.994675 258.470673 C 198.335999 260.884003 197.67334 264.079987 194.468002 265.294647 C 197.296005 261.169342 197.682663 255.248016 203.594666 253.369324 C 204.883987 252.96402 204.119995 251.712006 204.304001 250.828003 C 205.225342 246.222687 205.805344 241.618683 207.646667 237.170685 C 208.43866 235.264008 210.253342 235.328003 211.146667 233.946686 C 213.145325 230.981323 212.325333 227.233337 214.526672 224.442657 C 212.398666 223.521332 212.278671 225.962677 210.685349 225.428009 C 210.685349 225.069336 210.630676 224.571991 210.842667 224.332001 C 214.388 220.17868 216.726669 215.629333 216 209.93866 C 215.889343 209.081345 216.330673 208.096008 215.244003 207.544006 C 213.845337 206.834671 206.642654 209.302673 205.638672 210.785339 C 203.26268 214.303986 200.942673 217.868011 198.373337 221.22934 C 197.406662 222.5 195.794662 223.282684 194.357346 224.378662 C 197.470657 219.506683 200.381332 214.552002 203.705338 209.892014 C 205.942673 206.770676 207.462662 203.528 206.790665 199.76268 C 205.685349 193.573318 204.671997 187.394669 204.893326 181.030655 C 204.528 180.953323 204.162659 180.877335 203.797348 180.800003 C 199.367996 188.168015 194.946671 195.599991 190.038681 203.82399 C 189.348007 199.117325 193.372009 197.377335 193.29866 193.573318 C 190.903992 194.650681 189.394669 196.722672 187.773331 198.490662 C 181.32666 205.5 174.962662 212.397339 166.315994 217.121338 C 163.17601 218.843994 161.894669 224.046661 159.869339 227.712006 C 159.042664 229.369324 157.918671 230.861328 156.553329 232.114655 C 155.342667 231.049347 154.597336 229.550659 154.481339 227.942657 C 155.862671 226.910675 156.70134 229.67334 157.733337 228.282684 C 158.653336 227.104004 157.632004 226.100006 156.811996 225.078674 C 155.365341 223.171997 154.049332 221.394684 154.582657 218.466675 C 154.841324 217.093353 153.090668 214.874664 151.673325 213.76001 C 150.254669 212.645325 148.91066 214.681335 148.043991 215.527985 C 141.707993 221.486664 135.750671 227.850677 129.322128 233.708008 C 123.566399 238.957336 116.291069 241.590668 109.347198 244.702667 C 109.129333 244.362671 108.911339 244.021332 108.693329 243.681335 C 110.903595 241.746674 112.82827 239.167999 115.388527 237.970673 C 125.389732 233.283997 131.698135 224.461334 139.461334 217.278656 C 142.482666 214.514679 145.290665 211.320007 148.744003 209.210678 C 152.382675 206.982666 156.517334 208.363998 159.933334 210.435989 C 163.506668 212.609329 166.518661 213.38266 169.548004 209.736008 C 170.58934 208.482666 173.91333 208.446671 171.878662 205.729324 C 170.165329 203.435989 168.470657 199.421326 164.510666 204.375992 C 168.470657 197.698669 163.395996 193.00267 161.931992 187.651993 C 161.398666 185.726669 160.394669 186.464005 158.856003 186.730667 C 152.649338 187.734665 150.356003 192.965332 147.068008 197.045334 C 146.147995 198.205338 145.281326 199.37468 143.513336 201.557327 C 144.361343 197.026672 145.964005 194.12532 148.210663 192.210678 C 154.242661 187.062668 153.266663 179.916 154.251999 173.367996 C 155.568008 164.619995 155.475998 155.78801 155.171997 145.740005 C 152.087997 150.878662 149.563995 155.069336 147.068008 159.269333 C 144.811996 163.062668 142.721329 166.958664 140.309341 170.633347 C 137.546677 174.814651 134.52533 178.433334 129.524796 180.653336 C 123.999199 183.102661 119.790535 187.835999 115.232002 191.850662 C 108.260529 197.985336 101.206268 204.034668 93.12973 208.67601 C 89.031593 211.02533 85.071602 213.750671 79.113197 215.223999 C 84.638802 210.325333 89.777596 207.166672 94.769066 203.831985 C 101.346001 199.296005 107.462532 194.126663 113.031067 188.397339 C 116.990936 184.465332 121.089073 180.302673 125.924004 177.678665 C 134.893326 172.78801 138.549332 164.038666 143.486664 156.146667 C 146.157333 151.882675 148.477341 147.398666 151.185333 143.161331 C 155.522659 136.365341 157.695999 136.46666 161.94133 143.373337 C 162.318665 144 162.622665 144.763992 163.534668 144.837326 C 163.258667 146.901337 165.274673 147.895996 165.762665 149.636002 C 166.481339 152.205338 167.844009 152.223999 169.538666 150.381332 C 170.257339 149.598663 171.104004 148.945328 171.822678 148.162674 C 173.305344 146.531998 175.617325 145.003998 175.912003 143.161331 C 176.133347 141.79866 173.074661 140.923996 171.445328 139.874664 C 170.634659 139.358658 170.726669 137.82933 169.483994 137.904007 C 167.807999 140.582657 168.727997 145.270676 163.506668 144.865341 C 168.332001 140.398666 167.918671 134.182663 168.958664 128.454666 C 169.373337 126.207596 169.73201 123.960526 170.045334 121.695068 C 170.174667 120.700531 172.541336 118.53627 168.70134 119.356003 C 167.595993 119.595337 168.599991 117.854797 169.106674 117.458801 C 172.569336 114.751328 173.618668 110.39534 176.280014 107.080002 C 179.12532 103.534409 176.510666 99.141602 175.966675 95.190796 C 175.478653 91.617599 173.609329 88.293076 173.443985 84.388397 C 170.745346 85.217209 170.478668 87.703735 169.345337 89.536392 C 161.076004 102.8284 152.772003 116.095871 144.434662 129.338791 C 141.570663 133.944 136.569336 136.292007 133.245193 140.464005 C 129.054932 145.694672 125.187065 151.736008 119.781197 155.309341 C 112.920265 159.849335 109.494537 166.286667 105.598938 172.806656 C 104.695335 174.297348 103.528267 175.610657 102.154663 176.684006 C 104.779335 172.649338 102.06266 167.944 103.241333 163.20134 C 101.399597 162.529343 100.754936 159.628006 99.557732 156.846664 C 90.919334 166.755997 79.297333 172.346664 69.517067 180.257324 C 65.133469 183.802673 60.722263 187.32933 56.624134 191.159988 C 48.335735 198.905334 37.4688 202.119995 27.771467 207.360001 C 24.170668 209.311996 20.781599 211.964005 16.158533 211.770676 C 13.954666 211.573318 11.770786 211.194656 9.629173 210.638672 C 21.720934 207.258667 31.243334 200.231995 41.944534 195.728012 C 47.947601 193.065323 53.341465 189.20134 57.793598 184.373337 C 67.085732 174.730667 78.127731 167.418671 88.718407 159.507996 C 91.020668 157.786667 93.405861 156.035995 94.649071 153.282669 C 96.113464 150.041336 98.332802 149.065338 101.638939 150.667999 C 103.269066 151.460007 105.322662 151.800003 106.510674 153.006668 C 110.102264 156.690659 112.542664 155.852005 115.581734 152.085342 C 120.693062 145.76799 125.795067 139.321335 131.817871 133.979996 C 143.587997 123.527725 149.535995 109.198135 158.285324 96.737991 C 162.41066 90.853333 165.762665 84.544922 169.335999 78.319458 C 171.096008 75.280396 173.526672 73.908264 176.473328 73.991058 C 179.419998 74.074005 180.268005 76.569733 181.557327 79.157471 C 186.557327 89.186401 193.050659 98.165466 203.659988 103.028 C 204.853333 103.471863 205.781326 104.433868 206.182663 105.643326 C 208.723999 111.832001 211.118668 118.140396 214.397339 123.923737 C 216.146667 126.999603 216.929337 132.773865 223.311996 130.315063 C 225.070663 129.633469 226.286667 131.668808 227.244003 132.976532 C 232.318665 139.938675 238.21199 145.722672 246.122665 149.682663 C 252.62532 152.933334 256.446686 159.507996 261.328003 164.721329 C 263.501343 167.041336 265.693329 168.662674 269.081329 168.874664 C 272.074677 169.068008 274.478668 171.102661 275.961334 173.662659 C 282.141327 184.300003 290.917328 192.468002 300.623993 199.697327 C 305.145325 203.067993 308.119995 207.985336 312.982666 210.960007 C 315.302673 212.360001 317.652008 213.722687 319.917328 215.17868 C 320.662659 215.657318 321.46402 216.513336 320.608002 217.406647 C 320.303986 217.720001 319.115997 217.563995 318.581329 217.222687 C 315.957336 215.518677 313.415985 213.696014 310.137329 212.618668 C 311.978668 214.524017 313.885345 216.477325 315.828003 218.328003 C 316.445343 218.926666 317.670685 219.174652 316.675995 220.335999 C 315.681335 221.496002 315.100006 220.335999 314.529327 219.773346 C 309.003998 214.488007 303.644012 209.118668 298.100006 203.906662 C 294.992004 200.973328 291.637329 198.313339 288.071991 195.958664 C 295.033325 206.171997 305.108002 213.455994 313.85733 222.361328 C 311.196014 222.021332 310.17334 220.160004 303.846649 215.473328 C 290.594666 205.693344 282.048004 191.970657 271.973328 179.557327 C 270.131989 177.291992 268.576019 176.094666 265.997345 178.258667 C 265.167999 178.949341 264.928009 179.501343 265.712006 180.468002 C 269.754669 185.460007 273.733337 190.506668 277.72934 195.534668 C 278.03598 195.277328 278.343994 195.018677 278.650665 194.761337 C 274.733337 189.849319 270.81601 184.93866 266.899994 180.026672 C 267.206665 179.741333 267.513336 179.455994 267.820007 179.17067 C 281.017334 193.149338 291.193329 209.91066 306.130676 222.380005 C 300.605316 219.865326 297.32666 214.488007 291.874664 211.79866 C 294.573334 216.578674 299.601349 219.544006 302.23465 224.442657 C 295.052002 219.341339 289.600006 212.470657 282.96933 206.751999 C 287.233337 214.018677 292.906647 220.133331 298.726654 226.201324 C 295.042664 225.538666 293.385345 222.250671 290.825348 220.197327 C 289.563995 219.193329 288.982666 217.286652 286.837341 217.573334 C 286.828003 216.985321 286.70932 216.403992 286.488007 215.860016 C 279.065338 205.076004 269.56134 196.050659 261.226654 186.039993 C 249.751999 172.226669 237.705338 158.946671 225.862671 145.520004 C 225.08934 144.598663 224.776001 142.065338 222.67601 144.045334 C 221.037338 145.584 222.197327 146.597336 223.432007 147.729324 C 233.87468 157.233337 242.900009 168.137329 252.330673 178.562668 C 261.76001 188.986679 270.832001 199.744003 279.756012 210.591995 C 281.854675 213.059998 283.273346 216.679993 287.011993 217.526672 Z M 246.270676 176.32399 C 248.380005 179.758667 251.242676 182.669327 254.641342 184.833328 C 251.934677 181.895996 250.534668 177.834671 246.593338 175.97467 C 245.49733 172.419998 242.117325 170.76268 239.934677 168.099991 C 235.164001 162.279999 230.02533 156.745331 225.034668 151.099991 C 224.656006 151.437332 224.278671 151.776001 223.901321 152.113327 C 231.112 160.391998 237.982666 168.975998 246.270676 176.32399 Z M 214.038681 139.487991 C 215.078674 142.388 217.584 144.146667 219.794662 147.408005 C 220.263992 143.465332 223.118668 141.190659 222.354675 137.406662 C 221 137.940002 219.047989 138.225327 218.946671 138.814667 C 217.831985 145.612 215.870667 139.045334 214.342667 139.165329 C 214.195999 138.431992 213.935989 137.726669 213.567993 137.074661 C 207.721329 129.707199 201.881332 122.339737 195.933334 115.147324 C 191.539993 109.796799 186.972 104.59346 182.486679 99.325867 C 182.311996 101.278137 181.677322 103.129196 183.150681 104.335602 C 189.20134 109.281067 193.649338 115.644669 198.722672 121.474136 C 203.797348 127.303604 208.245346 134.053329 214.020004 139.478668 Z M 176.225342 160.447998 C 176.842667 161.801331 175.994675 162.381332 175.304001 162.934662 C 174.613342 163.486664 173.010666 163.85466 174.466675 165.162674 C 175.52533 166.084 177.229324 168.054672 177.97467 167.35466 C 181.796005 163.615997 186.806656 161.487991 190.564011 157.786667 C 191.736008 156.47467 191.736008 154.492004 190.564011 153.181335 C 188.841324 151.46933 188.638672 154.222672 187.580002 154.636002 C 186.658676 155.005325 186.17067 156.321335 184.817337 155.861343 C 184.872009 153.890671 186.750671 153.32933 187.690674 152.066666 C 188.629333 150.805328 190.370667 149.350662 190.112 148.447998 C 188.905334 144.373337 188.591995 140.085342 189.192001 135.877335 C 184.033325 142.516006 178.015991 148.440002 171.29866 153.494675 C 167.365341 156.349335 169.953323 158.772003 171.445328 161.202667 C 173.333328 164.490662 174.373337 160.50267 176.206665 160.438675 Z M 179.475998 111.537338 C 179.141342 112.359467 179.337341 113.302536 179.973328 113.922531 C 183.99733 119.595337 189.062668 124.365738 193.574661 129.578262 C 201.126663 138.307999 207.646667 147.886673 215.455994 156.524002 C 220.872009 162.529343 225.06134 169.841324 230.522659 175.937332 C 234.681335 180.398666 239.590652 184.096008 245.028 186.860001 C 239.870667 180.781326 234.08667 175.32933 229.113342 169.205338 C 216.487991 153.660004 204.487991 137.609329 191.659988 122.238403 C 188.280014 118.195602 186.189331 112.02533 179.457336 111.528137 Z M 261.042664 196.76001 C 249.898666 184.630676 238.692001 172.576004 227.649338 160.365341 C 213.550659 144.773331 201.486679 127.515335 187.985336 111.436005 C 186.419998 109.594131 185.222672 107.29187 182.653336 106.435333 C 182.653336 109.281067 184.817337 111.039993 186.337341 112.881866 C 205.345337 135.905334 223.432007 159.748001 243.765335 181.674667 C 248.978653 187.293335 253.417343 193.757324 261.024017 196.750671 Z M 227.78801 143.125336 C 227.514664 143.330673 227.241333 143.535995 226.968002 143.742661 C 229.325333 146.606674 231.573318 149.52533 234.041336 152.306671 C 248.370667 168.576004 262.718658 184.846664 277.085327 201.116013 C 277.720001 201.825333 278.005341 203.629333 279.277313 202.681335 C 280.548004 201.733337 279.478668 200.554672 278.660004 199.559998 C 266.982666 185.432007 256.667999 170.164001 242.678665 158.006668 C 237.37468 153.374664 232.714661 148.080002 227.769333 143.115997 Z M 193.022659 138.953323 C 192.268005 143.926666 232.373337 192.689331 238.73732 195.23999 C 237.613342 192.422668 235.338669 190.423996 233.52533 188.102661 C 225.440002 177.770676 217.277328 167.496002 209.037338 157.279999 C 208.28801 156.543991 207.317337 156.074661 206.274658 155.944 C 205.014664 155.786667 203.947998 154.937332 203.512009 153.744003 C 201.550659 147.931992 196.82666 144.146667 193.022659 138.953323 Z M 194.210678 147.241333 C 193.584 151.486664 195.297348 153.862671 197.406662 156.184006 C 208.042664 167.906662 218.164001 180.064011 228.137329 192.357346 C 229.05867 193.528 231.453323 194.55867 228.91066 196.639999 C 230.504013 196.087997 232.097336 195.534668 233.690674 194.982666 C 220.12532 179.373337 206.97467 163.965332 194.210678 147.250671 Z M 191.181335 190.728012 C 181.050659 176.91333 168.930664 166.26799 159.510666 152.591995 C 158.110672 156.276001 159.371994 158.117325 161.076004 160.061325 C 168.138657 168.026657 174.889343 176.306656 182.340012 183.88533 C 184.559998 186.150681 185.986679 189.862671 191.181335 190.728012 Z M 240.542664 195.599991 C 252.929337 209.587997 263.114655 225.85202 280.262665 235.198669 C 266.810669 222.238678 253.567993 209.038681 240.533325 195.599991 Z M 204.994675 122.2108 C 197.838669 110.625595 190.406662 99.325867 180.221329 90.134933 C 185.875992 102.797729 196.992004 111.371475 204.994675 122.2108 Z M 232.382675 222.932007 C 236.582657 217.526672 237.457336 211.881332 234.657333 205.573318 C 234.022659 204.154663 234.317337 201.484009 232.042664 202.56134 C 230.32933 203.372009 226.056015 204.02533 228.782669 207.866653 C 230.992004 210.987991 230.82666 214.405334 230.780014 217.894684 C 230.781326 219.662659 230.513321 221.533325 232.363998 222.932007 Z M 208.678665 191.666672 C 208.147995 192.059998 207.616013 192.453323 207.085327 192.845337 C 214.729324 204.118668 222.372009 215.390656 230.015991 226.662659 C 230.409348 226.403992 230.802673 226.146667 231.194656 225.889343 C 224.573318 213.917328 216.174667 203.08667 208.678665 191.666672 Z M 258.289337 169.00267 C 252.192001 163.634659 250.091995 153.927994 239.484009 151.993332 C 245.736008 158.706665 251.520004 164.408005 258.297333 169.00267 Z M 197.626663 179.621338 C 197.544006 179.271988 197.572006 178.902664 197.397339 178.699997 C 193.916 174.730667 190.406662 170.789322 186.926682 166.82933 C 186.17067 165.964005 185.646667 166.461334 185.084 167.031998 C 184.522659 167.602676 183.804001 168.321335 184.725342 169.279999 C 188.251999 172.898666 191.171997 177.06134 195.361328 180.072006 C 196.365341 180.763992 197.222672 181.334671 197.626663 179.621338 Z M 179.55867 189.908005 C 179.831985 189.601334 180.105331 189.294662 180.378662 188.986679 C 172.890671 181.721329 166.766663 173.146667 158.49733 166.64534 C 158.122665 167.001328 157.748001 167.35733 157.373337 167.713333 Z M 186.778671 129.541458 C 186.198669 123.094925 181.161331 119.30986 177.154663 114.907867 C 177.533325 121.446396 183.353333 124.789474 186.778671 129.541458 Z M 232.825333 246.177338 C 233.132004 245.909332 233.43866 245.64267 233.746658 245.376007 C 228.330673 238.007996 222.909348 230.662659 217.482666 223.337341 C 220.097336 232.730682 227.208008 238.910675 232.797348 246.149323 Z M 175.940002 120.976791 C 174.870667 122.376541 173.70134 124.181595 175.018677 125.194672 C 177.781326 127.257462 179.291992 130.37027 181.934677 132.43306 C 182.662659 132.994934 183.28801 134.505325 184.466675 133.270676 C 185.166672 132.543594 184.716003 131.585861 184.070663 130.80307 C 181.510666 127.62587 179.521347 123.942123 175.940002 120.976791 Z M 203.512009 172.843994 C 203.594666 171.241333 195.28801 161.442673 194.118668 161.46933 C 192.949341 161.49733 191.116013 162.244003 192.185349 163.496002 C 195.132004 166.949326 197.710678 170.863998 201.596008 173.377335 C 202.231995 173.801331 203.392014 173.690674 203.512009 172.843994 Z M 158.433334 161.423996 C 161.130661 168.330673 167.900009 171.470657 172.550659 176.591995 C 168.065338 171.305344 164.381332 165.337326 158.433334 161.423996 Z M 195.325333 157.951996 C 199.44133 164.931992 205.096008 170.513321 211.099991 175.790665 C 206.835999 168.938675 201.182663 163.311996 195.325333 157.914658 Z M 158.101334 172.401321 C 162.014664 178.958664 168.406662 183.139999 173.875992 188.250671 Z M 190.333328 163.818665 C 188.390671 164.545334 188.124008 165.421341 188.805344 166.203995 C 191.881332 169.702667 195.049332 173.129333 198.198669 176.554672 C 198.686661 177.08934 199.202652 177.014664 199.745346 176.554672 C 200.666672 175.744003 199.919998 175.192001 199.469345 174.713333 C 197.084 172.014664 194.634659 169.381332 192.277328 166.664001 C 191.545334 165.745331 190.872009 164.782669 190.26001 163.781326 Z M 165.856003 187.716003 C 169.087997 194.06134 174.263992 196.925339 178.509338 200.656006 C 178.646667 200.774658 179.328003 200.498657 179.567993 200.241333 C 180.369324 199.320007 179.447998 198.794662 178.950668 198.490662 C 174.373337 195.70134 171.528 190.893326 165.818665 187.679993 Z M 222.08667 207.470657 C 223.785339 211.097336 225.973328 214.47467 228.58934 217.507996 C 229.270676 210.841324 227.962662 208.722672 222.08667 207.470657 Z M 258.923981 170.348007 C 260.286652 173.745346 261.493317 176.297348 263.64798 177.632004 C 264.293335 178.037338 267.506683 176.380005 267.876007 173.617325 C 264.726654 173.801331 262.221344 172.226669 258.914673 170.301331 Z M 195.665329 105.551331 C 199.846664 109.032394 201.136002 113.406799 205.096008 116.602402 C 203.962662 111.233337 202.665329 106.923462 195.665329 105.551331 Z M 173.849319 126.281326 C 174.12532 129.044128 179.881332 137.26799 180.88533 137.332001 C 181.313339 137.301331 181.717331 137.122665 182.026672 136.825333 C 182.892014 136.126663 182.266663 135.5 181.78801 134.983994 C 179.393326 132.341064 176.979996 129.7164 173.849319 126.281326 Z M 218.587997 196.354675 C 218.280014 196.616013 217.973328 196.875992 217.666672 197.137329 C 220.429337 200.161331 223.192001 203.185349 225.954666 206.208008 C 226.903992 199.76268 221.268005 199.265335 218.587997 196.354675 Z M 173.130676 132.156799 C 171.694656 137.590668 176.860001 137.765335 179.577332 141.449326 C 178.564011 136.457336 176.022659 134.265335 173.130676 132.156799 Z M 183.952011 178.866653 C 186.658676 181.969345 188.556015 184.234665 190.599991 186.454666 C 191.070663 186.979996 191.116013 188.599991 192.442673 187.486679 C 193.307999 186.758667 193.105331 185.947998 192.369324 185.119995 C 190.26001 182.751999 188.418655 180.137329 183.952011 178.866653 Z M 221.157333 247.797333 C 218.992004 243.532013 216.00267 239.738678 212.362671 236.636017 C 214.333328 241.093353 217.730667 244.46402 221.157333 247.797333 Z M 177.44133 203.067993 C 175.442673 200.057327 173.130676 198.362671 170.431992 196.529343 C 171.289322 200.286667 173.084 202.506668 177.440002 203.067993 Z"/>
</svg>
