<?xml version="1.0" encoding="utf-8"?>
<svg x="0pt" y="0pt" width="256pt" height="256pt" viewBox="0 0 256 256" xmlns="http://www.w3.org/2000/svg" xmlns:xlink="http://www.w3.org/1999/xlink">
  <g id="1">
    <title>Layer 1</title>
    <defs>
      <title>Shape 116</title>
      <g id="2">
        <defs>
          <path id="3" d="M215.259,163.395 C215.501,165.978,217.953,166.849,219.321,168.548 C220.06,169.466,221.123,170.136,221.786,171.2 C219.072,170.868,217.691,168.824,216.061,167.09 C215.432,166.4,214.679,165.122,213.685,166.179 C212.863,167.056,214.237,167.601,214.741,168.209 C216.123,169.908,217.615,171.552,219.48,173.735 C216.952,173.307,216.233,171.552,214.969,170.516 C213.705,169.48,213.125,167.512,211.025,167.67 C209.837,165.598,210.1,162.884,208.263,161.033 C204.871,157.662,201.356,154.395,198.268,150.742 C196.949,149.181,196.196,149.105,194.87,150.051 C197.053,152.496,199.014,155.045,201.356,157.234 C204.809,160.501,206.964,164.991,211.115,167.594 C212.227,170.357,214.071,172.637,215.764,175.151 C202.399,162.642,190.208,148.863,175.703,137.667 C175.452,137.897,175.201,138.127,174.95,138.357 C175.897,139.67,176.594,141.3,177.824,142.253 C186.312,148.904,192.508,157.828,200.534,164.928 C202.73,166.876,204.491,169.48,206.95,170.951 C210.956,173.355,211.785,177.782,214.354,181.042 C214.577,181.415,214.598,181.874,214.41,182.265 C213.606,182.931,212.467,183.011,211.578,182.465 C209.057,180.732,206.204,179.557,203.877,177.492 C201.867,175.703,199.732,174.039,196.742,173.486 C198.441,175.337,200.105,177.223,201.86,179.012 C202.613,179.771,203.517,180.745,202.654,181.484 C201.791,182.223,200.727,181.25,200.099,180.435 C193.675,172.001,185.518,165.136,179.074,156.543 C178.715,158.284,178.259,159.569,180.055,161.302 C183.957,165.067,187.355,169.37,190.912,173.486 C192.915,175.814,194.856,178.197,196.776,180.6 C197.205,181.139,198.475,181.65,197.605,182.472 C196.735,183.294,195.851,182.355,195.367,181.623 C191.727,176.097,186.844,171.531,182.88,166.241 C181.65,164.611,180.282,163.077,178.977,161.496 C177.181,163.34,178.694,164.776,179.606,166.047 C183.059,170.834,187.265,175.026,191.299,179.288 C192.535,180.531,193.571,181.956,194.373,183.515 C191.099,183.301,190.104,180.421,188.571,178.804 C185.055,175.102,181.394,171.455,178.494,167.187 C178.079,166.579,177.554,165.695,176.587,166.496 C175.275,167.615,176.933,167.601,177.278,168.03 C180.814,172.864,184.42,177.623,187.935,182.465 C188.308,182.983,189.282,183.556,188.239,184.896 C183.84,180.51,181.187,174.812,176.718,170.62 C178.155,174.95,181.388,178.252,183.335,182.279 C183.681,182.969,184.226,183.598,184.599,184.295 C185.166,185.352,184.185,186.105,183.701,186.609 C182.976,187.362,182.458,186.471,181.926,185.808 C175.855,178.259,170.551,170.178,165.218,162.11 C164.818,161.516,164.832,160.473,163.761,160.425 C162.041,164.521,164.728,167.449,166.71,170.274 C170.495,175.676,174.709,180.78,178.742,186.001 C179.274,186.692,180.441,187.231,179.813,188.281 C179.018,189.6,178.597,188.122,178.01,187.859 C177.637,187.694,177.547,187.97,177.319,188.219 C176.242,189.338,176.249,189.268,175.247,188.143 C171.027,183.308,167.069,178.266,163.284,173.086 C162.981,172.664,162.911,171.462,161.945,172.181 C160.978,172.899,162.069,173.3,162.407,173.749 C166.192,178.726,169.984,183.704,173.783,188.681 C174.184,189.213,174.474,189.835,175.04,190.753 C172.333,190.491,170.972,192.204,169.514,193.689 C166.372,188.288,161.295,184.496,157.938,178.846 C156.702,180.918,157.441,182.03,158.429,183.259 C161.364,186.892,164.182,190.629,167.028,194.311 C167.71,195.063,168.061,196.059,168.002,197.073 C163.167,192.853,160.114,187.535,156.087,182.983 C157.296,188.011,162.131,191.099,162.849,196.41 C162.849,196.41,155.397,185.691,155.397,185.691 C153.249,192.038,160.183,194.38,160.667,199.449 C159.051,197.529,157.345,195.678,155.832,193.682 C153.815,190.995,152.054,191.106,149.996,194.103 C148.752,195.913,148.255,198.31,145.851,199.221 C147.972,196.127,148.262,191.686,152.696,190.277 C153.663,189.973,153.09,189.034,153.228,188.371 C153.919,184.917,154.354,181.464,155.735,178.128 C156.329,176.698,157.69,176.746,158.36,175.71 C159.859,173.486,159.244,170.675,160.895,168.582 C159.299,167.891,159.209,169.722,158.014,169.321 C158.014,169.052,157.973,168.679,158.132,168.499 C160.791,165.384,162.545,161.972,162,157.704 C161.917,157.061,162.248,156.322,161.433,155.908 C160.384,155.376,154.982,157.227,154.229,158.339 C152.447,160.978,150.707,163.651,148.78,166.172 C148.055,167.125,146.846,167.712,145.768,168.534 C148.103,164.88,150.286,161.164,152.779,157.669 C154.457,155.328,155.597,152.896,155.093,150.072 C154.264,145.43,153.504,140.796,153.67,136.023 C153.396,135.965,153.122,135.908,152.848,135.85 C149.526,141.376,146.21,146.95,142.529,153.118 C142.011,149.588,145.029,148.283,144.974,145.43 C143.178,146.238,142.046,147.792,140.83,149.118 C135.995,154.375,131.222,159.548,124.737,163.091 C122.382,164.383,121.421,168.285,119.902,171.034 C119.282,172.277,118.439,173.396,117.415,174.336 C116.507,173.537,115.948,172.413,115.861,171.207 C116.897,170.433,117.526,172.505,118.3,171.462 C118.99,170.578,118.224,169.825,117.609,169.059 C116.524,167.629,115.537,166.296,115.937,164.1 C116.131,163.07,114.818,161.406,113.755,160.57 C112.691,159.734,111.683,161.261,111.033,161.896 C106.281,166.365,101.813,171.138,96.9916,175.531 C92.6748,179.468,87.2183,181.443,82.0104,183.777 C81.847,183.522,81.6835,183.266,81.52,183.011 C83.1777,181.56,84.6212,179.626,86.5414,178.728 C94.0423,175.213,98.7736,168.596,104.596,163.209 C106.862,161.136,108.968,158.74,111.558,157.158 C114.287,155.487,117.388,156.523,119.95,158.077 C122.63,159.707,124.889,160.287,127.161,157.552 C127.942,156.612,130.435,156.585,128.909,154.547 C127.624,152.827,126.353,149.816,123.383,153.532 C126.353,148.524,122.547,145.002,121.449,140.989 C121.049,139.545,120.296,140.098,119.142,140.298 C114.487,141.051,112.767,144.974,110.301,148.034 C109.611,148.904,108.961,149.781,107.635,151.418 C108.271,148.02,109.473,145.844,111.158,144.408 C115.682,140.547,114.95,135.187,115.689,130.276 C116.676,123.715,116.607,117.091,116.379,109.555 C114.066,113.409,112.173,116.552,110.301,119.702 C108.609,122.547,107.041,125.469,105.232,128.225 C103.16,131.361,100.894,134.075,97.1436,135.74 C92.9994,137.577,89.8429,141.127,86.424,144.138 C81.1954,148.739,75.9047,153.276,69.8473,156.757 C66.7737,158.519,63.8037,160.563,59.3349,161.668 C63.4791,157.994,67.3332,155.625,71.0768,153.124 C76.0095,149.722,80.5969,145.845,84.7733,141.548 C87.7432,138.599,90.8168,135.477,94.443,133.509 C101.17,129.841,103.912,123.279,107.615,117.36 C109.618,114.162,111.358,110.799,113.389,107.621 C116.642,102.524,118.272,102.6,121.456,107.78 C121.739,108.25,121.967,108.823,122.651,108.878 C122.444,110.426,123.956,111.172,124.322,112.477 C124.861,114.404,125.883,114.418,127.154,113.036 C127.693,112.449,128.328,111.959,128.867,111.372 C129.979,110.149,131.713,109.003,131.934,107.621 C132.1,106.599,129.806,105.943,128.584,105.156 C127.976,104.769,128.045,103.622,127.113,103.678 C125.856,105.687,126.546,109.203,122.63,108.899 C126.249,105.549,125.939,100.887,126.719,96.591 C127.03,94.9057,127.299,93.2204,127.534,91.5213 C127.631,90.7754,129.406,89.1522,126.526,89.767 C125.697,89.9465,126.45,88.6411,126.83,88.3441 C129.427,86.3135,130.214,83.0465,132.21,80.56 C134.344,77.9008,132.383,74.6062,131.975,71.6431 C131.609,68.9632,130.207,66.4698,130.083,63.5413 C128.059,64.1629,127.859,66.0278,127.009,67.4023 C120.807,77.3713,114.579,87.3219,108.326,97.2541 C106.178,100.708,102.427,102.469,99.9339,105.598 C96.7912,109.521,93.8903,114.052,89.8359,116.732 C84.6902,120.137,82.1209,124.965,79.1992,129.855 C78.5215,130.973,77.6462,131.958,76.616,132.763 C78.5845,129.737,76.547,126.208,77.431,122.651 C76.0497,122.147,75.5662,119.971,74.6683,117.885 C68.1895,125.317,59.473,129.51,52.1378,135.443 C48.8501,138.102,45.5417,140.747,42.4681,143.62 C36.2518,149.429,28.1016,151.84,20.8286,155.77 C18.128,157.234,15.5862,159.223,12.1189,159.078 C10.466,158.93,8.82809,158.646,7.22188,158.229 C16.2907,155.694,23.4325,150.424,31.4584,147.046 C35.9607,145.049,40.0061,142.151,43.3452,138.53 C50.3143,131.298,58.5958,125.814,66.5388,119.881 C68.2655,118.59,70.0544,117.277,70.9868,115.212 C72.0851,112.781,73.7496,112.049,76.2292,113.251 C77.4518,113.845,78.992,114.1,79.883,115.005 C82.5767,117.768,84.407,117.139,86.6863,114.314 C90.5198,109.576,94.3463,104.741,98.8634,100.735 C107.691,92.8958,112.152,82.1486,118.714,72.8035 C121.808,68.39,124.322,63.6587,127.002,58.9896 C128.322,56.7103,130.145,55.6812,132.355,55.7433 C134.565,55.8055,135.201,57.6773,136.168,59.6181 C139.918,67.1398,144.788,73.8741,152.745,77.521 C153.64,77.8539,154.336,78.5754,154.637,79.4825 C156.543,84.124,158.339,88.8553,160.798,93.1928 C162.11,95.4997,162.697,99.8304,167.484,97.9863 C168.803,97.4751,169.715,99.0016,170.433,99.9824 C174.239,105.204,178.659,109.542,184.592,112.512 C189.469,114.95,192.335,119.881,195.996,123.791 C197.626,125.531,199.27,126.747,201.811,126.906 C204.056,127.051,205.859,128.577,206.971,130.497 C211.606,138.475,218.188,144.601,225.468,150.023 C228.859,152.551,231.09,156.239,234.737,158.47 C236.477,159.52,238.239,160.542,239.938,161.634 C240.497,161.993,241.098,162.635,240.456,163.305 C240.228,163.54,239.337,163.423,238.936,163.167 C236.968,161.889,235.062,160.522,232.603,159.714 C233.984,161.143,235.414,162.608,236.871,163.996 C237.334,164.445,238.253,164.631,237.507,165.502 C236.761,166.372,236.325,165.502,235.897,165.08 C231.753,161.116,227.733,157.089,223.575,153.18 C221.244,150.98,218.728,148.985,216.054,147.219 C221.275,154.879,228.831,160.342,235.393,167.021 C233.397,166.766,232.63,165.37,227.885,161.855 C217.946,154.52,211.536,144.228,203.98,134.918 C202.599,133.219,201.432,132.321,199.498,133.944 C198.876,134.462,198.696,134.876,199.284,135.601 C202.316,139.345,205.3,143.13,208.297,146.901 C208.527,146.708,208.758,146.514,208.988,146.321 C206.05,142.637,203.112,138.954,200.175,135.27 C200.405,135.056,200.635,134.842,200.865,134.628 C210.763,145.112,218.395,157.683,229.598,167.035 C225.454,165.149,222.995,161.116,218.906,159.099 C220.93,162.684,224.701,164.908,226.676,168.582 C221.289,164.756,217.2,159.603,212.227,155.314 C215.425,160.764,219.68,165.35,224.045,169.901 C221.282,169.404,220.039,166.938,218.119,165.398 C217.173,164.645,216.737,163.215,215.128,163.43 C215.121,162.989,215.032,162.553,214.866,162.145 C209.299,154.057,202.171,147.288,195.92,139.78 C187.314,129.42,178.279,119.46,169.397,109.39 C168.817,108.699,168.582,106.799,167.007,108.284 C165.778,109.438,166.648,110.198,167.574,111.047 C175.406,118.175,182.175,126.353,189.248,134.172 C196.32,141.99,203.124,150.058,209.817,158.194 C211.391,160.045,212.455,162.76,215.259,163.395 z M184.703,132.493 C186.285,135.069,188.432,137.252,190.981,138.875 C188.951,136.672,187.901,133.626,184.945,132.231 C184.123,129.565,181.588,128.322,179.951,126.325 C176.373,121.96,172.519,117.809,168.776,113.575 C168.492,113.828,168.209,114.082,167.926,114.335 C173.334,120.544,178.487,126.982,184.703,132.493 z M160.529,104.866 C161.309,107.041,163.188,108.36,164.846,110.806 C165.198,107.849,167.339,106.143,166.766,103.305 C165.75,103.705,164.286,103.919,164.21,104.361 C163.374,109.459,161.903,104.534,160.757,104.624 C160.647,104.074,160.452,103.545,160.176,103.056 C155.791,97.5304,151.411,92.0048,146.95,86.6105 C143.655,82.5976,140.229,78.6951,136.865,74.7444 C136.734,76.2086,136.258,77.5969,137.363,78.5017 C141.901,82.2108,145.237,86.9835,149.042,91.3556 C152.848,95.7277,156.184,100.79,160.515,104.859 z M132.169,120.586 C132.632,121.601,131.996,122.036,131.478,122.451 C130.96,122.865,129.758,123.141,130.85,124.122 C131.644,124.813,132.922,126.291,133.481,125.766 C136.347,122.962,140.105,121.366,142.923,118.59 C143.802,117.606,143.802,116.119,142.923,115.136 C141.631,113.852,141.479,115.917,140.685,116.227 C139.994,116.504,139.628,117.491,138.613,117.146 C138.654,115.668,140.063,115.247,140.768,114.3 C141.472,113.354,142.778,112.263,142.584,111.586 C141.679,108.53,141.444,105.314,141.894,102.158 C138.025,107.137,133.512,111.58,128.474,115.371 C125.524,117.512,127.465,119.329,128.584,121.152 C130,123.618,130.78,120.627,132.155,120.579 z M134.607,83.903 C134.356,84.5196,134.503,85.2269,134.98,85.6919 C137.998,89.9465,141.797,93.5243,145.181,97.4337 C150.845,103.981,155.735,111.165,161.592,117.643 C165.654,122.147,168.796,127.631,172.892,132.203 C176.011,135.549,179.693,138.322,183.771,140.395 C179.903,135.836,175.565,131.747,171.835,127.154 C162.366,115.495,153.366,103.457,143.745,91.9288 C141.21,88.8967,139.642,84.269,134.593,83.8961 z M195.782,147.82 C187.424,138.723,179.019,129.682,170.737,120.524 C160.163,108.83,151.115,95.8865,140.989,83.827 C139.815,82.4456,138.917,80.7189,136.99,80.0765 C136.99,82.2108,138.613,83.53,139.753,84.9114 C154.009,102.179,167.574,120.061,182.824,136.506 C186.734,140.72,190.063,145.568,195.768,147.813 z M170.841,107.594 C170.636,107.748,170.431,107.902,170.226,108.057 C171.994,110.205,173.68,112.394,175.531,114.48 C186.278,126.682,197.039,138.885,207.814,151.087 C208.29,151.619,208.504,152.972,209.458,152.261 C210.411,151.55,209.609,150.666,208.995,149.92 C200.237,139.324,192.501,127.873,182.009,118.755 C178.031,115.281,174.536,111.31,170.827,107.587 z M144.767,104.465 C144.201,108.195,174.28,144.767,179.053,146.68 C178.21,144.567,176.504,143.068,175.144,141.327 C169.08,133.578,162.958,125.872,156.778,118.21 C156.216,117.658,155.488,117.306,154.706,117.208 C153.761,117.09,152.961,116.453,152.634,115.558 C151.163,111.199,147.62,108.36,144.767,104.465 z M145.658,110.681 C145.188,113.865,146.473,115.647,148.055,117.388 C156.032,126.18,163.623,135.298,171.103,144.518 C171.794,145.396,173.59,146.169,171.683,147.73 C172.878,147.316,174.073,146.901,175.268,146.487 C165.094,134.78,155.231,123.224,145.658,110.688 z M143.386,143.296 C135.788,132.935,126.698,124.951,119.633,114.694 C118.583,117.457,119.529,118.838,120.807,120.296 C126.104,126.27,131.167,132.48,136.755,138.164 C138.42,139.863,139.49,142.647,143.386,143.296 z M180.407,146.95 C189.697,157.441,197.336,169.639,210.197,176.649 C200.108,166.929,190.176,157.029,180.4,146.95 z M153.746,91.9081 C148.379,83.2192,142.805,74.7444,135.166,67.8512 C139.407,77.3483,147.744,83.7786,153.746,91.9081 z M174.287,167.449 C177.437,163.395,178.093,159.161,175.993,154.43 C175.517,153.366,175.738,151.363,174.032,152.171 C172.747,152.779,169.542,153.269,171.587,156.15 C173.244,158.491,173.12,161.054,173.085,163.671 C173.086,164.997,172.885,166.4,174.273,167.449 z M156.509,144 C156.111,144.295,155.712,144.59,155.314,144.884 C161.047,153.339,166.779,161.793,172.512,170.247 C172.807,170.053,173.102,169.86,173.396,169.667 C168.43,160.688,162.131,152.565,156.509,144 z M193.717,127.002 C189.144,122.976,187.569,115.696,179.613,114.245 C184.302,119.28,188.64,123.556,193.723,127.002 z M148.22,134.966 C148.158,134.704,148.179,134.427,148.048,134.275 C145.437,131.298,142.805,128.342,140.195,125.372 C139.628,124.723,139.235,125.096,138.813,125.524 C138.392,125.952,137.853,126.491,138.544,127.21 C141.189,129.924,143.379,133.046,146.521,135.304 C147.274,135.823,147.917,136.251,148.22,134.966 z M134.669,142.681 C134.874,142.451,135.079,142.221,135.284,141.99 C129.668,136.541,125.075,130.11,118.873,125.234 C118.592,125.501,118.311,125.768,118.03,126.035 z M140.084,97.4061 C139.649,92.5712,135.871,89.7324,132.866,86.4309 C133.15,91.3348,137.515,93.8421,140.084,97.4061 z M174.619,184.883 C174.849,184.682,175.079,184.482,175.31,184.282 C171.248,178.756,167.182,173.247,163.112,167.753 C165.073,174.798,170.406,179.433,174.598,184.862 z M131.955,90.9826 C131.153,92.0324,130.276,93.3862,131.264,94.146 C133.336,95.6931,134.469,98.0277,136.451,99.5748 C136.997,99.9962,137.466,101.129,138.35,100.203 C138.875,99.6577,138.537,98.9394,138.053,98.3523 C136.133,95.9694,134.641,93.2066,131.955,90.9826 z M152.634,129.883 C152.696,128.681,146.466,121.332,145.589,121.352 C144.712,121.373,143.337,121.933,144.139,122.872 C146.349,125.462,148.283,128.398,151.197,130.283 C151.674,130.601,152.544,130.518,152.634,129.883 z M118.825,121.318 C120.848,126.498,125.925,128.853,129.413,132.694 C126.049,128.729,123.286,124.253,118.825,121.318 z M146.494,118.714 C149.581,123.949,153.822,128.135,158.325,132.093 C155.127,126.954,150.887,122.734,146.494,118.686 z M118.576,129.551 C121.511,134.469,126.305,137.605,130.407,141.438 z M142.75,123.114 C141.293,123.659,141.093,124.316,141.604,124.903 C143.911,127.527,146.287,130.097,148.649,132.666 C149.015,133.067,149.402,133.011,149.809,132.666 C150.5,132.058,149.94,131.644,149.602,131.285 C147.813,129.261,145.976,127.286,144.208,125.248 C143.659,124.559,143.154,123.837,142.695,123.086 z M124.392,141.037 C126.816,145.796,130.698,147.944,133.882,150.742 C133.985,150.831,134.496,150.624,134.676,150.431 C135.277,149.74,134.586,149.346,134.213,149.118 C130.78,147.026,128.646,143.42,124.364,141.01 z M166.565,155.853 C167.839,158.573,169.48,161.106,171.442,163.381 C171.953,158.381,170.972,156.792,166.565,155.853 z M194.193,128.011 C195.215,130.559,196.12,132.473,197.736,133.474 C198.22,133.778,200.63,132.535,200.907,130.463 C198.545,130.601,196.666,129.42,194.186,127.976 z M146.749,79.4135 C149.885,82.0243,150.852,85.3051,153.822,87.7018 C152.972,83.675,151.999,80.4426,146.749,79.4135 z M130.387,94.961 C130.594,97.0331,134.911,103.201,135.664,103.249 C135.985,103.226,136.288,103.092,136.52,102.869 C137.169,102.345,136.7,101.875,136.341,101.488 C134.545,99.5058,132.735,97.5373,130.387,94.961 z M163.941,147.516 C163.71,147.712,163.48,147.907,163.25,148.103 C165.322,150.371,167.394,152.639,169.466,154.906 C170.178,150.072,165.951,149.699,163.941,147.516 z M129.848,99.3676 C128.771,103.443,132.645,103.574,134.683,106.337 C133.923,102.593,132.017,100.949,129.848,99.3676 z M137.964,134.4 C139.994,136.727,141.417,138.426,142.95,140.091 C143.303,140.485,143.337,141.7,144.332,140.865 C144.981,140.319,144.829,139.711,144.277,139.09 C142.695,137.314,141.314,135.353,137.964,134.4 z M165.868,186.098 C164.244,182.899,162.002,180.054,159.272,177.727 C160.75,181.07,163.298,183.598,165.868,186.098 z M133.081,152.551 C131.582,150.293,129.848,149.022,127.824,147.647 C128.467,150.465,129.813,152.13,133.08,152.551 z"/>
        </defs>
        <use xlink:href="#3" style="fill:#000000;fill-opacity:1;fill-rule:evenodd;opacity:1;stroke:none;"/>
      </g>
    </defs>
    <use xlink:href="#2"/>
    <defs>
      <title>Shape 172</title>
      <g id="4">
        <defs>
          <path id="5" d="M102.635,138.71 C101.944,142.218,99.8718,144.429,94.8781,147.088 C97.2403,144.498,99.637,141.901,102.635,138.71 z"/>
        </defs>
        <use xlink:href="#5" style="fill:#000000;fill-opacity:1;fill-rule:evenodd;opacity:1;stroke:none;"/>
      </g>
    </defs>
    <use xlink:href="#4"/>
    <defs>
      <title>Shape 186</title>
      <g id="6">
        <defs>
          <path id="7" d="M97.6202,163.305 C100.024,160.591,101.702,157.186,105.542,154.402 C103.18,158.484,100.735,161.185,97.6202,163.305 z"/>
        </defs>
        <use xlink:href="#7" style="fill:#000000;fill-opacity:1;fill-rule:evenodd;opacity:1;stroke:none;"/>
      </g>
    </defs>
    <use xlink:href="#6"/>
    <defs>
      <title>Shape 193</title>
      <g id="8">
        <defs>
          <path id="9" d="M120.786,96.8121 C120.151,99.9202,118.127,101.647,115.067,102.241 z"/>
        </defs>
        <use xlink:href="#9" style="fill:#000000;fill-opacity:1;fill-rule:evenodd;opacity:1;stroke:none;"/>
      </g>
    </defs>
    <use xlink:href="#8"/>
    <defs>
      <title>Shape 197</title>
      <g id="10">
        <defs>
          <path id="11" d="M39.8573,157.324 C39.0216,159.479,36.9841,160.674,35.5612,162.352 C34.8705,163.146,34.4354,162.352,34.1798,161.661 C33.9588,161.116,33.8621,160.17,34.4423,160.28 C37.4537,161.067,37.1913,157.124,39.8573,157.324 z"/>
        </defs>
        <use xlink:href="#11" style="fill:#000000;fill-opacity:1;fill-rule:evenodd;opacity:1;stroke:none;"/>
      </g>
    </defs>
    <use xlink:href="#10"/>
  </g>
</svg>
