<?xml version="1.0" encoding="UTF-8"?>
<!-- Generated by Pixelmator Pro 2.4.2 -->
<svg width="341" height="341" viewBox="0 0 341 341" xmlns="http://www.w3.org/2000/svg" xmlns:xlink="http://www.w3.org/1999/xlink">
    <path id="Path" fill="#413c43" stroke="none" d="M 230.806656 235.26001 C 231.231995 238.596008 229.906662 238.161346 228.203995 236.401337 C 224.248001 232.300018 220.378662 228.110657 216.432007 224.010651 C 213.20134 220.67334 209.902664 217.403992 206.546677 214.007996 C 205.250671 219.241333 206.23732 221.243988 210.947998 222.492004 C 212.678665 222.869324 214.193344 223.912018 215.165329 225.393341 C 218.199997 230.090668 222.146667 234.129333 226.771988 237.272003 C 229.993332 239.418671 228.165329 241.391998 227.053329 242.824005 C 225.244003 245.145325 223.852005 243.026672 222.487991 241.653351 C 218.587997 237.878662 215.146667 233.657318 212.234665 229.078674 C 210.50267 226.243988 206.875992 226.282684 204.206665 228.285339 C 198.848007 232.289337 194.437332 237.609344 187.878662 240.009338 C 191.293335 236.855988 194.649338 233.644012 198.277328 230.800018 C 202.222672 227.646667 205.850662 225.345337 201.353333 220.073334 C 200.753342 219.366669 200.860001 218.070648 200.587997 216.803986 C 197.947998 218.496002 196.168015 221.137329 193.294662 222.007996 C 192.973328 221.662659 192.650681 221.317352 192.328003 220.973328 C 193.556015 220.063995 194.746658 219.115997 196.004013 218.254669 C 199.940002 215.556 200.840012 212.354675 198.054672 208.214661 C 193.682663 201.694656 191.902664 194.121338 189.736008 186.082657 C 187.569336 189.156006 185.402664 192.228012 183.236008 195.301331 C 182.906662 191.925339 184.32933 190.156006 185.432007 188.530655 C 188.358658 184.617325 189.109329 179.489334 187.423996 174.901321 C 185.325333 168.576004 183.554672 162.124008 181.388 155.835999 C 179.850662 151.50267 178.127991 155.49733 177.02533 156.262665 C 171.773331 159.927994 169.20134 165.721329 166.269333 171.090652 C 165.157333 173.121338 163.706665 174.137329 161.249329 175.790665 C 162.487991 172.328003 164.470657 170.161331 165.486664 167.473343 C 168.020004 160.769333 166.58934 154.153336 166.346664 147.498672 C 166.279999 145.563995 167.198669 143.765335 166.996002 141.076004 C 165.380005 143.570663 164.161331 145.477341 162.942673 147.373337 C 164.800003 137.699997 172.257324 129.236267 168.630661 118.5672 C 163.388 120.201996 161.278671 124.448257 159.005325 129.381332 C 154.933334 138.202667 150.599991 147.217331 142.649338 153.418671 C 137.890671 157.122665 135.617325 162.810669 131.041733 166.689331 C 129.484543 168.005325 129.958405 171.602661 129.939072 173.460007 C 129.871475 178.954666 126.3312 182.369324 124.406273 186.692001 C 124.311195 186.985336 124.133064 187.244003 123.893593 187.437332 C 122.839333 188.085327 121.900932 191.306656 121.388397 192.477341 C 119.627998 196.539993 119.889069 200.969345 119.028267 205.099991 C 117.616127 205.234665 117.877327 204.258667 117.896538 203.881332 C 118.360802 195.504013 117.074402 186.67334 123.700134 179.834671 C 124.303734 179.320007 124.496666 178.469345 124.174133 177.745346 C 123.081062 174.427994 123.642128 171.129333 124.473999 167.617325 C 117.045326 172.627991 114.917336 180.811996 110.671074 187.639999 C 108.117332 191.751999 109.016937 194.294662 111.870399 197.168015 C 110.313072 198.56134 108.794403 195.117325 107.740135 197.236008 C 106.018402 200.669327 106.492271 204.490662 105.89254 208.717331 C 101.056267 203.455994 97.554665 197.206665 92.515198 190.531998 C 92.815063 195.688004 95.842529 198.097336 97.428932 201.17334 C 99.015327 204.248001 101.742928 206.666672 102.004128 211.657333 C 99.102264 207.198669 96.819603 203.688004 94.527069 200.186661 C 93.995064 199.373337 93.772667 197.729324 92.302269 198.793335 C 90.832001 199.857346 92.128136 200.805344 92.698936 201.694656 C 94.198265 203.958664 95.707207 206.21199 97.312798 208.388 C 101.123871 213.59201 101.539864 215.720001 97.119469 219.996002 C 93.521202 223.467987 91.228798 228.585327 85.434807 229.85202 C 84.883469 227.405334 83.587334 224.929352 83.790535 220.73999 C 81.981735 224.85202 80.714531 227.714661 79.447472 230.587982 C 79.35067 225.634674 81.536797 221.301331 82.968269 216.774658 C 84.651199 211.975998 85.945068 207.049332 86.837334 202.042664 C 87.55307 197.206665 88.143066 192.302673 88.771873 187.157333 C 80.743462 194.005325 75.046265 202.73999 66.127869 207.88533 C 74.833336 200.369324 81.362534 190.852005 88.897606 182.301331 C 89.420006 181.70134 90.319466 181.228012 90.503334 180.550659 C 91.228798 177.977341 95.068794 180.182663 95.272003 177.552002 C 95.562263 173.807999 95.339729 170.026657 95.339729 166.311996 C 94.285469 166.311996 93.782402 166.147995 93.734001 166.244003 C 88.500938 177.213333 77.348396 182.774658 70.219467 192.00267 C 68.052803 194.817337 64.512535 195.417343 61.688137 195.872009 C 49.432667 197.902664 39.847065 205.331985 29.294001 210.82666 C 25.483068 212.818665 21.768667 214.994659 17.918934 216.920013 C 15.7716 217.993317 12.985786 218.14798 11.941052 215.894684 C 10.973774 213.843994 13.043759 212.71199 15.123466 211.647995 C 23.0744 207.566666 31.035067 203.426682 38.521732 198.580002 C 44.702667 194.585327 51.376934 192.341324 58.321869 190.47467 C 60.769199 189.817337 64.212532 189.574661 65.344398 187.901321 C 71.148003 179.273331 81.875069 175.617325 86.904938 166.195999 C 88.423462 163.352005 91.557594 161.437332 92.573204 158.070663 C 92.960136 156.774673 93.917732 156.262665 95.155861 157.220001 C 95.504128 157.490662 95.88134 158.332001 95.929741 158.313339 C 104.848 153.534668 106.995331 162.539993 111.135338 166.370667 C 114.337067 169.32933 115.788002 168.633331 117.364532 165.828003 C 119.772926 161.543991 122.616798 158.468002 128.004532 159.821335 C 128.788132 160.02533 129.310257 159.889328 129.610275 159.318665 C 132.96666 152.914658 139.650665 149.64534 143.838669 143.900009 C 146.793335 139.758667 149.512009 135.453323 151.983994 131.006531 C 155.852005 124.235596 161.346664 118.58667 165.263992 111.806 C 167.992004 107.095474 177.286667 107.163193 180.875992 111.535202 C 182.054672 113.03653 183.142654 114.606262 184.136002 116.23613 C 189.590652 124.728928 195.20134 133.057327 203.238663 139.450668 C 205.182663 141.139999 206.878662 143.093338 208.278671 145.254669 C 212.273331 150.990662 212.216003 151.05867 217.506668 147.101334 C 222.101334 143.688004 224.664001 143.765335 228.678665 147.556 C 234.801331 153.360001 240.091995 159.96666 246.930664 165.073334 C 250.249329 167.559998 253.702652 169.745331 257.154663 172.067993 C 258.063995 172.695999 259.205353 173.62532 260.230682 172.870667 C 265.279999 169.185333 269.381317 172.348007 273.502655 174.659988 C 290.777313 184.390671 308.014679 194.189331 325.213348 204.054672 C 326.682648 204.906662 328.355988 204.636002 329.671997 205.622665 C 330.552002 206.289322 332.573334 205.506668 332.273346 207.643997 C 331.984009 209.626663 330.222687 208.814651 329.158661 209.026672 C 324.777313 209.897339 321.073334 207.856003 317.406647 205.922668 C 312.570648 203.378662 308.062653 200.118668 302.608002 198.822678 C 307.666656 202.449341 312.725342 206.077332 317.783997 209.703995 C 317.465332 210.188004 317.145325 210.671997 316.817352 211.145325 C 301.621338 201.472 287.343994 190.454666 272.23465 180.714661 C 272.002655 181.037338 271.77066 181.360001 271.538666 181.682663 C 271.538666 181.682663 310.286652 210.545334 310.286652 210.545334 C 309.965332 210.97467 309.64267 211.402664 309.320007 211.831985 C 295.081329 203.417343 282.671997 192.311996 269.138672 182.610657 C 267.949341 185.570663 270.019989 186.353333 271.480011 187.505325 C 281.258667 195.242676 291.657318 202.130676 301.842682 209.307999 C 303.384003 210.357346 304.699982 211.706665 305.712006 213.273346 C 293.417328 206.504013 281.801331 198.567993 271.02533 189.574661 C 269.690674 193.530655 272.109344 194.817337 274.546661 195.987991 C 283.358673 200.234665 290.447998 206.966675 298.350677 212.528 C 298.805328 212.838669 298.921326 213.621338 298.921326 214.559998 C 289.626678 208.205338 280.544006 201.569336 270.513336 196.278671 C 278.482666 204.074661 288.126678 209.820007 296.774658 216.890656 C 291.764008 216.136017 288.417328 212.268005 284.354675 209.810669 C 280.118683 207.257324 276.936005 203.039993 270.716003 200.912003 C 275.874664 205.331985 281.033325 209.751999 286.191986 214.17334 C 283.406647 215.139984 282.324005 213.332001 281.017334 212.150681 C 276.181335 207.662659 269.410675 204.567993 268.007996 197.642654 C 266.905334 192.186661 263.335999 189.101334 260.046661 185.464005 C 259.100006 184.182663 257.420013 183.682663 255.926682 184.236008 C 256.893341 186.769333 260.269318 187.273331 261.033325 191.006668 C 248.294662 182.117325 238.486679 170.848007 225.331985 162.481339 C 226.096008 167.318665 229.674667 168.546677 232.17067 170.606674 C 243.622665 180.066666 255.171997 189.41066 266.992004 199.045334 C 263.925323 200.214661 262.649323 197.768005 261.110657 196.713333 C 256.806671 193.811996 253.034668 190.097336 248.342667 187.708008 C 241.101334 181.29866 233.860001 174.888 226.618668 168.478668 C 227.159988 172.821335 230.642654 174.601334 233.253342 176.856003 C 237.934677 180.908005 242.23999 185.647995 248.449341 187.582657 C 248.231995 187.922668 248.161331 188.337341 248.255997 188.729324 C 248.352005 189.122665 248.602661 189.460007 248.952011 189.662659 C 258.625336 196.317337 266.798676 204.713333 275.949341 211.909348 C 277.458649 213.098663 279.082672 214.162659 280.650665 215.285339 C 280.079987 215.930664 279.509338 216.574677 278.93866 217.220001 C 261.797333 201.617325 242.810669 188.317337 225.73732 172.657333 C 225.632004 175.23999 225.786667 175.55867 227.594666 177.116013 C 240.905334 188.20134 253.982666 199.557327 266.20932 211.861328 C 266.693329 212.290665 266.993317 212.889343 267.050659 213.534668 C 256.497345 206.811996 248.362671 197.168015 238.195999 189.903992 C 244.909348 199.71199 253.566666 207.807999 261.353333 216.861328 C 260.262665 216.185333 259.221344 215.433319 258.238678 214.608002 C 250.219986 206.975998 240.257324 201.598679 233.253342 192.757324 C 239.966675 203.194656 249.406662 211.136002 258.809326 220.596008 C 252.927994 220.741333 250.538681 216.726654 246.380005 214.453339 C 248.082657 218.690674 250.906662 221.223999 253.71199 223.884003 C 251.932007 225.199982 250.056015 222.230682 248.32399 224.484009 C 247.11467 226.079987 246.514664 224.136017 245.934677 223.420013 C 239.318665 215.303986 231.261337 208.659988 223.852005 201.356003 C 222.681335 200.049332 221.206665 199.053329 219.557327 198.454666 C 219.557327 200.834671 221.29866 201.685349 222.458664 202.87468 C 228.82399 209.472 235.294662 215.981323 241.639999 222.597321 C 242.607986 223.64267 244.445328 225.093353 242.685349 226.602661 C 240.923996 228.110657 240.363998 225.741333 239.637329 224.841339 C 228.717331 211.231995 215.610657 199.693344 204.313339 186.393326 C 200.908005 182.397339 197.309326 178.547989 193.430664 174.214661 C 193.296005 177.522659 194.872009 179.254654 196.565323 180.985336 C 210.736008 195.242676 223.552002 210.699997 236.484009 226.06134 C 237.606674 227.395996 239.986679 228.749329 237.199997 231.081329 C 234.656006 233.20932 233.437332 231.43866 232.084 229.890656 C 221.171997 217.384003 209.372009 205.650681 199.195999 192.477341 C 198.432007 191.509338 197.570663 190.542664 196.033325 188.76268 C 196.313339 193.482666 198.934677 195.465332 200.869324 197.806656 C 210.542664 209.597336 221.182663 220.402679 231.599991 231.52533 C 232.421326 232.415985 234.394669 232.986664 233.041336 234.959991 C 232.257324 236.110657 231.734665 234.959991 231.106674 234.959991 C 230.981323 233.131989 229.442673 232.279999 228.378662 231.090668 C 218.977341 220.973328 209.556015 210.854675 200.11467 200.73732 C 199.602661 202.797348 200.994675 204.199997 202.049332 205.757324 C 206.179993 211.929337 211.848007 216.745331 216.849319 222.104004 C 221.20134 226.718658 225.263992 231.854675 230.806656 235.26001 Z M 88.15226 213.166656 C 86.101601 213.980011 85.376129 215.26535 86.556129 217.354675 C 87.736267 219.444 88.14254 222.423981 90.686401 223.303986 C 91.953606 223.738678 92.224396 222.403992 91.972931 220.778656 C 91.479607 217.645325 88.103729 216.185333 87.987732 213.041351 C 92.20507 213.553314 91.856804 218.138672 95.145599 221.03067 C 95.145599 215.440002 91.1604 213.059998 89.341866 208.833328 C 88.780937 210.893326 87.339729 211.686661 88.15226 213.166656 Z M 185.943985 146.608002 C 181.697327 142.681335 178.630676 137.545334 173.581345 134.362671 C 175.922668 139.421341 180.024002 143.010666 183.796005 146.850662 C 184.289322 147.353333 185.314651 147.121338 185.992004 146.541336 C 184.860001 148.398666 186.485336 149.549332 187.219986 150.825333 C 189.890671 155.49733 194.649338 158.225327 198.02533 162.297333 C 207.630676 173.846664 218.338669 184.381332 228.978653 194.903992 C 229.654663 195.572006 230.197327 197.022659 231.734665 195.958664 C 216.477341 179.475998 201.213333 163.026657 185.943985 146.608002 Z M 192.357346 160.285324 C 194.708008 164.154663 196.293335 168.88533 199.524002 171.757324 C 212.244003 183.104004 222.236008 197.06134 235.033325 208.244003 C 237.373337 210.283997 239.598679 214.221344 244.443985 212.266663 C 226.269333 195.504013 208.771988 178.5 192.357346 160.285324 Z M 214.526672 172.377335 C 214.401321 171.949341 214.209335 171.544006 213.955994 171.177322 C 201.014664 157.964005 190.315994 142.797333 177.654663 129.342667 C 176.861328 128.49147 176.367996 126.112 174.578674 127.649857 C 173.166672 128.85907 173.746658 130.551743 174.994675 131.867203 C 177.286667 134.314667 179.559998 136.781326 181.833328 139.237335 C 192.38533 150.651993 202.677322 162.307999 214.526672 172.377335 Z M 222.87468 151.338669 C 220.156006 153.776001 214.78801 152.85733 214.624008 157.722672 C 214.41066 163.777328 217.632004 168.091995 222.903992 171.429337 C 224.538681 164.464005 220.610657 158.022659 222.87468 151.338669 Z M 234.414673 228.053314 C 221.742676 212.189331 208.888 196.529343 194.233337 182.446671 C 206.61467 198.541336 220.398666 213.409332 234.414673 228.053314 Z M 174.142654 117.068008 C 173.833328 122.774933 185.334671 137.516006 194.330673 143.367996 Z M 105.069862 198.995987 C 105.379333 194.217331 99.691734 186.189331 94.690941 184.129333 C 97.815338 189.274658 100.687996 194.32399 105.069862 198.966675 Z M 96.499733 215.440002 C 98.540672 209.935989 93.7528 207.528 91.334534 202.865341 C 89.351601 209.32666 94.884399 211.570663 96.519196 215.410675 Z M 266.885345 188.810669 C 266.594666 185.570663 265.773346 183.306656 265.609344 180.908005 C 265.511993 179.360001 264.245331 178.064011 261.846649 178.857346 C 259.109344 179.748001 261.014679 181.305344 261.246674 182.165329 C 261.990662 184.845337 264.052002 186.71199 266.885345 188.781326 Z M 109.712799 184.361328 C 108.745598 178.035995 104.122002 173.721329 100.649467 168.88533 C 102.100403 174.882675 106.046806 179.52533 109.712799 184.331985 Z M 107.710663 188.76268 C 107.623596 183.529343 103.454529 180.569336 101.046135 176.604004 C 101.181335 181.73999 105.040802 184.922668 107.710533 188.733337 Z M 179.705338 145.757339 C 177.770676 143.610672 175.768005 141.394669 173.717331 139.248001 C 173.649338 139.17067 172.953323 139.537338 172.682663 139.818665 C 172.425339 140.006668 172.26001 140.296005 172.228012 140.613327 C 172.197327 140.930664 172.302673 141.246658 172.518677 141.481339 C 174.046677 143.261337 175.477341 145.128006 177.141342 146.762665 C 178.109329 147.759995 179.105331 147.285324 179.705338 145.757339 Z M 211.62532 160.02533 C 211.62532 152.992004 206.150681 151.957336 202.754654 149.171997 C 205.453323 152.450668 208.142654 155.758667 211.62532 160.02533 Z M 212.244003 165.557327 C 215.790665 169.158676 219.337341 172.76001 222.883987 176.361328 C 219.933334 172.202652 216.606674 168.333328 212.263992 165.557327 Z M 215.281326 191.074661 C 212.118668 187.528 208.955994 183.981323 205.791992 180.434677 C 206.633347 186.71199 211.248001 188.646667 215.301331 191.074661 Z M 140.492004 199.62532 C 147.919998 192.757324 152.82399 183.781326 159.778671 176.41066 C 159.962662 180.346664 156.568008 182.446671 154.942673 185.309326 C 152.311996 189.942673 148.297333 193.811996 144.698669 197.883987 C 143.673325 199.02533 142.531998 200.940002 140.356003 199.537338 Z M 140.356003 199.518677 C 137.782669 203.629333 136.022659 208.301331 132.143875 211.541336 C 134.862671 207.528 135.393326 202.014664 140.481339 199.61467 Z M 154.556 162.026657 C 154.633331 166.486664 152.253342 169.706665 148.636002 172.280014 Z M 141.565338 231.690674 C 144.880005 229.14267 148.194672 226.596008 151.509338 224.049347 C 149.49733 228.208008 145.850662 230.384003 141.565338 231.690674 Z M 51.424801 219.696014 C 54.965069 218.109344 56.802799 213.891998 62.180801 212.731995 C 58.379467 216.339996 55.651733 219.17334 51.424801 219.696014 Z"/>
</svg>
