<?xml version="1.0" encoding="utf-8"?>
<svg x="0pt" y="0pt" width="256pt" height="256pt" viewBox="0 0 256 256" xmlns="http://www.w3.org/2000/svg" xmlns:xlink="http://www.w3.org/1999/xlink">
  <g id="1">
    <title>Layer 1</title>
    <defs>
      <title>Shape 53</title>
      <g id="2">
        <defs>
          <path id="3" d="M213.836,174.51 C214.121,174.934,214.503,175.546,214.109,175.867 C213.352,176.473,212.982,175.673,212.473,175.213 C207.797,170.973,202.817,167.114,198.165,162.825 C200.891,167.871,206.04,170.7,209.481,175.128 C204.568,173.16,201.824,168.465,197.038,165.254 C198.02,167.938,199.964,169.155,200.988,170.991 C201.753,172.393,202.702,173.687,203.811,174.838 C205.228,176.255,203.865,177.121,203.205,177.709 C202.442,178.381,201.757,177.448,201.273,176.734 C194.07,166.163,185.16,156.895,178.084,146.24 C177.981,146.088,177.757,146.015,177.139,146.185 C183.399,155.661,189.658,165.137,195.918,174.613 C195.625,174.795,195.332,174.977,195.039,175.159 C188.982,167.284,183.996,158.7,177.709,150.928 C183.952,161.024,190.195,171.12,196.439,181.216 C193.319,179.223,191.847,176.085,190.03,173.232 C184.457,164.497,179.35,155.447,173.371,147.009 C172.033,145.113,170.591,142.199,168.756,141.412 C164.515,139.594,166.06,135.748,164.703,133.022 C163.964,131.544,164.097,128.83,162.019,129.278 C159.942,129.727,161.111,132.004,161.414,133.609 C162.589,140.085,165.793,145.622,169.289,151.025 C169.254,150.997,169.22,150.969,169.186,150.94 C169.428,151.879,169.664,152.818,169.906,153.757 C169.735,153.84,169.563,153.923,169.392,154.005 C167.574,150.74,166.072,147.263,163.903,144.259 C160.875,140.109,160.463,134.76,157.07,130.793 C155.738,129.236,154.139,128.285,152.279,126.649 C153.133,129.642,155.017,131.417,156.404,133.349 C158.052,135.633,159.003,138.286,160.729,140.497 C160.965,140.794,161.704,141.557,160.99,142.011 C160.142,142.544,159.815,141.708,159.469,141.085 C154.581,132.204,148.087,124.347,143.114,115.515 C142.993,115.309,142.635,115.237,142.199,114.994 C142.35,118.629,145.034,120.713,146.7,123.305 C152.097,131.707,157.791,139.897,162.971,148.451 C169.803,159.742,177.157,170.712,184.172,181.876 C184.778,182.803,186.553,184.003,185.093,185.057 C184.487,185.511,183.669,183.476,183.033,182.47 C174.347,168.74,165.638,155.029,156.907,141.339 C152.782,134.882,148.559,128.485,143.931,121.349 C144.186,123.99,144.677,125.674,145.615,127.188 C152.885,138.898,160.081,150.643,167.453,162.286 C170.706,167.417,174.298,172.33,177.721,177.357 C178.384,178.239,178.947,179.192,179.399,180.198 C179.635,180.804,180.641,181.664,179.55,182.234 C178.072,183.003,178.593,181.434,178.339,180.913 C175.425,175.461,171.639,170.555,168.041,165.533 C162.153,157.246,157.325,148.311,152.067,139.643 C150.25,136.675,148.432,133.737,146.433,130.514 C146.046,135.142,148.753,138.28,150.583,141.696 C157.295,154.114,166.308,165.018,173.795,176.921 C175.546,179.702,176.63,182.827,178.678,185.493 C180.083,187.31,182.736,188.122,182.918,190.878 C182.094,191.387,181.373,190.49,180.592,190.442 C178.92,190.339,177.648,187.195,175.601,189.727 C175.082,189.514,174.597,189.229,174.159,188.879 C170.47,186.129,166.617,183.603,163.255,180.453 C161.856,179.144,160.414,177.86,157.876,178.551 C161.953,183.106,167.695,185.608,171.415,190.254 C171.239,190.456,171.063,190.658,170.888,190.86 C170.888,190.86,154.871,178.048,154.871,178.048 C158.361,183.082,163.631,186.159,167.102,191.175 C164.212,188.752,161.111,186.607,158.476,183.96 C151.606,177.049,143.974,170.906,137.753,163.364 C133.973,158.767,130.853,153.672,126.546,149.468 C126.092,149.026,125.977,147.96,125.074,148.644 C124.172,149.329,125.001,149.705,125.407,150.298 C129.92,156.962,135.584,162.601,140.818,168.616 C146.464,175.098,152.467,181.265,158.3,187.583 C158.724,188.043,159.645,188.534,158.658,189.242 C157.828,189.848,157.404,189.024,156.986,188.503 C150.431,180.398,142.865,173.208,136.051,165.333 C134.197,163.189,132.707,160.669,129.581,158.621 C131.695,162.619,134.33,165.327,136.693,168.15 C141.618,174.032,146.015,180.423,152.091,185.281 C152.473,185.59,152.697,186.086,153.06,186.414 C153.894,187.195,154.089,188.444,153.533,189.442 C152.927,190.357,151.558,189.545,150.534,189.557 C147.221,189.594,145.888,187.207,144.228,185.075 C143.727,184.504,142.917,184.319,142.217,184.614 C144.192,186.886,146.082,189.024,147.917,191.211 C148.311,191.678,149.129,192.229,148.341,192.98 C147.427,193.834,147.094,192.671,146.76,192.295 C143.847,188.982,140.951,185.632,138.171,182.222 C136.88,180.629,135.524,179.314,133.107,178.926 C136.135,184.342,141.472,187.722,144.198,192.986 C144.198,192.986,143.362,193.622,143.362,193.622 C140.394,190.478,137.304,187.449,134.506,184.142 C131.707,180.835,129.363,177.345,126.692,173.759 C125.032,176.255,126.788,177.624,128.012,179.066 C131.822,183.566,135.814,187.922,139.249,192.738 C139.535,193.074,139.676,193.509,139.643,193.949 C133.809,190.284,130.72,184.021,125.892,179.344 C127.261,185.311,132.095,188.782,135.693,193.24 C131.174,191.871,129.224,187.468,125.395,183.96 C126.534,188.994,130.774,191.175,132.846,195.621 C129.599,194.21,128.739,191.684,127.025,190.012 C126.679,189.679,126.564,189.073,126.189,188.8 C125.553,188.37,125.177,186.838,124.153,187.825 C123.548,188.431,123.923,189.261,124.723,190.072 C126.098,191.466,126.946,193.343,128.412,194.731 C128.842,195.143,129.739,195.706,128.975,196.439 C128.212,197.172,127.685,196.33,127.303,195.797 C125.91,193.858,124.056,192.259,122.899,189.533 C120.894,193.453,126.607,194.167,125.468,197.305 C123.263,196.39,122.79,193.671,120.446,192.544 C120.446,194.797,122.869,195.809,122.827,198.068 C121.53,198.068,121.264,196.857,120.495,196.415 C119.853,196.057,119.683,194.494,118.423,195.615 C117.339,196.59,118.423,197.178,118.738,197.923 C118.88,198.348,118.99,198.784,119.065,199.225 C115.57,196.893,115.97,201.497,113.668,201.648 C113.753,197.305,115.873,193.895,118.514,190.69 C120.701,188.061,122.53,185.287,122.021,181.428 C119.55,182.694,119.416,185.826,116.569,187.074 C118.671,182.264,123.511,179.163,122.73,173.608 C118.435,176.952,113.765,180.114,109.688,183.906 C106.187,187.183,101.722,188.388,97.8028,190.721 C96.1067,191.732,94.2955,192.574,92.5085,193.422 C91.4666,193.913,90.1339,194.155,89.6069,193.004 C89.2313,192.186,90.4429,191.587,91.1455,191.023 C93.7386,188.955,96.6388,187.303,99.7413,186.129 C104.969,184.142,108.561,180.041,112.898,176.903 C115.025,175.365,113.244,174.117,112.432,172.948 C111.336,171.379,110.494,172.554,109.645,173.396 C108.63,174.5,107.38,175.364,105.987,175.922 C112.268,166.327,120.386,157.482,123.208,144.816 C112.559,152.97,104.878,162.928,96.4096,173.19 C96.4702,171.124,97.3425,170.494,97.7423,169.628 C98.2814,168.453,100.686,167.35,99.0568,166.151 C97.6696,165.133,95.7493,163.728,93.3263,165.987 C87.5897,171.379,81.3867,176.285,75.3655,181.368 C75.0862,181.658,74.7607,181.899,74.4023,182.082 C73.4634,182.452,72.3852,183.869,71.531,182.64 C70.6769,181.41,72.2701,180.853,73.0757,180.217 C79.7391,175.037,85.2515,168.471,92.0784,163.704 C97.1547,160.16,98.9659,154.811,102.31,150.377 C104.883,146.955,106.344,142.825,106.495,138.546 C107.422,140.115,108.955,141.175,108.313,143.744 C110.282,141.503,109.282,137.601,106.853,136.753 C105.32,136.226,105.872,135.869,106.199,135.081 C106.871,133.47,107.537,131.853,108.155,130.235 C108.24,130.017,108.058,129.696,107.895,128.927 C106.429,130.841,104.999,132.362,103.976,134.118 C97.8452,144.622,89.3283,152.818,79.4544,159.706 C74.7904,162.99,70.4315,166.688,66.4305,170.755 C65.1766,172.021,63.8803,173.226,61.8995,173.396 C64.2252,171.478,66.4246,169.412,68.4841,167.211 C72.6335,162.971,76.0985,157.822,80.8779,154.569 C83.8857,152.559,86.7222,150.304,89.3585,147.827 C93.5988,143.81,96.8881,139.067,99.9533,134.143 C101.437,131.768,102.806,129.296,104.799,127.304 C107.64,124.414,109.143,124.335,112.577,126.613 C113.419,127.17,114.395,128.515,115.376,127.734 C116.654,126.704,117.52,125.147,118.514,123.778 C118.605,123.651,118.393,123.209,118.211,123.009 C117.775,122.512,117.326,122.73,116.915,123.087 C116.254,123.657,115.703,124.529,114.395,124.014 C117.326,120.537,117.423,115.897,119.495,111.972 C118.821,112.731,118.146,113.49,117.472,114.249 C117.726,112.135,118.411,110.239,119.731,109.658 C123.754,107.901,124.135,104.206,124.892,100.826 C126.304,94.4895,127.412,88.1048,128.624,81.7019 C128.651,81.1355,128.627,80.5678,128.551,80.0058 C126.128,84.1492,123.905,87.8807,121.706,91.5697 C121.906,87.8443,124.414,85.1669,125.946,82.0654 C127.618,78.7787,128.84,75.2825,129.581,71.6705 C130.259,68.036,130.387,64.3348,130.835,59.8825 C127.309,66.8245,124.777,73.4818,120.791,79.0548 C118.326,82.4773,117.49,87.1174,113.462,89.5223 C112.735,89.9524,112.65,91.6909,112.529,92.854 C112.265,95.8443,111.198,98.7077,109.439,101.141 C109.137,101.565,108.834,101.886,108.834,102.437 C109.003,105.466,107.622,107.998,106.447,110.621 C106.211,111.16,106.308,111.899,105.399,111.608 C104.49,111.318,105.048,110.694,105.175,110.167 C106.15,106.138,107.537,102.225,108.416,98.1544 C109.155,94.7439,108.416,91.4122,108.628,87.9473 C105.638,91.246,102.984,94.8335,100.704,98.6571 C96.1915,106.084,92.3026,114.062,86.772,120.664 C82.2591,126.074,79.2666,132.422,74.6568,137.595 C70.4165,142.338,67.3877,147.79,64.3589,153.297 C62.9353,155.889,60.3669,157.688,59.113,160.505 C61.1726,153.666,67.4058,148.335,66.1701,140.406 C63.4442,143.302,62.0812,147.384,58.4345,149.729 C60.3124,146.876,62.4386,144.144,64.0075,141.127 C65.7582,137.759,69.4109,135.578,69.9318,131.483 C70.3922,127.915,71.0586,124.36,70.477,119.974 C56.8959,135.19,43.448,149.898,30.4363,165.042 C31.2965,162.304,33.7983,160.632,34.9007,157.567 C23.2217,160.596,15.0015,169.41,4.15843,173.596 C5.4487,172.384,6.7208,171.136,8.02924,169.961 C9.42853,168.653,10.7006,167.156,12.3362,166.23 C15.4074,164.485,18.1091,162.244,21.0349,160.323 C24.2212,158.24,27.4499,156.289,31.2904,155.568 C36.3667,154.611,39.0441,150.407,42.2365,147.033 C51.1593,137.601,59.8035,127.897,67.6118,117.514 C68.9566,115.697,70.4528,115.346,72.258,116.66 C74.784,118.478,78.1338,118.514,80.6114,120.555 C81.4594,121.258,82.5559,120.283,83.1677,119.532 C84.5215,117.924,85.7583,116.221,86.8689,114.437 C92.7205,104.624,98.348,94.6712,105.199,85.5121 C109.476,79.818,109.215,80.9629,113.256,84.7186 C120.149,77.4495,122.845,67.8845,126.988,59.1252 C128.145,56.7022,128.957,54.0793,131.229,52.3468 C131.633,52.3468,132.036,52.3468,132.44,52.3468 C138.056,56.999,141.636,63.1778,145.101,69.4171 C149.032,76.4984,152.897,83.6222,156.768,90.7459 C157.658,92.3875,158.494,93.5021,160.681,92.3088 C163.055,91.0124,165.194,92.0967,166.932,93.8535 C171.942,98.9176,176.97,103.958,181.858,109.131 C186.316,113.862,190.611,118.75,194.961,123.584 C195.875,124.596,196.899,124.529,198.214,124.717 C202.987,125.401,208.197,124.42,211.976,129.321 C218.567,137.886,225.539,146.155,232.088,154.763 C236.231,160.214,240.786,165.594,247.789,167.902 C249.449,168.453,251.109,169.343,251.842,171.191 C250.957,172.348,249.83,171.476,249.14,171.257 C242.913,169.307,236.298,168.313,232.385,161.795 C228.895,155.98,223.044,152.103,218.61,147.003 C215.248,143.132,211.946,139.164,207.821,135.893 C206.815,137.311,207.9,137.807,208.56,138.492 C217.156,147.451,225.636,156.537,234.359,165.333 C236.092,167.09,233.984,167.986,234.238,169.337 C234.317,169.737,233.457,169.337,233.166,168.956 C228.199,162.45,221.142,158.016,215.999,151.704 C213.188,148.257,209.626,145.422,207.561,141.375 C209.759,142.011,210.856,143.895,212.237,145.47 C216.398,150.15,220.865,154.549,225.606,158.639 C220.112,152.297,214.4,146.24,208.681,140.097 C208.396,139.794,208.021,139.491,207.657,139.849 C207.411,140.035,207.266,140.327,207.266,140.636 C207.266,140.946,207.411,141.237,207.657,141.424 C206.058,143.241,206.076,143.241,207.845,145.058 C215.518,152.897,223.165,160.746,230.785,168.604 C231.234,169.065,231.997,169.374,231.694,171.233 C231.694,171.233,206.446,145.089,206.446,145.089 C206.07,147.712,206.87,148.85,210.541,152.358 C216.532,158.052,222.371,163.904,228.253,169.707 C228.647,170.088,229.465,170.464,229.113,171.1 C228.508,172.172,227.902,171.1,227.417,170.846 C226.03,170.1,225.6,171.712,225.285,172.093 C224.316,173.263,224.074,173.111,223.177,172.033 C221.76,170.294,220.451,168.259,217.846,168.053 C217.461,167.851,217.075,167.649,216.689,167.447 C216.726,166.953,216.56,166.465,216.229,166.096 C212.946,160.96,207.748,157.713,203.587,153.46 C196.415,146.155,189.327,138.783,182.452,131.186 C177.266,125.45,172.39,119.404,166.532,114.298 C165.927,113.747,165.175,113.014,165.769,112.481 C166.587,111.717,167.108,112.862,167.647,113.377 C176.873,122.112,184.639,132.21,193.658,141.145 C197.99,145.434,201.703,150.365,206.719,154.157 C206.936,153.594,206.77,152.956,206.307,152.57 C198.995,143.78,190.823,135.778,183.051,127.413 C178.405,122.421,172.82,118.326,169.119,112.42 C168.786,111.893,168.241,110.554,167.459,111.009 C164.564,112.687,165.83,109.894,165.775,109.288 C165.285,105.466,165.969,101.516,164.091,97.8333 C163.485,96.6218,163.14,95.4951,161.602,96.016 C160.063,96.537,159.469,97.5849,159.881,99.3295 C160.408,101.547,161.002,103.782,160.929,106.102 C160.887,107.313,160.82,108.149,159.233,107.023 C158.494,106.593,157.87,105.99,157.416,105.266 C156.374,103.37,155.271,101.504,154.072,99.4143 C153.687,99.9689,153.719,100.712,154.151,101.232 C156.21,104.969,157.979,108.913,160.451,112.353 C161.662,114.074,159.045,114.679,160.305,116.236 C162.274,118.659,163.746,121.519,165.715,124.644 C165.805,122.766,165.872,121.47,165.933,120.174 C166.538,122.094,168.356,122.651,169.379,123.881 C176.128,131.877,183.312,139.504,190.781,146.797 C194.712,150.619,198.741,154.375,203.423,157.313 C204.584,158.373,205.745,159.433,206.906,160.493 C208.724,164.412,212.497,166.666,214.896,170.094 C215.738,171.306,217.01,172.19,218.004,173.299 C218.452,173.796,219.664,174.298,218.7,175.116 C217.925,175.801,217.64,174.747,217.174,174.274 C212.128,169.149,207.609,163.522,202.278,158.67 C201.467,157.931,200.788,157.034,199.619,156.852 C199.619,156.852,196.669,155.326,196.669,155.326 C195.082,151.952,191.889,150.098,189.37,147.609 C181.616,139.952,174.528,131.677,167.308,123.457 C166.411,125.51,166.763,126.97,168.64,128.303 C170.277,129.463,171.758,130.829,173.044,132.368 C176.97,137.117,181.264,141.569,185.105,146.379 C189.836,152.297,195.185,157.585,200.691,162.734 C204.071,165.89,206.882,169.725,211.244,171.736 z M158.936,126.134 C148.814,111.711,141.018,95.907,131.247,80.4298 C131.501,82.1078,130.762,82.8529,131.532,84.1552 C137.456,94.0352,143.168,104.042,148.996,113.977 C150.855,117.145,153.442,120.034,154.629,123.408 C155.489,125.832,157.7,125.668,158.821,127.164 C159.087,126.852,159.087,126.392,158.821,126.08 C159.893,125.868,161.723,126.183,160.311,124.129 C156.035,117.89,152.327,111.324,148.614,104.745 C143.211,95.1619,138.213,85.3607,132.089,76.135 C131.059,77.3465,131.483,78.3581,132.228,79.5575 C140.992,94.2169,149.719,108.899,158.409,123.602 C158.863,124.299,160.166,125.038,158.936,126.134 z M135.548,128.321 C135.66,127.834,135.814,127.358,136.008,126.898 C139.346,121.64,140.188,115.927,139.122,109.864 C138.982,109.07,138.861,108.046,137.838,108.252 C136.971,108.44,137.232,109.355,137.529,110.021 C137.783,110.554,137.65,111.324,137.147,111.039 C135.221,109.967,135.33,111.911,134.724,112.59 C132.598,114.958,130.774,117.575,128.448,119.792 C123.063,124.929,116.939,129.484,114.788,137.226 C114.455,138.437,113.389,139.431,112.662,140.527 C111.451,139.703,111.893,140.685,111.451,141.291 C108.979,144.846,108.658,150.062,103.461,151.588 C102.104,151.994,101.086,153.303,100.486,154.823 C99.8066,156.384,99.0318,157.901,98.1663,159.366 C97.7605,160.118,96.6156,160.96,97.5606,161.662 C98.4147,162.268,99.7776,162.71,100.904,161.886 C101.525,161.395,102.07,160.815,102.522,160.166 C107.501,153.545,113.674,148.142,120.161,143.102 C124.559,139.697,125.117,139.849,128.509,144.313 C129.575,145.713,130.284,145.743,131.538,144.519 C132.598,143.483,133.355,141.92,135.112,141.739 C134.188,143.186,133.123,144.537,131.931,145.773 C131.259,146.494,130.623,147.372,131.641,148.057 C134.118,149.735,135.839,152.624,138.995,153.163 C142.144,153.696,145.203,154.668,148.081,156.053 C148.832,156.416,149.432,156.465,149.947,155.865 C150.462,155.265,150.056,154.52,149.595,154.048 C146.833,151.195,145.706,147.875,145.773,143.853 C145.9,135.687,142.32,128.291,140.624,119.974 C138.77,122.875,138.879,126.286,135.548,128.321 z M148.747,168.089 C149.783,167.853,150.189,168.089,150.601,168.647 C152.364,171.07,154.314,173.317,155.944,175.795 C156.695,176.933,157.573,177.569,158.518,176.812 C159.851,175.752,158.07,175.062,157.64,174.492 C155.823,172.112,153.781,169.937,151.825,167.677 C151.443,167.235,150.958,166.769,151.697,166.218 C153.448,166.52,153.515,168.998,155.471,169.319 C153.248,162.656,145.137,156.41,138.74,156.737 C142.302,161.717,145.628,166.466,149.08,171.118 C149.856,172.16,150.958,173.111,151.104,174.353 C151.388,176.891,152.806,176.685,154.769,176.291 z M174.862,182.197 C166.987,168.956,158.191,156.368,149.177,143.907 C147.566,145.809,148.487,147.378,149.541,148.996 C153.83,155.562,157.918,162.274,162.401,168.701 C165.914,173.735,169.47,178.829,174.862,182.197 z M202.418,133.779 C200.867,132.41,201.085,131.083,200.782,129.89 C200.631,129.315,200.691,127.752,199.298,128.23 C198.426,128.533,197.305,128.927,197.426,130.26 C197.469,130.732,197.638,131.199,197.717,131.671 C198.626,136.99,201.788,141.109,204.792,145.046 C207.215,140.127,206.155,134.748,206.161,129.478 C206.161,128.563,206.494,127.394,205.271,126.928 C204.047,126.462,202.805,127.001,201.782,127.382 C201.067,127.655,201.679,128.933,201.939,129.805 C202.29,130.896,202.254,132.089,202.436,133.779 z M166.435,106.132 C176.77,121.67,191.605,133.24,203.653,147.324 C193.119,131.95,178.672,120.083,166.435,106.132 z M198.789,137.571 C198.129,136.166,197.802,134.433,196.766,133.416 C186.323,123.221,176.479,112.402,166.623,101.123 C166.248,102.728,165.951,103.697,166.993,104.624 C172.287,109.306,176.37,115.14,181.688,119.865 C185.753,123.353,189.527,127.166,192.974,131.265 C194.749,133.452,196.124,136.014,198.789,137.571 z M133.064,64.6437 C133.064,68.7871,154.266,108.168,157.737,110.524 z M159.112,104.969 C158.863,101.062,157.9,98.5541,155.835,95.9676 C151.34,90.34,148.529,83.604,145.143,77.2556 C142.114,71.6039,139.382,65.8068,135.554,60.6093 C142.835,75.3657,149.904,90.2916,159.057,104.969 z M143.604,180.241 C143.828,180.039,144.053,179.837,144.277,179.635 C136.905,171.591,130.52,162.753,123.645,154.193 C122.276,155.853,122.282,156.949,123.723,158.434 C127.182,162.068,130.308,165.987,133.676,169.695 C136.862,173.293,140.236,176.74,143.55,180.241 z M146.391,114.013 C146.627,113.878,146.863,113.743,147.1,113.607 C147.1,113.607,131.247,85.494,131.247,85.494 C130.891,85.6959,130.536,85.8978,130.181,86.0997 C134.021,96.2825,140.654,104.896,146.391,114.013 z M145.821,169.864 C145.876,166.502,143.514,164.921,141.666,162.977 C140.976,162.251,140.349,161.466,139.794,160.632 C136.16,155.15,130.526,151.485,126.898,146.021 C126.739,145.754,126.458,145.582,126.148,145.562 C125.837,145.543,125.537,145.679,125.347,145.925 C125.014,146.361,125.347,146.803,125.753,147.172 C130.478,151.128,133.815,156.259,137.601,161.026 C140.121,164.194,142.708,167.284,145.821,169.864 z M138.734,177.788 C133.01,171.56,127.57,165.745,122.821,159.336 C122.488,158.882,122.015,157.925,121.197,158.827 C120.688,159.391,121.058,159.887,121.464,160.402 C124.159,163.855,126.607,167.538,129.569,170.743 C132.053,173.438,134.276,176.721,138.734,177.794 z M148.208,99.2629 C147.905,101.843,149.292,102.934,150.025,104.303 C153.6,111.065,157.525,117.636,161.783,123.99 C162.328,124.795,162.764,125.48,163.946,124.596 z M207.766,131.974 C207.373,136.281,211.552,137.105,213.551,139.534 C215.66,142.102,218.749,143.865,221.426,145.973 C221.224,146.163,221.023,146.353,220.821,146.542 C217.265,140.988,212.031,136.929,207.742,131.998 z M129.623,92.5147 C129.109,93.7262,128.703,94.859,129.405,95.9676 C131.089,98.6329,132.701,101.341,134.373,104.012 C134.597,104.375,134.766,105.042,135.384,104.787 C136.117,104.478,135.929,103.921,135.608,103.34 C133.577,99.7576,131.568,96.1574,129.581,92.5389 z M120.174,160.875 C119.216,161.48,118.205,162.401,118.714,163.207 C119.993,165.088,121.432,166.855,123.015,168.489 C123.221,168.725,124.032,168.671,124.384,168.489 C125.068,168.077,124.699,167.453,124.384,166.963 C122.984,164.915,121.585,162.91,120.174,160.875 z M127.346,102.316 C126.692,104.212,128.557,110.106,130.156,111.439 C130.292,111.582,130.48,111.664,130.677,111.664 C130.875,111.664,131.063,111.582,131.198,111.439 C131.459,111.288,131.64,111.031,131.695,110.735 C131.75,110.439,131.672,110.134,131.483,109.9 C130.035,107.404,128.721,104.854,127.346,102.316 z M133.712,60.3186 C133.355,63.099,137.886,71.9673,140.775,74.8568 z M66.9333,145.276 C69.005,143.526,70.2468,142.248,68.2478,139.97 C69.4593,140.624,70.5982,140.618,70.8768,139.558 C71.2403,138.195,70.2287,137.329,69.0595,136.729 C67.3876,139.213,67.321,141.921,66.9333,145.276 z M72.0581,121.591 C73.9844,123.554,75.947,125.486,77.8128,127.497 C78.1443,128.005,78.7871,128.21,79.3514,127.988 C79.5924,127.898,79.7627,127.681,79.7921,127.425 C79.8215,127.169,79.7051,126.919,79.4907,126.776 C77.2191,124.705,75.1595,122.336,72.0581,121.591 z M143.598,91.3032 C142.605,87.808,140.727,84.7792,138.825,81.7625 C139.094,83.5201,139.58,85.2375,140.273,86.8751 C141.048,88.5046,141.714,90.3158,143.598,91.2971 z M121.5,169.664 C121.5,168.847,118.035,164.309,117.551,164.546 C117.127,164.806,116.826,165.225,116.715,165.709 C116.503,166.654,119.428,170.161,120.531,170.409 C121.173,170.555,121.452,170.27,121.5,169.664 z M207.088,151.116 C209.705,155.011,212.94,157.392,215.441,160.487 C215.69,160.245,215.938,160.002,216.187,159.76 z M119.253,171.645 C118.041,170.234,117.078,168.713,115.745,167.617 C114.91,166.926,114.758,168.32,114.534,168.786 C114.183,169.573,117.702,172.602,118.52,172.275 C118.78,172.184,118.944,171.942,119.271,171.645 z M165.036,174.195 C163.219,171.772,161.371,169.404,159.1,166.436 C160.069,170.367,161.668,172.935,165.054,174.195 z M163.019,178.599 C166.018,180.847,168.434,183.857,172.008,185.263 C169.137,182.87,166.738,179.835,163.037,178.599 z M135.693,78.8245 C134.984,76.559,134.657,75.0385,134.009,73.6695 C133.737,73.1062,134.039,72.1491,133.161,71.9734 C132.834,71.9068,132.149,72.1612,132.119,72.355 C131.98,73.1849,131.544,74.0693,132.258,74.8689 C133.222,75.9714,134.167,77.0678,135.693,78.8245 z M71.7128,124.432 C73.5301,126.431,75.2989,128.442,77.1101,130.429 C77.2739,130.626,77.5258,130.728,77.7806,130.7 C78.0354,130.672,78.2591,130.518,78.3761,130.29 C78.5204,130.077,78.5585,129.809,78.4792,129.564 C78.3999,129.319,78.2122,129.124,77.9703,129.036 C75.5169,127.921,74.475,125.262,71.7128,124.432 z M109.167,130.938 C108.379,133.967,110.748,135.027,111.59,136.802 C111.741,137.129,111.844,137.898,112.559,137.408 C113.074,137.068,113.007,136.608,112.686,136.142 C111.59,134.542,110.518,132.913,109.167,130.926 z M124.202,118.823 C124.441,118.698,124.674,118.56,124.898,118.411 C126.655,117.121,124.765,116.218,124.493,115.176 C124.395,114.821,124.114,114.546,123.756,114.456 C123.399,114.365,123.021,114.474,122.766,114.74 C121.839,115.679,123.19,116.327,123.372,117.163 C123.584,117.737,123.863,118.283,124.202,118.793 z M168.768,138.159 C169.373,135.736,167.296,134.676,165.921,133.27 C166.279,135.17,167.285,136.887,168.768,138.128 z M125.638,106.556 C126.14,109.736,127.612,111.566,129.327,113.262 C128.736,110.722,127.46,108.392,125.638,106.526 z M75.1959,134.076 C74.3236,131.447,73.0152,130.072,71.2463,129.63 C72.0156,131.635,73.6088,132.84,75.1959,134.046 z"/>
        </defs>
        <use xlink:href="#3" style="fill:#000000;fill-opacity:1;fill-rule:evenodd;opacity:1;stroke:none;"/>
      </g>
    </defs>
    <use xlink:href="#2"/>
  </g>
</svg>
