<?xml version="1.0" encoding="UTF-8"?>
<!-- Generated by Pixelmator Pro 2.4.2 -->
<svg width="341" height="341" viewBox="0 0 341 341" xmlns="http://www.w3.org/2000/svg" xmlns:xlink="http://www.w3.org/1999/xlink">
    <path id="Path" fill="#413c43" stroke="none" d="M 285.114655 232.346649 C 285.494659 232.912018 286.003998 233.727997 285.478668 234.156006 C 284.46933 234.96402 283.975983 233.897339 283.297333 233.283997 C 277.062653 227.630676 270.422668 222.485321 264.220001 216.766663 C 267.854675 223.494659 274.720001 227.266663 279.308014 233.170685 C 272.757324 230.546661 269.098663 224.286652 262.717316 220.005341 C 264.026672 223.584015 266.618683 225.206665 267.984009 227.654663 C 269.003998 229.524017 270.269318 231.249329 271.748016 232.783997 C 273.637329 234.67334 271.820007 235.828003 270.940002 236.612 C 269.922668 237.507996 269.009338 236.264008 268.363983 235.311981 C 258.76001 221.217316 246.880005 208.860001 237.445328 194.653336 C 237.307999 194.450668 237.009338 194.353333 236.185349 194.580002 C 244.531998 207.214661 252.877335 219.849335 261.223999 232.484009 C 260.833344 232.726654 260.442657 232.96933 260.052002 233.212006 C 251.975998 222.712006 245.328003 211.266663 236.945328 200.903992 C 245.269333 214.365326 253.593338 227.82666 261.918671 241.287994 C 257.758667 238.630676 255.796005 234.446686 253.373337 230.64267 C 245.942673 218.996002 239.133347 206.929337 231.161331 195.678665 C 229.377335 193.150681 227.454666 189.265335 225.007996 188.216003 C 219.353333 185.791992 221.41333 180.664001 219.604004 177.029343 C 218.618668 175.05867 218.796005 171.440002 216.02533 172.037338 C 213.255997 172.636002 214.814651 175.671997 215.218674 177.811996 C 216.785339 186.446671 221.057327 193.82933 225.718674 201.033325 C 225.671997 200.995987 225.626663 200.958664 225.581345 200.919998 C 225.903992 202.171997 226.218674 203.423996 226.541336 204.67601 C 226.313339 204.786667 226.084 204.897339 225.856003 205.006668 C 223.432007 200.653336 221.429337 196.017334 218.537338 192.012009 C 214.5 186.478653 213.950668 179.346664 209.426682 174.057327 C 207.650681 171.981323 205.518677 170.713333 203.038681 168.531998 C 204.177322 172.522659 206.689331 174.889343 208.538681 177.465332 C 210.736008 180.510666 212.004013 184.047989 214.305344 186.995987 C 214.619995 187.392014 215.605331 188.409348 214.653336 189.014664 C 213.522659 189.725342 213.08667 188.610657 212.62532 187.780014 C 206.107986 175.93866 197.449341 165.462662 190.818665 153.686661 C 190.657333 153.412003 190.179993 153.315994 189.598679 152.992004 C 189.800003 157.838669 193.378662 160.617325 195.599991 164.073334 C 202.796005 175.276001 210.388 186.195999 217.294662 197.601334 C 226.403992 212.656006 236.209335 227.282684 245.562668 242.167999 C 246.370667 243.403992 248.73732 245.003998 246.790665 246.409332 C 245.982666 247.014679 244.892014 244.301331 244.044006 242.959991 C 232.462662 224.653351 220.850662 206.372009 209.209335 188.118668 C 203.709335 179.509338 198.078674 170.979996 191.908005 161.465332 C 192.248001 164.986664 192.902664 167.23201 194.153336 169.250671 C 203.846664 184.863998 213.44133 200.524002 223.270676 216.048004 C 227.607986 222.889343 232.397339 229.440002 236.961319 236.14267 C 237.845337 237.318665 238.596008 238.589325 239.198669 239.930664 C 239.513321 240.738678 240.854675 241.885345 239.400009 242.645325 C 237.429337 243.670685 238.124008 241.578674 237.785339 240.884003 C 233.900009 233.614655 228.852005 227.073334 224.054672 220.37735 C 216.203995 209.328003 209.766663 197.414673 202.755997 185.857346 C 200.333328 181.900009 197.909348 177.982666 195.244003 173.685349 C 194.728012 179.856003 198.337341 184.039993 200.777328 188.594666 C 209.726669 205.151993 221.744003 219.690674 231.726669 235.56134 C 234.06134 239.269318 235.506668 243.436005 238.23732 246.990662 C 240.110657 249.41333 243.647995 250.496002 243.890671 254.170685 C 242.791992 254.849335 241.830673 253.653351 240.789322 253.589325 C 238.559998 253.451996 236.863998 249.26001 234.134659 252.636017 C 233.442673 252.35202 232.796005 251.972015 232.21199 251.505341 C 227.293335 247.838654 222.156006 244.470673 217.67334 240.27066 C 215.807999 238.52533 213.88533 236.813324 210.501343 237.73465 C 215.937332 243.808014 223.593338 247.144012 228.553329 253.338654 C 228.318665 253.608002 228.084 253.87735 227.850662 254.146667 C 227.850662 254.146667 206.494675 237.063995 206.494675 237.063995 C 211.147995 243.776001 218.174667 247.878662 222.802673 254.566681 C 218.949341 251.335999 214.814651 248.475983 211.301331 244.946686 C 202.141342 235.731995 191.965332 227.541351 183.67067 217.485321 C 178.630676 211.356003 174.470657 204.562668 168.727997 198.957336 C 168.122665 198.367996 167.96933 196.946671 166.765335 197.858658 C 165.562668 198.771988 166.667999 199.273331 167.209335 200.064011 C 173.226669 208.949341 180.778671 216.467987 187.757324 224.488007 C 195.285339 233.130676 203.289322 241.353333 211.066666 249.777313 C 211.632004 250.390656 212.860001 251.045319 211.544006 251.989349 C 210.437332 252.797333 209.872009 251.698669 209.314651 251.003998 C 200.574661 240.197327 190.486679 230.610657 181.401321 220.110657 C 178.929337 217.251984 176.942673 213.891998 172.774658 211.161331 C 175.593338 216.492004 179.106674 220.102661 182.257324 223.866669 C 188.82399 231.70932 194.686661 240.230682 202.78801 246.708008 C 203.297348 247.119995 203.596008 247.781342 204.080002 248.218658 C 205.192001 249.26001 205.452011 250.925323 204.710678 252.256012 C 203.902664 253.475983 202.077332 252.393341 200.71199 252.409332 C 196.294662 252.458649 194.517334 249.276001 192.304001 246.433319 C 191.636002 245.671997 190.556015 245.425323 189.622665 245.818665 C 192.255997 248.847992 194.776001 251.698669 197.222672 254.614655 C 197.748001 255.237335 198.838669 255.972015 197.78801 256.973328 C 196.569336 258.112 196.12532 256.56134 195.679993 256.059998 C 191.796005 251.64267 187.934677 247.175995 184.228012 242.629333 C 182.506668 240.505341 180.698669 238.751984 177.475998 238.23465 C 181.513321 245.455994 188.629333 249.962677 192.263992 256.981323 C 192.263992 256.981323 191.149338 257.829315 191.149338 257.829315 C 187.192001 253.637329 183.072006 249.598663 179.341324 245.189331 C 175.609329 240.779999 172.484009 236.126678 168.922668 231.345337 C 166.709335 234.67334 169.050674 236.498657 170.682663 238.421326 C 175.76268 244.421326 181.085327 250.22934 185.665329 256.650665 C 186.046677 257.098663 186.234665 257.67868 186.190674 258.26535 C 178.412003 253.378662 174.293335 245.027985 167.856003 238.791992 C 169.681335 246.748016 176.126663 251.376007 180.923996 257.320007 C 174.898666 255.494659 172.29866 249.623993 167.193329 244.946686 C 168.71199 251.658661 174.365341 254.566681 177.127991 260.494659 C 172.79866 258.613342 171.651993 255.245331 169.366669 253.015991 C 168.905334 252.571991 168.751999 251.764008 168.251999 251.399994 C 167.404007 250.82666 166.902664 248.783997 165.537338 250.100006 C 164.730667 250.90799 165.230667 252.014679 166.297333 253.096008 C 168.130661 254.954681 169.261337 257.457336 171.216003 259.308014 C 171.789322 259.85733 172.985336 260.608002 171.966675 261.585327 C 170.949341 262.562653 170.246658 261.440002 169.737335 260.72934 C 167.880005 258.144012 165.408005 256.011993 163.865341 252.37735 C 161.192001 257.604004 168.809341 258.556 167.290665 262.73999 C 164.350662 261.519989 163.720001 257.894684 160.594666 256.391998 C 160.594666 259.395996 163.825333 260.745331 163.769333 263.757324 C 162.039993 263.757324 161.685333 262.14267 160.660004 261.553314 C 159.804001 261.076019 159.577332 258.992004 157.897324 260.486664 C 156.451996 261.786652 157.897324 262.570648 158.317337 263.563995 C 158.506668 264.130676 158.653336 264.712006 158.753342 265.300018 C 154.093338 262.190674 154.626663 268.329315 151.557327 268.53067 C 151.67067 262.73999 154.49733 258.193329 158.018661 253.920013 C 160.934662 250.414673 163.373337 246.716003 162.694672 241.570648 C 159.400009 243.258667 159.221329 247.434662 155.425339 249.098663 C 158.227997 242.685333 164.681335 238.550659 163.639999 231.144012 C 157.91333 235.602661 151.686661 239.818665 146.250671 244.874664 C 141.582657 249.243988 135.629333 250.850677 130.403732 253.961334 C 128.142258 255.309326 125.727333 256.432007 123.344666 257.562653 C 121.955467 258.217316 120.178535 258.540009 119.475868 257.005341 C 118.975067 255.914673 120.590538 255.115997 121.527336 254.363983 C 124.984802 251.606659 128.85173 249.403992 132.988403 247.838654 C 139.958664 245.189331 144.748001 239.721344 150.53067 235.537323 C 153.366669 233.486664 150.992004 231.822662 149.909332 230.264008 C 148.447998 228.171997 147.325333 229.738678 146.193329 230.861328 C 144.839996 232.333344 143.173325 233.485321 141.315994 234.22934 C 149.690659 221.436005 160.514664 209.642654 164.277328 192.754654 C 150.078659 203.626663 139.837326 216.903992 128.546127 230.58667 C 128.626938 227.832001 129.789993 226.992004 130.323074 225.837341 C 131.04187 224.27066 134.248001 222.800018 132.075729 221.201324 C 130.226135 219.843994 127.665733 217.970673 124.435066 220.982666 C 116.786263 228.171997 108.515602 234.713348 100.487335 241.490662 C 100.114929 241.87735 99.680931 242.198669 99.203064 242.442657 C 97.951202 242.936005 96.513603 244.825348 95.374664 243.186676 C 94.23587 241.546661 96.360138 240.803986 97.434265 239.955994 C 106.318794 233.049347 113.668671 224.294647 122.771202 217.93866 C 129.539597 213.213348 131.954529 206.081345 136.41333 200.169327 C 139.844009 195.606674 141.792007 190.099991 141.993332 184.394669 C 143.229324 186.486679 145.273331 187.900009 144.417343 191.325333 C 147.042664 188.337341 145.709335 183.134659 142.470657 182.004013 C 140.426666 181.301331 141.162674 180.825333 141.598663 179.774658 C 142.494675 177.626663 143.382675 175.470657 144.206665 173.313339 C 144.319992 173.022659 144.077332 172.594666 143.860001 171.569336 C 141.905334 174.121338 139.998672 176.149338 138.634659 178.490662 C 130.460266 192.495987 119.104401 203.423996 105.939201 212.607986 C 99.720528 216.986664 93.908669 221.917328 88.573997 227.339996 C 86.90213 229.027985 85.173729 230.634674 82.532669 230.861328 C 85.633598 228.303986 88.566132 225.549347 91.312134 222.614655 C 96.844666 216.961334 101.464668 210.096008 107.837196 205.758667 C 111.847595 203.078674 115.629601 200.072006 119.144661 196.769333 C 124.798401 191.41333 129.184128 185.08934 133.271072 178.524002 C 135.249329 175.357346 137.074661 172.06134 139.73201 169.405334 C 143.520004 165.552002 145.524002 165.446671 150.102676 168.483994 C 151.225327 169.226669 152.526657 171.020004 153.834671 169.978668 C 155.538666 168.605331 156.693329 166.529343 158.018661 164.703995 C 158.139999 164.534668 157.85733 163.945328 157.61467 163.678665 C 157.03334 163.016006 156.434662 163.306671 155.886673 163.782669 C 155.005325 164.542664 154.270676 165.705338 152.526657 165.018661 C 156.434662 160.382675 156.563995 154.195999 159.326675 148.962662 C 158.427994 149.97467 157.528 150.986664 156.629333 151.998672 C 156.968002 149.180008 157.881332 146.651993 159.641342 145.877335 C 165.005325 143.534668 165.513336 138.608002 166.522659 134.101334 C 168.405334 125.652664 169.882675 117.139725 171.498657 108.602524 C 171.534668 107.847336 171.50267 107.090408 171.401321 106.341064 C 168.17067 111.865601 165.206665 116.840927 162.274673 121.759598 C 162.541336 116.792404 165.88533 113.222534 167.927994 109.087204 C 170.157333 104.704941 171.786667 100.043335 172.774658 95.227341 C 173.678665 90.381332 173.849319 85.446396 174.446671 79.51001 C 169.745331 88.766006 166.369339 97.642395 161.054672 105.073074 C 157.76799 109.636398 156.653336 115.823196 151.282669 119.029739 C 150.313339 119.603195 150.199997 121.921204 150.038666 123.472 C 149.686661 127.459061 148.263992 131.276932 145.918671 134.521332 C 145.516006 135.08667 145.112 135.514664 145.112 136.249329 C 145.337326 140.28801 143.496002 143.664001 141.929337 147.161331 C 141.61467 147.880005 141.744003 148.865341 140.531998 148.477341 C 139.319992 148.090668 140.063995 147.258667 140.233337 146.556 C 141.53334 141.184006 143.382675 135.96666 144.554672 130.5392 C 145.539993 125.991867 144.554672 121.549606 144.837326 116.929733 C 140.850662 121.328003 137.311996 126.111343 134.272003 131.209457 C 128.255325 141.112 123.070129 151.749329 115.696007 160.552002 C 109.678802 167.765335 105.688805 176.229324 99.542397 183.126663 C 93.888664 189.450668 89.850273 196.719986 85.811867 204.062668 C 83.913734 207.518677 80.489204 209.917343 78.817329 213.67334 C 81.563469 204.554672 89.874397 197.446671 88.226799 186.87468 C 84.592262 190.736008 82.774933 196.178665 77.912666 199.305344 C 80.416534 195.501343 83.251465 191.858658 85.34333 187.835999 C 87.677605 183.345337 92.547859 180.437332 93.242401 174.977341 C 93.856262 170.220001 94.744804 165.479996 93.96933 159.632004 C 75.861198 179.919998 57.930668 199.530655 40.581734 219.722687 C 41.728664 216.071991 45.064404 213.842682 46.534267 209.755997 C 30.962267 213.794647 20.002001 225.546661 5.544573 231.127991 C 7.264933 229.511993 8.961066 227.847992 10.705653 226.281342 C 12.571373 224.537323 14.267467 222.541351 16.448267 221.306671 C 20.5432 218.980011 24.145468 215.992004 28.046534 213.430664 C 32.294933 210.653336 36.599865 208.052002 41.720531 207.090652 C 48.488934 205.814651 52.058804 200.209335 56.315334 195.710678 C 68.212402 183.134659 79.737999 170.195999 90.149071 156.352005 C 91.942131 153.929337 93.937065 153.461334 96.344002 155.213333 C 99.711998 157.637329 104.178398 157.685333 107.481865 160.406662 C 108.612526 161.344009 110.074532 160.043991 110.890266 159.042664 C 112.695335 156.898666 114.344398 154.628006 115.825195 152.249329 C 123.627327 139.165329 131.130661 125.894943 140.265335 113.6828 C 145.968002 106.090668 145.619995 107.617203 151.007996 112.624802 C 160.198669 102.932663 163.793335 90.179337 169.317337 78.500275 C 170.860001 75.269592 171.942673 71.7724 174.972 69.462402 C 175.510666 69.462402 176.047989 69.462402 176.58667 69.462402 C 184.074661 75.665344 188.848007 83.903748 193.468002 92.222794 C 198.709335 101.664536 203.862671 111.162933 209.024002 120.661209 C 210.210678 122.849991 211.325333 124.336136 214.241333 122.745071 C 217.406662 121.016525 220.258667 122.462265 222.576004 124.804672 C 229.255997 131.556808 235.960007 138.277328 242.477341 145.174667 C 248.421326 151.482666 254.147995 158 259.947998 164.445328 C 261.166656 165.794662 262.532013 165.705338 264.285339 165.956009 C 270.649323 166.867996 277.596008 165.559998 282.634674 172.094666 C 291.422668 183.514664 300.718658 194.539993 309.450653 206.017334 C 314.97467 213.285339 321.048004 220.458649 330.385345 223.53598 C 332.598663 224.27066 334.811981 225.457336 335.789337 227.921326 C 334.609344 229.46402 333.106659 228.301331 332.186676 228.009338 C 323.884003 225.409332 315.063995 224.084015 309.846649 215.393341 C 305.193329 207.639999 297.391998 202.470657 291.480011 195.67067 C 286.997345 190.509338 282.594666 185.218674 277.094666 180.857346 C 275.753326 182.748001 277.199982 183.409348 278.079987 184.322678 C 289.541351 196.268005 300.847992 208.382675 312.478668 220.110657 C 314.789337 222.453339 311.978668 223.64798 312.317352 225.449341 C 312.422668 225.982666 311.276001 225.449341 310.888 224.941315 C 304.26535 216.266663 294.855988 210.354675 287.998657 201.93866 C 284.250671 197.342667 279.501343 193.562668 276.748016 188.166672 C 279.67868 189.014664 281.141327 191.526672 282.982666 193.626663 C 288.53067 199.866653 294.486664 205.731995 300.808014 211.185349 C 293.482666 202.729324 285.866669 194.653336 278.241333 186.462662 C 277.861328 186.05867 277.361328 185.654663 276.876007 186.132004 C 276.548004 186.380005 276.354675 186.769333 276.354675 187.181335 C 276.354675 187.594666 276.548004 187.982666 276.876007 188.231995 C 274.743988 190.654663 274.768005 190.654663 277.126678 193.077332 C 287.35733 203.529343 297.553314 213.994659 307.713348 224.472015 C 308.311981 225.08667 309.329315 225.498657 308.925323 227.977325 C 308.925323 227.977325 275.261322 193.118668 275.261322 193.118668 C 274.76001 196.616013 275.82666 198.133347 280.721344 202.810669 C 288.70932 210.402664 296.494659 218.205353 304.337341 225.942657 C 304.862671 226.450653 305.953339 226.951996 305.484009 227.800018 C 304.677338 229.22934 303.869324 227.800018 303.222687 227.461334 C 301.373322 226.466675 300.800018 228.615997 300.380005 229.123993 C 299.087982 230.68399 298.76535 230.481323 297.569336 229.044006 C 295.679993 226.725342 293.934662 224.011993 290.461334 223.737335 C 289.947998 223.467987 289.433319 223.198669 288.918671 222.929352 C 288.967987 222.27066 288.746674 221.619995 288.305328 221.127991 C 283.928009 214.279999 276.997345 209.950668 271.449341 204.280014 C 261.886658 194.539993 252.435989 184.710678 243.269333 174.581345 C 236.354675 166.933334 229.853333 158.871994 222.042664 152.063995 C 221.236008 151.32933 220.233337 150.352005 221.02533 149.641342 C 222.116013 148.622665 222.810669 150.149338 223.529343 150.835999 C 235.830673 162.482666 246.185349 175.946671 258.210663 187.860001 C 263.986664 193.578674 268.937347 200.153336 275.625336 205.209335 C 275.914673 204.458664 275.693329 203.607986 275.076019 203.093338 C 265.32666 191.373337 254.430664 180.703995 244.067993 169.550674 C 237.873337 162.894669 230.426682 157.434662 225.492004 149.559998 C 225.047989 148.85733 224.321335 147.072006 223.278671 147.678665 C 219.418655 149.916 221.106674 146.192001 221.033325 145.384003 C 220.380005 140.28801 221.291992 135.021332 218.78801 130.111069 C 217.979996 128.495743 217.520004 126.993469 215.469345 127.688004 C 213.417343 128.382675 212.62532 129.779861 213.174667 132.106003 C 213.877335 135.062668 214.669327 138.042664 214.572006 141.136002 C 214.515991 142.750671 214.426682 143.865341 212.310669 142.363998 C 211.325333 141.790665 210.493332 140.986664 209.888 140.021332 C 208.498657 137.493332 207.028 135.005325 205.429337 132.21907 C 204.916 132.958542 204.958664 133.949326 205.534668 134.64267 C 208.280014 139.625336 210.638672 144.884003 213.934677 149.470657 C 215.549332 151.765335 212.059998 152.572006 213.73999 154.647995 C 216.365341 157.878662 218.328003 161.692001 220.953323 165.858658 C 221.073318 163.35466 221.162659 161.626663 221.244003 159.898666 C 222.050659 162.458664 224.47467 163.20134 225.838669 164.841324 C 234.837341 175.50267 244.416 185.671997 254.37468 195.395996 C 259.615997 200.492004 264.988007 205.5 271.230682 209.417343 C 272.778656 210.830673 274.32666 212.244003 275.874664 213.657318 C 278.298676 218.88266 283.329315 221.888 286.527985 226.458649 C 287.650665 228.074677 289.346649 229.253326 290.671997 230.731995 C 291.269318 231.394684 292.885345 232.063995 291.600006 233.154663 C 290.566681 234.067993 290.186676 232.662659 289.565338 232.032013 C 282.837341 225.198669 276.811981 217.696014 269.70401 211.226669 C 268.62265 210.241333 267.717316 209.045334 266.158661 208.802673 C 266.158661 208.802673 262.225342 206.768005 262.225342 206.768005 C 260.109344 202.269333 255.852005 199.797348 252.493332 196.478653 C 242.154663 186.269333 232.703995 175.236008 223.077332 164.276001 C 221.881332 167.013336 222.350662 168.960007 224.853333 170.73732 C 227.035995 172.283997 229.010666 174.105331 230.725342 176.157333 C 235.960007 182.489334 241.685349 188.425339 246.806656 194.838669 C 253.11467 202.729324 260.246674 209.780014 267.587982 216.645325 C 272.094666 220.853333 275.842682 225.966675 281.658661 228.64798 Z M 211.914673 167.845337 C 198.418655 148.61467 188.024002 127.542664 174.995987 106.906403 C 175.334671 109.143738 174.349319 110.137192 175.375992 111.873596 C 183.274658 125.046936 190.890671 138.389328 198.661331 151.636002 C 201.139999 155.860001 204.58934 159.71199 206.171997 164.210663 C 207.318665 167.442673 210.266663 167.223999 211.761337 169.218674 C 212.116013 168.802658 212.116013 168.189331 211.761337 167.773331 C 213.190674 167.490662 215.630676 167.91066 213.748001 165.171997 C 208.046677 156.853333 203.102661 148.098663 198.151993 139.326675 C 190.947998 126.54921 184.283997 113.480942 176.118668 101.180008 C 174.745346 102.795334 175.310669 104.144135 176.304001 105.743332 C 187.989334 125.2892 199.62532 144.865341 211.21199 164.46933 C 211.817337 165.398666 213.554672 166.384003 211.914673 167.845337 Z M 180.730667 170.761337 C 180.880005 170.112 181.085327 169.477341 181.343994 168.863998 C 185.794662 161.853333 186.917343 154.236008 185.495987 146.151993 C 185.309326 145.093338 185.147995 143.727997 183.783997 144.00267 C 182.627991 144.253342 182.975998 145.473343 183.372009 146.361343 C 183.710678 147.072006 183.533325 148.098663 182.862671 147.718674 C 180.294662 146.289337 180.440002 148.881332 179.632004 149.786667 C 176.797348 152.944 174.365341 156.433334 171.263992 159.389328 C 164.084 166.238663 155.918671 172.311996 153.050674 182.634659 C 152.606674 184.249329 151.185333 185.574661 150.216003 187.035995 C 148.601334 185.937332 149.190659 187.246658 148.601334 188.054672 C 145.305328 192.794662 144.877335 199.749329 137.947998 201.783997 C 136.138657 202.325333 134.781326 204.070663 133.981339 206.097336 C 133.07547 208.178665 132.042404 210.20134 130.888397 212.154663 C 130.347336 213.157318 128.820801 214.279999 130.080795 215.216003 C 131.219604 216.024017 133.036804 216.613342 134.538666 215.514679 C 135.366669 214.860016 136.093338 214.08667 136.695999 213.221344 C 143.334671 204.393326 151.565338 197.189331 160.214676 190.469345 C 166.078659 185.929337 166.822662 186.132004 171.345337 192.084 C 172.766663 193.950668 173.71199 193.990662 175.383987 192.358658 C 176.797348 190.977341 177.806656 188.893326 180.149338 188.651993 C 178.917343 190.581345 177.49733 192.382675 175.908005 194.030655 C 175.012009 194.992004 174.164001 196.162659 175.521347 197.076004 C 178.82399 199.313339 181.118668 203.165329 185.32666 203.883987 C 189.52533 204.594666 193.604004 205.890671 197.44133 207.73732 C 198.442673 208.221329 199.242676 208.286667 199.929337 207.486679 C 200.616013 206.686661 200.074661 205.693344 199.460007 205.064011 C 195.777328 201.26001 194.274658 196.833328 194.363998 191.470657 C 194.533325 180.582657 189.76001 170.721329 187.498657 159.632004 C 185.026672 163.5 185.171997 168.048004 180.730667 170.761337 Z M 198.32933 223.785339 C 199.710678 223.470673 200.251999 223.785339 200.801331 224.529327 C 203.151993 227.76001 205.751999 230.756012 207.925339 234.059998 C 208.926682 235.577332 210.097336 236.425323 211.357346 235.415985 C 213.134659 234.002655 210.76001 233.082672 210.186661 232.322662 C 207.763992 229.149323 205.041336 226.249329 202.433334 223.235992 C 201.923996 222.646667 201.277328 222.02533 202.26268 221.29068 C 204.597336 221.693329 204.686661 224.997345 207.294662 225.425323 C 204.330673 216.541351 193.515991 208.213333 184.986679 208.649338 C 189.736008 215.289337 194.17067 221.621338 198.773331 227.824005 C 199.807999 229.213348 201.277328 230.481323 201.472 232.137329 C 201.850662 235.521332 203.741333 235.246674 206.358658 234.721344 Z M 233.149338 242.596008 C 222.649338 224.941315 210.921326 208.157333 198.902664 191.542664 C 196.754654 194.078674 197.982666 196.17067 199.388 198.328003 C 205.106674 207.082657 210.557327 216.032013 216.534668 224.601349 C 221.218674 231.313324 225.960007 238.105316 233.149338 242.596008 Z M 269.890656 178.038681 C 267.822662 176.213333 268.113342 174.443985 267.70932 172.853333 C 267.507996 172.08667 267.587982 170.00267 265.730682 170.639999 C 264.567993 171.044006 263.073334 171.569336 263.23465 173.346664 C 263.291992 173.975998 263.517334 174.598679 263.62265 175.228012 C 264.834686 182.320007 269.050659 187.811996 273.056 193.06134 C 276.286652 186.50267 274.873322 179.330673 274.881317 172.304001 C 274.881317 171.084 275.325348 169.52533 273.694672 168.904007 C 272.062653 168.282669 270.406647 169.001328 269.042664 169.509338 C 268.089325 169.873337 268.905334 171.577332 269.251984 172.73999 C 269.720001 174.194656 269.671997 175.785339 269.914673 178.038681 Z M 221.91333 141.17601 C 235.693344 161.893326 255.473328 177.320007 271.537323 196.098679 C 257.492004 175.599991 238.229324 159.777328 221.91333 141.17601 Z M 265.052002 183.094666 C 264.171997 181.221329 263.735992 178.91066 262.354675 177.554672 C 248.430664 163.961334 235.305344 149.535995 222.164001 134.49733 C 221.664001 136.637329 221.268005 137.929337 222.657333 139.165329 C 229.716003 145.408005 235.159988 153.186661 242.250671 159.486664 C 247.67067 164.137329 252.702652 169.221329 257.298676 174.686661 C 259.665314 177.602661 261.498657 181.018677 265.052002 183.094666 Z M 177.418655 85.858261 C 177.418655 91.382797 205.688004 143.890671 210.315994 147.031998 Z M 212.149338 139.625336 C 211.817337 134.416 210.533325 131.072128 207.780014 127.623459 C 201.786667 120.119995 198.038681 111.138657 193.524002 102.674133 C 189.485336 95.138535 185.842667 87.409073 180.738663 80.479065 C 190.446671 100.154266 199.872009 120.055466 212.076004 139.625336 Z M 191.472 239.988007 C 191.770676 239.718658 192.070663 239.449341 192.369324 239.179993 C 182.539993 228.454681 174.026672 216.670685 164.860001 205.257324 C 163.034668 207.470657 163.042664 208.932007 164.964005 210.912003 C 169.576004 215.757324 173.744003 220.982666 178.234665 225.926666 C 182.482666 230.723999 186.981323 235.320007 191.400009 239.988007 Z M 195.188004 151.684006 C 195.50267 151.503998 195.817337 151.32399 196.133347 151.14267 C 196.133347 151.14267 174.995987 113.658676 174.995987 113.658676 C 174.521347 113.927872 174.047989 114.197067 173.574661 114.466263 C 178.694656 128.043335 187.538681 139.528 195.188004 151.684006 Z M 194.427994 226.152008 C 194.501343 221.669342 191.352005 219.56134 188.888 216.96933 C 187.968002 216.001343 187.132004 214.954681 186.392014 213.842682 C 181.546677 206.533325 174.034668 201.646667 169.197342 194.361328 C 168.985336 194.005325 168.610672 193.776001 168.197342 193.749329 C 167.782669 193.723999 167.382675 193.905334 167.129333 194.233337 C 166.685333 194.814651 167.129333 195.403992 167.67067 195.895996 C 173.970657 201.17067 178.419998 208.012009 183.468002 214.368011 C 186.828003 218.59201 190.277328 222.712006 194.427994 226.152008 Z M 184.978653 236.717316 C 177.346664 228.41333 170.093338 220.660004 163.761337 212.11467 C 163.317337 211.509338 162.686661 210.233337 161.595993 211.435989 C 160.917343 212.188004 161.41066 212.849319 161.951996 213.53598 C 165.545334 218.139984 168.809341 223.050659 172.758667 227.324005 C 176.070663 230.917328 179.034668 235.294647 184.978653 236.725342 Z M 197.610657 132.017197 C 197.206665 135.457336 199.056015 136.912003 200.033325 138.737335 C 204.800003 147.753342 210.033325 156.514664 215.710678 164.986664 C 216.437332 166.059998 217.018677 166.973343 218.594666 165.794662 Z M 277.021332 175.632004 C 276.497345 181.37468 282.069336 182.473328 284.73465 185.71199 C 287.546661 189.136002 291.665314 191.486679 295.23465 194.297348 C 294.965332 194.550659 294.697327 194.804001 294.428009 195.056015 C 289.686676 187.650681 282.708008 182.238663 276.989349 175.664001 Z M 172.830673 123.019608 C 172.145325 124.634933 171.604004 126.14534 172.539993 127.623459 C 174.785339 131.1772 176.934677 134.78801 179.164001 138.349335 C 179.462662 138.833328 179.688004 139.722672 180.512009 139.382675 C 181.489334 138.970657 181.238663 138.227997 180.810669 137.453323 C 178.102661 132.676804 175.423996 127.876541 172.774658 123.051865 Z M 160.23201 214.166656 C 158.954666 214.973328 157.606674 216.201324 158.285324 217.276001 C 159.990662 219.783997 161.909332 222.139984 164.020004 224.318665 C 164.294662 224.633331 165.375992 224.56134 165.845337 224.318665 C 166.757339 223.769318 166.265335 222.937347 165.845337 222.283997 C 163.978668 219.553314 162.113327 216.880005 160.23201 214.166656 Z M 169.794662 136.087997 C 168.922668 138.615997 171.409348 146.47467 173.541336 148.251999 C 173.722672 148.442673 173.973328 148.552002 174.236008 148.552002 C 174.5 148.552002 174.750671 148.442673 174.930664 148.251999 C 175.278671 148.050674 175.520004 147.707993 175.593338 147.313339 C 175.666672 146.918671 175.562668 146.512009 175.310669 146.199997 C 173.380005 142.871994 171.627991 139.472 169.794662 136.087997 Z M 178.282669 80.091461 C 177.806656 83.798676 183.848007 95.623062 187.699997 99.475723 Z M 89.244392 193.367996 C 92.00666 191.034668 93.662407 189.330673 90.99707 186.293335 C 92.612396 187.165329 94.130928 187.157333 94.502403 185.744003 C 94.987068 183.926682 93.638268 182.771988 92.079338 181.972 C 89.850136 185.283997 89.76133 188.894669 89.244392 193.367996 Z M 96.077461 161.78801 C 98.645866 164.405334 101.262665 166.981339 103.750397 169.662674 C 104.192406 170.340012 105.049469 170.613342 105.801872 170.317337 C 106.123199 170.197342 106.350273 169.908005 106.389465 169.566666 C 106.428673 169.225327 106.273468 168.891998 105.987602 168.70134 C 102.958801 165.940002 100.212669 162.781326 96.077461 161.78801 Z M 191.464005 121.404266 C 190.139999 116.744003 187.636002 112.705597 185.099991 108.683334 C 185.458664 111.02681 186.106674 113.316666 187.030655 115.500137 C 188.064011 117.672806 188.952011 120.087738 191.464005 121.396133 Z M 162 225.885345 C 162 224.79599 157.380005 218.745331 156.734665 219.06134 C 156.169327 219.40799 155.76799 219.966675 155.619995 220.612 C 155.337326 221.872009 159.237335 226.548004 160.707993 226.878662 C 161.563995 227.073334 161.936005 226.693329 162 225.885345 Z M 276.11734 201.154663 C 279.606659 206.348007 283.920013 209.522659 287.254669 213.649323 C 287.58667 213.32666 287.917328 213.002655 288.249329 212.679993 Z M 159.003998 228.526672 C 157.388 226.645325 156.104004 224.61734 154.326675 223.156006 C 153.213333 222.23465 153.010666 224.093353 152.71199 224.714661 C 152.244003 225.764008 156.936005 229.802673 158.026657 229.366669 C 158.373337 229.245331 158.591995 228.922668 159.028 228.526672 Z M 220.047989 231.926666 C 217.62532 228.696014 215.161331 225.538666 212.133347 221.581329 C 213.425339 226.822662 215.557327 230.246674 220.072006 231.926666 Z M 217.358658 237.798676 C 221.357346 240.79599 224.578674 244.809326 229.343994 246.68399 C 225.515991 243.493317 222.317337 239.446686 217.382675 237.798676 Z M 180.923996 104.766006 C 179.978653 101.745331 179.542664 99.718002 178.678665 97.89267 C 178.315994 97.141602 178.718674 95.865463 177.547989 95.631195 C 177.112 95.542404 176.198669 95.881607 176.158676 96.139999 C 175.973328 97.246536 175.392014 98.425735 176.343994 99.491867 C 177.629333 100.961868 178.889343 102.423737 180.923996 104.766006 Z M 95.617065 165.576004 C 98.040131 168.241333 100.398529 170.922668 102.813469 173.572006 C 103.031868 173.834671 103.367737 173.970657 103.707466 173.933334 C 104.047203 173.895996 104.345467 173.690674 104.501465 173.386658 C 104.693871 173.102661 104.744667 172.745346 104.638939 172.418655 C 104.533203 172.091995 104.282928 171.831985 103.960396 171.714661 C 100.689201 170.227997 99.299995 166.682663 95.617065 165.576004 Z M 145.556 174.250671 C 144.505325 178.289322 147.664001 179.702652 148.786667 182.069336 C 148.987991 182.505325 149.125336 183.530655 150.078659 182.877335 C 150.765335 182.423996 150.67601 181.810669 150.248001 181.189331 C 148.786667 179.056015 147.35733 176.883987 145.556 174.234665 Z M 165.602676 158.097336 C 165.921341 157.930664 166.23201 157.746658 166.53067 157.548004 C 168.873337 155.828003 166.353333 154.624008 165.990662 153.234665 C 165.860001 152.761337 165.485336 152.394669 165.007996 152.274673 C 164.531998 152.153336 164.028 152.29866 163.688004 152.653336 C 162.451996 153.905334 164.253342 154.769333 164.496002 155.884003 C 164.778671 156.649338 165.150665 157.377335 165.602676 158.057327 Z M 225.024002 183.878662 C 225.830673 180.647995 223.06134 179.234665 221.228012 177.360001 C 221.705338 179.893326 223.046677 182.182663 225.024002 183.837341 Z M 167.517334 141.741333 C 168.186661 145.981339 170.149338 148.421341 172.435989 150.682663 C 171.647995 147.296005 169.946671 144.189331 167.517334 141.70134 Z M 100.2612 178.434677 C 99.098137 174.929337 97.3536 173.096008 94.995064 172.506668 C 96.020805 175.179993 98.145073 176.786667 100.2612 178.394669 Z"/>
</svg>
