<?xml version="1.0" encoding="UTF-8"?>
<!-- Generated by Pixelmator Pro 2.4.2 -->
<svg width="341" height="341" viewBox="0 0 341 341" xmlns="http://www.w3.org/2000/svg" xmlns:xlink="http://www.w3.org/1999/xlink">
    <path id="Path" fill="#413c43" stroke="none" d="M 280.636017 289.185333 C 280.054657 289.517334 281.194672 292.838654 278.885345 290.181335 C 277.450653 288.521332 275.955994 286.905334 274.273346 285.033325 C 273.283997 287.177338 275.782684 287.517334 274.861328 289.335999 C 273.533325 287.139984 271.162659 288.88266 269.706665 287.705353 C 267.797333 286.196014 266.189331 284.248016 264.218658 282.67868 C 265.962677 286.656006 269.253326 289.577332 271.691986 293.420013 C 269.426666 293.420013 269.313324 290.845337 267.381317 290.921326 C 267.154663 292.06134 268.981323 292.77066 268.084015 294.43866 C 257.915985 284.693329 249.778671 273.227997 240.08667 263.218658 C 239.835999 263.455994 239.584 263.691986 239.331985 263.928009 C 239.331985 263.928009 264.731995 295.087982 264.731995 295.087982 C 252.94133 287.245331 246.352005 274.708008 236.804001 264.441315 C 235.482666 266.313324 236.509338 267.310669 237.498657 268.465332 C 245.639999 277.996002 253.76001 287.557343 261.855988 297.14798 C 262.077332 297.440002 262.139984 297.82132 262.022675 298.167999 C 251.801331 289.946686 244.517334 279.070648 236.177322 269.166656 C 235.842667 269.433319 235.507996 269.699982 235.17334 269.966675 C 242.443985 278.946686 249.716003 287.926666 256.988007 296.906647 C 255.311996 296.906647 255.297348 296.906647 252.617325 294.23465 C 251.281326 292.906647 250.013321 291.517334 248.314651 289.705353 C 248.646667 292.762665 251.5 293.834686 251.975998 297.133331 C 247.549332 292.669342 243.433334 287.90799 239.657333 282.88266 C 238.857346 281.772003 238.146667 280.61734 237.301331 279.515991 C 233.942673 275.205353 233.935989 275.213348 229.587997 278.708008 C 233.361328 273.726654 234.23732 268.261322 232.923996 262.101349 C 222.281326 268.962677 216.688004 279.73465 209.433334 289.041351 C 207.766663 291.17334 205.865341 293.110657 203.765335 294.81601 C 205.274658 290.127991 208.354675 286.437347 211.124008 282.565338 C 213.993332 278.549347 217.238663 274.798676 219.970657 270.699982 C 221.460007 268.412018 223.353333 266.414673 225.557327 264.803986 C 228.154663 263.115997 230.035995 260.526672 230.840012 257.534668 C 231.596008 254.742676 233.400009 254.614655 235.32399 256.847992 C 237.249329 259.082672 239.037338 261.604004 242.797348 261.264008 C 239.354675 256.773346 235.596008 252.485321 234.268005 247.186676 C 232.757324 241.094666 230.342667 235.154663 230.047989 228.783997 C 229.979996 227.274658 229.776001 225.712006 228.349319 225.372009 C 227.044006 225.070648 226.440002 226.753326 225.714661 227.689331 C 223.065323 231.146667 221.096008 235.162659 217.352005 237.690674 C 216.960007 237.954681 216.265335 238.189331 216.875992 238.686676 C 219.978653 241.216003 216.574661 242.287994 215.494675 244.432007 C 215.12532 242.884003 213.842667 242.076019 214.694656 240.521332 C 215.042664 239.872009 215.177322 239.049347 214.234665 238.641327 C 213.82933 238.450653 213.361328 238.442657 212.949341 238.621338 C 212.537338 238.798676 212.222672 239.144012 212.082657 239.570648 C 211.101334 241.72934 209.313339 243.428009 208.754654 245.850677 C 208.241333 248.069336 206.822678 249.903992 205.373337 251.602661 C 204.044006 253.165314 201.553329 253.920013 203.320007 256.953339 C 203.734665 257.664001 201.122665 259.649323 203.130676 261.785339 C 200.164001 261.830658 200.58667 258.667999 198.526672 258.546661 C 198.526672 258.720001 198.314651 259.14267 198.443985 259.399994 C 199.116013 260.667999 201.297348 262.177338 199.613342 263.218658 C 198.149338 264.125336 197.514664 261.527985 197.009338 260.328003 C 195.741333 257.361328 193.236008 254.984009 193.236008 251.322662 C 193.236008 249.980011 191.498657 250.108002 190.562668 251.322662 C 187.544006 255.27066 182.954666 256.486664 178.546677 257.422668 C 176.184006 257.920013 175.617325 258.932007 174.771988 260.750671 C 172.507996 265.731995 172.02533 271.665314 166.832001 275.266663 C 169.352005 271.786652 168.393326 268.578674 166.582657 265.272003 C 162.356003 257.562653 158.498672 249.660004 155.010666 241.562653 C 152.919998 242.853333 154.090668 244.001343 154.649338 245.238678 C 158.934662 254.489349 162.618668 264.007996 165.67601 273.733337 C 164.236008 272.834686 163.178665 271.433319 162.709335 269.801331 C 159.849335 262.569336 156.936005 255.353333 154.097336 248.114655 C 153.44133 246.423981 153.124008 244.341339 150.926666 247.149323 C 151.553329 244.446686 152.255997 241.751984 152.776001 239.026672 C 153.153336 237.011993 153.447998 234.399994 151.478668 233.486664 C 149.213333 232.437347 147.945328 234.513336 146.949326 236.550659 C 146.118668 238.294647 145.250671 240.129333 143.446671 241.601349 C 142.805328 238.498657 146.186661 236.958649 145.598663 234.196014 C 143.862671 234.146667 142.126663 234.199982 140.397324 234.354675 C 135.286667 234.587982 135.348007 234.429352 135.453323 239.494659 C 135.595993 246.415985 137.830673 252.899994 139.521332 259.497345 C 140.102676 261.762665 140.828003 264.026672 141.265335 266.29068 C 141.46933 267.310669 141.778671 267.884003 142.774673 268.057343 C 143.930664 268.253326 143.982666 267.197327 144.141342 266.62265 C 144.714676 264.494659 146.716003 262.554657 145.35733 259.905334 C 150.534668 266.465332 152.398666 274.510651 156.32399 282.761322 C 151.447998 280.179993 149.810669 274.782684 144.149338 274.073334 C 146.662674 277.09201 148.677338 279.76535 150.942673 282.202667 C 151.750671 283.078674 152.934662 283.855988 151.908005 284.85202 C 150.882675 285.847992 150.202667 284.459991 149.584 283.73465 C 145.431992 278.903992 141.167999 274.171997 137.189331 269.212006 C 133.601334 264.758667 129.664139 260.598663 125.414131 256.773346 C 124.070534 255.557343 123.51947 253.557343 121.081459 253.322662 C 124.02533 257.324005 126.916267 261.37735 129.943069 265.317352 C 135.393326 272.436005 140.457336 279.854675 146.639999 286.399994 C 147.326675 287.154663 148.534668 288.346649 147.606674 289.162659 C 146.677338 289.977325 145.862671 288.587982 145.137329 287.833344 C 137.226669 279.636017 131.165863 270.019989 124.402672 260.940002 C 124.402672 260.940002 116.031593 249.623993 116.031593 249.623993 C 116.408936 254.190674 119.239601 256.501343 121.164398 259.196014 C 128.274933 269.174652 135.754669 278.881317 143.5 288.385345 C 144.209335 289.253326 145.054672 290.059998 144.110672 292.007996 C 134.350662 281.35733 126.259468 269.830658 117.752533 257.670685 C 117.110931 263.544006 120.824669 266.313324 123.255333 269.582672 C 128.727737 276.941315 134.479996 284.089325 139.688004 291.68399 C 133.249191 286 127.935204 279.297333 122.243866 272.865326 C 123.798798 276.881317 126.772797 280.029327 128.871201 283.689331 C 130.969604 287.350677 134.539993 290 134.381332 294.830658 C 131.244003 290.302673 128.1064 285.773346 124.968803 281.243988 C 121.489067 276.23999 118.062134 271.205353 114.484261 266.268005 C 113.888 265.43866 113.16333 263.521332 111.683868 264.758667 C 110.574402 265.671997 111.51786 266.811981 112.333069 267.906647 C 118.265999 275.90799 122.900665 284.693329 127.920265 293.276001 C 128.131607 293.645325 128.025864 294.197327 128.154266 295.608002 C 121.579735 286.905334 116.627998 278.248016 111.253731 269.733337 C 109.743996 271.869324 109.978127 273.341339 111.3368 275.5 C 115.397736 281.946686 119.745461 288.256012 122.71946 295.38266 C 119.836128 293.298676 117.986664 290.279999 116.356262 287.320007 C 114.725731 284.361328 112.461334 281.584015 110.94413 278.451996 C 110.566673 277.696014 110.370399 276.066681 109.049469 276.798676 C 107.871864 277.454681 108.808006 278.481323 109.343864 279.349335 C 112.212273 284.006683 115.284401 288.53598 117.646935 293.480011 C 118.373199 294.662659 118.754799 296.02533 118.748932 297.412018 C 114.069069 291.962677 111.880135 285.750671 107.373871 281.078674 C 108.128662 287.11734 113.223732 290.966675 115.676933 297.412018 C 110.838402 293.962677 108.996666 289.282684 105.939598 285.515991 C 104.845207 287.177338 104.150665 288.03067 105.939598 289.886658 C 108.204132 292.212006 110.861061 294.785339 110.755463 298.854675 C 108.614265 296.208008 106.473061 293.559998 104.331871 290.91333 C 103.282661 294.808014 107.660667 295.766663 107.441734 298.861328 C 104.505463 297.820007 101.629601 297.238678 99.795326 300.70401 C 99.590271 300.992004 99.250671 301.154663 98.897194 301.133331 C 98.586266 301.049347 98.326263 300.835999 98.182129 300.548004 C 98.038139 300.26001 98.023598 299.923981 98.142265 299.623993 C 98.602806 298.205353 99.048134 296.77066 99.652 295.397339 C 103.063728 287.532013 104.93573 279.18399 107.95507 270.073334 C 104.988533 273.440002 102.882668 276.066681 99.712273 277.73465 C 101.304932 275.726654 102.731598 273.605316 104.520538 271.748016 C 106.250801 269.774658 107.650269 267.534668 108.664528 265.113342 C 109.728798 262.849335 110.483734 260.79599 113.661469 261.339996 C 115.427734 261.618683 114.771065 260.230682 114.597466 259.317352 C 113.736931 254.930664 112.876404 250.538666 111.978271 245.941315 C 109.87973 247.518677 108.475868 249.64798 106.090538 250.584015 C 105.286934 250.946686 104.667473 251.62265 104.377068 252.455994 C 102.527863 259.942657 96.828796 265 92.352669 270.623993 C 85.483734 279.258667 77.497734 287.003998 69.662529 294.929352 C 69.806 290.77066 72.500801 287.82666 74.946404 285.033325 C 79.8452 279.447998 85.566673 274.557343 90.171204 268.76001 C 94.307594 263.558685 99.704674 259.127991 101.704933 252.372009 C 101.945068 251.517334 102.433739 250.753326 103.10894 250.175995 C 107.58506 246.786652 109.321198 241.496002 112.461205 237.208008 C 115.7976 232.67868 116.537331 227.992004 115.880669 222.866669 C 115.420135 219.29599 114.318138 215.809326 113.782135 212.245346 C 113.299065 209.059998 112.038536 209.838669 110.408134 211.280014 C 107.811607 213.544006 106.309334 216.654663 104.648804 219.582672 C 101.440796 225.22934 99.100929 231.328003 95.590935 236.830658 C 94.911598 237.902679 94.352936 239.094666 93.243469 239.698669 C 91.326134 240.717316 90.594002 241.32132 92.662132 243.306671 C 94.171867 244.81601 93.417061 246.899994 91.394005 248.235992 C 89.597595 241.955994 87.257599 240.898651 81.256668 243.533325 C 77.241066 245.291992 73.851868 248.062653 70.394798 250.629333 C 67.775467 252.584015 65.322395 254.614655 62.091736 255.64798 C 59.829731 256.444 58.005863 258.153351 57.064533 260.358673 C 56.409332 261.87735 55.074131 262.997345 53.464001 263.37735 C 54.324535 260.917328 56.60413 260.018677 56.649334 257.716003 C 55.841736 257.761322 54.641464 257.467987 54.203735 257.91333 C 48.791599 263.490662 40.616802 264.985321 35.385868 271.038666 C 31.694799 275.29599 26.0184 276.96402 19.647734 278.633331 C 20.552 277.298676 21.882935 276.310669 23.421867 275.832001 C 26.931868 274.813324 29.958666 272.776001 32.917599 270.842682 C 34.993336 269.484009 35.838802 266.669342 37.620132 264.68399 C 40.986668 260.909332 45.7948 260.11734 49.878536 257.890656 C 57.796535 253.639984 65.593864 249.27066 72.674133 243.699982 C 76.878532 240.385345 81.452797 238.23465 87.015869 237.880005 C 91.876801 237.570648 92.956268 232.905334 94.647064 229.470673 C 97.734261 223.213348 100.557335 216.834686 104.459869 211.045334 C 104.896797 210.29866 105.40213 209.593338 105.96946 208.940002 C 111.706139 203.218674 115.525604 203.981323 121.556671 211.867996 C 125.851601 217.492004 129.859726 223.363983 134.773331 228.47467 C 136.871994 230.641327 138.781326 231.358673 142.005325 230.738678 C 155.03334 228.112 152.512009 226.889343 160.543991 236.257324 C 165.020004 241.473328 169.276001 246.90799 174.703995 251.248016 C 176.718674 252.870667 178.651993 253.511993 181.188004 252.320007 C 184.206665 250.922668 187.596008 250.56134 190.562668 248.73465 C 192.517334 247.534668 195.378662 247.934662 197.356003 248.73465 C 202.231995 250.636017 203.584 246.975983 204.594666 244.129333 C 205.606674 241.283997 207.61467 239.011993 208.837341 236.325348 C 209.464005 234.981323 210.754654 233.818665 212.453323 234.144012 C 215.216003 234.664001 216.875992 233.139984 218.490662 231.335999 C 220.892014 228.656006 223.390671 226.052002 225.692001 223.303986 C 229.62532 218.58667 232.056015 218.110657 238.230667 222.066681 C 243.853333 225.674652 248.261337 230.829315 252.677322 235.773346 C 258.891998 242.566681 265.846649 248.64267 273.412018 253.889343 C 278.378662 257.437347 283.066681 261.369324 288.002655 264.962677 C 295.634674 270.510651 304.609344 273.446686 313.085327 277.251984 C 315.447998 278.308014 317.810669 279.372009 320.144012 280.497345 C 320.898651 280.843994 322.067993 281.062653 321.562653 282.278656 C 321.057343 283.493317 320.105316 283.342682 319.003998 283.033325 C 317.071991 282.550659 315.569336 280.950653 313.342682 280.965332 C 312.798676 282.037323 314.64798 282.421326 313.915985 283.727997 C 311.712006 282.67868 310.897339 280.14267 308.730682 278.753326 C 308.654663 281.380005 311.462677 282.369324 311.636017 285.381317 C 306.737335 282.641327 305.959991 275.644012 299.756012 275.402679 C 300.933319 278.23999 304.708008 279.289337 304.955994 283.078674 C 301.433319 279.669342 297.912018 276.26001 294.389343 272.850677 C 295.853333 276.625336 299.778656 278.625336 300.608002 283.418671 C 295.076019 278.889343 292.253326 272.254669 286.470673 268.737335 C 286.171997 268.988007 285.872009 269.23999 285.571991 269.492004 C 289.181335 273.701324 292.789337 277.910675 296.397339 282.119995 C 285.293335 275.794647 280.32666 263.249329 269.222687 257.045319 C 275.654663 266.502655 284.584015 273.967987 290.917328 283.46402 C 276.273346 272.465332 267.940002 255.656006 253.590652 244.401337 C 263.901337 259.346649 276.990662 272.087982 288.606659 285.96933 C 288.222687 286.309326 287.837341 286.649323 287.451996 286.989349 C 284.017334 283.493317 280.446686 280.119995 277.164001 276.489349 C 264.626678 262.608002 252.307999 248.559998 242.238663 232.70932 C 240.169327 229.447998 237.006668 227.425323 234.02533 225.161346 C 233.534668 224.79068 232.749329 223.915985 232.17601 224.934662 C 231.79866 225.598663 232.425339 226.089325 232.998657 226.693329 C 242.230667 236.354675 249.809326 247.390656 258.406647 257.587982 C 263.690674 263.868011 268.800018 270.306671 274.06134 276.61734 C 277.129333 280.212006 279.803986 284.123993 282.040009 288.286652 C 282.470673 289.109344 283.029327 289.932007 281.926666 290.467987 C 281.03598 290.890656 281.225342 289.222687 280.318665 289.335999 C 280.085327 287.381317 278.741333 286.067993 277.58667 284.649323 C 267.063995 271.665314 256.451996 258.735992 246.042664 245.685333 C 241.612 240.144012 237.49733 234.362671 233.210678 228.670685 C 233.119995 230.581329 233.210678 232.626678 234.244003 233.705353 C 238.719986 238.287994 242.253342 243.563995 246.057327 248.650665 C 252.903992 257.800018 259.862671 266.880005 267.59201 275.29599 C 272.129333 279.862671 275.691986 285.169342 280.636017 289.185333 Z M 131.437469 236.800018 C 129.703873 234.437347 127.970268 232.074677 126.236664 229.712006 C 126.204803 231.201324 126.586266 232.669342 127.338661 233.954681 C 128.236923 235.46402 129.135208 237.253326 131.482666 236.723999 C 130.433472 242.152008 132.464005 246.725342 135.528 251.013336 C 134.849335 246.077332 134.577332 241.034668 131.437469 236.800018 Z M 129.754257 245.337341 C 131.429871 252.29599 135.272003 258.169342 139.226669 263.973328 C 135.91333 257.85202 133.890671 251.066681 129.671204 245.405334 C 126.742401 236.430664 122.492798 228.044006 118.650795 218.661346 C 118.489738 219.171997 118.383461 219.698669 118.333862 220.231995 C 120.205727 229.289337 125.278137 237.049347 129.105209 245.306671 C 129.150406 245.397339 129.535324 245.322662 129.754257 245.337341 Z M 116.7864 232.973328 C 113.412262 236.339996 115.020134 238.845337 117.428001 241.488007 C 119.692406 243.986664 120.809601 247.526672 124.681862 250.032013 C 123.270264 243.110657 117.933739 239.063995 116.7864 232.973328 Z M 158.203995 241.902679 C 157.871994 242.021332 157.539993 242.138672 157.206665 242.257324 C 161.233337 250.399994 165.258667 258.556 169.283997 266.72934 C 170.840012 264.880005 171.149338 263.422668 169.283997 261.119995 C 164.543991 255.369324 161.789337 248.363983 158.188004 241.902679 Z M 163.751999 247.390656 C 165.841324 252.181335 168.434662 256.735992 171.487991 260.977325 C 172.333328 259.791992 172.137329 258.222687 173.307999 257.338654 C 174.477341 256.455994 173.692001 255.897339 172.960007 255.406647 C 169.541336 253.081329 167.080002 249.730682 163.736008 247.390656 Z M 128.093597 249.881317 C 128.37294 249.756012 128.652267 249.629333 128.931473 249.503998 C 125.854271 242.710663 122.777199 235.917328 119.700005 229.123993 C 120.266136 237.063995 124.500671 243.32132 128.108795 249.881317 Z M 239.098679 247.013336 C 238.546677 253.217316 242.872009 255.905334 247.484009 258.425323 Z M 146.881332 264.26001 C 145.371994 266.52533 147.559998 268.034668 146.669327 270.011993 C 146.141342 269.415985 145.82399 268.502655 145.009338 268.811981 C 144.754669 269.208008 144.706665 269.702667 144.881332 270.141327 C 146.889328 272.079987 148.972 273.914673 151.039993 275.817352 C 150.753342 271.461334 148.338669 268.306671 146.866669 264.26001 Z M 254.745346 270.743988 C 251.417343 266.933319 248.087997 263.121338 244.76001 259.309326 C 245.544006 265.785339 250.269333 268.139984 254.730667 270.743988 Z M 235.731995 237.154663 C 236.940002 243.563995 242.403992 246.906647 245.182663 252.190674 C 245.461319 251.989349 245.73999 251.787994 246.020004 251.58667 Z M 126.115997 224.699982 C 128.229599 229.22934 130.644943 232.248016 132.98494 235.268005 C 132.075333 231.018677 129.629333 227.256012 126.115868 224.699982 Z M 177.270676 113.544662 C 176.02533 106.879593 173.450668 98.818008 166.21199 92.990799 C 163.698669 90.960266 161.282669 88.80159 158.814667 86.718262 C 157.010666 85.208542 157.222672 83.464935 158.377335 81.721344 C 161.177338 77.456543 163.978668 73.184265 166.875992 68.987335 C 168.613327 66.473877 169.895996 63.884796 169.638657 60.721985 C 169.44133 59.238007 169.942673 57.746002 170.99733 56.683716 C 174.854675 52.524658 176.447998 47.097473 178.856003 42.123199 C 179.338669 41.119202 179.565323 39.292542 181.119995 39.556671 C 182.447998 39.857056 183.526672 40.821747 183.973328 42.108002 C 186.132004 47.98053 188.638672 53.664398 188.577332 60.223877 C 188.466675 66.529999 190.882675 72.618408 195.28801 77.131989 C 199.5 81.426941 200.277328 87.6996 204.716003 91.707596 C 208.490662 95.059067 209.146667 100.214523 212.082657 104.011337 C 212.995987 105.188797 212.181335 105.966263 211.856003 106.728668 C 209.591995 112.012405 207.954666 117.462265 207.856003 123.289597 C 207.796005 126.837204 206.188004 129.992401 205.124008 133.283997 C 203.258667 139.073334 204.307999 145.23201 202.858658 151.08934 C 202.594666 152.177338 202.858658 153.429337 201.485336 153.852005 C 200.112 154.274673 199.273331 153.338669 198.639999 152.464005 C 197.021347 150.422668 195.58667 148.242661 194.352005 145.949326 C 191.121338 139.337326 186.67601 133.472 183.113342 127.078796 C 182.62532 126.21199 182.00267 125.427475 181.270676 124.75386 C 177.066666 120.979736 177.052002 120.994797 177.270676 113.544662 Z M 180.093338 48.886414 C 177.82933 52.313324 176.031998 55.989319 173.390671 59.106659 C 172.793335 59.766144 172.517334 60.655457 172.636002 61.537201 C 173.112 64.971741 171.881332 67.764526 169.782669 70.489471 C 167.141342 73.931458 164.97467 77.750946 162.422668 81.268402 C 160.91333 83.381866 161.494675 83.910278 163.744003 84.770813 C 169.479996 86.967331 175.248001 88.892136 181.361328 89.820541 C 175.783997 90.628265 170.492004 89.571457 165.207993 87.261734 C 171.390671 91.57933 175.254654 97.383865 177.926682 104.079208 C 179.557327 108.177872 181.70134 112.193604 180.41066 116.86586 C 180.229324 117.51506 180.229324 118.134003 180.863998 118.511459 C 181.49733 118.888809 182.056015 118.330276 182.538681 118.013199 C 185.265335 116.255875 188.369324 115.17186 191.597336 114.85054 C 188.902664 117.243332 185.656006 117.115067 183.693344 119.304001 C 183.045334 120.013474 181.610657 120.54187 183.082657 121.930801 C 187.468002 126.059738 189.38533 131.871872 192.940002 136.604004 C 195.393326 139.865341 196.473328 144.077332 199.666672 147.367996 C 199.848007 146.365341 199.806656 145.334671 199.545334 144.349335 C 198.035995 139.32933 197.069336 134.21199 197.552002 128.935593 C 197.949341 124.715866 196.975998 120.48053 194.774658 116.858398 C 193.61467 114.782791 193.012009 112.442535 193.024002 110.064926 C 192.872009 105.626541 192.223999 101.007065 188.418655 98.123596 C 185.346664 95.813858 184.305344 92.71907 183.263992 89.427994 C 183 88.612808 183.006668 87.465469 182.447998 87.027725 C 178.93866 84.295197 179.565323 80.453186 179.504013 76.792267 C 179.452011 73.478516 179.504013 70.172394 179.504013 66.315338 C 177.383987 68.874146 176.485336 71.463196 174.001343 73.018127 C 179.505325 65.756653 176.643997 56.585602 180.093338 48.886414 Z M 181.602661 75.305206 C 180.26001 77.418793 181.49733 78.399994 182.470657 79.479462 C 185.533325 82.878662 188.596008 86.277863 191.657333 89.6772 C 196.518677 95.059067 201.357346 100.456009 206.263992 105.792664 C 206.723999 106.298401 207.109329 107.641998 208.248001 106.73613 C 209.206665 105.981339 209.116013 105.000137 208.346664 104.116928 C 207.854675 103.579865 207.32666 103.075607 206.769333 102.60733 C 203.749329 100.003067 200.194656 97.587738 197.968002 94.666534 C 192.850662 87.948532 186.434677 82.468536 181.596008 75.320404 Z M 206.610657 111.423599 C 201.258667 101.852524 192.888 94.651474 185.791992 86.401199 C 186.758667 90.09227 202.248001 109.128937 206.610657 111.423599 Z M 204.942673 120.3004 C 204.882675 118.669998 205.810669 116.843338 204.723999 115.567596 C 201.17601 111.370804 199.228012 105.936142 194.609329 102.531876 C 195.892014 109.710129 201.054672 114.593857 204.934677 120.3004 Z M 201.757324 94.183472 C 197.67334 87.29187 192.080002 81.66095 186.434677 76.067596 C 189.800003 83.532806 196.419998 88.326004 201.749329 94.183472 Z M 204.233337 125.538925 C 203.394669 118.986923 197.869324 115.326126 194.880005 110.049866 C 194.547989 111.23494 194.12532 112.570938 194.616013 113.182404 C 197.862671 117.243332 201.054672 121.341995 204.225342 125.538803 Z M 180.192001 57.12146 C 179.62532 58.752014 178.916 59.808655 180.192001 60.895599 C 181.526672 61.995483 182.651993 63.327881 183.513321 64.828278 C 183.845337 65.394409 184.403992 66.33786 185.195999 65.651062 C 185.785339 65.175476 185.604004 64.24707 185.119995 63.605469 C 183.596008 61.552399 182.033325 59.552002 180.192001 57.12146 Z M 202.458664 129.267731 C 202.965332 125.795471 199.825333 124.187729 198.685349 121.560928 C 198.013321 125.108658 200.495987 127.048538 202.435989 129.267731 Z M 131.256271 162.871994 C 130.712799 157.921341 132.169601 153.814667 133.717331 149.503998 C 138.608002 135.917343 147.485336 124.550003 154.263992 112.020004 C 154.577332 111.342133 154.926666 110.681992 155.313339 110.042267 C 155.954666 109.121475 155.61467 107.166397 157.388 107.445724 C 159.162674 107.725067 159.608002 109.174271 159.811996 110.804672 C 160.521332 116.43573 161.509338 122.043991 162.076004 127.69014 C 162.618668 133.554672 165.042664 138.521332 168.166672 143.360001 C 170.906662 147.602676 173.450668 151.814667 173.669327 157.309341 C 173.828003 162.042664 175.41333 166.729324 177.338669 171.153336 C 177.957336 172.520004 177.957336 174.087997 177.338669 175.455994 C 175.972 179.070663 174.763992 182.731995 172.809326 186.121338 C 170.371994 190.423996 169.035995 194.960007 169.541336 200.02533 C 170.122665 206.064011 167.819992 211.845337 167.956009 217.884003 C 168.009338 220.193329 166.725327 219.552002 164.982666 218.638672 C 157.433334 214.865326 154.957336 206.651993 149.440002 201.112 C 147.17601 198.848007 145.341324 196.130676 142.473343 194.492004 C 140.261337 193.223999 140.155991 190.869324 139.453323 188.82399 C 138.397324 185.902664 138.139999 182.785339 135.045334 180.641342 C 132.781204 179.078674 132.524673 175.576004 132.026398 172.850662 C 131.414932 169.5 130.501465 166.042664 131.256271 162.871994 Z M 166.137329 171.840012 C 166.007996 170.805344 168.58934 171.137329 167.283997 169.446671 C 165.978668 167.755997 164.657333 165.801331 162.867996 163.28801 C 163.154663 167.122665 165.67601 169.062668 166.143997 171.840012 C 168.349335 173.998657 169.815994 176.79866 170.333328 179.841324 C 167.947998 177.637329 166.416 174.852005 164.830673 172.104004 C 163.245331 169.356003 161.698669 166.692001 160.022659 163.801331 C 158.362671 167.054672 162.543991 175.402664 170.363998 185.026672 C 171.722672 181.546677 173.013321 178.233337 174.304001 174.903992 C 174.462662 174.49733 174.975998 173.990662 174.122665 173.825333 C 173.730667 173.742676 173.254654 173.545334 172.945328 174.210678 C 172.190674 175.916 171.541336 176.021347 170.681335 174.322678 C 169.692001 172.307999 168.634659 170.889343 166.137329 171.840012 Z M 155.03334 174.104004 C 153.591995 175.122665 153.229324 177.350662 150.580002 177.878662 C 152.341324 174.685349 154.102676 171.492004 155.863998 168.300003 C 157.146667 165.96666 158.641342 163.770676 157.584 160.811996 C 156.528 157.853333 155.493332 154.705338 154.565338 151.610672 C 154.029343 149.769333 152.678665 149.557327 151.591995 150.440002 C 148.126663 153.270676 144.572006 156.063995 141.96666 159.793335 C 141.348007 160.67601 140.902664 161.725327 139.007996 161.422668 C 141.453323 158.404007 143.190659 154.871994 146.013336 153.045334 C 149.786667 150.576004 149.598663 148.00267 148.112 144.666672 C 146.601334 145.277328 145.953323 147.429337 143.084 147.821335 C 147.213333 143.465332 151.538666 140.213333 153.138657 134.890671 C 154.693329 129.728134 155.734665 124.565201 154.987991 118.47374 C 151.14534 124.844406 147.213333 130.26413 143.755997 136.016006 C 142.246658 138.58934 142.434662 141.661331 140.585342 143.888 C 132.10173 154.124008 134.259995 165.492004 136.894669 176.942673 C 137.294662 178.678665 138.593338 179.447998 139.99733 180.369324 C 141.265335 177.493332 141.453323 174.225342 144.238663 172.375992 C 143.091995 175.495987 142.400009 178.765335 142.186661 182.082657 C 141.755997 187.185349 142.834671 190.205338 147.213333 192.605331 C 148.277328 193.193344 149.425339 193.632004 150.542664 194.11467 C 151.433334 194.506668 151.810669 194.869324 150.662674 195.510666 C 149.516006 196.153336 149.651993 196.069336 150.233337 196.82399 C 153.328003 200.870667 157.342667 204.251999 159.373337 209.052002 C 160.408005 211.498657 162.189331 212.713333 164.891998 213.884003 C 162.416 206.841324 160.218674 200.297348 157.818665 193.842667 C 155.418671 187.389343 155.697342 180.731995 155.03334 174.097336 Z M 173.73732 172.081345 C 173.828003 169.975998 172.741333 168.465332 171.556015 166.964005 C 165.237335 158.985336 159.507996 150.556 154.414658 141.745331 C 154.043991 141.110672 154.029343 139.261337 152.594666 140.054672 C 151.456009 140.680008 151.085342 141.956009 152.165329 143.254669 C 153.242661 144.587997 154.250671 145.975998 155.184006 147.41333 C 160.007996 154.961334 164.626663 162.601334 170.046677 169.718674 C 170.960007 170.926682 171.646667 172.639999 173.73732 172.073318 Z M 170.236008 161.890671 C 170.52533 161.717331 170.814651 161.543991 171.104004 161.370667 C 170.167999 160.162674 170.409332 158.660004 169.518661 157.32399 C 165.32933 151.052002 161.366669 144.628006 157.169327 138.356003 C 156.595993 137.50267 156.255997 135.207993 154.580002 136.294662 C 152.904007 137.382675 154.398666 138.96666 155.138657 140.069336 C 158.102676 144.598663 161.122665 149.106674 164.197342 153.595993 C 166.151993 156.426666 168.227997 159.136002 170.236008 161.884003 Z M 157.674667 167.97467 C 157.674667 169.869339 157.319992 171.054672 157.736008 171.809326 C 160.55867 176.889343 163.52533 181.886658 166.514664 186.906662 C 166.898666 187.554672 167.479996 188.725342 168.506668 187.933334 C 169.181335 187.274658 169.207993 186.199997 168.566666 185.509338 C 164.022659 180.610657 161.67601 174.383987 157.674667 167.968002 Z M 156.792007 131.071732 C 156.35733 131.240265 155.921341 131.408936 155.486664 131.577469 C 159.063995 139.593338 164.815994 146.363998 169.028 154.018661 C 169.408005 153.802658 169.78801 153.585342 170.167999 153.369339 C 165.698669 145.937332 161.240005 138.503998 156.792007 131.071732 Z M 157.705338 175.334671 C 157.705338 177.930664 157.161331 179.734665 157.810669 180.822678 C 160.03067 184.505325 162.657333 187.955994 165.17067 191.457336 C 165.52533 191.955994 165.925339 192.968002 166.838669 192.009338 C 167.518661 191.337341 167.389328 190.76268 166.793335 190.098679 C 163.139999 186.038681 160.973343 181.026672 157.690659 175.334671 Z M 159.169327 130.098007 C 158.759995 127.066132 158.349335 124.034271 157.940002 121.002396 C 157.619995 121.045197 157.300003 121.087875 156.981339 121.130661 C 157.245331 124.217865 155.388 127.554276 159.154663 130.098007 Z M 157.849335 183.599991 C 156.746658 187.434677 159.433334 189.230667 160.822662 191.556015 C 161.185333 191.865341 161.67601 191.97467 162.136002 191.850662 C 163.17067 191.479996 162.35466 190.830673 162.136002 190.461319 C 160.814667 188.280014 159.433334 186.143997 157.833328 183.599991 Z M 214.461319 212.064011 C 213.962662 216.283997 212.581345 219.559998 210.233337 222.126678 C 206.460007 226.23999 202.745346 230.248016 201.17601 235.803986 C 200.881332 236.876007 200.134659 237.82666 198.639999 237.230682 C 194.193344 235.449341 189.853333 233.206665 187.898666 228.693329 C 184.268005 220.314667 180.478653 211.989334 177.783997 203.217331 C 177.047989 200.975998 177.361328 198.522659 178.637329 196.537338 C 182.668015 189.291992 186.818665 182.113342 190.547989 174.716003 C 191.710678 172.406662 192.564011 172.693344 194.147995 173.771988 C 197.485336 176.037338 200.23999 178.791992 201.697327 182.694656 C 202.165329 183.954666 202.678665 185.607986 203.681335 186.174667 C 208.686661 189.012009 208.965332 194.182663 210.392014 198.802673 C 211.818665 203.421326 213.230667 208.033325 214.461319 212.064011 Z M 192.94133 176.769333 C 188.412003 184.528 185.822678 191.789322 181.293335 197.986679 C 180.76268 198.717331 180.677322 199.681335 181.074661 200.493332 C 181.534668 201.307999 182.841324 201.248001 183.490662 200.916 C 187.927994 198.515991 192.117325 201.05867 196.419998 201.429337 C 191.249329 201.647995 185.853333 200.462662 181.127991 203.860001 C 184.078674 211.181335 186.946671 218.797333 190.245346 226.231995 C 191.430664 228.889343 193.38533 231.395996 196.933334 232.361328 C 195.838669 221.522675 200.828003 211.686661 200.141342 201.119995 C 199.998657 198.794662 200.005325 197.171997 198.246658 195.782669 C 196.367996 194.273331 195.228012 192.06134 195.619995 190.015991 C 196.458664 185.358658 193.409348 181.917343 192.94133 176.769333 Z M 201.099991 201.481323 C 202.390671 208.072006 207.138672 212.403992 208.468002 218.570648 C 209.82666 215.679993 205.856003 206.591995 201.099991 201.452011 Z M 202.610657 209.346664 C 202.266663 209.789322 201.973328 210.268005 201.734665 210.773331 C 201.5 211.528 205.908005 219.937347 206.573318 220.314667 C 207.047989 220.58667 207.268005 220.314667 207.509338 220.050659 C 207.932007 219.650665 207.659988 219.446686 207.402664 218.970673 C 205.705338 215.830658 204.202652 212.630676 202.580002 209.317337 Z M 201.039993 213.876007 C 198.949341 217.40799 202.549332 219.09201 202.972 221.64267 C 203.070663 222.223999 203.726669 223.153351 204.572006 222.745331 C 205.56134 222.231995 205.184006 221.32666 204.723999 220.526672 C 203.501343 218.366669 202.338669 216.230682 201.009338 213.830658 Z M 199.357346 218.789337 C 198.866653 221.394684 198.866653 223.5 200.406662 225.432007 C 200.843994 225.984009 200.881332 226.988007 201.916 226.345337 C 202.580002 225.930664 203.138672 225.311981 202.67067 224.473328 C 201.613342 222.639984 201.182663 220.481323 199.32666 218.745331 Z M 197.726669 188.401321 C 197.82399 192.982666 198.624008 194.159988 202.254654 195.617325 C 201.236008 192.952011 199.507996 191.110657 197.695999 188.356003 Z M 133.391998 138.543991 C 133.391998 142.378662 130.116669 144.492004 126.289604 143.828003 C 121.813469 143.020004 117.329865 142.250671 113.155602 140.477341 C 108.981468 138.702667 107.58506 137.895996 110.377869 132.724808 C 111.20813 131.215195 112.793205 130.256531 113.397064 128.512924 C 113.895332 127.131607 114.989738 127.841064 115.88813 128.233597 C 120.75666 130.347061 125.655464 132.39267 130.478806 134.612 C 132.119461 135.261337 133.249191 136.785324 133.391998 138.543991 Z M 128.954132 142.054672 C 129.957993 141.805328 130.1996 140.273331 130.788406 139.147995 C 131.543198 137.744003 130.539337 137.216003 129.369339 136.710663 C 125.595207 135.102676 121.941864 133.321335 118.167732 131.773727 C 116.793999 131.215195 115.367332 128.943069 113.721863 131.199997 C 112.702538 132.754257 111.818665 134.393326 111.079994 136.098663 C 110.694939 136.853333 111.472404 137.193329 111.963066 137.419998 C 117.193871 139.782669 122.734398 140.990662 128.984268 142.046677 Z M 129.346664 149.285324 C 129.542938 151.844009 129.837326 154.395996 129.890137 156.954666 C 129.941208 158.138657 129.103729 159.177338 127.935066 159.377335 C 123.511726 160.50267 119.1036 160.072006 114.687866 159.377335 C 114.181732 159.321335 113.720131 159.062668 113.408669 158.660004 C 113.097069 158.257339 112.962135 157.745331 113.034798 157.241333 C 113.034798 155.610672 113.034798 153.979996 113.155602 152.350662 C 113.351868 149.625336 114.967201 148.274673 117.586395 148.689331 C 120.726532 149.188004 123.987335 148.297333 127.550133 149.49733 C 124.734673 152.00267 121.783203 150.870667 119.1036 151.082657 C 117.412804 151.217331 115.404938 150.501328 115.253998 153.346664 C 115.133202 155.565338 115.201202 157.053329 118.160133 157.686661 C 121.118935 158.321335 123.760933 157.059998 126.568932 157.128006 C 127.610535 157.128006 127.32373 156.026657 127.444527 155.35466 C 127.776527 153.332001 128.070938 151.307999 128.380539 149.315994 Z M 227.745346 185.917343 C 228.17601 188.778671 225.964005 189.494675 223.972 190.030655 C 221.005325 190.785339 217.933334 191.269333 214.91333 191.834671 C 212.966675 192.197327 211.698669 191.487991 210.76268 189.630676 C 209.305344 186.76268 209.645325 184.966675 212.950668 183.894669 C 216.11467 182.888 219.206665 181.666672 222.205338 180.241333 C 225.217331 178.806656 227.82933 181.569336 227.745346 185.917343 Z M 225.639999 185.834671 C 225.360001 183.668015 225.639999 181.697327 223.283997 182.422668 C 220.147995 183.416 217.065323 184.577332 214.053329 185.902664 C 213.418655 186.17334 211.599991 186.038681 212.544006 187.933334 C 213.208008 189.291992 214.053329 189.894669 215.44133 189.442673 C 217.921326 188.766663 220.442673 188.26268 222.990662 187.933334 C 224.417343 187.744003 226.062668 187.222672 225.654663 185.82666 Z M 138.744003 127.999603 C 138.061325 129.951202 136.944 131.722 135.475998 133.177338 C 133.96666 134.529343 132.705597 132.822937 131.528137 132.128525 C 129.157196 130.78627 126.959328 129.158798 124.983864 127.282532 C 123.142128 125.470932 123.338264 124.150009 125.210396 122.708267 C 125.512268 122.481857 125.723602 122.112 126.040672 121.953476 C 127.79174 121.092941 128.825867 118.043472 131.203598 119.38707 C 134.686661 121.238403 137.369339 124.302658 138.744003 127.999603 Z M 125.731071 125.259598 C 126.647606 126.15213 127.609993 126.99614 128.614395 127.788269 C 129.920273 128.701599 131.346939 129.448929 132.720657 130.27919 C 134.094666 131.109467 134.940002 130.543335 135.740005 129.245071 C 136.819992 127.441071 135.490662 126.520126 134.591995 125.402939 C 130.471329 120.3004 130.46373 120.3004 125.731071 125.259598 Z M 150.277328 100.388138 C 155.048004 96.251602 149.606674 91.888809 150.761337 87.20134 C 153.02533 91.50386 156.045334 95.210007 153.720001 100.252274 C 152.965332 101.807205 152.014664 103.233871 150.315994 103.407471 C 148.617325 103.58107 148.104004 101.897736 147.14534 100.810806 C 144.58667 97.859467 143.960007 95.119461 146.759995 91.986923 C 147.440002 91.232132 147.516006 89.480942 149.02533 90.296127 C 150.097336 90.900009 149.334671 92.190659 148.722672 92.915329 C 146.073334 96.002533 147.522659 98.267075 150.277328 100.388138 Z M 216.793335 154.124008 C 216.468002 156.962662 214.38533 158.282669 212.045334 159.309341 C 211.569336 159.433334 211.064011 159.333328 210.671997 159.038666 C 207.018677 156.063995 207.878662 146.447998 211.946671 144.244003 C 212.702652 143.858658 213.064011 143.972 213.403992 144.695999 C 214.800003 147.716003 216.461319 150.651993 216.793335 154.124008 Z M 212.263992 147.813339 C 210.074661 149.994675 209.472 152.214676 211.268005 154.606674 C 211.736008 155.226669 211.577332 157.053329 213.154663 156.177338 C 214.098679 155.655991 214.981323 154.736008 214.513321 153.460007 C 213.880005 151.573334 213.698669 149.534668 212.301331 147.79866 Z M 204.233337 178.738663 C 205.214661 176.149338 206.398666 173.643997 209.403992 172.699997 C 211.668015 172.005325 213.23732 173.590652 214.490662 174.965332 C 215.744003 176.338669 213.977341 177.455994 213.321335 178.505325 C 212.517334 179.622665 211.56134 180.624008 210.482666 181.478653 C 209.433334 182.414673 208.505325 184.17334 206.769333 183.094666 C 205.305344 182.241333 203.916 180.995987 204.233337 178.738663 Z M 207.773331 180.565323 C 208.62532 180.565323 212.717331 176.746658 212.301331 176.26268 C 211.796005 175.636002 210.867996 174.806656 210.271988 174.912003 C 208.248001 175.266663 207.342667 177.17601 206.165329 178.610657 C 205.984009 178.82933 206.686661 179.818665 207.047989 180.406662 C 207.169327 180.542664 207.531998 180.542664 207.773331 180.542664 Z M 221.005325 194.129333 C 222.137329 195.133347 225.269333 192.129333 225.481323 196.17601 C 225.654663 199.526672 223.345337 200.258667 220.838669 200.862671 C 220.466675 200.88533 220.093338 200.88533 219.721329 200.862671 C 217.570663 201.081345 214.626663 203.512009 214.189331 198.930664 C 213.766663 194.590652 214.309326 194.129333 219.570663 194.091995 Z M 218.453323 195.639999 C 216.838669 195.639999 215.531998 195.37468 215.622665 197.390671 C 215.690674 198.695999 216.067993 200.009338 217.397339 199.315994 C 219.261337 198.334671 222.741333 200.009338 222.900009 197.104004 C 222.982666 195.510666 219.744003 196.213333 218.453323 195.639999 Z M 157.546677 266.593353 C 156.837326 262.395996 154.346664 258.901337 152.957336 254.96933 C 152.32399 253.171997 151.447998 251.450653 151.236008 249.466675 C 156.029343 257.014679 159.358658 265.317352 163.26799 273.891998 C 160.513336 273.024017 160.634659 270.563995 159.049332 269.589325 Z M 157.546677 266.593353 C 158.050674 267.600006 158.553329 268.605316 159.056 269.612 C 158.96666 271.077332 159.29866 272.631989 157.546677 274.269318 C 156.67067 266.397339 151.334671 260.538666 149.720001 253.179993 C 153.342667 257.059998 154.157333 262.554657 157.546677 266.593353 Z M 148.005325 256.206665 C 151.394669 263.459991 155.222672 270.548004 156.35466 278.708008 C 153.251999 271.341339 150.149338 263.973328 147.048004 256.606659 Z M 72.312004 276.20932 C 75.582932 273.23999 78.853867 270.272003 82.124802 267.302673 C 82.376396 267.578674 82.627998 267.855988 82.879601 268.133331 C 79.799995 271.446686 76.999466 275.114655 72.312004 276.20932 Z M 192.20134 267.989349 C 194.17067 271.552002 193.612 272.903992 188.766663 276.050659 C 190.494675 273.137329 192.193344 270.902679 192.20134 267.989349 Z M 87.748131 258.470673 C 88.933197 256.538666 90.21653 254.757324 90.420265 252.432007 C 90.495735 251.677338 90.971336 251.322662 91.665733 251.563995 C 92.360268 251.805328 91.982796 252.363983 91.884666 252.786652 C 91.326134 255.27066 90.790131 257.791992 87.748131 258.470673 Z M 197.386658 265.566681 C 195.755997 263.226654 194.028 260.932007 193.688004 257.942657 C 195.559998 260.161346 197.703995 262.253326 197.386658 265.566681 Z M 193.174667 261.581329 C 193.43866 264.14798 196.639999 265.944 195.122665 268.962677 C 195.06134 266.306671 191.362671 264.781342 193.174667 261.581329 Z M 42.353065 275.378662 C 41.303867 278.920013 39.333733 280.662659 36.140934 281.161346 Z M 62.695602 287.177338 C 60.936935 289.758667 59.011997 292.218658 55.902134 293.358673 C 57.630665 290.748016 60.091465 288.898651 62.695602 287.177338 Z"/>
</svg>
