<?xml version="1.0" encoding="utf-8"?>
<svg x="0pt" y="0pt" width="256pt" height="256pt" viewBox="0 0 256 256" xmlns="http://www.w3.org/2000/svg" xmlns:xlink="http://www.w3.org/1999/xlink">
  <g id="1">
    <title>Layer 1</title>
    <defs>
      <title>Shape 119</title>
      <g id="2">
        <defs>
          <path id="3" d="M210.477,217.139 C210.041,217.388,210.896,219.879,209.164,217.886 C208.088,216.641,206.967,215.429,205.705,214.025 C204.963,215.633,206.837,215.888,206.146,217.252 C205.15,215.605,203.372,216.912,202.28,216.029 C200.848,214.897,199.642,213.436,198.164,212.259 C199.472,215.242,201.94,217.433,203.769,220.315 C202.07,220.315,201.985,218.384,200.536,218.441 C200.366,219.296,201.736,219.828,201.063,221.079 C193.437,213.77,187.334,205.171,180.065,197.664 C179.877,197.842,179.688,198.019,179.499,198.196 C179.499,198.196,198.549,221.566,198.549,221.566 C189.706,215.684,184.764,206.281,177.603,198.581 C176.612,199.985,177.382,200.733,178.124,201.599 C184.23,208.747,190.32,215.918,196.392,223.111 C196.558,223.33,196.605,223.616,196.517,223.876 C188.851,217.71,183.388,209.553,177.133,202.125 C176.882,202.325,176.631,202.525,176.38,202.725 C181.833,209.46,187.287,216.195,192.741,222.93 C191.484,222.93,191.473,222.93,189.463,220.926 C188.461,219.93,187.51,218.888,186.236,217.529 C186.485,219.822,188.625,220.626,188.982,223.1 C185.662,219.752,182.575,216.181,179.743,212.412 C179.143,211.579,178.61,210.713,177.976,209.887 C175.457,206.654,175.452,206.66,172.191,209.281 C175.021,205.545,175.678,201.446,174.693,196.826 C166.711,201.972,162.516,210.051,157.075,217.031 C155.825,218.63,154.399,220.083,152.824,221.362 C153.956,217.846,156.266,215.078,158.343,212.174 C160.495,209.162,162.929,206.349,164.978,203.275 C166.095,201.559,167.515,200.061,169.168,198.853 C171.116,197.587,172.527,195.645,173.13,193.401 C173.697,191.307,175.05,191.211,176.493,192.886 C177.937,194.562,179.278,196.453,182.098,196.198 C179.516,192.83,176.697,189.614,175.701,185.64 C174.568,181.071,172.757,176.616,172.536,171.838 C172.485,170.706,172.332,169.534,171.262,169.279 C170.283,169.053,169.83,170.315,169.286,171.017 C167.299,173.61,165.822,176.622,163.014,178.518 C162.72,178.716,162.199,178.892,162.657,179.265 C164.984,181.162,162.431,181.966,161.621,183.574 C161.344,182.413,160.382,181.807,161.021,180.641 C161.282,180.154,161.383,179.537,160.676,179.231 C160.372,179.088,160.021,179.082,159.712,179.216 C159.403,179.349,159.167,179.608,159.062,179.928 C158.326,181.547,156.985,182.821,156.566,184.638 C156.181,186.302,155.117,187.678,154.03,188.952 C153.033,190.124,151.165,190.69,152.49,192.965 C152.801,193.498,150.842,194.987,152.348,196.589 C150.123,196.623,150.44,194.251,148.895,194.16 C148.895,194.29,148.736,194.607,148.833,194.8 C149.337,195.751,150.973,196.883,149.71,197.664 C148.612,198.344,148.136,196.396,147.757,195.496 C146.806,193.271,144.927,191.488,144.927,188.742 C144.927,187.735,143.624,187.831,142.922,188.742 C140.658,191.703,137.216,192.615,133.91,193.317 C132.138,193.69,131.713,194.449,131.079,195.813 C129.381,199.549,129.019,203.999,125.124,206.7 C127.014,204.09,126.295,201.684,124.937,199.204 C121.767,193.422,118.874,187.495,116.258,181.422 C114.69,182.39,115.568,183.251,115.987,184.179 C119.201,191.117,121.964,198.256,124.257,205.55 C123.177,204.876,122.384,203.825,122.032,202.601 C119.887,197.177,117.702,191.765,115.573,186.336 C115.081,185.068,114.843,183.506,113.195,185.612 C113.665,183.585,114.192,181.564,114.582,179.52 C114.865,178.009,115.086,176.05,113.609,175.365 C111.91,174.578,110.959,176.135,110.212,177.663 C109.589,178.971,108.938,180.347,107.585,181.451 C107.104,179.124,109.64,177.969,109.199,175.897 C107.897,175.86,106.595,175.9,105.298,176.016 C101.465,176.191,101.511,176.072,101.59,179.871 C101.697,185.062,103.373,189.925,104.641,194.873 C105.077,196.572,105.621,198.27,105.949,199.968 C106.102,200.733,106.334,201.163,107.081,201.293 C107.948,201.44,107.987,200.648,108.106,200.217 C108.536,198.621,110.037,197.166,109.018,195.179 C112.901,200.099,114.299,206.133,117.243,212.321 C113.586,210.385,112.358,206.337,108.112,205.805 C109.997,208.069,111.508,210.074,113.207,211.902 C113.813,212.559,114.701,213.142,113.931,213.889 C113.162,214.636,112.652,213.595,112.188,213.051 C109.074,209.428,105.876,205.879,102.892,202.159 C100.201,198.819,97.2481,195.699,94.0606,192.83 C93.0529,191.918,92.6396,190.418,90.8111,190.242 C93.019,193.243,95.1872,196.283,97.4573,199.238 C101.545,204.577,105.343,210.141,109.98,215.05 C110.495,215.616,111.401,216.51,110.705,217.122 C110.008,217.733,109.397,216.691,108.853,216.125 C102.92,209.977,98.3744,202.765,93.302,195.955 C93.302,195.955,87.0237,187.468,87.0237,187.468 C87.3067,190.893,89.4297,192.626,90.8733,194.647 C96.2062,202.131,101.816,209.411,107.625,216.539 C108.157,217.19,108.791,217.795,108.083,219.256 C100.763,211.268,94.6946,202.623,88.3144,193.503 C87.8332,197.908,90.6185,199.985,92.4415,202.437 C96.5458,207.956,100.86,213.317,104.766,219.013 C99.9369,214.75,95.9514,209.723,91.6829,204.899 C92.8491,207.911,95.0796,210.272,96.6534,213.017 C98.2272,215.763,100.905,217.75,100.786,221.373 C98.433,217.977,96.0798,214.58,93.7266,211.183 C91.1168,207.43,88.5466,203.654,85.8632,199.951 C85.416,199.329,84.8725,197.891,83.7629,198.819 C82.9308,199.504,83.6384,200.359,84.2498,201.18 C88.6995,207.181,92.1755,213.77,95.9402,220.207 C96.0987,220.484,96.0194,220.898,96.1157,221.956 C91.1848,215.429,87.471,208.936,83.4403,202.55 C82.308,204.152,82.4836,205.256,83.5026,206.875 C86.5483,211.71,89.8091,216.442,92.0396,221.787 C89.8771,220.224,88.49,217.96,87.2672,215.74 C86.0443,213.521,84.346,211.438,83.2081,209.089 C82.925,208.522,82.7778,207.3,81.7871,207.849 C80.9039,208.341,81.606,209.111,82.0079,209.762 C84.1592,213.255,86.4633,216.652,88.2352,220.36 C88.7799,221.247,89.0661,222.269,89.0617,223.309 C85.5518,219.222,83.9101,214.563,80.5304,211.059 C81.0965,215.588,84.9178,218.475,86.7577,223.309 C83.1288,220.722,81.7475,217.212,79.4547,214.387 C78.6339,215.633,78.113,216.273,79.4547,217.665 C81.1531,219.409,83.1458,221.339,83.0666,224.391 C81.4607,222.406,79.8548,220.42,78.2489,218.435 C77.462,221.356,80.7455,222.075,80.5813,224.396 C78.3791,223.615,76.2222,223.179,74.8465,225.778 C74.6927,225.994,74.438,226.116,74.1729,226.1 C73.9397,226.037,73.7447,225.877,73.6366,225.661 C73.5286,225.445,73.5177,225.193,73.6067,224.968 C73.9521,223.904,74.2861,222.828,74.739,221.798 C77.2978,215.899,78.7018,209.638,80.9663,202.805 C78.7414,205.33,77.162,207.3,74.7842,208.551 C75.9787,207.045,77.0487,205.454,78.3904,204.061 C79.6881,202.581,80.7377,200.901,81.4984,199.085 C82.2966,197.387,82.8628,195.847,85.2461,196.255 C86.5708,196.464,86.0783,195.423,85.9481,194.738 C85.3027,191.448,84.6573,188.154,83.9837,184.706 C82.4098,185.889,81.3569,187.486,79.5679,188.188 C78.9652,188.46,78.5006,188.967,78.2828,189.592 C76.8959,195.207,72.6216,199,69.2645,203.218 C64.1128,209.694,58.1233,215.503,52.2469,221.447 C52.3545,218.328,54.3756,216.12,56.2098,214.025 C59.8839,209.836,64.175,206.168,67.6284,201.82 C70.7307,197.919,74.7785,194.596,76.2787,189.529 C76.4588,188.888,76.8253,188.315,77.3317,187.882 C80.6888,185.34,81.9909,181.372,84.3459,178.156 C86.8482,174.759,87.403,171.244,86.9105,167.4 C86.5651,164.722,85.7386,162.107,85.3366,159.434 C84.9743,157.045,84.0289,157.629,82.8061,158.71 C80.8587,160.408,79.732,162.741,78.4866,164.937 C76.0806,169.172,74.3257,173.746,71.6932,177.873 C71.1837,178.677,70.7647,179.571,69.9326,180.024 C68.4946,180.788,67.9455,181.241,69.4966,182.73 C70.6289,183.862,70.0628,185.425,68.5455,186.427 C67.1982,181.717,65.4432,180.924,60.9425,182.9 C57.9308,184.219,55.3889,186.297,52.7961,188.222 C50.8316,189.688,48.9918,191.211,46.5688,191.986 C44.8723,192.583,43.5044,193.865,42.7984,195.519 C42.307,196.658,41.3056,197.498,40.098,197.783 C40.7434,195.938,42.4531,195.264,42.487,193.537 C41.8813,193.571,40.9811,193.351,40.6528,193.685 C36.5937,197.868,30.4626,198.989,26.5394,203.529 C23.7711,206.722,19.5138,207.973,14.7358,209.225 C15.414,208.224,16.4122,207.483,17.5664,207.124 C20.1989,206.36,22.469,204.832,24.6882,203.382 C26.245,202.363,26.8791,200.252,28.2151,198.763 C30.74,195.932,34.3461,195.338,37.4089,193.668 C43.3474,190.48,49.1954,187.203,54.5056,183.025 C57.6589,180.539,61.0896,178.926,65.2619,178.66 C68.9076,178.428,69.7172,174.929,70.9853,172.353 C73.3007,167.66,75.418,162.876,78.3449,158.534 C78.6726,157.974,79.0516,157.445,79.4771,156.955 C83.7796,152.664,86.6442,153.236,91.1675,159.151 C94.3887,163.369,97.3948,167.773,101.08,171.606 C102.654,173.231,104.086,173.769,106.504,173.304 C116.275,171.334,114.384,170.417,120.408,177.443 C123.765,181.355,126.957,185.431,131.028,188.686 C132.539,189.903,133.989,190.384,135.891,189.49 C138.155,188.442,140.697,188.171,142.922,186.801 C144.388,185.901,146.534,186.201,148.017,186.801 C151.674,188.227,152.688,185.482,153.446,183.347 C154.205,181.213,155.711,179.509,156.628,177.494 C157.098,176.486,158.066,175.614,159.34,175.858 C161.412,176.248,162.657,175.105,163.868,173.752 C165.669,171.742,167.543,169.789,169.269,167.728 C172.219,164.19,174.042,163.833,178.673,166.8 C182.89,169.506,186.196,173.372,189.508,177.08 C194.169,182.175,199.385,186.732,205.059,190.667 C208.784,193.328,212.3,196.277,216.002,198.972 C221.726,203.133,228.457,205.335,234.814,208.189 C236.586,208.981,238.358,209.779,240.108,210.623 C240.674,210.883,241.551,211.047,241.172,211.959 C240.793,212.87,240.079,212.757,239.253,212.525 C237.804,212.163,236.677,210.963,235.007,210.974 C234.599,211.778,235.986,212.066,235.437,213.046 C233.784,212.259,233.173,210.357,231.548,209.315 C231.491,211.285,233.597,212.027,233.727,214.286 C230.053,212.231,229.47,206.983,224.817,206.802 C225.7,208.93,228.531,209.717,228.717,212.559 C226.075,210.002,223.434,207.445,220.792,204.888 C221.89,207.719,224.834,209.219,225.456,212.814 C221.307,209.417,219.19,204.441,214.853,201.803 C214.629,201.991,214.404,202.18,214.179,202.369 C216.886,205.526,219.592,208.683,222.298,211.84 C213.97,207.096,210.245,197.687,201.917,193.034 C206.741,200.127,213.438,205.726,218.188,212.848 C207.205,204.599,200.955,191.992,190.193,183.551 C197.926,194.76,207.743,204.316,216.455,214.727 C216.167,214.982,215.878,215.237,215.589,215.492 C213.013,212.87,210.335,210.34,207.873,207.617 C198.47,197.206,189.231,186.67,181.679,174.782 C180.127,172.336,177.755,170.819,175.519,169.121 C175.151,168.843,174.562,168.187,174.132,168.951 C173.849,169.449,174.319,169.817,174.749,170.27 C181.673,177.516,187.357,185.793,193.805,193.441 C197.768,198.151,201.6,202.98,205.546,207.713 C207.847,210.409,209.853,213.343,211.53,216.465 C211.853,217.082,212.272,217.699,211.445,218.101 C210.777,218.418,210.919,217.167,210.239,217.252 C210.064,215.786,209.056,214.801,208.19,213.737 C200.298,203.999,192.339,194.302,184.532,184.514 C181.209,180.358,178.123,176.022,174.908,171.753 C174.84,173.186,174.908,174.72,175.683,175.529 C179.04,178.966,181.69,182.923,184.543,186.738 C189.678,193.6,194.897,200.41,200.694,206.722 C204.097,210.147,206.769,214.127,210.477,217.139 z M98.5781,177.85 C97.2779,176.078,95.9777,174.306,94.6775,172.534 C94.6536,173.651,94.9397,174.752,95.504,175.716 C96.1777,176.848,96.8514,178.19,98.612,177.793 C97.8251,181.864,99.348,185.294,101.646,188.51 C101.137,184.808,100.933,181.026,98.5781,177.85 z M97.3157,184.253 C98.5724,189.472,101.454,193.877,104.42,198.23 C101.935,193.639,100.418,188.55,97.2534,184.304 C95.0568,177.573,91.8696,171.283,88.9881,164.246 C88.8673,164.629,88.7876,165.024,88.7504,165.424 C90.1543,172.217,93.9586,178.037,96.8289,184.23 C96.8628,184.298,97.1515,184.242,97.3157,184.253 z M87.5898,174.98 C85.0592,177.505,86.2651,179.384,88.071,181.366 C89.7693,183.24,90.6072,185.895,93.5114,187.774 C92.4527,182.583,88.4503,179.548,87.5898,174.98 z M118.653,181.677 C118.404,181.766,118.155,181.854,117.905,181.943 C120.925,188.05,123.944,194.167,126.963,200.297 C128.13,198.91,128.362,197.817,126.963,196.09 C123.408,191.777,121.342,186.523,118.641,181.677 z M122.814,185.793 C124.381,189.386,126.326,192.802,128.616,195.983 C129.25,195.094,129.103,193.917,129.981,193.254 C130.858,192.592,130.269,192.173,129.72,191.805 C127.156,190.061,125.31,187.548,122.802,185.793 z M96.0702,187.661 C96.2797,187.567,96.4892,187.472,96.6986,187.378 C94.3907,182.283,92.0829,177.188,89.775,172.093 C90.1996,178.048,93.3755,182.741,96.0816,187.661 z M179.324,185.51 C178.91,190.163,182.154,192.179,185.613,194.069 z M110.161,198.445 C109.029,200.144,110.67,201.276,110.002,202.759 C109.606,202.312,109.368,201.627,108.757,201.859 C108.566,202.156,108.53,202.527,108.661,202.856 C110.167,204.31,111.729,205.686,113.28,207.113 C113.065,203.846,111.254,201.48,110.15,198.445 z M191.059,203.308 C188.563,200.45,186.066,197.591,183.57,194.732 C184.158,199.589,187.702,201.355,191.048,203.308 z M176.799,178.116 C177.705,182.923,181.803,185.43,183.887,189.393 C184.096,189.242,184.305,189.091,184.515,188.94 z M94.587,168.775 C96.1722,172.172,97.9837,174.436,99.7387,176.701 C99.0565,173.514,97.222,170.692,94.5869,168.775 z"/>
        </defs>
        <use xlink:href="#3" style="fill:#000000;fill-opacity:1;fill-rule:evenodd;opacity:1;stroke:none;"/>
      </g>
    </defs>
    <use xlink:href="#2"/>
    <defs>
      <title>Shape 122</title>
      <g id="4">
        <defs>
          <path id="5" d="M132.953,85.4085 C132.019,80.4097,130.088,74.3635,124.659,69.9931 C122.774,68.4702,120.962,66.8512,119.111,65.2887 C117.758,64.1564,117.917,62.8487,118.783,61.541 C120.883,58.3424,122.984,55.1382,125.157,51.9905 C126.46,50.1054,127.422,48.1636,127.229,45.7915 C127.081,44.6785,127.457,43.5595,128.248,42.7628 C131.141,39.6435,132.336,35.5731,134.142,31.8424 C134.504,31.0894,134.674,29.7194,135.84,29.9175 C136.836,30.1428,137.645,30.8663,137.98,31.831 C139.599,36.2354,141.479,40.4983,141.433,45.4179 C141.35,50.1475,143.162,54.7138,146.466,58.099 C149.625,61.3202,150.208,66.0247,153.537,69.0307 C156.368,71.5443,156.86,75.4109,159.062,78.2585 C159.747,79.1416,159.136,79.7247,158.892,80.2965 C157.194,84.2593,155.966,88.3467,155.892,92.7172 C155.847,95.3779,154.641,97.7443,153.843,100.213 C152.444,104.555,153.231,109.174,152.144,113.567 C151.946,114.383,152.144,115.322,151.114,115.639 C150.084,115.956,149.455,115.254,148.98,114.598 C147.766,113.067,146.69,111.432,145.764,109.712 C143.341,104.753,140.007,100.354,137.335,95.5591 C136.969,94.909,136.502,94.3206,135.953,93.8154 C132.8,90.9848,132.789,90.9961,132.953,85.4085 z M135.07,36.9148 C133.372,39.485,132.024,42.242,130.043,44.58 C129.595,45.0746,129.388,45.7416,129.477,46.4029 C129.834,48.9788,128.911,51.0734,127.337,53.1171 C125.356,55.6986,123.731,58.5632,121.817,61.2013 C120.685,62.7864,121.121,63.1827,122.808,63.8281 C127.11,65.4755,131.436,66.9191,136.021,67.6154 C131.838,68.2212,127.869,67.4286,123.906,65.6963 C128.543,68.9345,131.441,73.2879,133.445,78.3094 C134.668,81.3834,136.276,84.3952,135.308,87.8994 C135.172,88.3863,135.172,88.8505,135.648,89.1336 C136.123,89.4166,136.542,88.9977,136.904,88.7599 C138.949,87.4419,141.277,86.6289,143.698,86.3879 C141.677,88.1825,139.242,88.0863,137.77,89.728 C137.284,90.2601,136.208,90.6564,137.312,91.6981 C140.601,94.7948,142.039,99.1539,144.705,102.703 C146.545,105.149,147.355,108.308,149.75,110.776 C149.886,110.024,149.855,109.251,149.659,108.512 C148.527,104.747,147.802,100.909,148.164,96.9517 C148.462,93.7869,147.732,90.6104,146.081,87.8938 C145.211,86.3371,144.759,84.5819,144.768,82.7987 C144.654,79.4699,144.168,76.0053,141.314,73.8427 C139.01,72.1104,138.229,69.7893,137.448,67.321 C137.25,66.7096,137.255,65.8491,136.836,65.5208 C134.204,63.4714,134.674,60.5899,134.628,57.8442 C134.589,55.3589,134.628,52.8793,134.628,49.9865 C133.038,51.9056,132.364,53.8474,130.501,55.0136 C134.629,49.5675,132.483,42.6892,135.07,36.9148 z M136.202,56.7289 C135.195,58.3141,136.123,59.05,136.853,59.8596 C139.15,62.409,141.447,64.9584,143.743,67.5079 C147.389,71.5443,151.018,75.592,154.698,79.5945 C155.043,79.9738,155.332,80.9815,156.186,80.3021 C156.905,79.736,156.837,79.0001,156.26,78.3377 C155.891,77.9349,155.495,77.5567,155.077,77.2055 C152.812,75.2523,150.146,73.4408,148.476,71.2499 C144.638,66.2114,139.826,62.1014,136.197,56.7403 z M154.958,83.8177 C150.944,76.6394,144.666,71.2386,139.344,65.0509 C140.069,67.8192,151.686,82.0967,154.958,83.8177 z M153.707,90.4753 C153.662,89.2525,154.358,87.8825,153.543,86.9257 C150.882,83.7781,149.421,79.7021,145.957,77.1489 C146.919,82.5326,150.791,86.1954,153.701,90.4753 z M151.318,70.8876 C148.255,65.7189,144.06,61.4957,139.826,57.3007 C142.35,62.8996,147.315,66.4945,151.312,70.8876 z M153.175,94.4042 C152.546,89.4902,148.402,86.7446,146.16,82.7874 C145.911,83.6762,145.594,84.6782,145.962,85.1368 C148.397,88.1825,150.791,91.2565,153.169,94.4041 z M135.144,43.0911 C134.719,44.314,134.187,45.1065,135.144,45.9217 C136.145,46.7466,136.989,47.7459,137.635,48.8712 C137.884,49.2958,138.303,50.0034,138.897,49.4883 C139.339,49.1316,139.203,48.4353,138.84,47.9541 C137.697,46.4143,136.525,44.914,135.144,43.0911 z M151.844,97.2008 C152.224,94.5966,149.869,93.3908,149.014,91.4207 C148.51,94.0815,150.372,95.5364,151.827,97.2008 z"/>
        </defs>
        <use xlink:href="#5" style="fill:#000000;fill-opacity:1;fill-rule:evenodd;opacity:1;stroke:none;"/>
      </g>
    </defs>
    <use xlink:href="#4"/>
    <defs>
      <title>Shape 123</title>
      <g id="6">
        <defs>
          <path id="7" d="M98.4422,122.404 C98.0346,118.691,99.1272,115.611,100.288,112.378 C103.956,102.188,110.614,93.6625,115.698,84.265 C115.933,83.7566,116.195,83.2615,116.485,82.7817 C116.966,82.0911,116.711,80.6248,118.041,80.8343 C119.372,81.0438,119.706,82.1307,119.859,83.3535 C120.391,87.5768,121.132,91.783,121.557,96.0176 C121.964,100.416,123.782,104.141,126.125,107.77 C128.18,110.952,130.088,114.111,130.252,118.232 C130.371,121.782,131.56,125.297,133.004,128.615 C133.468,129.64,133.468,130.816,133.004,131.842 C131.979,134.553,131.073,137.299,129.607,139.841 C127.779,143.068,126.777,146.47,127.156,150.269 C127.592,154.798,125.865,159.134,125.967,163.663 C126.007,165.395,125.044,164.914,123.737,164.229 C118.075,161.399,116.218,155.239,112.08,151.084 C110.382,149.386,109.006,147.348,106.855,146.119 C105.196,145.168,105.117,143.402,104.59,141.868 C103.798,139.677,103.605,137.339,101.284,135.731 C99.5859,134.559,99.3935,131.932,99.0198,129.888 C98.5612,127.375,97.8761,124.782,98.4422,122.404 z M124.603,129.13 C124.506,128.354,126.442,128.603,125.463,127.335 C124.484,126.067,123.493,124.601,122.151,122.716 C122.366,125.592,124.257,127.047,124.608,129.13 C126.262,130.749,127.362,132.849,127.75,135.131 C125.961,133.478,124.812,131.389,123.623,129.328 C122.434,127.267,121.274,125.269,120.017,123.101 C118.772,125.541,121.908,131.802,127.773,139.02 C128.792,136.41,129.76,133.925,130.728,131.428 C130.847,131.123,131.232,130.743,130.592,130.619 C130.298,130.557,129.941,130.409,129.709,130.908 C129.143,132.187,128.656,132.266,128.011,130.992 C127.269,129.481,126.476,128.417,124.603,129.13 z M116.275,130.828 C115.194,131.592,114.922,133.263,112.935,133.659 C114.256,131.264,115.577,128.869,116.898,126.475 C117.86,124.725,118.981,123.078,118.188,120.859 C117.396,118.64,116.62,116.279,115.924,113.958 C115.522,112.577,114.509,112.418,113.694,113.08 C111.095,115.203,108.429,117.298,106.475,120.095 C106.011,120.757,105.677,121.544,104.256,121.317 C106.09,119.053,107.393,116.404,109.51,115.034 C112.34,113.182,112.199,111.252,111.084,108.75 C109.951,109.208,109.465,110.822,107.313,111.116 C110.41,107.849,113.654,105.41,114.854,101.418 C116.02,97.5461,116.801,93.6739,116.241,89.1053 C113.359,93.8833,110.41,97.9481,107.817,102.262 C106.685,104.192,106.826,106.496,105.439,108.166 C99.0763,115.843,100.695,124.369,102.671,132.957 C102.971,134.259,103.945,134.836,104.998,135.527 C105.949,133.37,106.09,130.919,108.179,129.532 C107.319,131.872,106.8,134.324,106.64,136.812 C106.317,140.639,107.126,142.904,110.41,144.704 C111.208,145.145,112.069,145.474,112.907,145.836 C113.575,146.13,113.858,146.402,112.997,146.883 C112.137,147.365,112.239,147.302,112.675,147.868 C114.996,150.903,118.007,153.439,119.53,157.039 C120.306,158.874,121.642,159.785,123.669,160.663 C121.812,155.381,120.164,150.473,118.364,145.632 C116.564,140.792,116.773,135.799,116.275,130.823 z M130.303,129.311 C130.371,127.732,129.556,126.599,128.667,125.473 C123.928,119.489,119.631,113.167,115.811,106.559 C115.533,106.083,115.522,104.696,114.446,105.291 C113.592,105.76,113.314,106.717,114.124,107.691 C114.932,108.691,115.688,109.732,116.388,110.81 C120.006,116.471,123.47,122.201,127.535,127.539 C128.22,128.445,128.735,129.73,130.303,129.305 z M127.677,121.668 C127.894,121.538,128.111,121.408,128.328,121.278 C127.626,120.372,127.807,119.245,127.139,118.243 C123.997,113.539,121.025,108.721,117.877,104.017 C117.447,103.377,117.192,101.656,115.935,102.471 C114.678,103.287,115.799,104.475,116.354,105.302 C118.577,108.699,120.842,112.08,123.148,115.447 C124.614,117.57,126.171,119.602,127.677,121.663 z M118.256,126.231 C118.256,127.652,117.99,128.541,118.302,129.107 C120.419,132.917,122.644,136.665,124.886,140.43 C125.174,140.916,125.61,141.794,126.38,141.2 C126.886,140.706,126.906,139.9,126.425,139.382 C123.017,135.708,121.257,131.038,118.256,126.226 z M117.594,98.5538 C117.268,98.6802,116.941,98.8067,116.615,98.9331 C119.298,104.945,123.612,110.023,126.771,115.764 C127.056,115.602,127.341,115.439,127.626,115.277 C124.274,109.703,120.93,104.128,117.594,98.5538 z M118.279,131.751 C118.279,133.698,117.871,135.051,118.358,135.867 C120.023,138.629,121.993,141.217,123.878,143.843 C124.144,144.217,124.444,144.976,125.129,144.257 C125.639,143.753,125.542,143.322,125.095,142.824 C122.355,139.779,120.73,136.02,118.268,131.751 z M119.377,97.8235 C119.07,95.5496,118.762,93.2757,118.455,91.0018 C118.215,91.0339,117.975,91.0659,117.736,91.098 C117.934,93.4134,116.541,95.9157,119.366,97.8235 z M118.387,137.95 C117.56,140.826,119.575,142.173,120.617,143.917 C120.889,144.149,121.257,144.231,121.602,144.138 C122.378,143.86,121.766,143.373,121.602,143.096 C120.611,141.46,119.575,139.858,118.375,137.95 z"/>
        </defs>
        <use xlink:href="#7" style="fill:#000000;fill-opacity:1;fill-rule:evenodd;opacity:1;stroke:none;"/>
      </g>
    </defs>
    <use xlink:href="#6"/>
    <defs>
      <title>Shape 124</title>
      <g id="8">
        <defs>
          <path id="9" d="M160.846,159.298 C160.472,162.463,159.436,164.92,157.675,166.845 C154.845,169.93,152.059,172.936,150.882,177.103 C150.661,177.907,150.101,178.62,148.98,178.173 C145.645,176.837,142.39,175.155,140.924,171.77 C138.201,165.486,135.359,159.242,133.338,152.663 C132.786,150.982,133.021,149.142,133.978,147.653 C137.001,142.219,140.114,136.835,142.911,131.287 C143.783,129.555,144.423,129.77,145.611,130.579 C148.114,132.278,150.18,134.344,151.273,137.271 C151.624,138.216,152.009,139.456,152.761,139.881 C156.515,142.009,156.724,145.887,157.794,149.352 C158.864,152.816,159.923,156.275,160.846,159.298 z M144.706,132.827 C141.309,138.646,139.367,144.092,135.97,148.74 C135.572,149.288,135.508,150.011,135.806,150.62 C136.151,151.231,137.131,151.186,137.618,150.937 C140.946,149.137,144.088,151.044,147.315,151.322 C143.437,151.486,139.39,150.597,135.846,153.145 C138.059,158.636,140.21,164.348,142.684,169.924 C143.573,171.917,145.039,173.797,147.7,174.521 C146.879,166.392,150.621,159.015,150.106,151.09 C149.999,149.346,150.004,148.129,148.685,147.087 C147.276,145.955,146.421,144.296,146.715,142.762 C147.344,139.269,145.057,136.688,144.706,132.827 z M150.825,151.361 C151.793,156.304,155.354,159.553,156.351,164.178 C157.37,162.01,154.392,155.194,150.825,151.339 z M151.958,157.26 C151.7,157.592,151.48,157.951,151.301,158.33 C151.125,158.896,154.431,165.203,154.93,165.486 C155.286,165.69,155.451,165.486,155.632,165.288 C155.949,164.988,155.745,164.835,155.552,164.478 C154.279,162.123,153.152,159.723,151.935,157.238 z M150.78,160.657 C149.212,163.306,151.912,164.569,152.229,166.482 C152.303,166.918,152.795,167.615,153.429,167.309 C154.171,166.924,153.888,166.245,153.543,165.645 C152.626,164.025,151.754,162.423,150.757,160.623 z M149.518,164.342 C149.15,166.296,149.15,167.875,150.305,169.324 C150.633,169.738,150.661,170.491,151.437,170.009 C151.935,169.698,152.354,169.234,152.003,168.605 C151.21,167.23,150.887,165.611,149.495,164.309 z M148.295,141.551 C148.368,144.987,148.968,145.87,151.691,146.963 C150.927,144.964,149.631,143.583,148.272,141.517 z"/>
        </defs>
        <use xlink:href="#9" style="fill:#000000;fill-opacity:1;fill-rule:evenodd;opacity:1;stroke:none;"/>
      </g>
    </defs>
    <use xlink:href="#8"/>
    <defs>
      <title>Shape 132</title>
      <g id="10">
        <defs>
          <path id="11" d="M100.044,104.158 C100.044,107.034,97.5875,108.619,94.7172,108.121 C91.3601,107.515,87.9974,106.938,84.8667,105.608 C81.7361,104.277,80.6888,103.672,82.7834,99.7936 C83.4061,98.6614,84.5949,97.9424,85.0478,96.6347 C85.4215,95.5987,86.2423,96.1308,86.9161,96.4252 C90.5675,98.0103,94.2416,99.5445,97.8591,101.209 C99.0896,101.696,99.9369,102.839,100.044,104.158 z M96.7156,106.791 C97.4685,106.604,97.6497,105.455,98.0913,104.611 C98.6574,103.558,97.9045,103.162,97.027,102.783 C94.1964,101.577,91.4564,100.241,88.6258,99.0803 C87.5955,98.6614,86.5255,96.9573,85.2914,98.65 C84.5269,99.8157,83.864,101.045,83.31,102.324 C83.0212,102.89,83.6043,103.145,83.9723,103.315 C87.8954,105.087,92.0508,105.993,96.7382,106.785 z"/>
        </defs>
        <use xlink:href="#11" style="fill:#000000;fill-opacity:1;fill-rule:evenodd;opacity:1;stroke:none;"/>
      </g>
    </defs>
    <use xlink:href="#10"/>
    <defs>
      <title>Shape 136</title>
      <g id="12">
        <defs>
          <path id="13" d="M97.01,112.214 C97.1572,114.133,97.378,116.047,97.4176,117.966 C97.4559,118.854,96.8278,119.633,95.9513,119.783 C92.6338,120.627,89.3277,120.304,86.0159,119.783 C85.6363,119.741,85.2901,119.547,85.0565,119.245 C84.8228,118.943,84.7216,118.559,84.7761,118.181 C84.7761,116.958,84.7761,115.735,84.8667,114.513 C85.0139,112.469,86.2254,111.456,88.1898,111.767 C90.5449,112.141,92.9905,111.473,95.6626,112.373 C93.551,114.252,91.3374,113.403,89.3277,113.562 C88.0596,113.663,86.5537,113.126,86.4405,115.26 C86.3499,116.924,86.4009,118.04,88.6201,118.515 C90.8392,118.991,92.8207,118.045,94.9267,118.096 C95.7079,118.096,95.4928,117.27,95.5834,116.766 C95.8324,115.249,96.0532,113.731,96.2854,112.237 z"/>
        </defs>
        <use xlink:href="#13" style="fill:#000000;fill-opacity:1;fill-rule:evenodd;opacity:1;stroke:none;"/>
      </g>
    </defs>
    <use xlink:href="#12"/>
    <defs>
      <title>Shape 137</title>
      <g id="14">
        <defs>
          <path id="15" d="M170.809,139.688 C171.132,141.834,169.473,142.371,167.979,142.773 C165.754,143.339,163.45,143.702,161.185,144.126 C159.725,144.398,158.774,143.866,158.072,142.473 C156.979,140.322,157.234,138.975,159.713,138.171 C162.086,137.416,164.405,136.5,166.654,135.431 C168.913,134.355,170.872,136.427,170.809,139.688 z M169.23,139.626 C169.02,138.001,169.23,136.523,167.463,137.067 C165.111,137.812,162.799,138.683,160.54,139.677 C160.064,139.88,158.7,139.779,159.408,141.2 C159.906,142.219,160.54,142.671,161.581,142.332 C163.441,141.825,165.332,141.447,167.243,141.2 C168.313,141.058,169.547,140.667,169.241,139.62 z"/>
        </defs>
        <use xlink:href="#15" style="fill:#000000;fill-opacity:1;fill-rule:evenodd;opacity:1;stroke:none;"/>
      </g>
    </defs>
    <use xlink:href="#14"/>
    <defs>
      <title>Shape 142</title>
      <g id="16">
        <defs>
          <path id="17" d="M104.058,96.2497 C103.546,97.7134,102.708,99.0415,101.607,100.133 C100.475,101.147,99.5292,99.8672,98.6461,99.3464 C96.8679,98.3397,95.2195,97.1191,93.7379,95.7119 C92.3566,94.3532,92.5037,93.3625,93.9078,92.2812 C94.1342,92.1114,94.2927,91.834,94.5305,91.7151 C95.8438,91.0697,96.6194,88.7826,98.4027,89.7903 C101.015,91.1788,103.027,93.477,104.058,96.2497 z M94.2983,94.1947 C94.9857,94.8641,95.7075,95.4971,96.4608,96.0912 C97.4402,96.7762,98.5102,97.3367,99.5405,97.9594 C100.571,98.5821,101.205,98.1575,101.805,97.1838 C102.615,95.8308,101.618,95.1401,100.944,94.3022 C97.8535,90.4753,97.8478,90.4753,94.2983,94.1947 z"/>
        </defs>
        <use xlink:href="#17" style="fill:#000000;fill-opacity:1;fill-rule:evenodd;opacity:1;stroke:none;"/>
      </g>
    </defs>
    <use xlink:href="#16"/>
    <defs>
      <title>Shape 145</title>
      <g id="18">
        <defs>
          <path id="19" d="M112.708,75.5411 C116.286,72.4387,112.205,69.1666,113.071,65.651 C114.769,68.8779,117.034,71.6575,115.29,75.4392 C114.724,76.6054,114.011,77.6754,112.737,77.8056 C111.463,77.9358,111.078,76.6733,110.359,75.8581 C108.44,73.6446,107.97,71.5896,110.07,69.2402 C110.58,68.6741,110.637,67.3607,111.769,67.9721 C112.573,68.425,112.001,69.393,111.542,69.9365 C109.555,72.2519,110.642,73.9503,112.708,75.5411 z"/>
        </defs>
        <use xlink:href="#19" style="fill:#000000;fill-opacity:1;fill-rule:evenodd;opacity:1;stroke:none;"/>
      </g>
    </defs>
    <use xlink:href="#18"/>
    <defs>
      <title>Shape 146</title>
      <g id="20">
        <defs>
          <path id="21" d="M162.595,115.843 C162.351,117.972,160.789,118.962,159.034,119.732 C158.677,119.825,158.298,119.75,158.004,119.529 C155.264,117.298,155.909,110.086,158.96,108.433 C159.527,108.144,159.798,108.229,160.053,108.772 C161.1,111.037,162.346,113.239,162.595,115.843 z M159.198,111.11 C157.556,112.746,157.104,114.411,158.451,116.205 C158.802,116.67,158.683,118.04,159.866,117.383 C160.574,116.992,161.236,116.302,160.885,115.345 C160.41,113.93,160.274,112.401,159.226,111.099 z"/>
        </defs>
        <use xlink:href="#21" style="fill:#000000;fill-opacity:1;fill-rule:evenodd;opacity:1;stroke:none;"/>
      </g>
    </defs>
    <use xlink:href="#20"/>
    <defs>
      <title>Shape 150</title>
      <g id="22">
        <defs>
          <path id="23" d="M153.175,134.304 C153.911,132.362,154.799,130.483,157.053,129.775 C158.751,129.254,159.928,130.443,160.868,131.474 C161.808,132.504,160.483,133.342,159.991,134.129 C159.388,134.967,158.671,135.718,157.862,136.359 C157.075,137.061,156.379,138.38,155.077,137.571 C153.979,136.931,152.937,135.997,153.175,134.304 z M155.83,135.674 C156.469,135.674,159.538,132.81,159.226,132.447 C158.847,131.977,158.151,131.355,157.704,131.434 C156.186,131.7,155.507,133.132,154.624,134.208 C154.488,134.372,155.015,135.114,155.286,135.555 C155.377,135.657,155.649,135.657,155.83,135.657 z"/>
        </defs>
        <use xlink:href="#23" style="fill:#000000;fill-opacity:1;fill-rule:evenodd;opacity:1;stroke:none;"/>
      </g>
    </defs>
    <use xlink:href="#22"/>
    <defs>
      <title>Shape 152</title>
      <g id="24">
        <defs>
          <path id="25" d="M165.754,145.847 C166.603,146.6,168.952,144.347,169.111,147.382 C169.241,149.895,167.509,150.444,165.629,150.897 C165.35,150.914,165.07,150.914,164.791,150.897 C163.178,151.061,160.97,152.884,160.642,149.448 C160.325,146.193,160.732,145.847,164.678,145.819 z M163.84,146.98 C162.629,146.98,161.649,146.781,161.717,148.293 C161.768,149.272,162.051,150.257,163.048,149.737 C164.446,149.001,167.056,150.257,167.175,148.078 C167.237,146.883,164.808,147.41,163.84,146.98 z"/>
        </defs>
        <use xlink:href="#25" style="fill:#000000;fill-opacity:1;fill-rule:evenodd;opacity:1;stroke:none;"/>
      </g>
    </defs>
    <use xlink:href="#24"/>
    <defs>
      <title>Shape 155</title>
      <g id="26">
        <defs>
          <path id="27" d="M118.16,200.195 C117.628,197.047,115.76,194.426,114.718,191.477 C114.243,190.129,113.586,188.838,113.427,187.35 C117.022,193.011,119.519,199.238,122.451,205.669 C120.385,205.018,120.476,203.173,119.287,202.442 z"/>
        </defs>
        <use xlink:href="#27" style="fill:#000000;fill-opacity:1;fill-rule:evenodd;opacity:1;stroke:none;"/>
      </g>
    </defs>
    <use xlink:href="#26"/>
    <defs>
      <title>Shape 159</title>
      <g id="28">
        <defs>
          <path id="29" d="M118.16,200.195 C118.538,200.95,118.915,201.704,119.292,202.459 C119.225,203.558,119.474,204.724,118.16,205.952 C117.503,200.048,113.501,195.654,112.29,190.135 C115.007,193.045,115.618,197.166,118.16,200.195 z"/>
        </defs>
        <use xlink:href="#29" style="fill:#000000;fill-opacity:1;fill-rule:evenodd;opacity:1;stroke:none;"/>
      </g>
    </defs>
    <use xlink:href="#28"/>
    <defs>
      <title>Shape 165</title>
      <g id="30">
        <defs>
          <path id="31" d="M111.004,192.405 C113.546,197.845,116.417,203.161,117.266,209.281 C114.939,203.756,112.612,198.23,110.286,192.705 z"/>
        </defs>
        <use xlink:href="#31" style="fill:#000000;fill-opacity:1;fill-rule:evenodd;opacity:1;stroke:none;"/>
      </g>
    </defs>
    <use xlink:href="#30"/>
    <defs>
      <title>Shape 171</title>
      <g id="32">
        <defs>
          <path id="33" d="M54.234,207.407 C56.6872,205.18,59.1404,202.954,61.5936,200.727 C61.7823,200.934,61.971,201.142,62.1597,201.35 C59.85,203.835,57.7496,206.586,54.234,207.407 z"/>
        </defs>
        <use xlink:href="#33" style="fill:#000000;fill-opacity:1;fill-rule:evenodd;opacity:1;stroke:none;"/>
      </g>
    </defs>
    <use xlink:href="#32"/>
    <defs>
      <title>Shape 188</title>
      <g id="34">
        <defs>
          <path id="35" d="M144.151,201.242 C145.628,203.914,145.209,204.928,141.575,207.288 C142.871,205.103,144.145,203.427,144.151,201.242 z"/>
        </defs>
        <use xlink:href="#35" style="fill:#000000;fill-opacity:1;fill-rule:evenodd;opacity:1;stroke:none;"/>
      </g>
    </defs>
    <use xlink:href="#34"/>
    <defs>
      <title>Shape 190</title>
      <g id="36">
        <defs>
          <path id="37" d="M65.8111,194.103 C66.6999,192.654,67.6624,191.318,67.8152,189.574 C67.8718,189.008,68.2285,188.742,68.7493,188.923 C69.2702,189.104,68.9871,189.523,68.9135,189.84 C68.4946,191.703,68.0926,193.594,65.8111,194.103 z"/>
        </defs>
        <use xlink:href="#37" style="fill:#000000;fill-opacity:1;fill-rule:evenodd;opacity:1;stroke:none;"/>
      </g>
    </defs>
    <use xlink:href="#36"/>
    <defs>
      <title>Shape 195</title>
      <g id="38">
        <defs>
          <path id="39" d="M148.04,199.425 C146.817,197.67,145.521,195.949,145.266,193.707 C146.67,195.371,148.278,196.94,148.04,199.425 z"/>
        </defs>
        <use xlink:href="#39" style="fill:#000000;fill-opacity:1;fill-rule:evenodd;opacity:1;stroke:none;"/>
      </g>
    </defs>
    <use xlink:href="#38"/>
    <defs>
      <title>Shape 198</title>
      <g id="40">
        <defs>
          <path id="41" d="M144.881,196.436 C145.079,198.361,147.48,199.708,146.342,201.972 C146.296,199.98,143.522,198.836,144.881,196.436 z"/>
        </defs>
        <use xlink:href="#41" style="fill:#000000;fill-opacity:1;fill-rule:evenodd;opacity:1;stroke:none;"/>
      </g>
    </defs>
    <use xlink:href="#40"/>
    <defs>
      <title>Shape 204</title>
      <g id="42">
        <defs>
          <path id="43" d="M31.7648,206.784 C30.9779,209.44,29.5003,210.747,27.1057,211.121 z"/>
        </defs>
        <use xlink:href="#43" style="fill:#000000;fill-opacity:1;fill-rule:evenodd;opacity:1;stroke:none;"/>
      </g>
    </defs>
    <use xlink:href="#42"/>
    <defs>
      <title>Shape 205</title>
      <g id="44">
        <defs>
          <path id="45" d="M47.0217,215.633 C45.7027,217.569,44.259,219.414,41.9266,220.269 C43.223,218.311,45.0686,216.924,47.0217,215.633 z"/>
        </defs>
        <use xlink:href="#45" style="fill:#000000;fill-opacity:1;fill-rule:evenodd;opacity:1;stroke:none;"/>
      </g>
    </defs>
    <use xlink:href="#44"/>
  </g>
</svg>
