<?xml version="1.0" encoding="UTF-8"?>
<!-- Generated by Pixelmator Pro 2.4.2 -->
<svg width="341" height="341" viewBox="0 0 341 341" xmlns="http://www.w3.org/2000/svg" xmlns:xlink="http://www.w3.org/1999/xlink">
    <path id="Path" fill="#413c43" stroke="none" d="M 268.918671 202.335999 C 271.074677 203.914673 273.230682 205.493332 275.386658 207.070663 C 267.689331 204.26268 260.009338 201.647995 252.989334 197.388 C 257.162659 202.801331 263.737335 205.870667 266.82666 212.261337 C 244.741333 194.573318 224.107986 175.143997 205.124008 154.161331 C 203.769333 159.00267 203.769333 159.584 206.789322 162.391998 C 224.219986 178.564011 241.650681 194.647995 258.934662 210.916 C 260.29068 212.184006 263.186676 213.114655 261.917328 216.822662 C 242.550659 199.208008 223.745346 181.546677 205.046677 163.447998 C 204.843994 166.594666 207.690674 171.785339 211.495987 175.649338 C 226.021347 190.435989 240.594666 205.241333 257.541351 217.403992 C 258.509338 218.101349 260.813324 218.865326 259.477325 220.579987 C 257.986664 222.515991 257.153351 220.057343 256.194672 219.369324 C 240.604004 208.242676 227.143997 194.754654 214.139999 180.858658 C 211.863998 178.437332 209.888 175.765335 206.809326 173.286667 C 206.02533 176.346664 206.228012 177.923996 208.746658 179.929337 C 213.084 183.328003 216.763992 187.587997 220.539993 191.645325 C 230.223999 202.035995 241.098679 211.090652 251.528 220.696014 C 252.73732 221.809326 254.520004 222.690674 254.567993 225.87735 C 238.99733 213.782684 226.059998 199.993332 212.067993 185.835999 C 212.50267 191.5 216.550659 193.582657 219.203995 196.274658 C 229.313339 206.616013 238.164001 218.197327 249.465332 227.37735 C 250.113342 227.910675 251.276001 228.61734 250.104004 229.644012 C 249.222672 230.418671 248.331985 229.973328 247.577332 229.198669 C 245.765335 227.368011 243.97467 225.498657 242.076004 223.746674 C 240.962662 222.778656 240.226669 220.918671 238.202652 221.490662 C 238.609329 220.182648 237.786667 219.417328 237.00267 218.585327 C 232.554672 213.860016 228.12532 209.117325 223.717331 204.360001 C 219.921326 200.277328 216.12532 196.193344 212.32933 192.110657 C 211.650681 195.470657 227.657333 213.065338 238.318665 221.393341 C 238.56134 223.862671 241.059998 224.705353 242.12532 226.613342 C 242.666672 227.581329 243.916 228.549347 242.870667 229.517334 C 241.408005 230.873322 240.565323 229.024017 239.908005 228.22934 C 232.286667 218.972015 223.445328 210.848007 215.321335 202.084 C 214.294662 200.970657 213.093338 200.012009 211.370667 198.423996 C 211.370667 201.842667 213.306656 203.401321 214.778671 204.843994 C 223.222672 213.249329 230.940002 222.342682 239.587997 230.563995 C 243.257324 234.058685 244.429337 239.849335 250.006668 241.932007 C 242.734665 240.412018 236.159988 238.115997 231.17334 232.636017 C 225.905334 226.825348 220.521347 221.150665 213.394669 217.249329 C 219.978653 224.126678 226.564011 231.005341 233.147995 237.884003 C 232.677322 238.342682 232.205338 238.801331 231.734665 239.258667 C 214.671997 221.248016 196.468002 204.398666 180.179993 184.789322 C 179.018677 188.875992 180.015991 191.006668 182.572006 193.223999 C 194.046677 203.139999 203.535995 214.992004 213.955994 225.954681 C 218.642654 230.873322 223.049332 236.054657 227.647995 241.186676 C 225.71199 242.222687 224.744003 241.050659 223.774658 239.994659 C 210.993332 226.089325 198.213333 212.174667 185.43866 198.249329 C 185.350662 198.153336 185.127991 198.171997 184.993332 198.085327 C 182.978653 196.778671 182.010666 191.810669 179.425339 194.21199 C 177.197327 196.254654 181.419998 198.58934 183.046677 200.43866 C 194.124008 212.987991 205.570663 225.198669 217.383987 237.070648 C 219.530655 239.249329 221.321335 241.753326 222.690674 244.488007 C 207.013321 230.214661 193.039993 214.314667 178.669327 198.723999 C 176.897339 200.400009 177.624008 201.783997 179.153336 203.469345 C 192.226669 217.820007 205.29866 232.161346 219.582657 245.350677 C 220.066666 245.79599 220.38533 246.318665 219.698669 247.577332 C 215.475998 243.70401 211.273331 240.014679 207.197327 236.170685 C 197.930664 227.376007 189.223999 218.009338 181.127991 208.126663 C 180.61467 207.506668 180.159988 206.867996 179.569336 206.277328 C 178.82399 205.473328 177.903992 204.214661 176.820007 205.105331 C 175.570663 206.073318 176.354675 207.333328 177.322678 208.397339 C 183.133347 214.76001 188.797348 221.218658 194.607986 227.552002 C 199.914673 233.361328 205.394669 238.949341 210.682663 244.73999 C 211.960007 246.144012 213.684006 247.5 213.733337 251.121338 C 200.495987 237.196014 188.352005 223.833344 175.966675 210.693344 C 186.802673 225.67334 199.072006 239.403992 211.796005 252.825348 C 203.081345 246.269318 195.692001 238.154663 186.116013 232.150665 C 191.296005 242.579987 202.897339 247.645325 207.234665 259.372009 C 199.943985 256.466675 193.542664 254.306671 189.244003 248.554657 C 189.886658 251.625336 191.699997 254.324005 194.29866 256.078674 C 195.334671 256.79599 196.661331 257.048004 196.050659 258.781342 C 193.987991 257.027985 193.446671 263.186676 190.705338 259.661346 C 188.637329 256.82132 186.768005 253.841339 185.107986 250.743988 C 182.406662 246.066681 179.908005 241.264008 177.506668 236.421326 C 176.770676 234.940002 175.745346 233.972015 174.321335 234.185333 C 172.897339 234.397339 173.236008 235.90799 173.353333 237.022675 C 173.353333 237.62265 173.604004 238.745331 172.926682 238.590668 C 166.352005 237.06134 165.112 244.167999 160.686661 246.037323 C 160.134659 246.269318 159.641342 246.627991 158.489334 247.286652 C 159.776001 242.445343 164.395996 241.475983 166.236008 238.067993 C 156.890671 232.461334 164.464005 223.542664 162.274673 216.038666 C 153.21199 223.222687 146.713333 232.558685 138.250671 239.860016 C 143.964005 232.190674 149.725327 224.627991 156.736008 218.139984 C 157.938675 217.063995 159.073334 215.915985 160.134659 214.701324 C 164.975998 208.892014 164.975998 208.892014 171.116013 212.581345 C 172.28801 203.419998 175.822678 194.850662 175.957336 186.435989 C 156.193329 203.962662 137.398666 223.667999 110.226532 231.46402 C 115.658936 227.677338 120.878265 223.513336 126.572136 220.182648 C 133.553329 216.115997 139.809341 211.08934 145.938675 205.968002 C 152.630661 200.350662 160.763992 196.477341 166.138657 189.214661 C 167.746658 187.026672 169.595993 185.070663 170.632004 182.494675 C 171.133347 180.968002 171.901321 179.542664 172.897339 178.282669 C 177.681335 173.044006 182.261337 169.218674 187.58667 178.573318 C 192.052002 186.416 198.849319 192.304001 205.453323 199.121338 C 206.325333 195.248001 206.934677 191.849319 207.902664 188.528 C 208.629333 186.038681 207.748001 184.218674 205.791992 183.230667 C 202.886658 181.778671 203.681335 185.168015 202.58667 186.184006 C 201.966675 186.736008 201.811996 187.869324 200.814651 188.072006 C 203.972 174.098679 198.587997 160.193329 200.466675 146.240005 C 200.562668 145.542664 200.853333 144.526657 199.837341 144.147995 C 198.645325 143.71199 198.113342 144.777328 197.552002 145.465332 C 193.049332 150.888 188.352005 156.174667 184.226669 161.869339 C 182.105331 164.848007 179.651993 167.576004 176.916 170.00267 C 175.841324 169.160004 176.44133 168.434662 177.013321 167.998672 C 181.593338 164.454666 181.854675 159.380005 182.202652 154.218674 C 182.745346 146.637329 181.17601 139.181335 181.166672 131.637329 C 181.166672 130.48494 181.099991 129.071198 179.878662 128.848526 C 178.658676 128.625732 178.010666 129.971725 177.429337 130.901337 C 174.698669 135.297333 171.270676 139.151993 168.094666 143.209335 C 163.949326 148.486664 158.671997 152.262665 153.462662 156.310669 C 147.381332 161.035995 143.227997 167.678665 138.482666 173.692001 C 137.292007 175.193344 136.206665 176.790665 135.016006 178.291992 C 132.449875 181.49733 130.271072 185.322678 124.751595 184.412003 C 135.916 174.234665 141.417343 159.554672 153.317337 150.093338 C 155.254669 148.554672 156.319992 147.46933 154.130661 145.251999 C 151.942673 143.034668 152.591995 140.49733 153.996002 138.154663 C 157.326675 132.605728 158.837326 126.534134 159.989334 119.436264 C 157.633331 121.476135 155.277328 123.516129 152.919998 125.556137 C 152.624008 125.272141 152.326675 124.987991 152.029343 124.703995 C 156.734665 119.540131 161.056 114.038132 164.957336 108.242142 C 169.062668 102.325607 172.97467 96.215332 173.119995 88.710663 C 173.119995 87.616409 176.02533 84.178802 171.357346 84.624268 C 170.543991 84.701721 170.786667 83.743073 171.154663 83.200806 C 175.414673 76.799988 173.671997 69.217865 174.853333 62.061859 C 172.104004 67.46521 169.46933 72.936401 166.574661 78.262268 C 160.938675 88.642929 155.282669 98.955734 147.206665 107.854797 C 144.021332 111.389206 143.837326 116.889465 141.649338 121.295334 C 140.606674 123.128525 139.302658 124.799057 137.776001 126.253342 C 141.213333 120.065598 138.898666 114.575058 135.838669 109.162125 C 130.040665 117.707336 124.694527 126.550674 119.822395 135.655991 C 113.683197 147.276001 105.849205 157.773331 97.976532 168.221329 C 95.894661 170.981323 94.296806 174.030655 90.549339 175.47467 C 88.26413 176.345337 88.7192 179.927994 88.322136 182.194656 C 87.930397 184.878662 86.704132 187.372009 84.816666 189.321335 C 80.7304 193.601334 76.101601 197.426682 73.051338 202.617325 C 71.8312 204.698669 69.545868 205.066666 67.309067 207.361328 C 68.199867 203.943985 70.523865 203.081345 71.753601 201.348007 C 75.501198 196.013321 74.658669 190.028 74.290665 184.102661 C 74.290665 183.646667 73.883995 183.230667 73.777466 182.765335 C 71.734268 173.837341 71.840797 173.973328 64.181198 179.744003 C 49.791599 190.618668 33.300667 197.349319 16.480534 203.392014 C 14.253333 204.185349 12.491 203.110657 10.825413 201.977341 C 9.992654 201.406662 10.718906 200.632004 11.183693 199.934677 C 12.239213 198.317337 12.887986 196.554672 15.599334 197.794662 C 17.139067 198.501343 18.959467 197.242676 20.537867 196.535995 C 32.341999 191.248001 44.368801 186.397339 55.252934 179.26001 C 56.357067 178.619995 57.389332 177.863998 58.332264 177.004013 C 65.110664 169.973343 73.4384 168.492004 82.608665 170.651993 C 86.482002 171.562668 88.961067 170.506668 91.498131 167.185333 C 103.950935 150.867996 114.302666 133.293335 124.247337 115.369064 C 125.951729 112.309067 128.120804 109.559067 130.057465 106.537735 C 132.207062 103.09053 134.318665 100.311325 139.257339 102.131866 C 142.335999 103.274399 144.776001 101.734802 146.906662 98.839462 C 156.425339 85.912003 163.367996 71.570923 170.369339 57.249054 C 171.337341 55.254944 172.466675 53.343994 173.749329 51.535858 C 174.717331 50.160797 175.685349 48.146667 177.622665 48.31134 C 180.072006 48.524414 181.311996 50.89679 181.94133 52.82373 C 182.473328 54.440918 182.541336 56.455078 183.626663 57.665466 C 190.403992 65.499451 192.157333 75.192535 194.219986 84.846924 C 195.035995 88.742538 196.289322 92.533463 197.957336 96.147476 C 199.477341 99.381729 200.320007 103.148529 205.423996 103.826401 C 208.686661 104.262131 210.749329 108.242004 213.334671 110.604797 C 224.684006 121.179062 233.001343 134.300003 243.101334 145.929337 C 246.97467 150.374664 250.790665 154.363998 256.949341 156.388 C 265.121338 159.061325 270.641327 166.226669 277.283997 171.533325 C 278.88266 172.821335 280.014679 174.893326 282.571991 173.255997 C 282.958649 173.014664 283.772003 173.255997 284.343994 173.469345 C 297.667999 177.79866 310.828003 182.465332 322.81601 189.932007 C 324.354675 190.900009 326.514679 190.831985 328.31601 191.452011 C 330.11734 191.961319 331.208008 193.78801 330.803986 195.616013 C 330.329315 197.901321 328.722687 197.552002 326.689331 197.194656 C 320.549347 195.973328 315.601349 192.294662 310.101349 189.786667 C 308.990662 189.214661 307.808014 188.794662 306.58667 188.537338 C 310.226654 193.020004 316.802673 193.872009 319.988007 199.479996 C 317.557343 199.769333 315.019989 194.096008 313.297333 199.702652 C 312.454681 199.255997 311.602661 198.849319 310.789337 198.365341 C 300.79599 192.274658 291.363983 185.350662 281.573334 178.82399 C 288.73999 186.668015 297.193329 193.301331 303.574677 201.793335 C 303.136017 202.213333 302.697327 202.633347 302.257324 203.052002 C 302.257324 203.052002 279.627991 178.698669 279.627991 178.698669 C 279.041351 179.228012 278.453339 179.757324 277.866669 180.286667 C 284.121338 188.449341 291.422668 195.857346 296.565338 204.873337 C 286.213348 192.797348 275.774658 180.867996 264.870667 169.315994 C 273.363983 182.369324 284.237335 193.639999 292.82666 206.597336 C 280.093353 193.203995 268.764008 178.689331 257.841339 164.250671 C 255.49733 168.269333 257.434662 171.833328 260.910675 175.435989 C 270.108002 185.084 278.526672 195.445328 286.087982 206.422668 C 275.251984 196.129333 266.720001 183.714661 256.310669 172.985336 C 255.817337 176.238663 256.978668 178.630676 260.542664 182.126663 C 266.791992 188.309326 272.675995 194.850662 278.166656 201.716003 C 278.582672 202.219986 279.037323 202.684006 278.223999 204.001343 C 271.22934 196.367996 264.23465 188.733337 257.23999 181.099991 C 255.004013 183.20134 256.514679 184.741333 257.889343 186.213333 C 261.917328 190.550659 265.936005 194.927994 270.052002 199.121338 C 272.171997 201.300003 271.369324 202.122665 268.832001 202.422668 C 269.230682 201.318665 268.832001 200.084 267.863983 199.421326 C 260.890656 193.069336 255.440002 185.457336 249.91066 177.903992 C 244.381332 170.352005 239.054672 162.70134 233.380005 155.274673 C 223.581345 142.434662 213.606674 129.729599 203.613342 117.034531 C 203.072006 116.337326 202.645325 114.352264 201.338669 115.24321 C 199.594666 116.453598 201.590652 117.42186 202.209335 118.274002 C 205.405334 122.66066 208.785339 126.901993 211.952011 131.298264 C 220.666672 143.363998 229.381332 155.400009 237.854675 167.601334 C 243.383987 175.541336 250.113342 182.465332 255.642654 190.357346 C 226.534668 159.370667 205.162659 122.22493 177.440002 89.485199 C 177.197327 91.848007 177.101334 93.465073 178.253342 95.130661 C 184.528 104.145859 190.337341 113.52919 196.952011 122.244263 C 209.898666 139.41333 223.231995 156.281326 235.830673 173.721329 C 239.703995 179.105331 243.141342 185.427994 248.709335 188.894669 C 255.584 193.223999 262.285339 197.708008 268.918671 202.335999 Z M 253.328003 179.096008 C 254.296005 175.541336 252.282669 173.914673 251.139999 172.162659 C 246.946671 165.684006 242.569336 159.322662 238.12532 153.007996 C 228.731995 139.665329 220.056015 125.769196 208.416 114.149063 C 207.447998 113.180664 206.964005 111.457062 204.940002 112.638397 C 202.112 114.274933 204.669327 115.24321 205.38533 116.153458 C 215.485336 129.09053 225.721329 141.891998 235.771988 154.886673 C 241.689331 162.624008 247.189331 170.642654 253.328003 179.12532 Z M 174.514664 101.250671 C 173.61467 102.364273 172.994675 103.032394 172.481323 103.778 C 171.513321 105.153061 172.093338 106.092392 173.110657 107.341599 C 180.412003 116.347198 187.529343 125.488266 194.801331 134.503998 C 195.528 135.41333 196.166672 137.612 197.93866 136.294662 C 199.487991 135.14267 197.881332 134.125336 197.174667 133.138657 C 190.073318 123.144943 182.972 113.138657 175.870667 103.119598 C 175.464005 102.664536 175.11467 102.141602 174.514664 101.279739 Z M 208.649338 141.553329 C 215.814651 154.363998 221.489334 168.307999 234.794662 176.510666 C 226.794662 164.349335 218.062668 152.684006 208.649338 141.582657 Z M 176.925339 95.982925 C 175.270676 97.919601 174.989334 99.091324 176.41333 100.979599 C 182.774658 109.336395 188.817337 117.944931 195.169327 126.301743 C 197.184006 128.945328 198.790665 132.053726 202.345337 133.468002 Z M 179.889343 120.055862 C 177.952011 116.076004 174.930664 113.345337 172.76268 110.043198 C 171.038681 107.4384 170.321335 108.319595 168.685333 110.043198 C 166.884003 111.979996 166.370667 113.054794 168.860001 114.749329 C 171.354675 116.500671 173.291992 118.935074 174.437332 121.760269 C 174.843994 122.728531 175.580002 124.084274 176.926682 123.125595 C 178.013321 122.214523 179.006668 121.195862 179.889343 120.08493 Z M 197.184006 111.340805 C 197.386658 110.178802 197.706665 109.549332 197.513321 109.278275 C 191.934677 101.424942 186.580002 93.397476 180.218674 86.125198 C 179.646667 85.46666 179.250671 84.111084 178.087997 85.069733 C 176.926682 86.028397 178.001343 87.403458 178.621338 87.97467 C 183.017334 91.993332 185.893326 97.203064 189.601334 101.754257 C 192.070663 104.81427 194.453323 107.912933 197.184006 111.389206 Z M 165.848007 115.068924 C 165.848007 117.325195 163.494675 118.942276 165.529343 121.150131 C 167.349335 123.086807 168.811996 125.430267 170.457336 127.570267 C 170.979996 128.267471 171.425339 129.594131 172.539993 128.693466 C 173.653336 127.792938 175.443985 126.5728 174.321335 125.26561 C 171.445328 122.137863 170.622665 117.373596 165.848007 115.117325 Z M 167.126663 215.205353 C 166.604004 218.846649 171.774658 228.636017 174.311996 229.614655 C 174.729324 229.79068 175.20134 229.79068 175.618668 229.614655 C 176.452011 229.062653 176.296005 228.268005 175.793335 227.552002 C 173.004013 223.590668 170.205338 219.630676 167.126663 215.253326 Z M 164.221329 122.505875 C 162.604004 126.805328 162.972 130.184799 166.622665 132.731461 C 167.436005 133.302658 168.133331 134.919998 169.255997 133.545334 C 169.944 132.712143 171.096008 131.608261 170.031998 130.165466 C 168.181335 127.73494 166.293335 125.26561 164.241333 122.534927 Z M 178.930664 227.56134 C 181.138672 234.910675 186.831985 239.365326 191.945328 244.342682 C 192.268005 244.06134 192.590652 243.781342 192.91333 243.5 Z M 191.518677 96.612396 C 188.458664 89.69841 183.636002 84.023865 178.290665 78.65921 C 181.127991 85.805603 187.452011 90.453735 191.58667 96.660797 Z M 188.236008 87.335602 C 187.268005 81.806396 184.807999 77.768402 178.930664 72.616791 C 179.975998 78.862671 185.505325 82.290527 188.304001 87.384003 Z M 185.534668 76.742004 C 186.695999 70.718811 183.017334 68.433594 179.723999 64.376129 C 179.38533 70.515472 183.190674 72.742676 185.602661 76.790405 Z M 184.953323 137.689331 C 184.866653 141.678665 187.567993 143.5 189.73732 145.590668 C 189.989334 145.833328 191.073318 145.590668 191.373337 145.281326 C 191.619995 144.759995 191.580002 144.147995 191.266663 143.664001 C 188.972 142.221329 188.255997 138.99733 185.00267 137.737335 Z M 249.647995 164.647995 C 250.365341 158.557327 244.622665 158.121338 242.395996 155.013336 C 244.197327 158.677338 246.682663 161.964005 249.716003 164.695999 Z M 205.337341 207.87468 C 205.414673 207.806656 205.492004 207.73999 205.569336 207.671997 C 201.841324 203.776001 198.113342 199.880005 194.38533 195.984009 C 194.242676 196.116013 194.101334 196.248001 193.958664 196.381332 Z M 181.311996 179.493332 C 180.893326 179.766663 180.473328 180.041336 180.053329 180.315994 C 181.022659 184.460007 184.285339 186.833328 187.867996 188.962662 Z M 209.151993 154.597336 C 207.725342 151.726669 206.29866 148.85733 204.872009 145.987991 C 202.781326 150.781326 206.305344 152.630661 209.151993 154.597336 Z M 218.535995 211.932007 C 215.940002 209.026672 213.345337 206.122665 210.382675 202.790665 C 210.914673 208.213333 214.546677 210.257324 218.535995 211.932007 Z M 171.357346 229.614655 C 169.692001 228.597321 169.914658 225.605316 167.339996 225.169342 C 166.370667 225.005341 165.945328 225.779999 166.370667 226.727997 C 167.233337 228.665314 167.852005 230.941315 170.17601 231.686676 C 170.612 231.822662 171.445328 230.843994 171.358658 229.614655 Z"/>
</svg>
