<?xml version="1.0" encoding="UTF-8"?>
<!-- Generated by Pixelmator Pro 2.4.2 -->
<svg width="341" height="341" viewBox="0 0 341 341" xmlns="http://www.w3.org/2000/svg" xmlns:xlink="http://www.w3.org/1999/xlink">
    <path id="Path" fill="#413c43" stroke="none" d="M 229.031998 188.883987 C 227.218674 191.343994 228.137329 193.567993 229.343994 196.004013 C 242.469345 222.509338 256.906647 248.283997 272.17334 273.615997 C 272.714661 274.518677 273.477325 275.362671 273.034668 277.20932 C 264.109344 264.386658 256.932007 251.065338 249.375992 238.005341 C 241.821335 224.945343 235.102661 211.418655 228.358658 197.809326 C 229.318665 200.992004 227.768005 204.208008 229.482666 207.398666 C 239.162659 225.445343 250.164001 242.779999 258.957336 261.310669 C 261.623993 266.93866 264.231995 272.590668 266.955994 278.201324 C 267.349335 279.021332 267.776001 279.842682 266.997345 280.358673 C 266.08667 280.97467 265.577332 279.965332 265.14267 279.333344 C 260.768005 272.934662 256.425323 266.53067 252.116013 260.121338 C 252.116013 260.121338 249.47467 256.126678 249.47467 256.126678 C 251.361328 264.723999 255.659988 270.82666 260.032013 276.847992 C 261.303986 278.594666 262.066681 280.696014 263.854675 282.12265 C 264.246674 282.417328 264.485321 282.870667 264.507996 283.358673 C 264.529327 283.847992 264.332001 284.32132 263.96933 284.649323 C 263.026672 285.362671 262.115997 284.813324 261.509338 283.985321 C 259.589325 281.391998 257.718658 278.750671 255.389343 275.510651 C 255.742676 278.430664 257.571991 280.761322 255.266663 282.893341 C 254.848007 283.279999 255.077332 285.182648 254.577332 284.633331 C 253.174667 283.074677 251.452011 286.658661 249.818665 283.475983 C 246.062668 276.093353 241.238663 269.341339 236.825333 262.278656 C 235.274658 264.034668 235.184006 265.731995 236.604004 267.462677 C 241.139999 272.934662 243.281326 279.891998 247.645325 285.510651 C 248.137329 286.150665 249.417343 287.644012 248.137329 288.266663 C 246.918655 288.708008 245.556015 288.414673 244.626663 287.511993 C 243.166672 285.731995 241.763992 283.902679 240.041336 281.721344 C 240.081345 284.870667 242.665329 286.577332 243.174667 289.751984 C 239.073318 287.29068 238.82666 282.746674 235.734665 279.989349 C 235.602661 283.164001 238.465332 285.125336 238.145325 288.193329 C 229.688004 274.190674 224.06134 258.661346 214.487991 245.289337 C 222.067993 260.47467 228.261337 276.330658 236.973328 291.024017 C 234.363998 289.283997 232.870667 286.699982 231.493332 284.058685 C 219.964005 261.318665 208.457336 238.573334 196.973328 215.824005 C 193.101334 208.127991 189.352005 200.367996 185.537338 192.641342 C 185.136002 191.820007 184.987991 190.794662 182.437332 190.425339 C 185.357346 197.898666 189.713333 203.895996 192.731995 210.47467 C 195.940002 217.455994 199.630676 224.216003 203.085327 231.081329 C 206.538681 237.947998 209.934677 244.552002 213.231995 251.335999 C 216.596008 258.258667 219.73732 265.281342 223.076004 272.197327 C 226.357346 278.940002 229.820007 285.609344 233.305344 292.524017 C 229.318665 292.688019 228.21199 289.333344 225.446671 287.881317 C 226.268005 289.455994 227.087997 291.081329 228.030655 292.590668 C 228.605331 293.501343 229.869324 294.550659 228.547989 295.289337 C 227.226669 296.027985 226.906662 294.074677 226.513321 293.345337 C 223.403992 287.800018 219.425339 282.778656 216.366653 277.274658 C 213.199997 271.589325 209.630676 266.191986 206.390671 260.581329 C 205.989334 259.884003 203.109329 258.291992 206.669327 257.56134 C 207.145325 257.46402 206.505325 256.282684 206.005325 255.921326 C 201.977341 252.754669 199.647995 248.308014 196.981323 244.100006 C 196.317337 243.042664 195.922668 241.737335 194.315994 242.936005 C 192.708008 244.133331 194.118668 244.994659 194.643997 245.666656 C 201.722672 254.690674 205.833328 265.453339 212.346664 274.813324 C 216.570663 280.884003 220.197327 287.373322 224.158676 293.681335 C 224.979996 294.953339 226.094666 296.03598 225.020004 298.521332 C 207.842667 272 191.238663 245.723999 176.809326 217.874664 C 175.742676 220.334686 177.261337 221.820007 178.047989 223.451996 C 185.857346 239.587982 195.159988 254.888 204.41333 270.212006 C 209.713333 278.997345 214.577332 288.094666 220.820007 296.281342 C 221.153336 296.699982 221.389343 297.188019 221.509338 297.70932 C 221.632004 298.365326 222.763992 299.169342 221.468002 299.702667 C 220.689331 300.03067 220.38533 299.325348 219.975998 298.73465 C 211.009338 285.872009 203.29866 272.22934 195.193344 258.841339 C 188.982666 248.596008 183.610657 237.906647 177.966675 227.390656 C 177.375992 226.306671 177.966675 224.445343 176.137329 224.109344 C 174.405334 229.220001 177.293335 233.066681 179.656006 237.053314 C 191.529343 257.115997 203.401321 277.17868 215.274658 297.241333 C 215.545334 297.701324 215.70134 298.217316 215.930664 298.701324 C 216.464005 299.793335 217.342667 301.162659 215.800003 301.810669 C 214.749329 302.253326 213.91333 300.90799 213.494675 299.940002 C 208.072006 287.365326 199.61467 276.53598 193.199997 264.534668 C 187.998657 254.813324 182.535995 245.223999 177.178665 235.585327 C 176.825333 235.058685 176.43866 234.554657 176.021347 234.076019 C 175.078674 236.355988 175.604004 238.078674 176.489334 239.933319 C 184.964005 257.660004 195.258667 274.386658 205.669327 290.966675 C 207.538681 293.944 209.458664 296.889343 211.321335 299.874664 C 211.763992 300.587982 213.059998 301.334686 211.927994 302.245331 C 210.590652 303.311981 210.533325 301.589325 210.049332 301.032013 C 203.716003 293.558685 199.302673 284.82132 194.110657 276.601349 C 187.249329 265.79068 181.197327 254.485321 176.005325 242.779999 C 175.866653 242.459991 175.455994 242.262665 175.136002 241.958649 C 173.806656 246.537323 176.834671 249.769318 178.654663 253.074677 C 187.900009 269.834686 197.522659 286.41333 206.932007 303.057343 C 207.223999 303.665314 207.462662 304.29599 207.645325 304.944 C 207.883987 305.625336 208.777328 306.437347 207.538681 306.937347 C 206.481323 307.373322 206.136002 306.346649 205.750671 305.698669 C 203.626663 302.097321 201.469345 298.505341 199.442673 294.846649 C 192.534668 282.366669 185.656006 269.872009 178.802673 257.365326 C 177.650681 254.972015 176.337341 252.658661 174.873337 250.441315 C 176.900009 260.958649 184.266663 268.96402 188.531998 279.23465 C 179.450668 271.548004 176.350662 260.235992 168.507996 252.467987 C 176.718674 267.878662 185.914673 282.742676 196.037338 296.970673 C 194.995987 294.32132 193.946671 291.670685 192.469345 287.946686 C 196.193344 291.399994 199.492004 295.534668 198.875992 298.045319 C 197.71199 302.843994 201.665329 304.608002 202.370667 307.930664 C 202.518677 308.610657 203.741333 309.242676 202.641342 309.932007 C 201.698669 310.53067 201.230667 309.480011 200.828003 308.889343 C 196.955994 303.208008 193.106674 297.501343 189.278671 291.769318 C 178.253342 275.305328 167.884003 258.440002 159.286667 240.514679 C 157.129333 241.638672 157.087997 242.975983 158.039993 244.903992 C 161.608002 252.22934 166.554672 258.693329 170.608002 265.708008 C 178.810669 279.957336 188.006668 293.67334 195.659988 308.266663 C 196.406662 309.710663 198.883987 312.073334 196.325333 313.35202 C 193.986679 314.517334 193.954666 311.162659 192.895996 309.849335 C 182.370667 296.723999 174.454666 281.958649 165.398666 267.85733 C 161.838669 262.311981 158.44133 256.658661 154.849335 250.850677 C 153.397324 253.009338 154.972 254.32132 155.750671 255.666656 C 163.749329 269.473328 172.731995 282.656006 181.280014 296.11734 C 184.028 300.449341 186.841324 304.746674 189.367996 309.201324 C 189.877335 310.096008 191.616013 311.727997 189.828003 312.671997 C 188.409348 313.418671 188.039993 311.40799 187.449341 310.481323 C 180.394669 299.365326 173.445328 288.175995 166.349335 277.085327 C 161.615997 269.702667 157.21199 262.089325 152.905334 254.17334 C 150.689331 255.388 151.599991 256.832001 152.593338 258.537323 C 161.074661 273.14798 170.205338 287.332001 179.746658 301.269318 C 182.076004 304.665314 184.43866 308.193329 185.487991 312.318665 C 185.693344 313.138672 185.99733 313.959991 184.987991 314.386658 C 183.723999 314.878662 183.733337 313.565338 183.486679 312.984009 C 179.942673 304.698669 174.373337 297.691986 169.409332 290.293335 C 162.916 280.661346 156.956009 270.67868 151.559998 260.391998 C 151.034668 259.374664 150.96933 256.478668 148.58934 257.675995 C 146.210663 258.874664 147.449326 260.891998 148.46666 262.418671 C 159.861343 279.513336 170.796005 296.872009 181.576004 314.394684 C 182.091995 315.214661 183.00267 316.166656 181.895996 316.749329 C 180.369324 317.569336 179.835999 315.880005 179.245346 314.928009 C 171.004013 301.764008 162.781326 288.581329 154.578659 275.380005 C 151.714676 270.801331 148.835999 266.26535 145.833328 261.606659 C 144.290665 263.665314 145.619995 265.380005 146.49733 266.741333 C 156.613327 282.549347 166.866669 298.266663 177.014664 314.050659 C 177.744003 315.182648 179.975998 316.708008 177.834671 317.980011 C 176.194656 318.96402 175.578674 316.64267 174.840012 315.518677 C 168.597336 305.870667 162.445328 296.166656 156.153336 286.559998 C 154.332001 283.779999 153.192001 280.490662 150.41066 278.35733 C 148.877335 273.787994 145.940002 270.022675 143.028 266.223999 C 144.841324 270.662659 146.072006 275.395996 150.05867 278.677338 C 152.723999 285.076019 156.891998 290.605316 160.451996 296.478668 C 164.217331 302.688019 167.917343 308.930664 171.280014 315.346649 C 171.485336 315.73999 171.280014 316.338654 171.280014 316.838654 C 170.943985 316.992004 170.608002 317.145325 170.270676 317.298676 C 160.744003 301.46402 151.217331 285.627991 141.690659 269.793335 C 140.050674 271.909332 140.78801 273.550659 141.880005 275.609344 C 147.67067 286.429352 153.569336 297.18399 160.493332 307.332001 C 162.248001 309.898651 164.012009 312.458649 165.726669 315.050659 C 166.309341 315.928009 167.285324 317.14267 166.137329 317.930664 C 164.807999 318.832001 164.446671 317.199982 163.863998 316.388 C 155.546677 304.837341 147.925339 292.861328 141.977341 279.88266 C 141.255997 278.308014 140.337326 276.806671 139.517334 275.174652 C 138.039993 276.405334 138.360001 277.233337 139.132004 278.661346 C 145.070663 289.694672 151.279999 300.571991 157.67067 311.350677 C 158.802658 313.254669 161.042664 316.64267 159.507996 317.29068 C 156.990662 318.347992 156.710663 314.542664 155.619995 312.721344 C 149.604004 302.702667 143.902664 292.5 138.516006 282.114655 C 138.154663 281.409332 138.318665 279.038666 136.309341 280.153351 C 134.873337 280.97467 135.587997 282.164001 136.178665 283.328003 C 141.149338 293.171997 145.49733 303.335999 151.682663 312.540009 C 152.50267 313.738678 154.521332 315.59201 152.871994 316.64267 C 150.813339 318.019989 150.52533 315.076019 149.770676 313.959991 C 144.217331 305.657318 139.983994 296.674652 136.129333 287.488007 C 135.653336 286.338654 135.307999 283.894684 133.142929 284.509338 C 132.010803 284.829315 131.026398 286.002655 132.060135 287.741333 C 136.891998 295.854675 141.599991 304.033325 146.358658 312.188019 C 146.745331 312.742676 147.093338 313.324005 147.400009 313.926666 C 147.794662 314.920013 148.220001 316.248016 147.063995 316.757324 C 145.906662 317.26535 145.628006 315.937347 145.161331 315.115997 C 140.157333 306.021332 135.122665 296.926666 130.058395 287.832001 C 128.270126 289.062653 127.597466 290.293335 128.992004 292.524017 C 132.962402 299.08667 136.621338 305.880005 140.394669 312.573334 C 140.944 313.549347 142.461334 314.779999 141.214676 315.59201 C 139.713333 316.559998 138.96666 314.689331 138.367996 313.598663 C 134.553329 306.650665 130.813065 299.653351 127.006798 292.598663 C 124.291466 293.713348 124.923195 295.388 125.964935 297.298676 C 128.573593 302.056 131.122131 306.843994 133.610672 311.662659 C 134.274673 312.942657 135.250671 314.262665 134.061325 316.305328 C 129.960007 309.973328 127.343071 303.082672 123.700798 296.61734 C 121.313599 298.513336 121.067596 300.087982 122.880531 302.828003 C 125.456398 306.716003 127.138 311.17868 129.262665 315.362671 C 129.681076 316.182648 129.738541 316.872009 129.041199 318.569336 C 126.580132 313.942657 124.496529 309.898651 122.388268 305.854675 C 122.199593 305.502655 122.207863 305.034668 121.953468 304.748016 C 121.223473 303.993317 121.444939 301.769318 119.7304 302.656006 C 118.352264 303.361328 119.7304 304.542664 120.173332 305.403992 C 122.125732 309.062653 124.102806 312.70401 126.153595 316.305328 C 126.604797 317.126678 126.973999 317.863983 126.153595 318.389343 C 125.054405 319.062653 124.873871 317.881317 124.512932 317.249329 C 122.273468 313.418671 120.042137 309.570648 117.474541 305.846649 C 117.474541 310.850677 121.576134 314.353333 122.51133 319.136017 C 118.951073 316.674652 117.589333 312.573334 115.325195 308.537323 C 112.995461 312.926666 119.320259 314.779999 117.605736 319.08667 C 116.068932 316.898651 114.532265 314.712006 112.995461 312.524017 C 108.62307 314.426666 111.469604 317.446686 112.125862 320.579987 C 109.66494 316.863983 107.58947 318.742676 105.472931 320.447998 C 104.463997 317.03598 106.719872 315.009338 108.212929 313.065338 C 115.760262 302.835999 123.602669 292.967987 131.346664 283 C 135.957336 277.045319 137.909332 269.751984 141.149338 263.115997 C 142.790665 259.834686 144.292007 256.553314 147.490662 254.46933 C 149.625336 253.007996 151.155991 250.82132 151.797333 248.317352 C 153.061325 244.067993 153.535995 239.621338 155.562668 235.53598 C 156.646667 233.29599 156.326675 230.629333 154.742661 228.710663 C 152.830673 232.811981 150.748001 236.454681 150.173325 240.679993 C 149.869339 242.894684 149.189331 245.281342 147.244003 246.314667 C 143.470657 248.300018 142.666672 251.901337 141.830673 255.338654 C 140.821335 259.522675 138.08934 262.205353 135.013336 264.698669 C 130.386795 268.46402 125.103874 271.417328 121.215462 276.101349 C 119.873726 277.669342 117.97773 278.656006 115.924263 278.85733 C 119.312263 274.230682 122.946404 269.793335 127.942131 266.881317 C 131.961868 264.526672 134.685333 260.769318 138.377335 258.062653 C 140.444 256.545319 139.147995 253.139984 140.246658 250.753326 C 140.78801 249.563995 140.673325 247.783997 141.805328 247.110657 C 147.310669 243.870667 147.21199 237.873322 149.517334 232.254669 C 144.315994 236.537323 141.641342 242.246674 136.022659 246.470673 C 137.761337 242.189331 140.599991 239.818665 142.790665 237.029327 C 150.993332 226.594666 158.762665 215.863983 164.537338 203.838669 C 165.964005 200.869324 163.282669 197.809326 164.373337 194.699997 C 162.699997 198.850662 161.021332 203.001343 159.335999 207.151993 C 162.741333 193.453323 167.605331 180.081345 164.454666 165.832001 C 162.552002 169.638657 161.994675 174.41333 158.507996 177.989334 C 166.400009 162.108002 164.020004 144.881332 165.349335 128.121475 C 163.593338 134.585342 161.927994 141.082657 160.050674 147.514664 C 155.64534 162.625336 152.559998 178.228012 143.282669 191.533325 C 141.641342 193.862671 141.576004 197.276001 140.108002 199.736008 C 139.361343 201.007996 140.714676 205.340012 136.506668 203.248001 C 135.960007 204.515991 135.41333 205.785339 134.865341 207.053329 C 134.570663 206.895996 134.274673 206.73732 133.979996 206.578674 C 134.890671 204.544006 133.348007 201.541336 137.71199 200.835999 C 139.402664 200.573318 139.944 197.432007 140.255997 195.602661 C 141.297333 189.490662 144.651993 184.330673 146.67067 178.637329 C 149.681335 170.138657 153.585342 161.936005 154.430664 152.781326 C 154.67601 151.587997 155.108002 150.442673 155.710663 149.384003 C 156.080002 148.563995 156.153336 147.301331 155.423996 147.283997 C 151.321335 147.210663 151.248001 143.716003 149.951996 139.778671 C 147.5 147.306671 143.684006 154.318665 138.697342 160.46666 C 140.566666 155.897324 142.380005 151.296005 144.332001 146.750671 C 149.810669 133.927994 153.182663 120.305069 154.315994 106.407196 C 154.766663 101.198135 157.96666 96.899597 158.598663 91.78067 C 159.517334 84.266388 162.248001 77.203339 164.209335 69.951599 C 167.121338 59.188812 166.317337 48.278412 165.669327 37.392517 C 165.521332 34.980804 166.390671 32.577209 165.35733 29.623993 C 162.978668 33.848663 163.14267 38.221069 162.617325 42.322815 C 160.977341 55.119995 158.056 67.621857 155.153336 80.148407 C 152.306671 92.412399 149.566666 104.758408 145.128006 116.5056 C 143.873337 119.827866 142.018661 122.387329 144.389328 125.890137 C 144.815994 126.521866 143.503998 125.947601 142.994675 125.890137 C 141.297333 124.930405 140.821335 122.953476 139.492004 121.68187 C 139.451996 120.041199 138.11467 119.081467 137.662674 117.826263 C 133.438675 119.081467 133.725327 122.748276 132.683731 126.087067 C 129.451599 136.292007 125.866798 146.414658 120.518135 155.766663 C 118.005867 160.257339 116.128662 165.074661 114.939873 170.081329 C 112.790672 178.637329 107.556938 185.790665 104.661201 194.223999 C 102.610268 192.582657 104.8908 191.401321 104.152534 189.917343 C 101.256798 191.401321 99.9524 194.674667 97.032005 196.037338 C 96.211731 196.414673 97.196136 197.136002 97.614532 197.612 C 98.566002 198.678665 99.804802 199.581345 99.878662 201.188004 C 98.377327 202.156006 97.79493 200.130676 95.826134 200.417343 C 99.359596 204.029343 101.531067 208.754654 101.970398 213.789337 C 98.180534 209.383987 94.792534 205.905334 92.028008 201.992004 C 90.920532 200.409348 92.938538 197.587997 90.617065 195.749329 C 89.739326 195.06134 89.353729 193.723999 88.155998 193.042664 C 86.89267 199.909348 83.348801 205.708008 79.870667 211.450668 C 70.846931 226.347992 61.002934 240.712006 51.290268 255.182648 C 46.920803 261.641327 41.919468 267.64798 36.360134 273.115997 C 33.415199 276.044006 29.649866 277.134674 26.466934 279.398651 C 20.962534 283.29599 15.802667 287.693329 9.912601 291.048004 C 9.283867 291.550659 8.40008 291.579987 7.73872 291.121338 C 14.490001 284.748016 21.0856 278.505341 29.379066 274.165314 C 35.0112 271.273346 39.851868 267.049347 43.480667 261.860016 C 56.69627 242.345337 69.608269 222.639984 80.584404 201.746658 C 82.233864 198.490662 83.534538 195.070663 84.464531 191.541336 C 86.056 185.856003 88.845062 184.708008 93.176537 188.875992 C 96.014801 191.61467 96.712135 190.409348 99.337196 188.530655 C 107.778404 182.477341 109.04174 173.174667 111.8144 164.437332 C 113.340271 159.654663 115.801331 155.266663 118.171997 150.845337 C 123.315605 141.296005 126.982399 131.156662 130.477066 120.894272 C 130.83493 119.59613 131.267731 118.319733 131.773209 117.071609 C 134.177338 112.149597 136.137329 111.542526 141.698669 113.790268 C 148.46666 93.093201 152.749329 71.789063 157.367996 50.583466 C 159.229324 42.027466 159.139999 33.052917 162.559998 24.800415 C 163.14267 23.389465 163.216003 21.117188 165.341324 21.36319 C 167.277328 21.584656 167.884003 23.381195 168.302658 25.284393 C 171.490662 39.924683 174.771988 54.548523 178.146667 69.155884 C 178.515991 70.755615 178.21199 73.552795 181.698669 71.969604 C 183.028 71.362549 184.241333 72.790009 184.800003 74.430664 C 187.917343 83.78241 191.435989 93.00293 194.274658 102.436798 C 196.882675 111.115997 200.074661 119.581863 202.994675 128.137863 C 205.078674 134.241333 206.612 140.574661 208.392014 146.800003 C 210.697327 154.881332 214.134659 162.526657 216.850662 170.450668 C 217.933334 173.617325 222.781326 174.044006 224.962662 171.434677 C 229.015991 166.570663 231.599991 166.865341 234.626663 172.534668 C 238.473328 179.73732 240.975998 187.546677 244.470657 194.905334 C 249.958664 206.529343 254.363998 219.162659 262.82132 228.710663 C 272.02533 239.104004 278.210663 250.860016 284.150665 262.984009 C 285.691986 266.158661 288.153351 268.432007 290.713348 270.654663 C 291.188019 271.065338 291.533325 271.966675 292.353333 271.47467 C 297.021332 268.718658 299.735992 272.845337 302.772003 274.756012 C 310.524017 279.538666 317.604004 285.372009 325.798676 289.455994 C 326.430664 289.688019 327.033325 289.990662 327.594666 290.358673 C 328.481323 291.113342 330.515991 288.923981 330.425323 291.17868 C 330.35202 293.189331 328.226654 292.286652 327.144012 292.221344 C 324.343994 291.992004 321.650665 291.042664 319.32666 289.465332 C 312.467987 285.089325 305.653351 280.634674 298.884003 276.101349 C 296.914673 274.781342 295.486664 274.461334 293.657318 276.553314 C 292.946686 277.494659 291.746674 277.929352 290.597321 277.661346 C 289.447998 277.393341 288.563995 276.473328 288.342682 275.314667 C 287.76001 272.656006 285.53598 271.868011 283.961334 270.251984 C 284.781342 274.625336 288.720001 277.503998 289.360016 283.279999 C 285.618683 277.503998 281.87735 271.72934 278.137329 265.954681 C 278.079987 269.235992 280.261322 271.524017 280.286652 274.625336 C 263.059998 244.403992 245.373337 214.477325 229.950668 183.206665 C 227.186661 185.069336 228.842667 187.08667 228.949341 188.949341 Z M 185.217331 229.457336 C 186.226669 230.466675 186.119995 232.418671 187.982666 232.689331 C 188.367996 229.40799 189.031998 231.869324 189.622665 232.615997 C 190.280014 233.526672 190.918655 234.445343 191.566666 235.363983 C 191.750671 235.257324 191.933334 235.150665 192.117325 235.044006 C 189.817337 230.17334 187.517334 225.303986 185.217331 220.433319 C 184.865341 222.787994 185.750671 224.708008 186.776001 226.569336 C 187.801331 228.432007 186.726669 229.121338 185.136002 229.571991 C 185.882675 228.35733 185.390671 227.324005 184.840012 226.167999 C 182.380005 220.942657 180.009338 215.667999 177.457336 210.014664 C 175.890671 212.566666 176.900009 214.380005 177.842667 216.118683 C 180.230667 220.597321 182.731995 225.044006 185.217331 229.457336 Z M 196.923996 210.32666 C 196.702652 206.685349 194.373337 203.912003 192.888 200.810669 C 190.681335 196.225342 188.195999 191.78801 185.833328 187.242676 C 185.5 187.412003 185.165329 187.582657 184.831985 187.751999 C 186.153336 190.434677 187.228012 193.271988 188.843994 195.758667 C 191.878662 200.433334 192.872009 206.17601 196.973328 210.277328 C 197.104004 214.814667 200.304001 218.062653 202.001343 221.926666 C 204.659988 227.972015 207.998657 233.730682 211.02533 239.605316 C 208.82666 228.579987 203.028 219.376007 196.923996 210.32666 Z M 208.342667 165.028 C 206.177322 164.388 205.766663 162.436005 205.217331 160.664001 C 203.512009 155.249329 201.813339 149.818665 199.310669 144.717331 C 197.67067 141.386673 196.702652 137.661331 193.814651 134.167999 C 194.750671 137.900009 195.505325 140.894669 196.276001 143.888 C 192.453323 137.14534 191.181335 129.425735 188.024002 122.428391 C 187.654663 121.608002 186.957336 120.057602 186.817337 120.180664 C 184.168015 122.567871 184.800003 119.721207 184.758667 118.802536 C 184.693344 117.161865 183.790665 115.98053 183.020004 114.70079 C 178.154663 106.866669 173.134659 99.114395 168.835999 90.960403 C 167.194672 87.826675 165.554672 84.660126 163.790665 81.173737 C 162.404007 82.986664 162.289337 84.028534 163.314667 85.652802 C 166.957336 91.395065 170.345337 97.260529 173.782669 103.117737 C 174.250671 103.897064 174.930664 105.012665 174.693344 105.6772 C 172.437332 112.059341 174.58667 118.211868 176.333328 124.011597 C 181.084 139.88533 190.960007 153.543991 196.283997 169.269333 C 194.069336 169.006668 193.486679 167.062668 193.052002 165.503998 C 191.165329 158.884003 187.736008 153.010666 184.414673 147.104004 C 181.469345 141.862671 178.867996 136.521332 177.425339 130.697342 C 177.228012 129.876938 177.318665 128.761337 175.916 128.671066 C 176.251999 131.845734 175.989334 135.143997 177.056015 137.931992 C 178.581345 141.944 180.927994 145.685333 183.208008 149.367996 C 188.515991 157.973343 191.73999 167.595993 196.513321 176.43866 C 188.917343 166.266663 185.440002 153.723999 177.498657 143.528 C 176.554672 147.070663 177.761337 149.88533 179.484009 152.789337 C 188.769333 168.563995 199.352005 183.461319 209.278671 198.793335 C 213.515991 206.202652 218.761337 212.989334 224.863998 218.957336 C 224.429337 217.144012 224.184006 216.134674 223.937332 215.11734 C 228.038681 218.891998 230.549332 224.010651 234.528 227.980011 C 234.203995 226.576019 233.753342 225.202667 233.182663 223.878662 C 231.542664 219.514679 227.990662 216.167999 226.87468 211.52533 C 226.479996 209.883987 226.283997 209.957336 224.340012 210.006668 C 224.070663 210.006668 223.820007 209.87468 223.666672 209.654663 C 222.763992 207.005325 219.770676 204.929337 221.435989 201.582657 C 221.435989 200.88533 221.435989 200.188004 221.369324 199.490662 C 221.32399 198.837341 221.188004 198.194656 220.968002 197.578674 C 216.341324 188.556015 211.624008 179.531998 207.022659 170.507996 C 204.897339 166.292007 201.943985 162.451996 200.968002 157.686661 C 204.372009 162.985336 207.866653 168.227997 210.566666 173.937332 C 215.209335 183.781326 221.501343 192.805344 225.241333 203.133347 C 223.806656 195.020004 220.130676 187.87468 216.218674 180.76268 C 213.372009 175.577332 209.524002 170.869324 208.17067 164.929337 C 210.845337 166.307999 210.632004 169.852005 213.716003 172.165329 C 211.493332 165.602676 207.973328 160.680008 206.08667 154.996002 C 205.873337 158.597336 208.014664 161.598663 208.342667 165.028 Z M 174.405334 196.610657 C 171.633347 198.923996 170.82933 201.294662 169.401337 203.17334 C 165.546677 208.37468 164.35733 215.429352 158.286667 219.129333 C 157.220001 219.806671 156.734665 221.110657 157.097336 222.320007 C 157.818665 225.059998 158.286667 227.914673 160.132004 230.146667 C 163.593338 234.313324 165.940002 239.079987 168.171997 243.951996 C 168.860001 245.462677 168.992004 247.339996 170.632004 248.513336 C 170.969345 248.013336 171.453323 247.610657 171.526672 247.144012 C 172.846664 238.455994 172.559998 229.670685 173.166672 220.893341 C 173.372009 217.923981 171.435989 221.713348 170.755997 219.90799 C 175.242676 213.279999 173.749329 205.356003 174.405334 196.610657 Z M 232.477341 240.032013 C 233.421326 237.70932 234.93866 236.06134 233.601334 234.125336 C 230.78801 229.965332 228.194656 225.569336 224.873337 221.820007 C 216.261337 212.333328 208.567993 202.052002 201.894669 191.11467 C 200.328003 188.489334 199.11467 185.462662 195.718674 183.001343 C 197.481323 189.080002 202.419998 192.32933 204.331985 197.489334 C 201.763992 197.414673 201.870667 194.388 199.073318 193.698669 C 209.713333 209.793335 223.117325 223.042664 232.477341 240.032013 Z M 232.141342 265.461334 C 234.602661 262.606659 232.698669 259.104004 234.602661 256.905334 C 239.630676 251.057343 236.136002 244.510651 236.973328 238.341339 C 235.045334 240.138672 235.651993 243.264008 234.126663 244.445343 C 231.181335 246.79068 229.294662 249.941315 226.669327 252.410675 C 224.889343 254.050659 225.029343 255.41333 226.021347 256.897339 C 227.883987 259.785339 230.007996 262.507996 232.141342 265.453339 Z M 213.059998 263.444 C 212.872009 260.162659 184.307999 203.830673 181.443985 202.681335 C 192.370667 223.345337 199.278671 245.093353 213.059998 263.436005 Z M 204.356003 205.012009 C 209.786667 220.032013 222.550659 230.196014 230.090652 244.165314 C 231.894669 240.409332 220.098679 222.623993 204.356003 205.012009 Z M 254.741333 259.333344 C 246.177322 241.146667 235.987991 223.846649 226.587997 204.921326 C 226.587997 206.454666 226.464005 206.889343 226.587997 207.226669 C 231.090652 218.621338 237.981323 228.833344 242.248001 240.441315 C 244.82399 247.332001 250.5 253.074677 254.765335 259.333344 Z M 186.718674 173.485336 C 185.406662 173.485336 184.800003 174.306656 184.365341 175.356003 C 182.544006 179.82666 180.878662 184.380005 178.835999 188.728012 C 177.802673 190.934677 176.070663 192.82933 179.475998 194.593338 C 183.363998 188.080002 187.949341 181.811996 186.718674 173.485336 Z M 177.022659 86.850403 C 176.932007 78.925995 172.609329 68.466797 167.901337 64.38974 C 167.629333 66.424133 166.080002 68.081207 167.326675 70.197601 C 170.468002 75.562683 173.577332 80.935852 177.022659 86.850403 Z M 184.356003 113.847595 C 184.578674 111.386673 183.535995 110.074142 182.658676 108.778 C 178.721329 102.740265 175.570663 96.276138 172.314651 89.910263 C 170.52533 86.407471 168.671997 82.937469 166.809341 79.475586 C 166.333328 78.59787 165.989334 76.883331 164.783997 77.506805 C 163.290665 78.261597 164.472 79.63974 164.979996 80.68161 C 165.489334 81.723328 166.080002 82.535461 166.621338 83.487061 C 172.00267 93.593597 177.449341 103.716537 184.356003 113.847595 Z M 225.70134 248.38266 C 228.514664 246.511993 228.982666 245.101349 227.382675 242.787994 C 222.255997 235.470673 217.276001 228.021332 211.132004 221.458649 C 214.470657 227.398651 218.154663 233.108002 221.755997 238.866669 C 223.494675 241.638672 226.151993 244.018677 225.685349 248.35733 Z M 221.304001 177.291992 C 221.969345 179.662659 220.38533 182.074661 223.684006 182.82933 C 224.225342 182.952011 225.029343 184.093338 224.504013 184.872009 C 221.460007 189.121338 225.783997 191.632004 226.612 195.012009 C 225.209335 188.538681 227.850662 182.501343 228.745346 176.143997 C 225.800003 177.078674 224.077332 178.416 225.151993 181.886658 C 222.969345 180.745346 223.117325 178.719986 221.304001 177.268005 Z M 166.874664 72.289459 C 166.358658 72.516541 165.841324 72.743469 165.325333 72.970398 C 171.047989 83.634674 176.770676 94.299057 182.494675 104.963333 C 179.88533 92.715866 171.190674 83.626526 166.874664 72.273071 Z M 187.038681 183.289322 C 191.912003 196.32399 198.703995 208.37468 205.455994 220.433319 C 205.802673 220.256012 206.150681 220.078674 206.49733 219.899994 Z M 167.94133 149.745331 C 167.408005 153.666672 176.021347 170.984009 179.664001 174.150681 C 177.761337 164.970657 171.354675 158.056 167.94133 149.729324 Z M 156.621338 245.945343 C 156.202667 246.115997 155.783997 246.285339 155.365341 246.454681 C 158.778671 256.150665 165.973343 263.681335 170.78801 272.574677 C 171.141342 272.374664 171.493332 272.174652 171.846664 271.97467 Z M 187.949341 204.757324 C 187.537338 204.934677 187.124008 205.112 186.710678 205.290665 C 192.281326 216.545319 197.449341 228.005341 204.626663 238.455994 C 199.070663 227.222687 193.512009 215.990662 187.949341 204.757324 Z M 192.313339 112.576126 C 189.697327 104.9552 187.080002 97.334274 184.430664 89.606796 C 183.077332 98.605865 187.129333 105.726273 192.322678 112.576126 Z M 240.041336 252.171997 C 238.686661 255.453339 245.782669 268.726654 251.52533 274.32132 C 247.49733 266.577332 243.903992 259.637329 240.049332 252.171997 Z M 156.998672 111.017471 C 154.315994 117.695068 160.222672 120.697464 161.986664 125.709732 C 163.725327 121.68187 163.725327 121.68187 156.998672 111.017471 Z M 161.444 91.26387 C 158.573334 98.031601 164.914658 101.222672 166.866669 106.111862 C 168.261337 99.934799 163.061325 96.292526 161.444 91.26387 Z M 266.217316 241.073334 C 269.70401 248.112 273.297333 255.018677 278.235992 261.171997 C 273.978668 254.576019 273.149323 246.06134 266.217316 241.073334 Z M 183.577332 218.03067 C 182.651993 211.581345 180.593338 205.346664 177.498657 199.613342 C 176.186661 207.242676 181.386658 212.147995 183.577332 218.03067 Z M 167.777328 163.149338 C 169.557327 170.786667 174.340012 177.153336 177.293335 184.273331 C 176.317337 176.291992 171.386658 170 167.777328 163.149338 Z M 176.309326 189.32666 C 174.791992 182.82933 170.91066 177.481323 168.47467 171.475998 C 168.318665 175.972 172.822678 186.365341 176.309326 189.32666 Z M 248.810669 277.446686 C 247.268005 271.056 239.786667 259.587982 236.800003 258.890656 Z M 154.628006 123.699875 C 153.897324 128.326538 157.556 131.205872 159.549332 135.332001 C 161.977341 129.475067 156.194672 127.539063 154.628006 123.699875 Z M 164.339996 114.676132 C 164.781326 114.457474 165.221329 114.238663 165.661331 114.019867 C 164.08667 109.24559 161.305328 105.094666 158.401337 101.009476 C 158.070663 101.17627 157.740005 101.343063 157.408005 101.509872 C 159.721329 105.895859 162.031998 110.281876 164.339996 114.667999 Z M 230.78801 179.794662 C 230.358658 180.013321 229.929337 180.231995 229.5 180.450668 C 232.671997 186.274658 235.843994 192.098679 239.015991 197.923996 C 239.360001 197.745346 239.703995 197.567993 240.049332 197.390671 Z M 157.563995 105.964264 C 157.654663 111.148666 161.32933 114.70079 164.012009 118.728668 C 163.257339 113.880402 159.624008 110.320267 157.597336 105.980667 Z M 158.073334 139.47467 C 158.664001 134.938675 155.612 132.091873 153.150665 129.007339 C 152.674667 133.494675 156.072006 136.136002 158.073334 139.490662 Z M 162.052002 86.760132 C 162.50267 91.386795 165.554672 94.807602 167.605331 98.679596 C 167.884003 99.196396 168.425339 98.851868 168.606674 98.605728 C 168.82399 98.307327 168.881332 97.921463 168.762665 97.572128 C 166.556 93.970932 165.20134 89.844666 162.052002 86.776657 Z M 214.790665 231.138672 C 215.029343 235.863983 217.432007 239.653351 222.723999 243.920013 Z M 155.612 117.489868 C 155.005325 121.534134 157.753342 126.341324 162.470657 129.048401 Z M 189.369324 114.561325 C 190 120.754807 193.077332 125.939331 196.341324 131.04187 C 194.028 125.545609 191.703995 120.052139 189.369324 114.561325 Z M 172.403992 126.94014 C 171.748001 123.355331 171.091995 119.770401 170.272003 115.27507 C 168.138657 120.21347 169.278671 123.699875 172.403992 126.94014 Z M 172.91333 146.029343 C 172.151993 141.921341 170.621338 137.993332 168.401337 134.454666 C 166.759995 139.917343 170.886658 142.550674 172.91333 146.029343 Z M 172.231995 136.315994 C 172.174667 131.706268 170.845337 128.539734 168.507996 126.685867 C 167.44133 130.754669 170.566666 133.248001 172.231995 136.315994 Z M 174.602661 70.41095 C 174.82399 66.054932 171.73999 63.979462 170.632004 60.985321 C 170.378662 60.287994 170.041336 58.753998 168.770676 59.689209 C 167.949326 60.296265 168.344009 61.329865 168.983994 62.223999 C 170.78801 64.726013 172.486679 67.30188 174.602661 70.41095 Z M 169.007996 181.566666 C 168.375992 186.406662 171.846664 189.047989 173.749329 192.599991 C 174.105331 192.394669 174.460007 192.189331 174.815994 191.984009 Z M 218.94133 267.85733 C 220.343994 273.79599 222.576004 279.087982 226.49733 283.501343 Z M 167.695999 142.945328 C 168.762665 147.866669 172.198669 151.550674 174.192001 155.979996 C 173.265335 151.02533 170.321335 147.062668 167.695999 142.945328 Z M 235.831985 276.330658 C 233.940002 273.563995 232.047989 270.797333 230.156006 268.029327 C 229.828003 268.253326 229.5 268.477325 229.171997 268.702667 C 232.28801 270.243988 230.179993 275.281342 235.831985 276.330658 Z M 181.427994 89.434525 C 182.62532 85.734802 181.797348 81.969482 180.902664 78.22052 C 180.550659 78.258789 180.197327 78.297058 179.845337 78.335327 C 180.369324 82.037872 180.897339 85.737473 181.427994 89.434525 Z M 166.710663 250.293335 C 165.193329 244.493317 163.970657 242.492004 161.362671 240.941315 C 163.339996 244.338654 164.979996 247.31601 166.710663 250.293335 Z M 128.74614 221.656006 C 130.846268 218.629333 130.993866 215.093353 133.011871 212.320007 C 130.7724 221.5 128.37706 230.630676 129.500809 240.843994 C 124.324532 235.044006 124.15226 228.432007 122.782265 221.975983 C 119.164665 232.639984 111.232002 240.368011 105.612671 249.587982 C 101.986794 255.544006 98.360931 261.507996 95.063202 267.636017 C 90.461205 276.166656 84.562935 283.681335 77.581871 291.253326 C 77.352264 288.693329 79.083199 287.725342 79.723068 286.330658 C 80.423332 284.85733 81.308128 283.480011 82.35627 282.22934 C 90.223198 272.507996 95.120667 260.966675 101.724396 250.466675 C 108.172127 240.20401 115.284538 230.302673 120.034271 218.981323 C 122.13427 213.96933 123.315468 214.166656 126.531197 218.866669 C 127.138268 219.743988 127.860138 220.540009 128.74614 221.656006 Z M 228.966675 188.949341 C 232.674667 192.805344 234.446671 197.833328 236.955994 202.378662 C 247.234665 220.97467 257.26001 239.702667 267.366669 258.390656 C 267.46402 258.578674 267.366669 258.88266 267.268005 259.67868 C 262.944 253.870667 260.015991 247.726654 256.776001 241.794647 C 247.612 224.986664 238.654663 208.062668 229.597336 191.197327 C 229.112 190.530655 228.914673 189.697327 229.047989 188.883987 Z M 156.227997 189.769333 C 154.217331 194.216003 153.569336 199.219986 149.615997 202.894669 C 149.615997 202.894669 155.136002 189.039993 155.136002 189.039993 Z M 99.911469 215.733337 C 96.982796 213.838654 94.169067 211.811996 93.102669 208.169327 C 96.10907 209.914673 98.490807 212.559998 99.911469 215.733337 Z M 139.492004 121.68187 C 140.821335 122.953323 141.297333 124.963196 142.996002 125.890137 C 142.462662 127.374924 144.578659 128.031204 144.012009 129.991867 C 141.332001 128.126129 139.261337 125.512802 138.057327 122.4776 C 137.680008 121.583328 138.893326 121.747467 139.492004 121.68187 Z M 141.001328 136.447998 C 139.878662 133.445328 139.164001 131.435593 138.377335 129.466797 C 138.08934 128.753067 137.990662 128.137863 138.746658 127.760529 C 139.501328 127.383194 139.869339 128.105057 139.985336 128.466003 C 140.649338 130.70546 142.437332 132.682541 141.001328 136.447998 Z M 221.452011 201.565323 C 218.43866 197.76268 215.940002 193.578674 214.020004 189.121338 C 214.145325 189.009338 214.271988 188.897339 214.397339 188.785339 C 216.726669 192.340012 219.057327 195.894669 221.386658 199.449341 C 221.41066 200.171997 221.427994 200.867996 221.452011 201.565323 Z M 212.559998 193.870667 C 209.278671 187.382675 205.726669 181.007996 202.716003 174.395996 C 194.807999 157.021332 185.570663 140.278671 178.162659 122.715469 C 177.522659 121.367737 177.302673 119.858536 177.531998 118.38414 C 180.426682 124.454529 183.020004 130.689072 186.268005 136.554672 C 196.619995 155.266663 203.880005 175.504013 214.782669 193.927994 C 215.217331 194.650681 216.365341 195.348007 215.389343 196.282669 C 215.118668 196.537338 214.150681 196.06134 213.50267 195.922668 C 213.199997 195.241333 212.888 194.567993 212.559998 193.870667 Z M 196.153336 145.85733 C 197.056015 150.164001 200.771988 153.313339 201.074661 157.858658 C 196.973328 152.115997 193.806656 145.865341 190.55867 139.664001 C 185.250671 129.548798 179.11467 119.819595 175.702652 108.088943 C 177.842667 109.786942 178.515991 111.788666 179.270676 113.626129 C 183.725342 124.413605 190.124008 134.207993 195.045334 144.757339 C 195.331985 145.192001 195.815994 145.472 196.153336 145.85733 Z M 212.559998 193.870667 C 212.880005 194.535995 213.190674 195.208008 213.50267 195.881332 C 217.285339 202.197327 221.337341 208.366653 224.093338 215.249329 C 220.320007 212.017334 218.745346 207.349319 216.317337 203.248001 C 215.282669 201.492004 214.397339 199.703995 212.641342 198.556015 C 208.769333 190.695999 204.053329 183.338669 199.335999 175.979996 C 197.965332 173.846664 196.054672 171.952011 196.096008 169.138657 C 201.143997 175.613342 205.617325 182.517334 209.466675 189.769333 C 210.246658 191.286667 210.993332 192.943985 212.559998 193.870667 Z M 214.020004 189.121338 C 211.509338 186.659988 211.001343 183.182663 209.320007 180.286667 C 211.427994 182.902664 214.044006 185.208008 214.397339 188.785339 Z M 231.67334 235.544006 C 229.485336 232.442657 227.317337 229.339996 225.168015 226.233337 C 228.736008 228.325348 230.606674 231.64798 231.67334 235.544006 Z"/>
</svg>
