<?xml version="1.0" encoding="utf-8"?>
<svg x="0pt" y="0pt" width="256pt" height="256pt" viewBox="0 0 256 256" xmlns="http://www.w3.org/2000/svg" xmlns:xlink="http://www.w3.org/1999/xlink">
  <g id="1">
    <title>Layer 1</title>
    <defs>
      <title>Shape 114</title>
      <g id="2">
        <defs>
          <path id="3" d="M171.774,141.913 C170.414,143.758,171.103,145.426,172.008,147.253 C181.852,167.132,192.68,186.463,204.13,205.462 C204.536,206.139,205.108,206.772,204.776,208.157 C198.082,198.54,192.699,188.549,187.032,178.754 C181.366,168.959,176.327,158.814,171.269,148.607 C171.989,150.994,170.826,153.406,172.112,155.799 C179.372,169.334,187.623,182.335,194.218,196.233 C196.218,200.454,198.174,204.693,200.217,208.901 C200.512,209.516,200.832,210.132,200.248,210.519 C199.565,210.981,199.183,210.224,198.857,209.75 C195.576,204.951,192.319,200.148,189.087,195.341 C189.087,195.341,187.106,192.345,187.106,192.345 C188.521,198.793,191.745,203.37,195.024,207.886 C195.978,209.196,196.55,210.772,197.891,211.842 C198.185,212.063,198.364,212.403,198.381,212.769 C198.397,213.136,198.249,213.491,197.977,213.737 C197.27,214.272,196.587,213.86,196.132,213.239 C194.692,211.294,193.289,209.313,191.542,206.883 C191.807,209.073,193.179,210.821,191.45,212.42 C191.136,212.71,191.308,214.137,190.933,213.725 C189.881,212.556,188.589,215.244,187.364,212.857 C184.547,207.32,180.929,202.256,177.619,196.959 C176.456,198.276,176.388,199.549,177.453,200.847 C180.855,204.951,182.461,210.169,185.734,214.383 C186.103,214.863,187.063,215.983,186.103,216.45 C185.189,216.781,184.167,216.561,183.47,215.884 C182.375,214.549,181.323,213.177,180.031,211.541 C180.061,213.903,181.999,215.183,182.381,217.564 C179.305,215.718,179.12,212.31,176.801,210.242 C176.702,212.623,178.849,214.094,178.609,216.395 C172.266,205.893,168.046,194.246,160.866,184.217 C166.551,195.606,171.196,207.498,177.73,218.518 C175.773,217.213,174.653,215.275,173.62,213.294 C164.973,196.239,156.343,179.18,147.73,162.118 C144.826,156.346,142.014,150.526,139.153,144.731 C138.852,144.115,138.741,143.346,136.828,143.069 C139.018,148.674,142.285,153.172,144.549,158.106 C146.955,163.342,149.723,168.412,152.314,173.561 C154.904,178.711,157.451,183.664,159.924,188.752 C162.447,193.944,164.803,199.211,167.307,204.398 C169.768,209.455,172.365,214.457,174.979,219.643 C171.989,219.766,171.159,217.25,169.085,216.161 C169.701,217.342,170.316,218.561,171.023,219.693 C171.454,220.376,172.402,221.163,171.411,221.717 C170.42,222.271,170.18,220.806,169.885,220.259 C167.553,216.1,164.569,212.334,162.275,208.206 C159.9,203.942,157.223,199.894,154.793,195.686 C154.492,195.163,152.332,193.969,155.002,193.421 C155.359,193.348,154.879,192.462,154.504,192.191 C151.483,189.816,149.736,186.481,147.736,183.325 C147.238,182.532,146.942,181.553,145.737,182.452 C144.531,183.35,145.589,183.996,145.983,184.5 C151.292,191.268,154.375,199.34,159.26,206.36 C162.428,210.913,165.148,215.78,168.119,220.511 C168.735,221.465,169.571,222.277,168.765,224.141 C155.882,204.25,143.429,184.543,132.607,163.656 C131.807,165.501,132.946,166.615,133.536,167.839 C139.393,179.941,146.37,191.416,153.31,202.909 C157.285,209.498,160.933,216.321,165.615,222.461 C165.865,222.775,166.042,223.141,166.132,223.532 C166.224,224.024,167.073,224.627,166.101,225.027 C165.517,225.273,165.289,224.744,164.982,224.301 C158.257,214.654,152.474,204.422,146.395,194.381 C141.737,186.697,137.708,178.68,133.475,170.793 C133.032,169.98,133.475,168.584,132.103,168.332 C130.804,172.165,132.97,175.05,134.742,178.04 C143.647,193.087,152.551,208.134,161.456,223.181 C161.659,223.526,161.776,223.913,161.948,224.276 C162.348,225.095,163.007,226.122,161.85,226.608 C161.062,226.94,160.435,225.931,160.121,225.205 C156.054,215.774,149.711,207.652,144.9,198.651 C140.999,191.36,136.902,184.168,132.884,176.939 C132.619,176.544,132.329,176.166,132.016,175.807 C131.309,177.517,131.703,178.809,132.367,180.2 C138.723,193.495,146.444,206.04,154.252,218.475 C155.654,220.708,157.094,222.917,158.491,225.156 C158.823,225.691,159.795,226.251,158.946,226.934 C157.943,227.734,157.9,226.442,157.537,226.024 C152.787,220.419,149.477,213.866,145.583,207.701 C140.437,199.593,135.898,191.114,132.004,182.335 C131.9,182.095,131.592,181.947,131.352,181.719 C130.355,185.153,132.626,187.577,133.991,190.056 C140.925,202.626,148.142,215.06,155.199,227.543 C155.418,227.999,155.597,228.472,155.734,228.958 C155.913,229.469,156.583,230.078,155.654,230.453 C154.861,230.78,154.602,230.01,154.313,229.524 C152.72,226.823,151.102,224.129,149.582,221.385 C144.401,212.025,139.242,202.654,134.102,193.274 C133.238,191.479,132.253,189.744,131.155,188.081 C132.675,195.969,138.2,201.973,141.399,209.676 C134.588,203.911,132.263,195.427,126.381,189.601 C132.539,201.159,139.436,212.307,147.028,222.978 C146.247,220.991,145.46,219.003,144.352,216.21 C147.145,218.8,149.619,221.901,149.157,223.784 C148.284,227.383,151.249,228.706,151.778,231.198 C151.889,231.708,152.806,232.182,151.981,232.699 C151.274,233.148,150.923,232.36,150.621,231.917 C147.717,227.656,144.83,223.376,141.959,219.077 C133.69,206.729,125.913,194.08,119.465,180.636 C117.847,181.479,117.816,182.482,118.53,183.928 C121.206,189.422,124.916,194.27,127.956,199.531 C134.108,210.218,141.005,220.505,146.745,231.45 C147.305,232.533,149.163,234.305,147.244,235.264 C145.49,236.138,145.466,233.622,144.672,232.637 C136.778,222.793,130.841,211.719,124.049,201.143 C121.379,196.984,118.831,192.744,116.137,188.388 C115.048,190.007,116.229,190.991,116.813,192 C122.812,202.355,129.549,212.242,135.96,222.338 C138.021,225.587,140.131,228.81,142.026,232.151 C142.408,232.822,143.712,234.046,142.371,234.754 C141.307,235.314,141.03,233.806,140.587,233.111 C135.296,224.774,130.084,216.382,124.762,208.064 C121.212,202.527,117.909,196.817,114.679,190.88 C113.017,191.791,113.7,192.874,114.445,194.153 C120.806,205.111,127.654,215.749,134.81,226.202 C136.557,228.749,138.329,231.395,139.116,234.489 C139.27,235.104,139.498,235.72,138.741,236.04 C137.793,236.409,137.8,235.424,137.615,234.988 C134.957,228.774,130.78,223.519,127.057,217.97 C122.187,210.746,117.717,203.259,113.67,195.544 C113.276,194.781,113.227,192.609,111.442,193.507 C109.658,194.406,110.587,195.919,111.35,197.064 C119.896,209.885,128.097,222.904,136.182,236.046 C136.569,236.661,137.252,237.375,136.422,237.812 C135.277,238.427,134.877,237.16,134.434,236.446 C128.253,226.573,122.086,216.686,115.934,206.785 C113.786,203.351,111.627,199.949,109.375,196.455 C108.218,197.999,109.215,199.285,109.873,200.306 C117.46,212.162,125.15,223.95,132.761,235.788 C133.308,236.637,134.982,237.781,133.376,238.735 C132.146,239.473,131.684,237.732,131.13,236.889 C126.448,229.653,121.834,222.375,117.115,215.17 C115.749,213.085,114.894,210.618,112.808,209.018 C111.658,205.591,109.455,202.767,107.271,199.918 C108.631,203.247,109.554,206.797,112.544,209.258 C114.543,214.057,117.669,218.204,120.339,222.609 C123.163,227.266,125.938,231.948,128.46,236.76 C128.614,237.055,128.46,237.504,128.46,237.879 C128.208,237.994,127.956,238.109,127.703,238.224 C120.558,226.348,113.413,214.471,106.268,202.595 C105.038,204.182,105.591,205.413,106.41,206.957 C110.753,215.072,115.177,223.138,120.37,230.749 C121.686,232.674,123.009,234.594,124.295,236.538 C124.732,237.196,125.464,238.107,124.603,238.698 C123.606,239.374,123.335,238.15,122.898,237.541 C116.66,228.878,110.944,219.896,106.483,210.162 C105.942,208.981,105.253,207.855,104.638,206.631 C103.53,207.554,103.77,208.175,104.349,209.246 C108.803,217.521,113.46,225.679,118.253,233.763 C119.102,235.191,120.782,237.732,119.631,238.218 C117.743,239.011,117.533,236.157,116.715,234.791 C112.203,227.277,107.927,219.625,103.887,211.836 C103.616,211.307,103.739,209.529,102.232,210.365 C101.155,210.981,101.691,211.873,102.134,212.746 C105.862,220.129,109.123,227.752,113.762,234.655 C114.377,235.554,115.891,236.944,114.654,237.732 C113.11,238.765,112.894,236.557,112.328,235.72 C108.163,229.493,104.988,222.756,102.097,215.866 C101.74,215.004,101.481,213.171,99.8572,213.632 C99.0081,213.872,98.2698,214.752,99.0451,216.056 C102.669,222.141,106.2,228.275,109.769,234.391 C110.059,234.807,110.32,235.243,110.55,235.695 C110.846,236.44,111.165,237.436,110.298,237.818 C109.43,238.199,109.221,237.203,108.871,236.587 C105.118,229.766,101.342,222.945,97.5438,216.124 C96.2026,217.047,95.6981,217.97,96.744,219.643 C99.7218,224.565,102.466,229.66,105.296,234.68 C105.708,235.412,106.846,236.335,105.911,236.944 C104.785,237.67,104.225,236.267,103.776,235.449 C100.915,230.238,98.1098,224.99,95.2551,219.699 C93.2186,220.535,93.6924,221.791,94.4737,223.224 C96.4302,226.792,98.3416,230.383,100.208,233.997 C100.706,234.957,101.438,235.947,100.546,237.479 C97.47,232.73,95.5073,227.562,92.7756,222.713 C90.9852,224.135,90.8007,225.316,92.1604,227.371 C94.0923,230.287,95.3535,233.634,96.947,236.772 C97.2608,237.387,97.3039,237.904,96.7809,239.177 C94.9351,235.707,93.3724,232.674,91.7912,229.641 C91.6497,229.377,91.6559,229.026,91.4651,228.811 C90.9176,228.245,91.0837,226.577,89.7978,227.242 C88.7642,227.771,89.7978,228.657,90.13,229.303 C91.5943,232.047,93.0771,234.778,94.6152,237.479 C94.9536,238.095,95.2305,238.648,94.6152,239.042 C93.7908,239.547,93.6554,238.661,93.3847,238.187 C91.7051,235.314,90.0316,232.428,88.1059,229.635 C88.1059,233.388,91.1821,236.015,91.8835,239.602 C89.2133,237.756,88.192,234.68,86.4939,231.653 C84.7466,234.945,89.4902,236.335,88.2043,239.565 C87.0517,237.924,85.8992,236.284,84.7466,234.643 C81.4673,236.07,83.6022,238.335,84.0944,240.685 C82.2487,237.898,80.6921,239.307,79.1047,240.586 C78.348,238.027,80.0399,236.507,81.1597,235.049 C86.8202,227.377,92.702,219.976,98.51,212.5 C101.968,208.034,103.432,202.564,105.862,197.587 C107.093,195.126,108.219,192.665,110.618,191.102 C112.219,190.006,113.367,188.366,113.848,186.488 C114.796,183.301,115.152,179.966,116.672,176.902 C117.485,175.222,117.245,173.222,116.057,171.783 C114.623,174.859,113.061,177.591,112.63,180.76 C112.402,182.421,111.892,184.211,110.433,184.986 C107.603,186.475,107,189.176,106.373,191.754 C105.616,194.892,103.567,196.904,101.26,198.774 C97.7901,201.598,93.8279,203.813,90.9116,207.326 C89.9053,208.502,88.4833,209.242,86.9432,209.393 C89.4842,205.923,92.2098,202.595,95.9566,200.411 C98.9714,198.645,101.014,195.827,103.783,193.797 C105.333,192.659,104.361,190.105,105.185,188.315 C105.591,187.423,105.505,186.088,106.354,185.583 C110.483,183.153,110.409,178.655,112.138,174.441 C108.237,177.653,106.231,181.935,102.017,185.103 C103.321,181.892,105.45,180.114,107.093,178.022 C113.245,170.196,119.072,162.148,123.403,153.129 C124.473,150.902,122.462,148.607,123.28,146.275 C122.025,149.388,120.766,152.501,119.502,155.614 C122.056,145.34,125.704,135.311,123.341,124.624 C121.914,127.479,121.496,131.06,118.881,133.742 C124.8,121.831,123.015,108.911,124.012,96.3411 C122.695,101.189,121.446,106.062,120.038,110.886 C116.734,122.219,114.42,133.921,107.462,143.9 C106.231,145.647,106.182,148.207,105.081,150.052 C104.521,151.006,105.536,154.255,102.38,152.686 C101.97,153.637,101.56,154.589,101.149,155.54 C100.928,155.422,100.706,155.303,100.485,155.184 C101.168,153.658,100.011,151.406,103.284,150.877 C104.552,150.68,104.958,148.324,105.192,146.952 C105.973,142.368,108.489,138.498,110.003,134.228 C112.261,127.854,115.189,121.702,115.823,114.836 C116.007,113.941,116.331,113.082,116.783,112.288 C117.06,111.673,117.115,110.726,116.568,110.713 C113.491,110.658,113.436,108.037,112.464,105.084 C110.625,110.73,107.763,115.989,104.023,120.6 C105.425,117.173,106.785,113.722,108.249,110.313 C112.358,100.696,114.887,90.4788,115.737,80.0554 C116.075,76.1486,118.475,72.9247,118.949,69.0855 C119.638,63.4498,121.686,58.1525,123.157,52.7137 C125.341,44.6416,124.738,36.4588,124.252,28.2944 C124.141,26.4856,124.793,24.6829,124.018,22.468 C122.234,25.6365,122.357,28.9158,121.963,31.9921 C120.733,41.59,118.542,50.9664,116.365,60.3613 C114.23,69.5593,112.175,78.8188,108.846,87.6292 C107.905,90.1209,106.514,92.0405,108.292,94.6676 C108.612,95.1414,107.628,94.7107,107.246,94.6676 C105.973,93.9478,105.616,92.4651,104.619,91.5114 C104.589,90.2809,103.586,89.5611,103.247,88.6197 C100.079,89.5611,100.294,92.3112,99.5128,94.8153 C97.0887,102.469,94.4001,110.061,90.3886,117.075 C88.5044,120.443,87.0965,124.056,86.2049,127.811 C84.593,134.228,80.6677,139.593,78.4959,145.918 C76.9577,144.687,78.6681,143.801,78.1144,142.688 C75.9426,143.801,74.9643,146.256,72.774,147.278 C72.1588,147.561,72.8971,148.102,73.2109,148.459 C73.9245,149.259,74.8536,149.936,74.909,151.141 C73.783,151.867,73.3462,150.348,71.8696,150.563 C74.5197,153.272,76.1483,156.816,76.4778,160.592 C73.6354,157.288,71.0944,154.679,69.021,151.744 C68.1904,150.557,69.7039,148.441,67.9628,147.062 C67.3045,146.546,67.0153,145.543,66.117,145.032 C65.1695,150.182,62.5116,154.531,59.903,158.838 C53.1352,170.011,45.7522,180.784,38.4677,191.637 C35.1906,196.481,31.4396,200.986,27.2701,205.087 C25.0614,207.283,22.2374,208.101,19.8502,209.799 C15.7219,212.722,11.852,216.02,7.43445,218.536 C6.9629,218.913,6.30006,218.935,5.80404,218.591 C10.8675,213.811,15.8142,209.129,22.0343,205.874 C26.2584,203.705,29.8889,200.537,32.6105,196.645 C42.5222,182.009,52.2062,167.23,60.4383,151.56 C61.6754,149.118,62.6509,146.553,63.3484,143.906 C64.542,139.642,66.6338,138.781,69.8824,141.907 C72.0111,143.961,72.5341,143.057,74.5029,141.648 C80.8338,137.108,81.7813,130.131,83.8608,123.578 C85.0052,119.991,86.851,116.7,88.629,113.384 C92.4867,106.222,95.2368,98.6175,97.8578,90.9207 C98.1262,89.9471,98.4508,88.9898,98.8299,88.0537 C100.633,84.3622,102.103,83.9069,106.274,85.5927 C111.35,70.0699,114.562,54.0918,118.026,38.1876 C119.422,31.7706,119.355,25.0397,121.92,18.8503 C122.357,17.7921,122.412,16.0879,124.006,16.2724 C125.458,16.4385,125.913,17.7859,126.227,19.2133 C128.618,30.1935,131.079,41.1614,133.61,52.1169 C133.887,53.3167,133.659,55.4146,136.274,54.2272 C137.271,53.7719,138.181,54.8425,138.6,56.073 C140.938,63.0868,143.577,70.0022,145.706,77.0776 C147.662,83.587,150.056,89.9364,152.246,96.3534 C153.809,100.931,154.959,105.681,156.294,110.35 C158.023,116.411,160.601,122.145,162.638,128.088 C163.45,130.463,167.086,130.783,168.722,128.826 C171.762,125.178,173.7,125.399,175.97,129.651 C178.855,135.053,180.732,140.91,183.353,146.429 C187.469,155.147,190.773,164.622,197.116,171.783 C204.019,179.578,208.658,188.395,213.113,197.488 C214.269,199.869,216.115,201.574,218.035,203.241 C218.391,203.549,218.65,204.225,219.265,203.856 C222.766,201.789,224.802,204.884,227.079,206.317 C232.893,209.904,238.203,214.279,244.349,217.342 C244.823,217.516,245.275,217.743,245.696,218.019 C246.361,218.585,247.887,216.943,247.819,218.634 C247.764,220.142,246.17,219.465,245.358,219.416 C243.258,219.244,241.238,218.532,239.495,217.349 C234.351,214.067,229.24,210.726,224.163,207.326 C222.686,206.336,221.615,206.096,220.243,207.665 C219.71,208.371,218.81,208.697,217.948,208.496 C217.086,208.295,216.423,207.605,216.257,206.736 C215.82,204.742,214.152,204.151,212.971,202.939 C213.586,206.219,216.54,208.378,217.02,212.71 C214.214,208.378,211.408,204.047,208.603,199.716 C208.56,202.177,210.196,203.893,210.215,206.219 C197.295,183.553,184.03,161.108,172.463,137.655 C170.39,139.052,171.632,140.565,171.712,141.962 z M138.913,172.343 C139.67,173.1,139.59,174.564,140.987,174.767 C141.276,172.306,141.774,174.152,142.217,174.712 C142.71,175.395,143.189,176.084,143.675,176.773 C143.813,176.693,143.95,176.613,144.088,176.533 C142.363,172.88,140.638,169.228,138.913,165.575 C138.649,167.341,139.313,168.781,140.082,170.177 C140.851,171.574,140.045,172.091,138.852,172.429 C139.412,171.518,139.043,170.743,138.63,169.876 C136.785,165.957,135.007,162.001,133.093,157.761 C131.918,159.675,132.675,161.035,133.382,162.339 C135.173,165.698,137.049,169.033,138.913,172.343 z M147.693,157.995 C147.527,155.264,145.78,153.184,144.666,150.858 C143.011,147.419,141.147,144.091,139.375,140.682 C139.125,140.809,138.874,140.937,138.624,141.064 C139.615,143.076,140.421,145.204,141.633,147.069 C143.909,150.575,144.654,154.882,147.73,157.958 C147.828,161.361,150.228,163.797,151.501,166.695 C153.495,171.229,155.999,175.548,158.269,179.954 C156.62,171.685,152.271,164.782,147.693,157.995 z M156.257,124.021 C154.633,123.541,154.325,122.077,153.913,120.748 C152.634,116.687,151.36,112.614,149.483,108.788 C148.253,106.29,147.527,103.496,145.361,100.876 C146.063,103.675,146.629,105.921,147.207,108.166 C144.34,103.109,143.386,97.3193,141.018,92.0713 C140.741,91.456,140.218,90.2932,140.113,90.3855 C138.126,92.1759,138.6,90.0409,138.569,89.3519 C138.52,88.1214,137.843,87.2354,137.265,86.2756 C133.616,80.4,129.851,74.5858,126.627,68.4703 C125.396,66.12,124.166,63.7451,122.843,61.1303 C121.803,62.49,121.717,63.2714,122.486,64.4896 C125.218,68.7963,127.759,73.1954,130.337,77.5883 C130.688,78.1728,131.198,79.0095,131.02,79.5079 C129.328,84.2945,130.94,88.9089,132.25,93.2587 C135.813,105.164,143.22,115.408,147.213,127.202 C145.552,127.005,145.115,125.547,144.789,124.378 C143.374,119.413,140.802,115.008,138.311,110.578 C136.102,106.647,134.151,102.641,133.069,98.273 C132.921,97.6577,132.989,96.821,131.937,96.7533 C132.189,99.1343,131.992,101.608,132.792,103.699 C133.936,106.708,135.696,109.514,137.406,112.276 C141.387,118.73,143.805,125.947,147.385,132.579 C141.688,124.95,139.08,115.543,133.124,107.896 C132.416,110.553,133.321,112.664,134.613,114.842 C141.577,126.673,149.514,137.846,156.959,149.345 C160.137,154.902,164.071,159.992,168.648,164.468 C168.322,163.108,168.138,162.351,167.953,161.588 C171.029,164.419,172.912,168.258,175.896,171.235 C175.653,170.182,175.315,169.152,174.887,168.159 C173.657,164.886,170.993,162.376,170.156,158.894 C169.86,157.663,169.713,157.718,168.255,157.755 C168.053,157.755,167.865,157.656,167.75,157.491 C167.073,155.504,164.828,153.947,166.077,151.437 C166.077,150.914,166.077,150.391,166.027,149.868 C165.993,149.378,165.891,148.896,165.726,148.434 C162.256,141.667,158.718,134.899,155.267,128.131 C153.673,124.969,151.458,122.089,150.726,118.515 C153.279,122.489,155.9,126.421,157.925,130.703 C161.407,138.086,166.126,144.854,168.931,152.6 C167.855,146.515,165.098,141.156,162.164,135.822 C160.029,131.933,157.143,128.402,156.128,123.947 C158.134,124.981,157.974,127.639,160.287,129.374 C158.62,124.452,155.98,120.76,154.565,116.497 C154.405,119.198,156.011,121.449,156.257,124.021 z M130.804,147.708 C128.725,149.443,128.122,151.221,127.051,152.63 C124.16,156.531,123.268,161.822,118.715,164.597 C117.915,165.105,117.551,166.083,117.823,166.99 C118.364,169.045,118.715,171.186,120.099,172.86 C122.695,175.985,124.455,179.56,126.129,183.214 C126.645,184.347,126.744,185.755,127.974,186.635 C128.227,186.26,128.59,185.958,128.645,185.608 C129.635,179.092,129.42,172.503,129.875,165.92 C130.029,163.693,128.577,166.535,128.067,165.181 C131.432,160.21,130.312,154.267,130.804,147.708 z M174.358,180.274 C175.066,178.532,176.204,177.296,175.201,175.844 C173.091,172.724,171.146,169.427,168.655,166.615 C162.196,159.5,156.426,151.789,151.421,143.586 C150.246,141.617,149.336,139.347,146.789,137.501 C148.111,142.06,151.815,144.497,153.249,148.367 C151.323,148.311,151.403,146.041,149.305,145.524 C157.285,157.595,167.338,167.532,174.358,180.274 z M174.106,199.346 C175.952,197.205,174.524,194.578,175.952,192.929 C179.723,188.543,177.102,183.633,177.73,179.006 C176.284,180.354,176.739,182.698,175.595,183.584 C173.386,185.343,171.971,187.706,170.002,189.558 C168.667,190.788,168.772,191.81,169.516,192.923 C170.913,195.089,172.506,197.131,174.106,199.34 z M159.795,197.833 C159.654,195.372,138.231,153.123,136.083,152.261 C144.278,167.759,149.459,184.07,159.795,197.827 z M153.267,154.009 C157.34,165.274,166.913,172.897,172.568,183.374 C173.921,180.557,165.074,167.218,153.267,154.009 z M191.056,194.75 C184.633,181.11,176.991,168.135,169.941,153.941 C169.941,155.091,169.848,155.417,169.941,155.67 C173.318,164.216,178.486,171.875,181.686,180.581 C183.618,185.749,187.875,190.056,191.074,194.75 z M140.039,130.364 C139.055,130.364,138.6,130.98,138.274,131.767 C136.908,135.12,135.659,138.535,134.127,141.796 C133.352,143.451,132.053,144.872,134.607,146.195 C137.523,141.31,140.962,136.609,140.039,130.364 z M132.767,65.3878 C132.699,59.4445,129.457,51.6001,125.926,48.5423 C125.722,50.0681,124.56,51.3109,125.495,52.8982 C127.851,56.922,130.183,60.9519,132.767,65.3878 z M138.267,85.6357 C138.434,83.79,137.652,82.8056,136.994,81.8335 C134.041,77.3052,131.678,72.4571,129.236,67.6827 C127.894,65.0556,126.504,62.4531,125.107,59.8567 C124.75,59.1984,124.492,57.9125,123.588,58.3801 C122.468,58.9462,123.354,59.9798,123.735,60.7612 C124.117,61.5425,124.56,62.1516,124.966,62.8653 C129.002,70.4452,133.087,78.0374,138.267,85.6357 z M169.276,186.537 C171.386,185.134,171.737,184.076,170.537,182.341 C166.692,176.853,162.957,171.266,158.349,166.344 C160.853,170.799,163.616,175.081,166.317,179.4 C167.621,181.479,169.614,183.264,169.264,186.518 z M165.978,133.219 C166.477,134.997,165.289,136.806,167.763,137.372 C168.169,137.464,168.772,138.32,168.378,138.904 C166.095,142.091,169.338,143.974,169.959,146.509 C168.907,141.654,170.888,137.126,171.559,132.358 C169.35,133.059,168.058,134.062,168.864,136.665 C167.227,135.809,167.338,134.29,165.978,133.201 z M125.156,54.4671 C124.769,54.6374,124.381,54.8076,123.994,54.9778 C128.286,62.976,132.578,70.9743,136.871,78.9725 C134.914,69.7869,128.393,62.9699,125.156,54.4548 z M140.279,137.717 C143.934,147.493,149.028,156.531,154.092,165.575 C154.352,165.442,154.613,165.309,154.873,165.175 z M125.956,112.559 C125.556,115.5,132.016,128.488,134.748,130.863 C133.321,123.978,128.516,118.792,125.956,112.547 z M117.466,184.709 C117.152,184.837,116.838,184.964,116.524,185.091 C119.084,192.363,124.48,198.011,128.091,204.681 C128.356,204.531,128.62,204.381,128.885,204.231 z M140.962,153.818 C140.653,153.951,140.343,154.084,140.033,154.218 C144.211,162.659,148.087,171.254,153.47,179.092 C149.303,170.667,145.134,162.243,140.962,153.818 z M144.235,84.6821 C142.273,78.9664,140.31,73.2507,138.323,67.4551 C137.308,74.2044,140.347,79.5447,144.242,84.6821 z M180.031,189.379 C179.015,191.84,184.337,201.795,188.644,205.991 C185.623,200.183,182.928,194.978,180.037,189.379 z M117.749,83.5131 C115.737,88.5213,120.167,90.7731,121.49,94.5323 C122.794,91.5114,122.794,91.5114,117.749,83.5131 z M121.083,68.6979 C118.93,73.7737,123.686,76.167,125.15,79.8339 C126.196,75.2011,122.296,72.4694,121.083,68.6979 z M199.663,181.055 C202.278,186.334,204.973,191.514,208.677,196.129 C205.484,191.182,204.862,184.796,199.663,181.055 z M137.683,163.773 C136.989,158.936,135.445,154.26,133.124,149.96 C132.14,155.682,136.04,159.361,137.683,163.773 z M125.833,122.612 C127.168,128.34,130.755,133.115,132.97,138.455 C132.238,132.469,128.54,127.75,125.833,122.612 z M132.232,142.245 C131.094,137.372,128.183,133.361,126.356,128.857 C126.239,132.229,129.617,140.024,132.232,142.245 z M186.608,208.335 C185.451,203.542,179.84,194.941,177.6,194.418 z M115.971,93.0249 C115.423,96.4949,118.167,98.6544,119.662,101.749 C121.483,97.3563,117.146,95.9043,115.971,93.0249 z M123.255,86.2571 C123.586,86.0931,123.916,85.929,124.246,85.7649 C123.065,82.1842,120.979,79.071,118.801,76.0071 C118.553,76.1322,118.305,76.2573,118.056,76.3824 C119.791,79.6719,121.524,82.9614,123.255,86.251 z M173.091,135.096 C172.769,135.26,172.447,135.424,172.125,135.588 C174.504,139.956,176.883,144.324,179.262,148.693 C179.52,148.559,179.778,148.426,180.037,148.293 z M118.173,79.7232 C118.241,83.6115,120.997,86.2756,123.009,89.2965 C122.443,85.6603,119.718,82.9902,118.198,79.7355 z M118.555,104.856 C118.998,101.454,116.709,99.3189,114.863,97.0055 C114.506,100.371,117.054,102.352,118.555,104.868 z M121.539,65.3201 C121.877,68.7901,124.166,71.3557,125.704,74.2597 C125.913,74.6473,126.319,74.3889,126.455,74.2043 C126.618,73.9805,126.661,73.6911,126.572,73.4291 C124.917,70.7282,123.901,67.6335,121.539,65.3325 z M161.093,173.604 C161.272,177.148,163.074,179.99,167.043,183.19 z M116.709,88.3674 C116.254,91.4006,118.315,95.006,121.853,97.0363 z M142.027,86.171 C142.5,90.8161,144.808,94.7045,147.256,98.5314 C145.521,94.4092,143.778,90.2891,142.027,86.171 z M129.303,95.4551 C128.811,92.7665,128.319,90.0778,127.704,86.7063 C126.104,90.4101,126.959,93.0249,129.303,95.4551 z M129.685,109.772 C129.114,106.691,127.966,103.745,126.301,101.091 C125.07,105.188,128.165,107.163,129.685,109.772 z M129.174,102.487 C129.131,99.0297,128.134,96.6548,126.381,95.2644 C125.581,98.316,127.925,100.186,129.174,102.487 z M130.952,53.0582 C131.118,49.7912,128.805,48.2346,127.974,45.989 C127.784,45.466,127.531,44.3155,126.578,45.0169 C125.962,45.4722,126.258,46.2474,126.738,46.918 C128.091,48.7945,129.365,50.7264,130.952,53.0582 z M126.756,136.425 C126.282,140.055,128.885,142.036,130.312,144.7 C130.579,144.546,130.845,144.392,131.112,144.238 z M164.206,201.143 C165.258,205.597,166.932,209.566,169.873,212.876 z M125.772,107.459 C126.572,111.15,129.149,113.913,130.644,117.235 C129.949,113.519,127.741,110.547,125.772,107.459 z M176.874,207.498 C175.455,205.423,174.036,203.348,172.617,201.272 C172.371,201.44,172.125,201.608,171.879,201.777 C174.216,202.933,172.635,206.711,176.874,207.498 z M136.071,67.3259 C136.969,64.5511,136.348,61.7271,135.677,58.9154 C135.413,58.9441,135.148,58.9728,134.884,59.0015 C135.277,61.7784,135.673,64.5531,136.071,67.3259 z M125.033,187.97 C123.895,183.62,122.978,182.119,121.022,180.956 C122.505,183.504,123.735,185.737,125.033,187.97 z"/>
        </defs>
        <use xlink:href="#3" style="fill:#000000;fill-opacity:1;fill-rule:evenodd;opacity:1;stroke:none;"/>
      </g>
    </defs>
    <use xlink:href="#2"/>
    <defs>
      <title>Shape 125</title>
      <g id="4">
        <defs>
          <path id="5" d="M96.5596,166.492 C98.1347,164.222,98.2454,161.57,99.7589,159.49 C98.0793,166.375,96.2828,173.223,97.1256,180.883 C93.2434,176.533,93.1142,171.574,92.0867,166.732 C89.3735,174.73,83.424,180.526,79.2095,187.441 C76.4901,191.908,73.7707,196.381,71.2974,200.977 C67.8459,207.375,63.4222,213.011,58.1864,218.69 C58.0142,216.77,59.3124,216.044,59.7923,214.998 C60.3175,213.893,60.9811,212.86,61.7672,211.922 C67.6674,204.631,71.3405,195.975,76.2933,188.1 C81.1291,180.403,86.4634,172.977,90.0257,164.486 C91.6007,160.727,92.4866,160.875,94.8984,164.4 C95.3537,165.058,95.8951,165.655,96.5596,166.492 z"/>
        </defs>
        <use xlink:href="#5" style="fill:#000000;fill-opacity:1;fill-rule:evenodd;opacity:1;stroke:none;"/>
      </g>
    </defs>
    <use xlink:href="#4"/>
    <defs>
      <title>Shape 138</title>
      <g id="6">
        <defs>
          <path id="7" d="M171.725,141.962 C174.506,144.854,175.835,148.625,177.717,152.034 C185.426,165.981,192.945,180.027,200.525,194.043 C200.598,194.184,200.525,194.412,200.451,195.009 C197.208,190.653,195.012,186.045,192.582,181.596 C185.709,168.99,178.991,156.297,172.198,143.648 C171.834,143.148,171.686,142.523,171.786,141.913 z"/>
        </defs>
        <use xlink:href="#7" style="fill:#000000;fill-opacity:1;fill-rule:evenodd;opacity:1;stroke:none;"/>
      </g>
    </defs>
    <use xlink:href="#6"/>
    <defs>
      <title>Shape 174</title>
      <g id="8">
        <defs>
          <path id="9" d="M117.171,142.577 C115.663,145.912,115.177,149.665,112.212,152.421 C112.212,152.421,116.352,142.03,116.352,142.03 z"/>
        </defs>
        <use xlink:href="#9" style="fill:#000000;fill-opacity:1;fill-rule:evenodd;opacity:1;stroke:none;"/>
      </g>
    </defs>
    <use xlink:href="#8"/>
    <defs>
      <title>Shape 182</title>
      <g id="10">
        <defs>
          <path id="11" d="M74.9336,162.05 C72.7371,160.629,70.6268,159.109,69.827,156.377 C72.0818,157.686,73.8681,159.67,74.9336,162.05 z"/>
        </defs>
        <use xlink:href="#11" style="fill:#000000;fill-opacity:1;fill-rule:evenodd;opacity:1;stroke:none;"/>
      </g>
    </defs>
    <use xlink:href="#10"/>
    <defs>
      <title>Shape 185</title>
      <g id="12">
        <defs>
          <path id="13" d="M104.619,91.5114 C105.616,92.465,105.973,93.9724,107.247,94.6676 C106.847,95.7812,108.434,96.2734,108.009,97.7439 C105.999,96.3446,104.446,94.3846,103.543,92.1082 C103.26,91.4375,104.17,91.5606,104.619,91.5114 z"/>
        </defs>
        <use xlink:href="#13" style="fill:#000000;fill-opacity:1;fill-rule:evenodd;opacity:1;stroke:none;"/>
      </g>
    </defs>
    <use xlink:href="#12"/>
    <defs>
      <title>Shape 201</title>
      <g id="14">
        <defs>
          <path id="15" d="M105.751,102.586 C104.909,100.334,104.373,98.8267,103.783,97.3501 C103.567,96.8148,103.493,96.3534,104.06,96.0704 C104.626,95.7874,104.902,96.3288,104.989,96.5995 C105.487,98.2791,106.828,99.7619,105.751,102.586 z"/>
        </defs>
        <use xlink:href="#15" style="fill:#000000;fill-opacity:1;fill-rule:evenodd;opacity:1;stroke:none;"/>
      </g>
    </defs>
    <use xlink:href="#14"/>
    <defs>
      <title>Shape 213</title>
      <g id="16">
        <defs>
          <path id="17" d="M166.089,151.424 C163.829,148.572,161.955,145.434,160.515,142.091 C160.609,142.007,160.704,141.923,160.798,141.839 C162.545,144.505,164.293,147.171,166.04,149.837 C166.058,150.379,166.071,150.901,166.089,151.424 z"/>
        </defs>
        <use xlink:href="#17" style="fill:#000000;fill-opacity:1;fill-rule:evenodd;opacity:1;stroke:none;"/>
      </g>
    </defs>
    <use xlink:href="#16"/>
    <defs>
      <title>Shape 215</title>
      <g id="18">
        <defs>
          <path id="19" d="M159.42,145.653 C156.959,140.787,154.295,136.006,152.037,131.047 C146.106,118.016,139.178,105.459,133.622,92.2866 C133.142,91.2758,132.977,90.1439,133.149,89.0381 C135.32,93.5909,137.265,98.2668,139.701,102.666 C147.465,116.7,152.91,131.878,161.087,145.696 C161.413,146.238,162.274,146.761,161.542,147.462 C161.339,147.653,160.613,147.296,160.127,147.192 C159.9,146.681,159.666,146.176,159.42,145.653 z"/>
        </defs>
        <use xlink:href="#19" style="fill:#000000;fill-opacity:1;fill-rule:evenodd;opacity:1;stroke:none;"/>
      </g>
    </defs>
    <use xlink:href="#18"/>
    <defs>
      <title>Shape 216</title>
      <g id="20">
        <defs>
          <path id="21" d="M147.115,109.643 C147.792,112.873,150.579,115.235,150.806,118.644 C147.73,114.337,145.355,109.649,142.919,104.998 C138.938,97.4116,134.336,90.1147,131.777,81.3167 C133.382,82.5902,133.887,84.0915,134.453,85.4696 C137.794,93.5602,142.593,100.906,146.284,108.818 C146.499,109.144,146.862,109.354,147.115,109.643 z"/>
        </defs>
        <use xlink:href="#21" style="fill:#000000;fill-opacity:1;fill-rule:evenodd;opacity:1;stroke:none;"/>
      </g>
    </defs>
    <use xlink:href="#20"/>
    <defs>
      <title>Shape 217</title>
      <g id="22">
        <defs>
          <path id="23" d="M159.42,145.653 C159.66,146.152,159.893,146.656,160.127,147.161 C162.964,151.898,166.003,156.525,168.07,161.687 C165.24,159.263,164.059,155.762,162.238,152.686 C161.462,151.369,160.798,150.028,159.481,149.167 C156.577,143.272,153.04,137.754,149.502,132.235 C148.474,130.635,147.041,129.214,147.072,127.104 C150.858,131.96,154.213,137.138,157.1,142.577 C157.685,143.715,158.245,144.958,159.42,145.653 z"/>
        </defs>
        <use xlink:href="#23" style="fill:#000000;fill-opacity:1;fill-rule:evenodd;opacity:1;stroke:none;"/>
      </g>
    </defs>
    <use xlink:href="#22"/>
    <defs>
      <title>Shape 218</title>
      <g id="24">
        <defs>
          <path id="25" d="M160.515,142.091 C158.632,140.245,158.251,137.637,156.99,135.465 C158.571,137.427,160.533,139.156,160.798,141.839 z"/>
        </defs>
        <use xlink:href="#25" style="fill:#000000;fill-opacity:1;fill-rule:evenodd;opacity:1;stroke:none;"/>
      </g>
    </defs>
    <use xlink:href="#24"/>
    <defs>
      <title>Shape 219</title>
      <g id="26">
        <defs>
          <path id="27" d="M173.755,176.908 C172.114,174.582,170.488,172.255,168.876,169.925 C171.552,171.494,172.955,173.986,173.755,176.908 z"/>
        </defs>
        <use xlink:href="#27" style="fill:#000000;fill-opacity:1;fill-rule:evenodd;opacity:1;stroke:none;"/>
      </g>
    </defs>
    <use xlink:href="#26"/>
  </g>
</svg>
