<?xml version="1.0" encoding="utf-8"?>
<svg x="0pt" y="0pt" width="256pt" height="256pt" viewBox="0 0 256 256" xmlns="http://www.w3.org/2000/svg" xmlns:xlink="http://www.w3.org/1999/xlink">
  <g id="1">
    <title>Layer 1</title>
    <defs>
      <title>Shape 118</title>
      <g id="2">
        <defs>
          <path id="3" d="M201.689,152.002 C203.306,153.186,204.923,154.37,206.54,155.553 C200.767,153.447,195.007,151.486,189.742,148.291 C192.872,152.351,197.803,154.653,200.12,159.446 C183.556,146.18,168.081,131.608,153.843,115.871 C152.827,119.502,152.827,119.938,155.092,122.044 C168.165,134.173,181.238,146.236,194.201,158.437 C195.218,159.388,197.39,160.086,196.438,162.867 C181.913,149.656,167.809,136.41,153.785,122.836 C153.633,125.196,155.768,129.089,158.622,131.987 C169.516,143.077,180.446,154.181,193.156,163.303 C193.882,163.826,195.61,164.399,194.608,165.685 C193.49,167.137,192.865,165.293,192.146,164.777 C180.453,156.432,170.358,146.316,160.605,135.894 C158.898,134.078,157.416,132.074,155.107,130.215 C154.519,132.51,154.671,133.693,156.56,135.197 C159.813,137.746,162.573,140.941,165.405,143.984 C172.668,151.777,180.824,158.568,188.646,165.772 C189.553,166.607,190.89,167.268,190.926,169.658 C179.248,160.587,169.545,150.245,159.051,139.627 C159.377,143.875,162.413,145.437,164.403,147.456 C171.985,155.212,178.623,163.898,187.099,170.783 C187.585,171.183,188.457,171.713,187.578,172.483 C186.917,173.064,186.249,172.73,185.683,172.149 C184.324,170.776,182.981,169.374,181.557,168.06 C180.722,167.334,180.17,165.939,178.652,166.368 C178.957,165.387,178.34,164.813,177.752,164.189 C174.416,160.645,171.094,157.088,167.788,153.52 C164.941,150.458,162.094,147.395,159.247,144.333 C158.738,146.853,170.743,160.049,178.739,166.295 C178.921,168.147,180.795,168.779,181.594,170.21 C182,170.936,182.937,171.662,182.153,172.388 C181.056,173.405,180.424,172.018,179.931,171.422 C174.215,164.479,167.584,158.386,161.491,151.813 C160.721,150.978,159.82,150.259,158.528,149.068 C158.528,151.632,159.98,152.801,161.084,153.883 C167.417,160.187,173.205,167.007,179.691,173.173 C182.443,175.794,183.322,180.137,187.505,181.699 C182.051,180.559,177.12,178.837,173.38,174.727 C169.429,170.369,165.391,166.113,160.046,163.187 C164.984,168.345,169.923,173.504,174.861,178.663 C174.508,179.007,174.154,179.351,173.801,179.694 C161.004,166.186,147.351,153.549,135.135,138.842 C134.264,141.907,135.012,143.505,136.929,145.168 C145.535,152.605,152.652,161.494,160.467,169.716 C163.982,173.405,167.287,177.291,170.736,181.14 C169.284,181.917,168.558,181.038,167.831,180.246 C158.245,169.817,148.66,159.381,139.079,148.937 C139.013,148.865,138.846,148.879,138.745,148.814 C137.234,147.834,136.508,144.108,134.569,145.909 C132.898,147.441,136.065,149.192,137.285,150.579 C145.593,159.991,154.178,169.149,163.038,178.053 C164.648,179.687,165.991,181.565,167.018,183.616 C155.26,172.911,144.78,160.986,134.002,149.293 C132.673,150.55,133.218,151.588,134.365,152.852 C144.17,163.615,153.974,174.371,164.687,184.263 C165.05,184.597,165.289,184.989,164.774,185.933 C161.607,183.028,158.455,180.261,155.398,177.378 C148.448,170.782,141.918,163.757,135.846,156.345 C135.461,155.88,135.12,155.401,134.677,154.958 C134.118,154.355,133.428,153.411,132.615,154.079 C131.678,154.805,132.266,155.75,132.992,156.548 C137.35,161.32,141.598,166.164,145.956,170.914 C149.936,175.271,154.046,179.462,158.012,183.805 C158.97,184.858,160.263,185.875,160.3,188.591 C150.372,178.147,141.264,168.125,131.975,158.27 C140.102,169.505,149.304,179.803,158.847,189.869 C152.311,184.952,146.769,178.866,139.587,174.363 C143.472,182.185,152.173,185.984,155.426,194.779 C149.958,192.6,145.157,190.98,141.933,186.666 C142.415,188.969,143.775,190.993,145.724,192.309 C146.501,192.847,147.496,193.036,147.038,194.336 C145.491,193.021,145.085,197.64,143.029,194.996 C141.478,192.866,140.076,190.631,138.831,188.308 C136.805,184.8,134.931,181.198,133.13,177.566 C132.578,176.455,131.809,175.729,130.741,175.889 C129.673,176.048,129.927,177.181,130.015,178.017 C130.015,178.467,130.203,179.309,129.695,179.193 C124.764,178.046,123.834,183.376,120.515,184.778 C120.101,184.952,119.731,185.221,118.867,185.715 C119.832,182.084,123.297,181.357,124.677,178.801 C117.668,174.596,123.348,167.907,121.706,162.279 C114.909,167.667,110.035,174.669,103.688,180.145 C107.973,174.393,112.294,168.721,117.552,163.855 C118.454,163.048,119.305,162.187,120.101,161.276 C123.732,156.919,123.732,156.919,128.337,159.686 C129.216,152.815,131.867,146.388,131.968,140.077 C117.145,153.222,103.049,168.001,82.6699,173.848 C86.7442,171.008,90.6587,167.885,94.9291,165.387 C100.165,162.337,104.857,158.567,109.454,154.726 C114.473,150.513,120.573,147.608,124.604,142.161 C125.81,140.52,127.197,139.053,127.974,137.121 C128.35,135.976,128.926,134.907,129.673,133.962 C133.261,130.033,136.696,127.164,140.69,134.18 C144.039,140.062,149.137,144.478,154.09,149.591 C154.744,146.686,155.201,144.137,155.927,141.646 C156.472,139.779,155.811,138.414,154.344,137.673 C152.165,136.584,152.761,139.126,151.94,139.888 C151.475,140.302,151.359,141.152,150.611,141.304 C152.979,130.824,148.941,120.395,150.35,109.93 C150.422,109.407,150.64,108.645,149.878,108.361 C148.984,108.034,148.585,108.833,148.164,109.349 C144.787,113.416,141.264,117.381,138.17,121.652 C136.579,123.886,134.739,125.932,132.687,127.752 C131.881,127.12,132.331,126.576,132.76,126.249 C136.195,123.591,136.391,119.785,136.652,115.914 C137.059,110.228,135.882,104.636,135.875,98.978 C135.875,98.1137,135.825,97.0534,134.909,96.8864 C133.994,96.7193,133.508,97.7288,133.072,98.426 C131.024,101.723,128.453,104.614,126.071,107.657 C122.962,111.615,119.004,114.447,115.097,117.483 C110.536,121.027,107.421,126.009,103.862,130.519 C102.969,131.645,102.155,132.843,101.262,133.969 C99.3374,136.373,97.7033,139.242,93.5637,138.559 C101.937,130.926,106.063,119.916,114.988,112.82 C116.441,111.666,117.24,110.852,115.598,109.189 C113.957,107.526,114.444,105.623,115.497,103.866 C117.995,99.7043,119.128,95.1506,119.992,89.8272 C118.225,91.3571,116.458,92.8871,114.69,94.4171 C114.468,94.2041,114.245,93.991,114.022,93.778 C117.551,89.9051,120.792,85.7786,123.718,81.4316 C126.797,76.9942,129.731,72.4115,129.84,66.783 C129.84,65.9623,132.019,63.3841,128.518,63.7182 C127.908,63.7763,128.09,63.0573,128.366,62.6506 C131.561,57.85,130.254,52.1634,131.14,46.7964 C129.078,50.8489,127.102,54.9523,124.931,58.9467 C120.704,66.7322,116.462,74.4668,110.405,81.1411 C108.016,83.7919,107.878,87.9171,106.237,91.2215 C105.455,92.5964,104.477,93.8493,103.332,94.94 C105.91,90.2992,104.174,86.1813,101.879,82.1216 C97.5305,88.5305,93.5209,95.163,89.8668,101.992 C85.2624,110.707,79.3869,118.58,73.4824,126.416 C71.921,128.486,70.7226,130.773,67.912,131.856 C66.1981,132.509,66.5394,135.196,66.2416,136.896 C65.9478,138.909,65.0281,140.779,63.6125,142.241 C60.5478,145.451,57.0762,148.32,54.7885,152.213 C53.8734,153.774,52.1594,154.05,50.4818,155.771 C51.1499,153.208,52.8929,152.561,53.8152,151.261 C56.6259,147.26,55.994,142.771,55.718,138.327 C55.718,137.985,55.413,137.673,55.3331,137.324 C53.8007,130.628,53.8806,130.73,48.1359,135.058 C37.3437,143.214,24.9755,148.262,12.3604,152.794 C10.69,153.389,9.36825,152.583,8.11906,151.733 C7.49449,151.305,8.03918,150.724,8.38777,150.201 C9.17941,148.988,9.66599,147.666,11.6995,148.596 C12.8543,149.126,14.2196,148.182,15.4034,147.652 C24.2565,143.686,33.2766,140.048,41.4397,134.695 C42.2678,134.215,43.042,133.648,43.7492,133.003 C48.833,127.73,55.0788,126.619,61.9565,128.239 C64.8615,128.922,66.7208,128.13,68.6236,125.639 C77.9632,113.401,85.727,100.22,93.1855,86.7768 C94.4638,84.4818,96.0906,82.4193,97.5431,80.1533 C99.1553,77.5679,100.739,75.4835,104.443,76.8489 C106.752,77.7058,108.582,76.5511,110.18,74.3796 C117.319,64.684,122.526,53.9282,127.777,43.1868 C128.503,41.6912,129.35,40.258,130.312,38.9019 C131.038,37.8706,131.764,36.36,133.217,36.4835 C135.054,36.6433,135.984,38.4226,136.456,39.8678 C136.855,41.0807,136.906,42.5913,137.72,43.4991 C142.803,49.3746,144.118,56.6444,145.665,63.8852 C146.277,66.8069,147.217,69.6501,148.468,72.3606 C149.608,74.7863,150.24,77.6114,154.068,78.1198 C156.515,78.4466,158.062,81.4315,160.001,83.2036 C168.513,91.1343,174.751,100.975,182.326,109.697 C185.231,113.031,188.093,116.023,192.712,117.541 C198.841,119.546,202.981,124.92,207.963,128.9 C209.162,129.866,210.011,131.42,211.929,130.192 C212.219,130.011,212.829,130.192,213.258,130.352 C223.251,133.599,233.121,137.099,242.112,142.699 C243.266,143.425,244.886,143.374,246.237,143.839 C247.588,144.221,248.406,145.591,248.103,146.962 C247.747,148.676,246.542,148.414,245.017,148.146 C240.412,147.23,236.701,144.471,232.576,142.59 C231.743,142.161,230.856,141.846,229.94,141.653 C232.67,145.015,237.602,145.654,239.991,149.86 C238.168,150.077,236.265,145.822,234.973,150.027 C234.341,149.692,233.702,149.387,233.092,149.024 C225.597,144.456,218.523,139.263,211.18,134.368 C216.555,140.251,222.895,145.226,227.681,151.595 C227.352,151.91,227.023,152.225,226.693,152.539 C226.693,152.539,209.721,134.274,209.721,134.274 C209.281,134.671,208.84,135.068,208.4,135.465 C213.091,141.587,218.567,147.143,222.424,153.905 C214.66,144.848,206.831,135.901,198.653,127.237 C205.023,137.027,213.178,145.48,219.62,155.198 C210.07,145.153,201.573,134.267,193.381,123.438 C191.623,126.452,193.076,129.125,195.683,131.827 C202.581,139.063,208.895,146.834,214.566,155.067 C206.439,147.347,200.04,138.036,192.233,129.989 C191.863,132.429,192.734,134.223,195.407,136.845 C200.094,141.482,204.507,146.388,208.625,151.537 C208.937,151.915,209.278,152.263,208.668,153.251 C203.422,147.526,198.176,141.8,192.93,136.075 C191.253,137.651,192.386,138.806,193.417,139.91 C196.438,143.163,199.452,146.446,202.539,149.591 C204.129,151.225,203.527,151.842,201.624,152.067 C201.923,151.239,201.624,150.313,200.898,149.816 C195.668,145.052,191.58,139.343,187.433,133.678 C183.286,128.014,179.291,122.276,175.035,116.706 C167.686,107.076,160.205,97.5472,152.71,88.0259 C152.304,87.503,151.984,86.0142,151.004,86.6824 C149.696,87.5902,151.193,88.3164,151.657,88.9555 C154.054,92.2455,156.589,95.4265,158.964,98.7237 C165.5,107.773,172.036,116.8,178.391,125.951 C182.538,131.906,187.585,137.099,191.732,143.018 C169.901,119.778,153.872,91.9187,133.08,67.3639 C132.898,69.136,132.826,70.3488,133.69,71.598 C138.396,78.3594,142.753,85.3969,147.714,91.9332 C157.424,104.81,167.424,117.461,176.873,130.541 C179.778,134.579,182.356,139.321,186.532,141.921 C191.688,145.168,196.714,148.531,201.689,152.002 z M189.996,134.572 C190.722,131.906,189.212,130.686,188.355,129.372 C185.21,124.513,181.927,119.742,178.594,115.006 C171.549,104.999,165.042,94.5769,156.312,85.8618 C155.586,85.1355,155.223,83.8428,153.705,84.7288 C151.584,85.9562,153.502,86.6824,154.039,87.3651 C161.614,97.0679,169.291,106.669,176.829,116.415 C181.267,122.218,185.392,128.232,189.996,134.594 z M130.886,76.188 C130.211,77.0232,129.746,77.5243,129.361,78.0835 C128.635,79.1148,129.07,79.8193,129.833,80.7562 C135.309,87.5104,140.647,94.3662,146.101,101.128 C146.646,101.81,147.125,103.459,148.454,102.471 C149.616,101.607,148.411,100.844,147.881,100.104 C142.555,92.6087,137.229,85.104,131.903,77.5897 C131.598,77.2484,131.336,76.8562,130.886,76.2098 z M156.487,106.415 C161.861,116.023,166.117,126.481,176.096,132.633 C170.096,123.512,163.547,114.763,156.487,106.437 z M132.694,72.2372 C131.453,73.6897,131.242,74.5685,132.31,75.9847 C137.081,82.2523,141.613,88.7087,146.377,94.9763 C147.888,96.959,149.093,99.2903,151.759,100.351 z M134.917,90.2919 C133.464,87.307,131.198,85.259,129.572,82.7824 C128.279,80.8288,127.741,81.4897,126.514,82.7824 C125.163,84.235,124.778,85.0411,126.645,86.312 C128.516,87.6255,129.969,89.4513,130.828,91.5702 C131.133,92.2964,131.685,93.3132,132.695,92.5942 C133.51,91.9109,134.255,91.1469,134.917,90.3137 z M147.888,83.7556 C148.04,82.8841,148.28,82.412,148.135,82.2087 C143.951,76.3187,139.935,70.2981,135.164,64.8439 C134.735,64.35,134.438,63.3333,133.566,64.0523 C132.695,64.7713,133.501,65.8026,133.966,66.231 C137.263,69.245,139.42,73.1523,142.201,76.5657 C144.053,78.8607,145.84,81.1847,147.888,83.7919 z M124.386,86.5517 C124.386,88.2439,122.621,89.4567,124.147,91.1126 C125.512,92.5651,126.609,94.3227,127.843,95.9277 C128.235,96.4506,128.569,97.4456,129.405,96.7701 C130.24,96.0947,131.583,95.1796,130.741,94.1992 C128.584,91.8534,127.967,88.2802,124.386,86.588 z M125.345,161.654 C124.953,164.385,128.831,171.727,130.734,172.461 C131.047,172.593,131.401,172.593,131.714,172.461 C132.339,172.047,132.222,171.451,131.845,170.914 C129.753,167.943,127.654,164.973,125.345,161.69 z M123.166,92.1294 C121.953,95.354,122.229,97.8886,124.967,99.7986 C125.577,100.227,126.1,101.44,126.942,100.409 C127.458,99.7841,128.322,98.9562,127.524,97.8741 C126.136,96.0512,124.72,94.1992,123.181,92.1512 z M134.198,170.921 C135.854,176.433,140.124,179.774,143.959,183.507 C144.201,183.296,144.443,183.086,144.685,182.875 z M143.639,72.7093 C141.344,67.5238,137.727,63.2679,133.718,59.2444 C135.846,64.6042,140.589,68.0903,143.69,72.7456 z M141.177,65.7517 C140.451,61.6048,138.606,58.5763,134.198,54.7126 C134.982,59.397,139.129,61.9679,141.228,65.788 z M139.151,57.8065 C140.022,53.2891,137.263,51.5752,134.793,48.5321 C134.539,53.1366,137.393,54.807,139.202,57.8428 z M138.715,103.517 C138.65,106.509,140.676,107.875,142.303,109.443 C142.492,109.625,143.305,109.443,143.53,109.211 C143.715,108.82,143.685,108.361,143.45,107.998 C141.729,106.916,141.192,104.498,138.752,103.553 z M187.236,123.736 C187.774,119.168,183.467,118.841,181.797,116.51 C183.148,119.258,185.012,121.723,187.287,123.772 z M154.003,156.156 C154.061,156.105,154.119,156.055,154.177,156.004 C151.381,153.082,148.585,150.16,145.789,147.238 C145.682,147.337,145.576,147.436,145.469,147.536 z M135.984,134.87 C135.67,135.075,135.355,135.281,135.04,135.487 C135.767,138.595,138.214,140.375,140.901,141.972 z M156.864,116.198 C155.794,114.045,154.724,111.893,153.654,109.741 C152.086,113.336,154.729,114.723,156.864,116.198 z M163.902,159.199 C161.955,157.02,160.009,154.842,157.787,152.343 C158.186,156.41,160.91,157.943,163.902,159.199 z M128.518,172.461 C127.269,171.698,127.436,169.454,125.505,169.127 C124.778,169.004,124.459,169.585,124.778,170.296 C125.425,171.749,125.889,173.456,127.632,174.015 C127.959,174.117,128.584,173.383,128.519,172.461 z"/>
        </defs>
        <use xlink:href="#3" style="fill:#000000;fill-opacity:1;fill-rule:evenodd;opacity:1;stroke:none;"/>
      </g>
    </defs>
    <use xlink:href="#2"/>
    <defs>
      <title>Shape 202</title>
      <g id="4">
        <defs>
          <path id="5" d="M93.404,118.064 C94.98,115.617,95.7934,112.653,99.0252,110.126 C97.1515,113.648,96.0694,116.415,93.404,118.064 z"/>
        </defs>
        <use xlink:href="#5" style="fill:#000000;fill-opacity:1;fill-rule:evenodd;opacity:1;stroke:none;"/>
      </g>
    </defs>
    <use xlink:href="#4"/>
  </g>
</svg>
