<?xml version="1.0" encoding="UTF-8"?>
<!-- Generated by Pixelmator Pro 2.4.2 -->
<svg width="454" height="454" viewBox="0 0 454 454" xmlns="http://www.w3.org/2000/svg" xmlns:xlink="http://www.w3.org/1999/xlink">
    <path id="Path" fill="#413c43" fillRule="evenodd" stroke="none" d="M 309.179993 296.343994 C 310.355988 290.618652 307.706665 286.320007 304.222687 282.159973 C 302.925323 280.669312 301.450653 279.343994 299.832001 278.213318 C 294.522675 274.32135 294.513336 274.340027 291.742676 279.861328 C 291.526672 280.269348 291.276001 280.656006 290.993317 281.02002 C 289.723999 282.669312 288.436005 284.309326 287.03598 286.116028 C 285.869324 283.08667 288.018677 281.484009 289.130676 279.630676 C 290.677338 277.036011 290.649323 275.257324 288.527985 272.570679 C 282.96933 265.52002 278.021332 257.96936 272.889343 250.576004 C 272.018677 249.325333 271.472015 247.796005 269.970673 247.147995 C 269.044006 246.529343 268.11734 245.912003 267.191986 245.294662 C 264.606659 245.646667 264.412018 243.218674 263.429352 241.88533 C 262.152008 240.198669 261.373322 238.030655 258.287994 238.178665 C 260.501343 246.805344 256.573334 254.08667 253.340012 261.47998 C 252.460007 263.481323 252.580002 264.185364 254.656006 265.186646 C 265.930664 270.559998 278.391998 290.201355 276.946686 305.182678 C 276.585327 308.971985 274.334686 312.038696 271.694672 314.708008 C 270.573334 315.837341 269.712006 316.857361 271.610657 317.783997 C 274.909332 319.395996 275.82666 321.564026 274.630676 325.194641 C 273.945343 327.27066 274.510651 329.753326 274.510651 333.403992 C 272.342682 330.077332 271.378662 327.761322 272.286652 325.065308 C 273.037323 322.842651 272.630676 321.599976 270.554657 320.145325 C 268.478668 318.690674 267.46933 318.849304 265.486664 320.145325 C 260.428009 323.342651 252.849319 323.926697 247.178665 321.850647 C 254.360001 320.17334 261.076019 318.849304 266.56134 313.512024 C 272.046661 308.176025 272.769318 302.301331 271.472015 295.909363 C 270.610657 291.665344 268.090668 287.737305 266.153351 283.744019 C 265.847992 283.114685 265.570648 281.122681 264.059998 282.41864 C 263.374664 283.012024 261.779999 282.807983 262.206665 284.902649 C 263.494659 290.575989 263.686676 296.44397 262.772003 302.190674 C 262.365326 304.766663 262.689331 308.565308 265.310669 311.02002 C 264.977325 311.203979 264.630676 311.361328 264.273346 311.492004 C 261.567993 307.629333 259.130676 306.961304 255.860001 311.252014 C 253.266663 314.661316 248.754654 315.522644 244.853333 316.402649 C 241.694656 317.116028 242.630676 318.033325 243.492004 319.738647 C 244.233337 321.193359 245.50267 322.582642 244.353333 324.666687 C 241.908005 322.962646 242.231995 319.414673 239.721329 317.791992 C 238.738663 319.96936 241.953323 321.498657 240.313339 324.112 C 236.607986 320.015991 230.390671 320.313354 226.935989 315.708008 C 226.203995 314.781311 225.314651 316.263977 225.165329 316.968018 C 224.693344 319.302673 223.627991 321.388 223.665329 324 C 223.665329 326.279999 221.960007 328.549347 221.746658 331.245331 C 221.394669 335.785339 216.512009 338.472015 216.122665 343.187988 C 216.122665 343.641327 216.122665 344.429321 215.901321 344.503998 C 211.314651 346.134674 210.258667 352.118652 204.782669 353.09201 C 202.577332 353.481323 201.493332 356.798676 200.233337 359.095978 C 193.489334 371.353363 183.482666 380.302643 171.419998 387.122681 C 170.012009 387.918671 168.454666 388.706665 167.436005 386.871979 C 166.277328 384.805328 168.306671 384.267975 169.548004 383.545319 C 175.228012 380.266693 180.277328 376.133331 185.29866 372.02002 C 187.809326 369.981323 188.846664 367.777344 186.817337 364.608002 C 182.76001 358.206665 180.082657 350.989349 175.606674 344.800018 C 175.042664 344.021332 174.801331 342.456024 173.429337 343.225342 C 172.05867 343.993317 173.290665 345.272003 173.67067 346.003998 C 176.08934 350.637329 178.70134 355.083984 181.23999 359.614655 C 182.190674 361.131989 182.850662 362.812012 183.185349 364.570679 C 177.626663 359.93869 175.422668 353.036011 171.141342 345.939972 C 171.47467 353.267975 175.774658 358.150665 175.375992 364.349335 C 173.213333 359.800018 171.052002 355.250641 168.890671 350.701324 C 165.296005 355.90799 172.966675 359.614655 170.001328 364.598663 C 167.889328 362.060028 168.269333 358.437347 165.638657 355.741333 C 163.738663 359.447998 161.99733 363.052002 160.078659 366.536011 C 159.699997 367.23999 159.356003 368.38797 158.161331 368.230682 C 156.744003 368.008026 156.938675 366.794678 156.734665 365.738647 C 155.326675 358.160004 160.774673 353.324005 163.776001 347.449341 C 168.714676 337.79599 175.514664 329.253326 179.526672 318.960022 C 181.064011 315.041321 184.576004 311.390686 187.077332 307.498657 C 190.587997 302.014648 191.645325 293.676025 188.550659 287.728027 C 185.770676 300.911987 181.314651 305.637329 171.58667 305.590637 C 171.638672 305.642639 171.690674 305.695984 171.744003 305.747986 C 171.261337 303.894653 172.521347 303.515991 173.837341 302.810669 C 182.82399 298.039978 184.315994 291.822693 183.658676 282.594666 C 183.473328 280.038696 182.731995 277.610657 183.380005 274.914673 C 184.372009 270.773315 186.697327 269.58667 190.653336 271.514648 C 196.619995 274.414673 200.761337 279.323975 205.087997 284.058655 C 206.626663 285.745361 208.062668 287.320007 210.786667 287.125305 C 213.139999 286.949341 214.723999 288.867981 216.021347 290.534668 C 220.977341 296.890686 227.222672 302.246643 230.900009 309.602661 C 231.159988 310.166687 231.723999 310.528015 232.345337 310.529358 C 234.912003 310.741333 237.49733 311.297363 240.026672 311.085327 C 242.417343 310.890686 245.400009 310.574646 246.937332 309.093323 C 249.661331 306.470642 245.482666 305.164001 244.566666 303.330688 C 242.194656 298.614685 239.006668 294.297363 236.070663 289.858643 C 228.306656 278.073303 227.898666 265.770691 233.290665 253.00267 C 236.007996 247.130676 236.030655 240.365341 233.356003 234.473328 C 229.231995 224.717331 224.665329 215.210678 219.902664 205.751999 C 219.236008 204.417343 218.846664 202.805344 217.122665 201.833328 C 215.820007 204.127991 214.517334 206.421326 213.213333 208.716003 C 212.82399 207.854675 212.434677 207.382675 212.546677 207.159988 C 217.93866 196.144012 217.225342 183.997345 218.985336 172.333344 C 220.022659 165.430664 219.995987 158.361328 222.181335 151.644012 C 222.690674 150.317322 222.394669 148.817322 221.422668 147.781342 C 213.926682 138.803986 206.042664 130.177734 198.815994 120.764679 C 199.158676 126.073456 200.465332 131.150543 200.289322 136.441345 C 199.965332 145.761322 197.509338 154.156006 191.552002 161.521332 C 188.773331 164.967987 186.43866 168.747986 183.964005 172.425323 C 182.649338 174.185333 182.234665 176.458649 182.843994 178.567993 C 185.335999 186.824005 183.602661 195.144012 183.056015 203.417343 C 182.834671 206.873337 182.797348 210.531998 180.535995 213.515991 C 178.905334 215.665329 181.091995 215.618668 182.009338 216.054672 C 189.421326 219.574661 196.593338 223.466675 200.91066 230.923996 C 202.468002 233.389343 203.572006 236.113342 204.171997 238.966675 C 204.866653 242.960007 205.209335 246.73999 208.515991 250.084 C 210.481323 252.076004 210.666672 256.310669 210.174667 261.007996 C 208.52533 258.06134 207.710678 256.217346 207.636002 254.039993 C 207.490662 252.12532 206.149338 250.510666 204.291992 250.020004 C 202.58667 249.454666 202.642654 251.789322 201.93866 252.79866 C 196.380005 260.498657 188.968002 264.703979 179.498657 264.288025 C 175.116013 264.102661 173.208008 266.140015 172.494675 269.771973 C 170.854675 278.046692 166.009338 284.513306 160.922668 290.813354 C 159.440002 292.666687 157.11467 294.203979 154.890671 293.286682 C 151.361343 291.813354 150.591995 293.953308 149.721329 296.289307 C 147.867996 301.291992 146.014664 306.304016 144.263992 311.334656 C 140.076004 323.314636 131.747208 332.162659 122.667603 340.574677 C 118.257469 344.670654 112.800407 346.615997 107.612129 349.126678 C 103.906136 350.895996 101.867867 347.977325 99.356934 345.420013 C 88.720802 359.17868 73.832001 367.573334 58.952667 378.089325 C 60.629597 371.723999 64.511604 368.359985 68.161865 365.414673 C 77.250938 358.197357 86.988274 351.813324 94.39093 342.604004 C 96.123596 340.445343 99.264404 338.212006 102.062401 340.658661 C 106.509605 344.521332 110.493469 341.918671 113.587868 339.731995 C 124.51133 331.902679 133.785324 322.507996 138.454666 309.398682 C 140.706665 303.098694 143.207993 296.872009 145.709335 290.665344 C 147.136002 287.097351 149.21199 285.290649 153.574661 286.958679 C 158.754669 288.950684 160.143997 283.633362 161.802658 280.881348 C 164.479996 276.461304 164.979996 270.949341 167.639999 266.289307 C 169.789337 262.518677 172.61467 260.257324 176.903992 260.452026 C 185.465332 260.859985 197.286667 252.97467 198.630676 245.156006 C 199.927994 237.604004 195.850662 232.064011 190.291992 227.302673 C 194.850662 235.010666 198.046677 242.709335 191.894669 251.038681 C 188.790665 255.236008 187.142654 256.320007 182.629333 256.282654 C 186.335999 252.335999 189.606674 248.305344 190.097336 242.830673 C 190.791992 235.029343 186.567993 229.377335 181.425339 224.447998 C 179.322678 222.427994 177.719986 218.750671 173.022659 220.529343 C 171.261337 221.205338 169.723999 218.018677 171.32666 216.137329 C 180.230667 205.742676 179.423996 192.975983 178.506668 181.014679 C 177.755997 171.193329 181.833328 164.708008 187.150681 158.084015 C 196.535995 146.38266 195.841324 133.170654 193.405334 119.624939 C 193.257324 118.828125 192.366653 118.179596 191.875992 117.419861 C 190.181335 114.788666 191.274658 112.296387 194.423996 112.055481 C 197.174667 111.698547 199.822678 110.784393 202.206665 109.368652 C 205.138672 107.991211 207.236008 105.295074 207.849319 102.114258 C 210.627991 89.319336 207.394669 77.821594 201.188004 66.805603 C 200.205338 65.063721 198.843994 63.368256 198.464005 61.487457 C 198.084 59.606659 197.370667 57.142273 199.168015 55.576385 C 200.965332 54.010651 203.17067 54.093994 205.301331 54.900116 C 212.982666 57.818542 219.198669 62.858673 225.443985 68.093323 C 238.923996 79.442932 245.714661 94.368652 249.383987 111.101196 C 249.67067 112.435333 250.106674 113.732391 250.449341 115.057343 C 250.986679 117.114136 254.979996 118.383453 251.477341 121.440796 C 249.763992 122.932526 249.62532 125.461853 246.641342 126.657074 C 240.989334 128.936127 240.462662 132.586548 244.074661 137.598663 C 246.437332 140.869324 249.930664 143.556 247.605331 148.513336 C 247.067993 149.661346 247.530655 150.671997 245.751999 150.022675 C 245.057327 149.773346 244.566666 150.949341 245.029343 151.144012 C 248.800003 152.997345 244.510666 156.981323 247.429337 159.250671 C 249.921326 161.196014 251.709335 163.985321 254.369324 165.902679 C 256.242676 167.237335 257.898651 168.853333 259.278656 170.693329 C 261.32666 173.473328 263.957336 176.038666 260.289337 180.106659 C 257.972015 182.67334 259.445343 186.721344 262.225342 188.621338 C 264.865326 190.473328 268.220001 190.789337 271.165314 188.093353 C 277.53067 182.274658 276.577332 174.81601 275.798676 167.514679 C 275.291992 163.865326 274.403992 160.278656 273.14798 156.814667 C 272.110657 153.72934 271.573334 150.634674 274.20401 148.476013 C 276.835999 146.317322 279.855988 148.410675 282.237335 149.679993 C 290.626678 154.158661 298.473328 159.58667 305.621338 165.85733 C 324.984009 182.677338 338.764008 204.994675 345.128021 229.840012 C 347.481323 238.76268 348.175995 247.943985 349.556 257.00531 C 350.010651 260.02533 349.20401 263.666687 346.18399 265.583984 C 343.163971 267.502686 340.282684 267.197327 337.354675 264.658691 C 335.242676 262.805359 332.03598 265.065308 330.757324 268.706665 C 329.450653 272.41333 329.273346 276.425354 330.248016 280.231995 C 331.526672 279.35199 330.322662 277.573303 331.53598 276.897339 C 331.813324 276.897339 332.258667 276.897339 332.342682 277.064026 C 336.854675 285.133362 340.503998 293.898682 349.945343 297.798645 C 350.81601 298.159973 351.510651 299.809326 351.660004 300.949341 C 353.354645 314.03064 361.442657 324.621338 365.491974 336.766663 C 368.32666 345.281342 374.238647 351.006683 380.667999 356.81601 C 385.985352 361.606659 391.702667 366.220001 395.714691 372.371979 C 395.714691 372.681305 395.714691 372.989349 395.714691 373.298676 C 390.571991 373.82666 388.302643 369.40799 385.300018 366.738647 C 379.90799 361.930664 374.76535 356.890656 368.73465 352.841339 C 365.417328 350.618652 363.675995 346.911987 362.657349 343.317352 C 359.32132 331.587982 351.131989 323.119995 343.877319 313.984009 C 341.306671 310.783997 339.007996 307.374695 337.002655 303.793335 C 342.838654 306.888 345.656006 312.909363 350.065338 317.41333 C 347.824005 310.714661 344.72934 304.692017 337.716003 301.726685 C 335.278656 300.711975 333.225342 298.950684 331.850677 296.695984 C 323.511993 282.798645 311.329315 271.894653 302 258.76532 C 300.675995 257.073303 299.600006 255.202652 298.802673 253.206665 C 304.361328 256.533325 307.141327 262.471985 311.254669 267.104004 C 315.517334 272.033325 319.454681 277.296021 324.152008 283.113342 C 324.475983 276.313354 321.669342 272.15332 318.037323 268.132019 C 313.256012 262.842651 308.828003 257.246643 304.546661 251.455994 C 307.540009 252.104004 308.67868 255.097336 311.329315 257.070679 C 311.078674 253.43866 307.308014 251.881332 307.88266 247.805344 C 312.153351 253.596008 316.609344 258.52533 319.574677 264.231995 C 320.686676 266.390686 320.381317 269.410645 323.14267 271.125305 C 325.597321 267.753357 324.013336 265.26001 321.798676 262.619995 C 318.093353 258.17334 314.52533 253.539993 310.912018 248.973328 C 310.402679 248.333328 310.208008 247.629333 310.912018 246.378662 C 315.034668 251.557327 319.056 256.569336 323.040009 261.610657 C 323.88266 262.685364 324.208008 264.843994 326.226654 263.305359 C 328.246674 261.768005 326.615997 260.294678 325.578674 259.210693 C 321.318665 254.654663 317.557343 249.657333 314.360016 244.302673 C 318.750671 246.054672 320.066681 249.361328 322.002655 251.780014 C 323.940002 254.198669 326.274658 256.171997 328.081329 258.635986 C 329.006683 259.970642 329.813324 259.886658 331.03598 259.044006 C 332.731995 257.875977 331.573334 256.746643 330.953339 255.930664 C 328.757324 253.049332 325.310669 251.104004 324.466675 247.221329 C 324.423981 247.265335 324.381317 247.307999 324.337341 247.352005 C 328.044006 248.277328 329.618683 251.604004 331.64798 254.225342 C 334.121338 257.422668 336.984009 258.774658 341.162659 257.932007 C 335.501343 249.677322 327.756012 243.192001 322.837341 234.492004 C 330.526672 241.310669 336.493317 249.668015 343.590668 257.709351 C 344.32132 252.049332 342.181305 248.046677 338.957336 244.210678 C 333.623993 237.858658 328.634674 231.225342 324.013336 224.337341 C 331.944 229.553329 335.660004 238.596008 342.635986 244.905334 C 342.849335 236.094666 335.437347 232.017334 331.610657 225.82933 C 329.442657 222.317337 325.552002 219.982666 323.975983 214.358658 C 330.79599 220.010666 334.084015 227.080002 340.097321 232.397339 C 339.745331 226.94133 336.641327 223.43866 333.898651 219.78801 C 329.942657 214.52533 325.273346 209.651993 322.253326 203.898666 C 321.011993 201.526672 322.253326 197.41333 320.576019 194.412018 C 323.058685 193.373322 321.242676 192.920013 320.353333 192.113342 C 316.64798 188.797333 313.034668 185.406647 309.384003 182.033325 C 311.820007 179.597321 312.394684 183.164001 314.191986 181.932007 C 305.066681 171.490662 295.273346 161.937347 282.691986 155.554657 C 286.350677 162.040009 289.418671 168.645325 290.650665 175.82666 C 292.096008 184.238678 292.23465 192.623993 285.665314 199.534668 C 281.959991 203.417343 277.874664 205.334671 272.509338 203.537338 C 266.61734 201.573318 261.308014 198.905334 258.501343 192.040009 C 256.870667 197.922668 254.378662 203.018677 258.96402 208.178665 C 245.79866 195.838654 236.052002 180.791992 223.442673 167.56134 C 222.719986 169.933319 222.41333 171.165314 224.062668 172.898651 C 235.320007 184.785339 245.372009 197.67334 255.249329 210.717331 C 255.892014 211.393326 256.134674 212.356003 255.888 213.255997 C 254.766663 213.377335 254.322678 212.403992 253.813339 211.791992 C 244.029343 200.007996 234.266663 188.197327 224.526672 176.363983 C 224.044006 175.789337 223.656006 174.510651 222.478653 175.492004 C 221.552002 176.317352 222.06134 177.262665 222.626663 177.93866 C 224.878662 180.606659 227.258667 183.164001 229.501343 185.850677 C 239.627991 198.117325 250.699997 209.754654 259.445343 222.91066 C 264.940002 231.193344 274.269318 235.28801 278.679993 244.126663 C 278.532013 241.848007 278.558685 240.106674 276.540009 238.141342 C 268.951996 230.785339 261.88266 222.882675 258.806671 212.08934 C 260.576019 212.654663 261.141327 213.94133 261.798676 215.118668 C 265.320007 221.604004 270.442657 226.440002 276.521332 230.423996 C 279.783997 232.547989 281.992004 235.954666 282.598663 239.800003 C 283.410675 243.916 285.112 247.805344 287.582672 251.195999 C 297.477325 265.909363 309.596008 278.935974 319.084015 293.898682 C 320.010651 295.435974 322.910675 296.677307 320.233337 299.161316 C 320.406647 300.033325 320.88266 300.817322 321.576019 301.374695 C 330.442657 305.924011 333.824005 315.271973 339.58667 322.388 C 348.509308 333.441315 356.625336 345.14267 365.027985 356.61203 C 366.652008 358.714691 367.640015 361.238647 367.873322 363.885345 C 353.049316 343.373322 338.08667 324.509338 324.040009 304.950684 C 329.748016 316.273315 333.657318 328.650665 344.26535 336.942657 C 347.359985 339.370667 350.381348 342.381348 351.576019 346.208008 C 353.994659 353.934662 360.266693 358.251984 365.565338 363.56131 C 370.421356 368.406647 376.313324 372.409332 378.732025 379.41333 C 371.050659 375.021332 366.214691 367.230682 359.201324 362.402679 C 351.658661 357.196014 351.158661 347.125336 343.293335 342.622681 C 350.538666 354.602661 358.237335 366.266693 363.434662 379.302643 C 360.701324 377.449341 359.877319 374.38266 358.32132 371.787994 C 352.928009 362.764008 347.869354 353.490692 341.782684 344.920013 C 338.863983 340.843994 336.223999 336.498657 332.861328 332.597321 C 328.145325 327.160004 325.198669 320.210693 321.242676 314.067993 C 318.138672 309.231995 315.517334 304.06134 311.578674 299.790649 Z M 209.498657 65.647461 C 211.091995 62.302795 209.313339 60.644409 203.013321 59.560394 C 204.393326 62.441864 206.783997 64.192932 209.599991 65.55481 C 211.786667 69.78894 214.946671 73.207733 218.383987 76.617188 C 219.263992 72.994659 214.205338 66.944519 209.498657 65.61972 Z M 239.146667 224.077332 C 241.462662 228.645325 245.632004 231.489334 249.337341 234.713333 C 246.29866 230.841324 243.482666 226.763992 239.360001 223.882675 C 235.310669 217.397339 229.78801 212.255997 224.470657 206.900009 C 228.417343 213.41333 232.985336 219.408005 239.165329 224.050659 Z M 212.370667 75.681458 C 213.297348 80.1008 214.28801 83.26947 214.576004 86.493591 C 215.650681 98.315735 216.549332 110.156281 202.530655 115.900543 C 201.261337 116.428528 201.05867 116.993744 202.401321 118.503998 C 206.960007 123.608948 210.943985 129.204926 215.29866 134.494659 C 219.310669 139.368011 223.506668 144.074677 228.269333 149.578674 C 228.084 148.14267 228.17601 147.633331 227.964005 147.354675 C 221.171997 138.368011 214.585327 129.204926 207.377335 120.560791 C 205.366653 118.151855 205.801331 118.420532 207.99733 117.271729 C 210.193344 116.122925 212.185349 117.725739 214.26001 116.178406 C 220.208008 111.777588 221.617325 104.773346 224.367996 98.676941 C 225.618668 95.778809 225.325333 92.446655 223.590652 89.810394 C 220.254654 85.316925 216.641342 81.03653 212.370667 75.681458 Z M 281.85733 167.774658 C 281.85733 168.52533 281.85733 169.285339 281.85733 170.045319 C 282.41333 179.513336 281.737335 188.509338 272.462677 194.133331 C 271.324005 194.828003 271.888 195.522675 272.241333 196.430664 C 273.797333 200.350662 278.447998 200.378662 281.671997 196.245331 C 288.945343 187.009338 285.73999 177.38266 281.932007 167.783997 Z M 223.487991 134.810669 C 224.766663 141.73999 250.245346 172.398651 257.612 176.502655 C 253.452011 167.488007 244.529343 163.855988 240.294662 155.813324 C 236.228012 148.03067 229.242676 141.758667 223.562668 134.820007 Z M 228.001343 215.998657 C 229.482666 219.945328 229.742676 223.539993 231.706665 225.12532 C 236.338669 228.960007 239.646667 233.861328 243.750671 238.096008 C 246.596008 241.005325 248.531998 244.886658 252.830673 247.035995 C 253.136002 245.006668 253.757324 243.52533 252.302673 241.986679 C 244.445328 233.619995 236.626663 225.217331 228.037338 216.007996 Z M 219.662659 118.124146 C 219.998657 117.815186 220.335999 117.506409 220.671997 117.197601 C 226.703995 122.691742 231.067993 129.797852 237.49733 136.200012 C 237.119995 134.32132 236.278671 132.566681 235.052002 131.09494 C 230.780014 125.73053 226.5 120.366119 222.450668 114.844269 C 220.995987 112.852264 219.810669 112.528015 218.236008 114.334656 C 216.91066 115.84494 214.465332 117.114136 217.105331 119.643585 C 221.354675 123.60199 225.311996 127.862671 228.946671 132.39212 C 231.039993 135.032013 233.578674 137.349335 235.866653 139.803986 C 236.157333 139.550659 236.447998 139.297333 236.73732 139.044006 Z M 235.41333 280.381348 C 238.961319 289.46936 245.132004 297.012024 249.986679 305.32135 C 250.662659 306.489319 251.607986 306.711975 252.544006 305.656006 C 253.478653 304.598694 255.045334 303.422668 253.67334 301.736023 C 247.744003 294.5 242.268005 286.921326 235.38533 280.435974 Z M 219.458664 194.615997 C 218.447998 197.199982 220.291992 197.903992 221.190674 198.933334 C 229.900009 208.957336 238.692001 218.898666 247.392014 228.923996 C 248.318665 229.998657 248.773331 232.119995 250.580002 230.554672 C 252.534668 228.849319 250.181335 227.94133 249.320007 226.958664 C 243.714661 220.658676 238.276001 214.20134 232.328003 208.234665 C 227.973328 203.889343 224.545334 198.607986 219.430664 194.623993 Z M 255.517334 300.865356 C 256.017334 300.557312 256.518677 300.247986 257.018677 299.93866 C 257.018677 299.93866 233.26268 268.392029 233.26268 268.392029 C 232.169327 270.717346 232.161331 272.310669 233.642654 274.098694 C 241 282.937317 248.225342 291.925354 255.489334 300.874695 Z M 185.706665 317.91333 C 184.362671 320.599976 184.984009 322.277344 185.993332 324.083984 C 190.024002 331.264008 193.895996 338.527985 197.945328 345.689331 C 198.492004 346.615997 198.389343 349.089325 200.261337 348.144012 C 201.975998 347.273315 201.549332 345.569336 200.512009 343.807983 C 195.554672 335.451996 190.820007 326.97467 185.678665 317.922668 Z M 227.82399 95.638123 C 226.21199 100.937592 233.531998 111.073456 246.113342 121.07959 C 241.749329 111.694275 233.754654 104.912262 227.797348 95.647339 Z M 176.774658 337.341339 C 176.080002 338.14798 175.005325 339.194672 175.486679 340.121338 C 180.119995 348.598663 184.807999 356.982666 189.643997 365.654663 C 191.311996 361.968018 184.501343 347.430664 176.746658 337.350677 Z M 192.265335 359.661346 C 194.942673 356.881348 197.074661 354.481323 194.229324 350.182648 C 189.745346 343.429321 186.178665 336.062653 182.185349 328.966675 C 179.989334 330.077332 181.258667 331.430664 181.908005 332.774658 C 185.223999 339.584015 188.606674 346.365326 191.793335 353.23999 C 192.70134 355.175995 194.044006 357.334686 192.238663 359.670654 Z M 254.785339 201.610657 C 255.599991 198.877335 253.785339 197.450653 252.636002 196.052002 C 244.186661 185.860016 235.587997 175.733337 227.009338 165.625336 C 226.342667 164.837341 226.147995 162.605347 224.562668 163.828003 C 222.978653 165.050659 224.785339 166.20932 225.627991 167.079987 C 235.977341 177.854675 244.872009 189.834686 254.757324 201.619995 Z M 241.629333 103.263214 C 241.857346 103.133453 242.08667 103.003723 242.314651 102.873993 C 241.314651 100.437347 240.850662 97.537476 239.219986 95.647339 C 233.893326 89.504791 228.149338 83.72345 222.544006 77.830933 C 222.024002 77.284271 221.617325 75.977997 220.468002 77.145325 C 219.318665 78.312653 220.699997 78.766663 221.190674 79.368927 C 223.877335 82.695068 226.582657 86.021057 229.372009 89.263855 C 233.383987 93.970398 237.506668 98.602814 241.601334 103.2724 Z M 212.037338 335.701324 C 212.854675 335.157318 213.416 334.303986 213.590652 333.337341 C 213.765335 332.370667 213.538681 331.374664 212.964005 330.578674 C 209.933334 325.315979 206.728012 320.145325 203.541336 314.976013 C 203.050659 314.17865 202.708008 312.650696 201.29866 313.392029 C 199.649338 314.253357 200.697327 315.485352 201.29866 316.50531 C 204.820007 322.888 208.386658 329.243988 212.009338 335.710663 Z M 204.365341 346.291992 C 204.848007 344.614655 205.078674 344.262665 204.986679 344.077362 C 200.087997 334.849335 195.146667 325.630676 190.162659 316.421326 C 189.782669 315.717346 189.440002 314.522644 188.309326 315.34668 C 187.917343 315.599976 187.646667 316.00531 187.564011 316.465332 C 187.481323 316.925354 187.594666 317.400024 187.87468 317.774658 C 189.866653 321.174683 191.802673 324.602661 193.766663 328.011993 C 197.102661 333.830658 200.47467 339.630676 204.338669 346.301361 Z M 223.822678 86.447327 C 229.074661 96.77774 237.886658 104.189606 244.510666 113.315613 C 244.130676 109.479858 229.890671 91.070404 223.794662 86.456543 Z M 253.553329 186.860016 C 251.246658 178.522675 244.630676 173.370667 239.405334 166.477325 C 239.757324 168.600006 237.44133 169.757324 239.248001 171.610657 C 244.112 176.566681 248.800003 181.727997 253.553329 186.860016 Z M 256.666656 295.66803 C 257.593353 291.414673 246.289322 276.517334 238.979996 272.793335 Z M 191.302673 310.046692 C 190.755997 310.356018 190.209335 310.665344 189.662659 310.973328 C 189.662659 310.973328 206.88533 341.918671 206.88533 341.918671 C 207.340012 341.667999 207.793335 341.418671 208.248001 341.167999 C 201.771988 331.235992 197.67601 320.006653 191.302673 310.010681 Z M 224.897339 104.041473 C 230.094666 110.526947 235.810669 115.909882 240.258667 122.348938 C 240.981323 123.405212 241.777328 124.516937 243.112 123.154938 C 244.446671 121.79306 242.713333 121.376129 242.185349 120.755341 C 237.206665 115.091461 232.188004 109.46759 227.129333 103.884003 C 226.67601 103.287201 226.014664 102.883453 225.277328 102.753601 C 224.156006 102.753601 224.099991 103.98587 223.841324 104.810394 C 223.248001 106.663452 223.285339 106.663452 226.082657 108.321869 C 225.796005 107.043213 224.026672 106.376129 224.897339 104.004272 Z M 215.223999 120.004791 C 214.916 120.313721 214.606674 120.622528 214.297348 120.931335 C 222.210678 130.983734 230.835999 140.388 239.442673 149.810669 C 239.776001 149.501343 240.109329 149.191986 240.443985 148.884003 Z M 247.651993 272.700012 C 247.08667 264.843994 241.582657 261.804016 237.626663 257.690674 C 237.126663 257.171997 236.699997 255.300003 235.310669 256.763977 C 234.383987 257.690674 234.578674 258.61731 235.486679 259.544006 C 239.395996 263.666687 243.194656 267.82666 247.706665 272.700012 Z M 234.940002 88.513336 C 231.363998 79.202118 223.905334 73.47641 216.253342 67.91745 Z M 234.013321 230.804001 C 238.506668 238.828003 244.797348 245.276001 251.338669 251.529343 C 247.067993 243.377335 239.804001 237.678665 234.050659 230.804001 Z M 179.507996 332.245331 C 178.062668 335.785339 184.139999 348.098663 190.486679 354.602661 C 186.93866 347.301361 183.353333 340.009338 179.545334 332.245331 Z M 236.024002 197.903992 C 231.947998 191.048004 226.537338 186.165314 222.126663 180.412018 C 221.41333 181.570648 220.357346 183.015991 221.199997 183.82132 C 225.869324 188.5 230.733337 192.920013 236.08934 197.978668 Z M 237.311996 167.756012 C 233.930664 162.364014 230.770676 156.79599 225.869324 152.293335 C 225.869324 154.888 222.692001 157.305328 225.517334 159.806671 C 226.842667 159.714661 225.304001 154.859985 228.426682 158.649323 C 231.169327 161.920013 233.531998 165.550659 237.377335 167.793335 Z M 197.065323 351.395996 C 197.417343 351.165314 197.769333 350.93335 198.121338 350.701324 C 193.461319 342.054657 188.800003 333.406647 184.139999 324.76001 C 183.741333 324.96936 183.343994 325.179993 182.945328 325.389343 C 186.817337 334.579987 192.302673 342.836029 197.129333 351.43335 Z M 287.509338 254.708008 C 287.936005 263.898682 292.141327 269.531982 297.589325 268.957336 Z M 222.255997 109.405731 C 222.682663 113.176666 232.790665 125.869598 237.450668 128.630524 C 232.530655 122.191345 228.398666 115.057343 222.321335 109.44281 Z M 220.069336 315.726685 C 221.580002 311.557312 215.984009 300.717346 211.110657 297.594666 C 213.009338 304.367981 217.818665 308.953308 220.134659 315.763977 Z M 262.475983 233.231995 C 262.82132 232.981323 263.166656 232.730667 263.513336 232.481323 C 257.402679 224.835999 250.460007 217.894669 242.815994 211.782669 Z M 216.632004 325.417358 C 215.113342 317.941345 210.146667 312.010681 206.950668 305.257324 C 207.414673 313.187988 213.639999 318.542664 216.58667 325.417358 Z M 213.389343 327.62265 C 212.231995 321.137329 208.210678 315.985352 205.56134 310.158691 C 205.394669 309.788025 204.995987 308.953308 204.189331 309.426697 C 202.771988 310.250671 203.559998 311.280029 204.069336 312.150696 C 207.098679 317.329346 210.230667 322.471985 213.372009 327.62265 Z M 239.109329 175.519989 C 243.982666 181.406647 248.856003 187.293335 253.729324 193.17868 C 254.069336 192.894684 254.409348 192.610657 254.749329 192.32666 C 250.58667 185.81601 245.270676 180.121338 239.062668 175.519989 Z M 218.661331 319.952026 C 217.188004 313.307983 213.408005 307.842651 209.684006 302.348022 C 211.110657 308.981323 214.918655 314.43866 218.61467 319.950684 Z M 227.213333 110.628815 C 230.789322 115.650391 234.346664 120.671997 237.960007 125.656525 C 238.210678 125.999329 238.515991 126.92572 239.322678 126.28653 C 239.942673 125.795471 240.629333 125.02652 240.007996 124.368652 C 235.653336 119.847321 232.429337 114.343994 227.166672 110.628815 Z M 240.434677 248.110657 C 239.903992 248.325333 239.518677 248.790665 239.406662 249.350662 C 239.294662 249.91066 239.472 250.489334 239.878662 250.890671 C 241.972 253.475998 244.195999 255.968002 246.363998 258.487976 C 246.79866 258.987976 247.363998 259.274658 247.919998 258.793335 C 248.846664 258.014648 248.513321 257.218689 247.837341 256.430664 C 245.658676 253.929337 243.518677 251.418655 241.350662 248.917343 C 241.052002 248.622665 240.730667 248.353333 240.388 248.110657 Z M 205.810669 299.356018 C 205.857346 300.105347 205.38533 301.208008 206.495987 301.606689 C 207.607986 302.00531 207.950668 300.791992 208.238663 300.041321 C 208.989334 298.08667 211.017334 296.400024 209.794662 293.971985 C 209.613342 293.626648 209.290665 293.375977 208.91066 293.285339 C 208.530655 293.194641 208.130676 293.273315 207.811996 293.5 C 206.190674 295.037354 206.218674 297.242676 205.765335 299.356018 Z M 246.873337 261.711975 C 244.585327 259.034668 242.314651 256.338684 239.979996 253.688004 C 239.590652 253.26268 239.053329 252.216003 238.276001 253.354675 C 237.828003 253.806656 237.828003 254.534668 238.276001 254.985336 C 240.786667 257.542664 242.694656 260.804016 246.82666 261.711975 Z M 198.918655 312.53064 C 201.317337 306.970642 196.573318 305.238647 195.388 302.023987 C 194.331985 305.961304 197.009338 308.490662 198.872009 312.53064 Z M 248.022659 172.425323 C 249.356003 176.131989 251.922668 178.689331 255.360001 181.589325 C 254.656006 176.390656 250.134659 175.297333 247.966675 172.425323 Z M 226.713333 199.154663 C 226.026672 195.514679 223.433334 193.485321 221.23732 191.169342 C 220.755997 190.658661 220.181335 190.492004 219.736008 191.169342 C 219.541336 191.484009 219.365341 192.160004 219.522659 192.308014 C 221.875992 194.623993 224.294662 196.885345 226.703995 199.154663 Z"/>
    <path id="path1" fill="#413c43" fillRule="evenodd" stroke="none" d="M 171.678665 305.395996 C 173.337341 313.38269 169.826675 320.219971 166.666672 327.048004 C 166.468002 327.478668 166.14534 327.839996 165.740005 328.085327 C 155.622665 333.932007 151.028 345.08667 142.365341 352.369354 C 138.844009 355.334686 135.814667 358.854645 132.173599 361.865326 C 133.841324 355.871979 137.510666 351.146637 141.818665 347.041351 C 146.729324 342.409332 150.842667 337.063995 154.993332 331.773346 C 156.901337 329.337341 159.263992 327.538666 161.478668 325.501343 C 165.703995 321.637329 166.73201 315.883972 168.186661 310.482666 C 168.705338 308.518677 167.546677 304.924011 171.771988 305.553345 Z"/>
    <path id="path2" fill="#413c43" fillRule="evenodd" stroke="none" d="M 291.845337 252.641342 C 315.730682 279.945313 335.705353 310.177307 357.227997 339.250671 C 333.685333 311.66803 313.544006 281.557312 291.845337 252.641342 Z"/>
    <path id="path3" fill="#413c43" fillRule="evenodd" stroke="none" d="M 335.667999 370.306671 C 336.993317 376.893341 341.273346 382.470673 342.108002 389.262665 C 338.466675 385.297333 336.928009 380.17334 334.584015 375.560028 C 327.171997 360.893341 320.048004 346.022675 312.894684 331.198669 C 310.717316 326.677338 308.762665 322.054688 306.697327 317.477356 C 306.17868 316.338684 305.076019 314.605347 306.066681 314.039978 C 307.873322 313.012024 308.161346 315.328003 308.670685 316.337341 C 312.376007 323.518677 316.026672 330.708008 319.399994 338.03598 C 322.966675 345.764008 326.756012 353.369354 330.906647 360.800018 C 332.5 363.97464 334.08667 367.144012 335.667999 370.306671 Z"/>
    <path id="path4" fill="#413c43" fillRule="evenodd" stroke="none" d="M 279.264008 372.993317 C 275.817352 370.81601 275.139984 367.23999 272.880005 364.922638 C 272.268005 364.293335 272.175995 362.552002 270.656006 363.552002 C 269.423981 364.368011 270.054657 365.349335 270.656006 366.332001 C 272.602661 369.787994 274.557343 373.233307 276.354675 376.764008 C 277.058685 378.15332 278.309326 379.441315 277.994659 381.93335 C 273.593353 377.681305 272.370667 371.956024 268.803986 367.859985 C 266.385345 369.527985 267.923981 370.90799 268.886658 372.409332 C 272.970673 378.634674 276.35733 385.289337 278.985321 392.254669 C 273.278656 387.149323 271.694672 379.284027 266.718658 373.549316 C 264.032013 376.114655 265.791992 378.024017 267.164001 380.034668 C 272.185333 387.279999 276.094666 395.135986 280.134674 402.937347 C 279.791992 403.131989 279.449341 403.32666 279.114655 403.53067 C 275.066681 396.562653 270.925323 389.633331 267.014679 382.601318 C 265.737335 380.293335 264.782684 378.514648 261.863983 382.081329 C 263.975983 369.685333 270.618683 360.550659 276.32666 350.97998 C 276.965332 353.758667 277.040009 353.833344 273.389343 359.605347 C 272.462677 361.031982 272.462677 361.34668 273.686676 362.819977 C 275.955994 365.590668 278.522675 368.526642 279.264008 372.993317 Z"/>
    <path id="path5" fill="#413c43" fillRule="evenodd" stroke="none" d="M 308.002655 306.378662 C 321.733337 330.773346 335.585327 355.149323 348.593353 379.988007 C 333.324005 356.409332 319.186676 332.320007 308.002655 306.378662 Z"/>
    <path id="path6" fill="#413c43" fillRule="evenodd" stroke="none" d="M 304.787994 320.02533 C 316.397339 344.17868 324.921326 369.556 334.306671 394.589325 C 333.781342 394.800018 333.256012 395.009308 332.731995 395.220001 C 322.910675 370.40799 313.08667 345.600006 303.26001 320.794678 Z"/>
    <path id="path7" fill="#413c43" fillRule="evenodd" stroke="none" d="M 326.950653 394.746674 C 324.64267 389.187988 321.937347 383.629303 320.149323 377.904022 C 317.70401 370.065338 313.997345 362.791992 311.014679 355.213348 C 308.358673 348.456024 305.667999 341.714691 302.944 334.988007 C 302.601349 334.126678 301.888 333.070648 302.944 332.587982 C 304.186676 332.014679 304.630676 333.098663 305.085327 334.237335 C 311.699982 350.663971 319.093353 366.785309 325.032013 383.490692 C 326.291992 387.029327 327.098663 390.726685 328.11734 394.349335 Z"/>
    <path id="path8" fill="#413c43" fillRule="evenodd" stroke="none" d="M 315.285339 380.553345 C 313.52533 373.307983 309.337341 367.082672 306.669342 360.170654 C 304.81601 355.370697 302.574677 350.710663 300.573334 345.957306 C 300.276001 345.253326 299.081329 344.318695 300.276001 343.641327 C 301.472015 342.965332 302.017334 344.03067 302.509338 345.105347 C 306.67868 354.370697 310.921326 363.635986 315.127991 372.899994 C 317.824005 378.847992 320.538666 384.79599 323.14267 390.800018 C 323.818665 392.366669 324.994659 393.904022 324.355988 396.313324 C 321.233337 393.106659 320.918671 388.622681 317.972015 385.806671 C 317.096008 384.082672 316.199982 382.332001 315.285339 380.553345 Z"/>
    <path id="path9" fill="#413c43" fillRule="evenodd" stroke="none" d="M 315.285339 380.553345 C 316.181335 382.332001 317.077332 384.110687 317.972015 385.889313 C 317.619995 389.595978 321.345337 392.162689 321.205353 397.212006 C 317.185333 390.374664 313.571991 384.694672 310.430664 378.755981 C 306.169342 370.713348 302.230682 362.496002 298.274658 354.29599 C 297.718658 353.138672 296.134674 351.248016 298.108002 350.46933 C 299.822662 349.793335 300.480011 352.146637 300.972015 353.378662 C 304.029327 360.985352 308.114655 368.082672 311.746674 375.401337 C 312.682648 377.254669 313.432007 379.293335 315.285339 380.553345 Z"/>
    <path id="path10" fill="#413c43" fillRule="evenodd" stroke="none" d="M 315.350677 395.581329 C 315.146667 395.997314 314.989349 396.841339 314.627991 396.93335 C 313.553314 397.221313 312.997345 396.332001 312.589325 395.497314 C 310.384003 390.985352 308.225342 386.463989 306.002655 381.961334 C 302.824005 375.531982 299.562653 369.138672 296.441315 362.681305 C 295.921326 361.615997 294.634674 359.985352 296.199982 359.197357 C 297.56134 358.511993 298.053314 360.374664 298.600006 361.402679 C 304.010651 372.298676 309.393341 383.202667 314.748016 394.11734 C 314.951996 394.52536 315.100006 394.959991 315.350677 395.581329 Z"/>
    <path id="path11" fill="#413c43" fillRule="evenodd" stroke="none" d="M 267.17334 245.229324 C 268.100006 245.846664 269.02533 246.465332 269.951996 247.082657 C 269.498657 248.814651 270.601349 249.862671 271.5 251.113342 C 277.197327 259.349304 282.746674 267.697327 288.314667 276.026672 C 288.621338 276.47998 289.029327 277.082642 288.065338 278.018677 C 284.137329 275.517334 282.311981 270.958679 278.93866 267.901306 C 278.11734 266.91864 277.29599 265.937317 276.47467 264.954651 C 274.787994 258.746643 269.989349 254.300003 267.20932 248.703995 C 266.450653 247.249329 266.459991 246.406662 267.17334 245.229324 Z"/>
    <path id="path12" fill="#413c43" fillRule="evenodd" stroke="none" d="M 297.922668 376.958649 C 296.718658 374.364014 295.541351 371.761353 294.300018 369.185333 C 293.868011 368.513336 294.053314 367.618652 294.717316 367.174683 C 295.644012 366.526642 296.144012 367.341339 296.477325 367.953339 C 301.573334 377.451996 306.638672 386.968018 311.671997 396.498657 C 311.820007 396.785309 311.458649 397.341339 311.162659 398.350677 C 306.937347 393.458649 304.501343 387.965332 301.573334 382.79599 C 300.405334 380.72934 299.858673 378.274658 297.774658 376.782684 Z"/>
    <path id="path13" fill="#413c43" fillRule="evenodd" stroke="none" d="M 276.493317 264.992004 C 277.314667 265.973328 278.136017 266.955994 278.957336 267.93866 C 278.85202 269.162659 279.179993 270.385315 279.884003 271.393311 C 282.950653 275.201355 285.054657 279.306641 283.191986 284.43866 C 281.033325 281.97467 279.587982 278.786682 277.447998 276.23999 C 275.594666 274.044006 280.032013 273.978638 278.114655 272.098694 C 276.631989 270.643982 275.723999 268.58667 274.677338 266.723999 C 274.074677 265.649353 272.09201 264.546692 273.333344 263.370667 C 274.890656 261.906677 275.214661 264.788025 276.493317 264.992004 Z"/>
    <path id="path14" fill="#413c43" fillRule="evenodd" stroke="none" d="M 297.774658 376.791992 C 298.645325 381.998657 302.333344 386.001343 303.843994 390.93869 C 304.538666 393.209351 305.353333 395.450684 306.104004 397.68399 C 304.250671 398.472015 304.343994 397.137329 304.010651 396.470673 C 300.841339 390.095978 297.697327 383.706665 294.578674 377.301361 C 294.097321 376.318695 293.077332 374.84668 293.921326 374.253326 C 295.440002 373.197357 295.653351 375.272003 296.459991 375.994659 C 296.917328 376.343994 297.403992 376.65332 297.914673 376.921356 Z"/>
    <path id="path15" fill="#413c43" fillRule="evenodd" stroke="none" d="M 335.667999 370.306671 C 334.081329 367.137329 332.493317 363.96933 330.906647 360.800018 C 330.970673 359.873322 331.045319 359.021332 331.221344 356.677338 C 335.869324 365.578644 340.517334 374.478668 345.165314 383.378662 C 340.226654 380.163971 339.754669 374.011993 335.667999 370.306671 Z"/>
    <path id="path16" fill="#413c43" fillRule="evenodd" stroke="none" d="M 271.5 405.123993 C 268.145325 398.536011 266.478668 391.374664 262.335999 385.361328 C 261.706665 384.434662 261.049347 383.397339 262.188019 382.582672 C 262.53598 382.399994 262.945343 382.376007 263.311981 382.515991 C 263.67868 382.656006 263.967987 382.946655 264.106659 383.314667 C 267.472015 389.881348 270.286652 396.718658 272.518677 403.751984 C 272.610657 404.049316 271.880005 404.58667 271.5 405.123993 Z"/>
    <path id="path17" fill="#413c43" fillRule="evenodd" stroke="none" d="M 291.650665 379.033325 C 295.35733 385.232025 298.534668 391.64267 299.989349 398.767975 C 296.144012 392.625336 292.289337 386.510651 291.650665 379.033325 Z"/>
    <path id="path18" fill="#413c43" fillRule="evenodd" stroke="none" d="M 328.11734 368.157349 C 331.146667 375.785309 334.177338 383.41333 337.206665 391.041351 C 336.768005 391.220001 336.329315 391.399994 335.890656 391.578644 C 332.353333 384.135986 329.279999 376.47998 326.690674 368.657349 Z"/>
    <path id="path19" fill="#413c43" fillRule="evenodd" stroke="none" d="M 296.533325 398.545319 C 296.671997 399.472015 296.645325 400.232025 295.894684 400.250641 C 295.301331 400.213348 294.76001 399.901337 294.430664 399.40799 C 292.354675 395.349335 290.372009 391.235992 288.342682 387.158661 C 288.021332 386.609344 288.160004 385.905304 288.667999 385.518677 C 288.873322 385.284027 289.188019 385.175995 289.494659 385.237335 C 289.801331 385.298676 290.050659 385.52002 290.149323 385.81601 C 292.317352 390.152008 294.494659 394.478668 296.533325 398.545319 Z"/>
    <path id="path20" fill="#413c43" fillRule="evenodd" stroke="none" d="M 284.618683 390.180023 C 288.325348 392.958649 289.426666 397.017334 286.962677 401.121338 C 287.657318 396.646637 284.220001 394.089325 284.618683 390.180023 Z"/>
    <path id="path21" fill="#413c43" fillRule="evenodd" stroke="none" d="M 276.929352 346.735992 C 276.002655 342.186676 275.242676 338.657318 274.510651 335.126678 C 276.929352 338.305328 279.485321 341.445343 276.929352 346.735992 Z"/>
    <path id="path22" fill="#413c43" fillRule="evenodd" stroke="none" d="M 263.402679 402.261353 C 262.29068 398.981323 260.242676 395.776001 261.251984 392.069336 C 262.985321 395.26535 264.097321 398.554657 263.402679 402.261353 Z"/>
    <path id="path23" fill="#413c43" fillRule="evenodd" stroke="none" d="M 174.912003 310.315979 C 178.034668 310.435974 180.517334 308.157349 182.630676 310.945313 C 182.73732 311.5 182.564011 312.072021 182.166672 312.47467 C 179.768005 313.122681 177.405334 313.253357 174.912003 310.315979 Z"/>
    <path id="path24" fill="#413c43" fillRule="evenodd" stroke="none" d="M 217.642654 267.901306 C 216.919998 264.389343 212.250671 264.288025 210.841324 259.895996 C 214.686661 262.249329 218.300003 263.203979 217.642654 267.901306 Z"/>
    <path id="path25" fill="#413c43" fillRule="evenodd" stroke="none" d="M 285.989349 290.515991 C 288.241333 294.825317 287.129333 297.798645 285.062653 300.708008 C 285.322662 297.716003 285.637329 294.666687 285.989349 290.515991 Z"/>
    <path id="path26" fill="#413c43" fillRule="evenodd" stroke="none" d="M 324.402679 247.221329 C 321.150665 246.294662 320.066681 243.515991 318.093353 240.245346 C 322.12265 241.699997 323.920013 243.950668 324.281342 247.341324 Z"/>
</svg>
