<?xml version="1.0" encoding="UTF-8"?>
<!-- Generated by Pixelmator Pro 2.4.2 -->
<svg width="454" height="454" viewBox="0 0 454 454" xmlns="http://www.w3.org/2000/svg" xmlns:xlink="http://www.w3.org/1999/xlink">
    <path id="Path" fill="#413c43" fillRule="evenodd" stroke="none" d="M 317.665314 246.361328 C 317.878662 229.801331 306.998657 216.921326 302.865326 201.774658 C 302.478668 200.758667 302.033325 199.765335 301.532013 198.801331 C 296.730682 186.921326 296.743988 186.921326 283.370667 189.347992 C 285.776001 194.609344 288.686676 199.624008 292.063995 204.321335 C 293.037323 205.78801 296.397339 207.708008 292.85202 210.241333 C 289.545319 212.601334 288.998657 209.081345 288.118683 207.801331 C 275.730682 189.748016 260.118683 174.227997 247.771988 156.094666 C 241.918655 147.494659 234.145325 140.094666 228.290665 131.307739 C 227.76268 131.694397 227.233337 132.081055 226.703995 132.467743 C 267.451996 187.578674 308.198669 242.689331 348.944 297.801331 C 348.406647 298.201355 347.869354 298.601318 347.330658 299.001343 C 325.917328 273.66803 307.330658 246.294662 287.478668 219.814651 C 267.625336 193.334686 248.478653 166.374664 228.330673 139.32132 C 226.544006 143.828003 225.664001 147.894653 228.745346 151.441345 C 260.105316 186.934662 285.957336 226.694656 315.70401 263.441345 C 324.544006 274.361328 331.957336 286.454651 342.198639 296.241333 C 343.384003 297.374695 344.638672 299.094666 343.397339 300.947998 C 341.970673 303.08136 340.078674 301.614685 338.70401 300.947998 C 335.131989 299.294678 331.717316 297.281311 328.330658 295.441345 C 325.478668 296.987976 330.785339 299.814636 327.425323 300.681335 C 325.09201 301.281311 324.478668 298.441345 323.277313 297.028015 C 315.425323 287.801331 307.717316 278.454651 299.863983 269.241333 C 298.53067 267.66803 297.197327 265.388 293.930664 266.788025 C 299.157318 275.427979 306.623993 282.14801 312.677338 289.97467 C 314.650665 292.547974 317.145325 294.708008 319.223999 297.201355 C 320.223999 298.401306 322.743988 299.801331 320.650665 301.481323 C 318.558685 303.161316 317.637329 300.294678 316.650665 299.201355 C 308.650665 290.067993 300.478668 281.054688 293.078674 271.454651 C 290.105316 267.601318 287.037323 265.468018 280.944 264.934692 C 287.197327 273.601318 292.850677 281.454651 298.544006 289.268005 C 301.210663 292.987976 304.024017 296.681335 306.903992 300.268005 C 307.984009 301.601318 308.984009 303.14801 307.53067 304.268005 C 305.824005 305.601318 304.730682 303.507996 303.917328 302.427979 C 296.930664 293.094666 290.063995 283.654663 283.11734 274.281311 C 269.660004 255.770676 255.253342 237.969345 239.957336 220.947998 C 237.530655 223.934677 240.077332 225.521347 241.223999 227.241333 C 251.890671 243.147995 264.277313 257.681335 275.783997 272.921326 C 283.063995 282.56134 290.743988 291.921326 298.144012 301.481323 C 298.957336 302.547974 300.610657 303.588013 298.903992 307.187988 C 278.664001 282.801331 260.237335 258.001343 241.383987 233.494675 C 239.250671 240.641342 239.637329 240.44133 245.277328 245.601334 C 249.143997 249.134659 251.863998 253.881332 255.17067 258.028015 C 267.810669 273.761353 280.454681 289.489319 293.104004 305.214661 C 293.997345 306.32135 295.677338 307.454651 293.930664 309.107971 C 291.850677 311.08136 291.157318 308.507996 290.477325 307.66803 C 280.810669 295.66803 271.277313 283.66803 261.70401 271.574646 C 258.430664 267.32135 254.905334 263.269348 251.143997 259.441345 C 259.570648 279.708008 277.343994 293.574646 287.544006 312.66803 C 275.144012 300.947998 265.957336 286.521362 254.650681 273.334656 C 251.330673 279.867981 255.890671 283.228027 258.903992 286.348022 C 268.810669 296.574646 275.277313 309.414673 284.903992 320.028015 C 276.677338 314.32135 267.570648 310.201355 259.743988 303.761353 C 261.930664 308.388 266.264008 311.761353 267.11734 317.094666 C 250.903992 303.14801 240.783997 283.49469 224.037338 270.14801 C 223.512009 270.59198 222.987991 271.036011 222.464005 271.481323 C 228.143997 279.08136 233.770676 286.708008 239.504013 294.254639 C 245.383987 302.001343 251.370667 309.66803 257.277313 317.388 C 257.984009 318.32135 259.730682 319.334656 257.970673 320.547974 C 256.757324 321.374695 255.810669 320.547974 254.850662 319.214661 C 249.157333 311.507996 243.250671 303.934692 237.517334 296.307983 C 231.450668 288.307983 225.423996 280.307983 219.317337 272.307983 C 218.184006 279.574646 222.517334 284.307983 226.450668 289.294678 C 234.210678 299.094666 241.957336 308.90802 249.544006 318.828003 C 250.343994 319.881348 253.464005 320.97467 250.99733 322.828003 C 249.450668 323.987976 248.330673 321.681335 247.530655 320.641357 C 238.837341 309.334656 229.143997 298.788025 221.610657 286.574646 C 217.970657 288.90802 219.770676 291.08136 221.357346 293.161316 C 228.703995 302.814636 235.783997 312.681335 243.597336 321.934692 C 246.263992 325.107971 244.517334 326.254669 242.783997 327.748016 C 239.810669 330.294647 239.984009 326.254669 238.99733 325.374695 C 235.41066 322.121338 233.263992 317.468018 228.570663 314.961304 C 231.530655 321.361328 236.570663 326.667999 237.903992 334.268005 C 230.597336 324.934692 223.23732 315.708008 216.010666 306.268005 C 211.423996 300.228027 208.530655 293.97467 213.99733 286.521362 C 216.157333 283.574646 212.664001 280.49469 212.557327 276.721313 C 207.223999 280.468018 204.477341 285.614685 200.464005 289.56134 C 194.250671 295.694641 187.624008 300.441345 178.890671 302.894653 C 167.370667 306.187988 157.957336 313.774658 148.703995 321.268005 C 147.237335 322.454651 145.82399 323.708008 143.17067 325.961304 C 147.624008 311.881348 158.490662 306.854675 168.503998 300.841309 C 173.930664 297.601318 180.357346 297.56134 185.837341 294.56134 C 195.650681 289.228027 201.624008 280.348022 207.423996 271.294678 C 210.423996 266.641357 213.117325 262.134644 219.903992 261.774658 C 224.717331 261.521362 227.770676 263.66803 231.117325 266.161316 C 232.82399 267.49469 234.383987 270.881348 236.943985 267.614685 C 239.304001 264.614685 244.397339 262.654663 241.850662 257.401306 C 240.23732 254.054672 238.223999 250.908005 236.104004 247.161331 C 231.570663 251.014664 228.357346 255.908005 222.517334 257.294678 C 222.517334 256.49469 222.357346 255.961319 222.517334 255.761337 C 226.517334 252.094666 232.517334 249.534668 233.370667 243.761337 C 234.610657 235.427994 232.650681 227.014664 231.370667 218.734665 C 230.984009 216.281326 229.143997 214.067993 226.210678 216.987991 C 217.504013 225.681335 207.650681 233.547989 200.464005 243.348007 C 195.890671 249.587997 189.584 252.37468 184.090652 258.268005 C 183.903992 252.641342 194.290665 251.841324 187.770676 245.708008 C 157.797333 268.468018 131.876938 297.028015 97.957062 317.228027 C 101.437065 309.348022 104.623726 302.867981 111.810402 298.56134 C 126.663734 289.601318 138.010666 276.254639 151.543991 265.588013 C 162.437332 257.014648 172.717331 247.668015 183.290665 238.694656 C 184.056015 237.878662 185.042664 237.304001 186.130676 237.041336 C 194.810669 236.574661 198.677322 229.361328 204.157333 224.414673 C 205.811996 222.921326 206.970657 220.957336 207.477341 218.78801 C 211.23732 203.708008 215.050659 188.654663 219.23732 172.014679 C 214.423996 177.627991 211.544006 183.001343 205.783997 185.73465 C 219.343994 171.334686 221.917343 153.73468 221.450668 135.067993 C 216.810669 135.627991 214.397339 137.921326 212.690674 142.094666 C 202.850662 166.014679 188.530655 187.134674 171.17067 206.20134 C 169.210663 208.37468 168.503998 209.507996 170.770676 211.774658 C 172.104004 213.107986 173.624008 214.668015 173.570663 216.894669 C 173.570663 218.228012 173.890671 219.748001 172.317337 220.334671 C 171.773331 220.481323 171.190674 220.38533 170.722672 220.070663 C 170.254669 219.755997 169.946671 219.253342 169.877335 218.694656 C 169.210663 215.20134 165.41066 214.321335 163.957336 211.094666 C 162.944 208.854675 158.877335 206.294662 155.957336 212.107986 C 153.037338 217.921326 150.210663 225.627991 140.677338 225.161331 C 142.059998 227.098679 143.44133 229.035995 144.82399 230.97467 C 140.557327 231.61467 139.584 227.361328 136.664001 226.814651 C 135.250671 224.854675 133.837326 222.894669 132.423996 220.934677 C 132.53067 217.761337 129.650803 216.601334 128.090668 214.56134 C 126.53067 212.521347 125.304138 212.348007 123.704002 214.921326 C 115.223999 228.721329 101.717339 237.507996 90.023994 248.081345 C 84.077332 253.414673 76.143867 255.574661 69.090668 259.094666 C 54.050663 266.614685 38.743999 273.601318 23.490799 280.681335 C 22.437332 281.174683 21.410667 282.56134 19.490801 281.414673 C 23.197466 274.987976 29.464134 271.614685 35.490799 268.241333 C 49.077332 260.56134 62.984131 253.427994 76.717468 246.067993 C 92.573334 237.773331 106.170006 225.742676 116.331734 211.014664 C 122.785065 201.507996 126.331734 201.214661 134.625336 209.014664 C 143.451996 217.307999 143.465332 217.321335 149.878662 207.001343 C 152.865341 202.188004 156.238663 198.481323 162.745331 200.774658 C 165.412003 201.708008 166.838669 199.321335 168.158676 197.708008 C 182.945328 179.614655 197.291992 161.214661 207.091995 139.774658 C 210.518677 132.294403 217.531998 127.774414 222.132004 121.107727 C 224.478653 117.761078 229.078674 118.774414 231.865341 122.361053 C 236.892014 128.774414 241.198669 135.787994 246.838669 141.654663 C 256.052002 151.308014 262.67868 162.761322 270.345337 173.467987 C 274.838654 179.721344 279.518677 182.494659 287.598663 179.934662 C 296.065338 177.268005 303.131989 179.241333 309.278656 187.361328 C 317.105316 197.667999 327.945343 205.454666 337.278656 214.468002 C 350.958649 227.627991 363.198639 242.468002 380.09201 251.801331 C 395.705322 260.414673 412.358673 266.921326 428.732025 273.961304 C 430.145355 274.574646 431.652008 275.014648 432.985352 275.761353 C 434.877319 276.721313 435.690674 278.992004 434.838654 280.934692 C 433.998657 283.268005 431.85202 282.268005 430.225342 282.014648 C 428.038666 281.694641 425.398682 278.468018 424.451996 283.641357 C 424.145355 285.32135 422.958649 283.307983 422.145355 282.934692 C 417.638672 280.894653 415.61203 275.401306 409.652008 273.97467 C 410.425323 279.521362 416.43869 280.801331 416.67868 286.201355 C 408.118652 277.641357 401.065338 266.921326 387.065338 265.468018 C 394.278687 273.468018 404.171997 278.641357 408.998657 288.49469 C 396.61203 278.041321 385.571991 266.067993 371.251984 257.721313 C 376.998657 263.97467 382.692017 270.281311 388.585327 276.468018 C 392.09201 280.187988 395.85202 283.66803 399.371979 287.361328 C 400.385345 288.427979 403.065338 289.547974 400.705322 291.427979 C 398.785309 292.961304 398.505341 290.414673 397.491974 289.468018 C 378.958649 272.441345 364.158661 251.774658 344.798676 235.521347 C 360.02536 254.41066 375.371979 273.223999 390.838654 291.961304 C 359.332001 261.681335 334.838654 225.294662 303.412018 193.934662 C 304.745331 204.414673 310.318665 212.081345 316.745331 218.56134 C 328.85202 230.78801 339.011993 244.587997 350.225342 257.521362 C 359.772003 268.534668 369.273315 279.574646 378.732025 290.641357 C 379.785309 291.881348 382.185333 293.214661 380.425323 294.881348 C 378.451996 296.747986 377.625336 294.14801 376.558685 292.867981 C 356.735992 269.285339 336.891998 245.730667 317.02533 222.20134 C 316.238678 221.281326 315.691986 219.854675 312.345337 220.134659 C 329.532013 248.801331 354.251984 270.414673 374.652008 295.374695 C 374.101318 295.818665 373.549316 296.262695 372.998657 296.708008 C 372.998657 296.708008 325.052002 243.574661 325.052002 243.574661 C 324.606659 243.97467 324.162659 244.37468 323.718658 244.774658 C 336.940002 259.83197 350.162689 274.889343 363.385345 289.947998 C 362.975983 290.32135 362.56665 290.694641 362.158661 291.067993 C 347.171997 278.094666 337.318665 259.881348 320.398651 248.881332 Z M 329.305328 287.014648 C 294.291992 243.654663 262.238678 198.028 227.265335 152.254669 C 226.38533 158.187988 225.932007 161.73468 228.985336 165.081329 C 232.38533 168.814667 235.572006 172.748016 238.62532 176.761322 C 251.598679 193.868011 264.318665 211.161331 277.451996 228.147995 C 289.705353 243.987991 302.691986 259.281311 314.625336 275.361328 C 318.638672 280.681335 322.691986 285.001343 329.358673 287.014648 Z M 226.265335 167.574677 C 225.230667 170.189331 225.550659 173.146667 227.118668 175.481323 C 234.771988 187.481323 243.291992 198.828003 251.838669 210.147995 C 263.478668 225.574661 274.985321 241.094666 288.212006 255.241333 C 289.918671 257.054688 291.985321 258.427979 293.545319 256.987976 C 295.105316 255.547989 292.625336 254.081345 291.585327 252.801331 C 275.665314 233.241333 260.545319 213.067993 245.585327 192.801331 C 239.425339 184.388 233.945328 175.401337 226.265335 167.574677 Z M 240.572006 200.547989 C 235.705338 193.32132 231.238663 186.441315 226.452011 179.694672 C 224.745346 177.254669 223.425339 178.56134 223.105331 180.73465 C 222.825333 182.601349 222.343994 184.587982 223.717331 186.441315 C 228.012009 192.294647 229.265335 201.454666 240.572006 200.56134 Z M 221.665329 188.108002 C 217.665329 195.32132 221.43866 199.681335 225.412003 203.78801 C 226.318665 204.734665 226.492004 207.867996 228.905334 206.147995 C 230.330673 204.985336 230.616013 202.919998 229.55867 201.414673 C 226.998657 197.174652 224.478653 192.90799 221.665329 188.108002 Z M 237.665329 271.307983 C 241.38533 271.681335 242.251999 279.054688 246.21199 275.534668 C 248.745346 273.268005 248.358658 266.401306 245.397339 264.867981 C 241.305344 262.708008 240.958664 269.454651 237.665329 271.307983 Z M 218.291992 199.654663 C 215.62532 204.268005 218.55867 207.188004 220.958664 210.241333 C 222.185349 211.841324 223.02533 210.828003 224.052002 209.867996 C 225.078674 208.908005 225.705338 208.134659 224.398666 206.761337 C 222.238663 204.587997 220.398666 202.241333 218.251999 199.654663 Z"/>
</svg>
