<?xml version="1.0" encoding="utf-8"?>
<svg x="0pt" y="0pt" width="256pt" height="256pt" viewBox="0 0 256 256" xmlns="http://www.w3.org/2000/svg" xmlns:xlink="http://www.w3.org/1999/xlink">
  <g id="1">
    <title>Layer 1</title>
    <defs>
      <title>Shape 121</title>
      <g id="2">
        <defs>
          <path id="3" d="M173.105,176.695 C173.424,179.197,172.43,178.871,171.153,177.551 C168.186,174.475,165.284,171.333,162.324,168.258 C159.901,165.755,157.427,163.303,154.91,160.756 C153.938,164.681,154.678,166.183,158.211,167.119 C159.509,167.402,160.645,168.184,161.374,169.295 C163.65,172.818,166.61,175.847,170.079,178.204 C172.495,179.814,171.124,181.294,170.29,182.368 C168.933,184.109,167.889,182.52,166.866,181.49 C163.941,178.659,161.36,175.493,159.176,172.059 C157.877,169.933,155.157,169.962,153.155,171.464 C149.136,174.467,145.828,178.457,140.909,180.257 C143.47,177.892,145.987,175.483,148.708,173.35 C151.667,170.985,154.388,169.259,151.015,165.305 C150.565,164.775,150.645,163.803,150.441,162.853 C148.461,164.122,147.126,166.103,144.971,166.756 C144.73,166.497,144.488,166.238,144.246,165.98 C145.167,165.298,146.06,164.587,147.003,163.941 C149.955,161.917,150.63,159.516,148.541,156.411 C145.262,151.521,143.927,145.841,142.302,139.812 C140.677,142.117,139.052,144.421,137.427,146.726 C137.18,144.194,138.247,142.867,139.074,141.648 C141.269,138.713,141.832,134.867,140.568,131.426 C138.994,126.682,137.666,121.843,136.041,117.127 C134.888,113.877,133.596,116.873,132.769,117.447 C128.83,120.196,126.901,124.541,124.702,128.568 C123.868,130.091,122.78,130.853,120.937,132.093 C121.866,129.496,123.353,127.871,124.115,125.855 C126.015,120.827,124.942,115.865,124.76,110.874 C124.71,109.423,125.399,108.074,125.247,106.057 C124.035,107.928,123.121,109.358,122.207,110.78 C123.6,103.525,129.193,97.1772,126.473,89.1754 C122.541,90.4015,120.959,93.5862,119.254,97.286 C116.2,103.902,112.95,110.663,106.987,115.314 C103.418,118.092,101.713,122.358,98.2813,125.267 C97.1134,126.254,97.4688,128.952,97.4543,130.345 C97.4036,134.466,94.7484,137.027,93.3047,140.269 C93.2334,140.489,93.0998,140.683,92.9202,140.828 C92.1295,141.314,91.4257,143.73,91.0413,144.608 C89.721,147.655,89.9168,150.977,89.2712,154.075 C88.2121,154.176,88.408,153.444,88.4224,153.161 C88.7706,146.878,87.8058,140.255,92.7751,135.126 C93.2278,134.74,93.3725,134.102,93.1306,133.559 C92.3108,131.071,92.7316,128.597,93.3555,125.963 C87.784,129.721,86.188,135.859,83.0033,140.98 C81.088,144.064,81.7627,145.971,83.9028,148.126 C82.7348,149.171,81.5958,146.588,80.8051,148.177 C79.5138,150.752,79.8692,153.618,79.4194,156.788 C75.7922,152.842,73.166,148.155,69.3864,143.149 C69.6113,147.016,71.8819,148.823,73.0717,151.13 C74.2615,153.436,76.3072,155.25,76.5031,158.993 C74.3267,155.649,72.6147,153.016,70.8953,150.39 C70.4963,149.78,70.3295,148.547,69.2267,149.345 C68.124,150.143,69.0961,150.854,69.5242,151.521 C70.6487,153.219,71.7804,154.909,72.9846,156.541 C75.8429,160.444,76.1549,162.04,72.8396,165.247 C70.1409,167.851,68.4216,171.689,64.0761,172.639 C63.6626,170.804,62.6905,168.947,62.8429,165.805 C61.4863,168.889,60.5359,171.036,59.5856,173.191 C59.513,169.476,61.1526,166.226,62.2262,162.831 C63.4884,159.232,64.4588,155.537,65.128,151.782 C65.6648,148.155,66.1073,144.477,66.5789,140.618 C60.5576,145.754,56.2847,152.305,49.5959,156.164 C56.125,150.527,61.0219,143.389,66.6732,136.976 C67.065,136.526,67.7396,136.171,67.8775,135.663 C68.4216,133.733,71.3016,135.387,71.454,133.414 C71.6717,130.606,71.5048,127.77,71.5048,124.984 C70.7141,124.984,70.3368,124.861,70.3005,124.933 C66.3757,133.16,58.0113,137.331,52.6646,144.252 C51.0396,146.363,48.3844,146.813,46.2661,147.154 C37.0745,148.677,29.8853,154.249,21.9705,158.37 C19.1123,159.864,16.3265,161.496,13.4392,162.94 C11.8287,163.745,9.73934,163.861,8.95579,162.171 C8.23033,160.633,9.78282,159.784,11.3426,158.986 C17.3058,155.925,23.2763,152.82,28.8913,149.185 C33.527,146.189,38.5327,144.506,43.7414,143.106 C45.5769,142.613,48.1594,142.431,49.0083,141.176 C53.361,134.705,61.4063,131.963,65.1787,124.897 C66.3176,122.764,68.6682,121.328,69.4299,118.803 C69.7201,117.831,70.4383,117.447,71.3669,118.165 C71.6281,118.368,71.911,118.999,71.9473,118.985 C78.636,115.401,80.2465,122.155,83.3515,125.028 C85.7528,127.247,86.841,126.725,88.0234,124.621 C89.8297,121.408,91.9626,119.101,96.0034,120.116 C96.5911,120.269,96.9827,120.167,97.2077,119.739 C99.725,114.936,104.738,112.484,107.879,108.175 C110.095,105.069,112.134,101.84,113.988,98.5049 C116.889,93.4267,121.01,89.19,123.948,84.1045 C125.994,80.5716,132.965,80.6224,135.657,83.9014 C136.541,85.0274,137.357,86.2047,138.102,87.4271 C142.193,93.7967,146.401,100.043,152.429,104.838 C153.887,106.105,155.159,107.57,156.209,109.191 C159.205,113.493,159.162,113.544,163.13,110.576 C166.576,108.016,168.498,108.074,171.509,110.917 C176.101,115.27,180.069,120.225,185.198,124.055 C187.687,125.92,190.277,127.559,192.866,129.301 C193.548,129.772,194.404,130.469,195.173,129.903 C198.96,127.139,202.036,129.511,205.127,131.245 C218.083,138.543,231.011,145.892,243.91,153.291 C245.012,153.93,246.267,153.727,247.254,154.467 C247.914,154.967,249.43,154.38,249.205,155.983 C248.988,157.47,247.667,156.861,246.869,157.02 C243.583,157.673,240.805,156.142,238.055,154.692 C234.428,152.784,231.047,150.339,226.956,149.367 C230.75,152.087,234.544,154.808,238.338,157.528 C238.099,157.891,237.859,158.254,237.613,158.609 C226.216,151.354,215.508,143.091,204.176,135.786 C204.002,136.028,203.828,136.27,203.654,136.512 C203.654,136.512,232.715,158.159,232.715,158.159 C232.474,158.481,232.232,158.802,231.99,159.124 C221.311,152.813,212.004,144.484,201.854,137.208 C200.962,139.428,202.515,140.015,203.61,140.879 C210.944,146.682,218.743,151.848,226.382,157.231 C227.538,158.018,228.525,159.03,229.284,160.205 C220.063,155.128,211.351,149.176,203.269,142.431 C202.268,145.398,204.082,146.363,205.91,147.241 C212.519,150.426,217.836,155.475,223.763,159.646 C224.104,159.879,224.191,160.466,224.191,161.17 C217.22,156.404,210.408,151.427,202.885,147.459 C208.862,153.306,216.095,157.615,222.581,162.918 C218.823,162.352,216.313,159.451,213.266,157.608 C210.089,155.693,207.702,152.53,203.037,150.934 C206.906,154.249,210.775,157.564,214.644,160.88 C212.555,161.605,211.743,160.249,210.763,159.363 C207.136,155.997,202.058,153.676,201.006,148.482 C200.179,144.39,197.502,142.076,195.035,139.348 C194.325,138.387,193.065,138.012,191.945,138.427 C192.67,140.327,195.202,140.705,195.775,143.505 C186.221,136.838,178.865,128.386,168.999,122.111 C169.572,125.739,172.256,126.66,174.128,128.205 C182.717,135.3,191.379,142.308,200.244,149.534 C197.944,150.411,196.987,148.576,195.833,147.785 C192.605,145.609,189.776,142.823,186.257,141.031 C180.826,136.224,175.395,131.416,169.964,126.609 C170.37,129.866,172.982,131.201,174.94,132.892 C178.451,135.931,181.68,139.486,186.337,140.937 C186.174,141.192,186.121,141.503,186.192,141.797 C186.264,142.092,186.452,142.345,186.714,142.497 C193.969,147.488,200.099,153.785,206.962,159.182 C208.094,160.074,209.312,160.872,210.488,161.714 C210.06,162.198,209.632,162.681,209.204,163.165 C196.348,151.463,182.108,141.488,169.303,129.743 C169.224,131.68,169.34,131.919,170.696,133.087 C180.679,141.401,190.487,149.918,199.657,159.146 C200.02,159.468,200.245,159.917,200.288,160.401 C192.373,155.359,186.272,148.126,178.647,142.678 C183.682,150.034,190.175,156.106,196.015,162.896 C195.197,162.389,194.416,161.825,193.679,161.206 C187.665,155.482,180.193,151.449,174.94,144.818 C179.975,152.646,187.055,158.602,194.107,165.697 C189.696,165.806,187.904,162.795,184.785,161.09 C186.062,164.268,188.18,166.168,190.284,168.163 C188.949,169.15,187.542,166.923,186.243,168.613 C185.336,169.81,184.886,168.352,184.451,167.815 C179.489,161.728,173.446,156.745,167.889,151.267 C167.011,150.287,165.905,149.54,164.668,149.091 C164.668,150.876,165.974,151.514,166.844,152.406 C171.618,157.354,176.471,162.236,181.23,167.198 C181.956,167.982,183.334,169.07,182.014,170.202 C180.693,171.333,180.273,169.556,179.728,168.881 C171.538,158.674,161.708,150.02,153.235,140.045 C150.681,137.048,147.982,134.161,145.073,130.911 C144.972,133.392,146.154,134.691,147.424,135.989 C158.052,146.682,167.664,158.275,177.363,169.796 C178.205,170.797,179.99,171.812,177.9,173.561 C175.992,175.157,175.078,173.829,174.063,172.668 C165.879,163.288,157.029,154.488,149.397,144.608 C148.824,143.882,148.178,143.157,147.025,141.822 C147.235,145.362,149.201,146.849,150.652,148.605 C157.907,157.448,165.887,165.552,173.7,173.894 C174.316,174.562,175.796,174.99,174.781,176.47 C174.193,177.333,173.801,176.47,173.33,176.47 C173.236,175.099,172.082,174.46,171.284,173.568 C164.233,165.98,157.167,158.391,150.086,150.803 C149.702,152.348,150.746,153.4,151.537,154.568 C154.635,159.197,158.886,162.809,162.637,166.828 C165.901,170.289,168.948,174.141,173.105,176.695 z M66.1142,160.125 C64.5762,160.735,64.0321,161.699,64.9171,163.266 C65.8022,164.833,66.1069,167.068,68.0148,167.728 C68.9652,168.054,69.1683,167.053,68.9797,165.834 C68.6097,163.484,66.0778,162.389,65.9908,160.031 C69.1538,160.415,68.8926,163.854,71.3592,166.023 C71.3592,161.83,68.3703,160.045,67.0064,156.875 C66.5857,158.42,65.5048,159.015,66.1142,160.125 z M139.458,110.206 C136.273,107.261,133.973,103.409,130.186,101.022 C131.942,104.816,135.018,107.508,137.847,110.388 C138.217,110.765,138.986,110.591,139.494,110.156 C138.645,111.549,139.864,112.412,140.415,113.369 C142.418,116.873,145.987,118.919,148.519,121.973 C155.723,130.635,163.754,138.536,171.734,146.428 C172.241,146.929,172.648,148.017,173.801,147.219 C162.358,134.857,150.91,122.52,139.458,110.206 z M144.268,120.464 C146.031,123.366,147.22,126.914,149.643,129.068 C159.183,137.578,166.677,148.046,176.275,156.433 C178.03,157.963,179.699,160.916,183.333,159.45 C169.702,146.878,156.579,134.125,144.268,120.464 z M160.895,129.533 C160.801,129.212,160.657,128.908,160.467,128.633 C150.761,118.723,142.737,107.348,133.241,97.257 C132.646,96.6186,132.276,94.834,130.934,95.9874 C129.875,96.8943,130.31,98.1638,131.246,99.1504 C132.965,100.986,134.67,102.836,136.375,104.678 C144.289,113.239,152.008,121.981,160.895,129.533 z M167.156,113.754 C165.117,115.582,161.091,114.893,160.968,118.542 C160.808,123.083,163.224,126.319,167.178,128.822 C168.404,123.598,165.458,118.767,167.156,113.754 z M175.811,171.29 C166.307,159.392,156.666,147.647,145.675,137.085 C154.961,149.156,165.299,160.307,175.811,171.29 z M130.607,88.051 C130.375,92.3312,139.001,103.387,145.748,107.776 z M78.8024,149.497 C79.0345,145.913,74.7688,139.892,71.0182,138.347 C73.3615,142.206,75.516,145.993,78.8024,149.475 z M72.3748,161.83 C73.9055,157.702,70.3146,155.896,68.5009,152.399 C67.0137,157.245,71.1633,158.928,72.3894,161.808 z M200.164,141.858 C199.946,139.428,199.33,137.73,199.207,135.931 C199.134,134.77,198.184,133.798,196.385,134.393 C194.332,135.061,195.761,136.229,195.935,136.874 C196.493,138.884,198.039,140.284,200.164,141.836 z M82.2846,138.521 C81.5592,133.777,78.0915,130.541,75.4871,126.914 C76.5753,131.412,79.5351,134.894,82.2846,138.499 z M80.783,141.822 C80.7177,137.897,77.5909,135.677,75.7846,132.703 C75.886,136.555,78.7806,138.942,80.7829,141.8 z M134.779,109.568 C133.328,107.958,131.826,106.296,130.288,104.686 C130.237,104.628,129.715,104.903,129.512,105.114 C129.319,105.255,129.195,105.472,129.171,105.71 C129.148,105.948,129.227,106.185,129.389,106.361 C130.535,107.696,131.608,109.096,132.856,110.322 C133.582,111.07,134.329,110.714,134.779,109.568 z M158.719,120.269 C158.719,114.994,154.613,114.218,152.066,112.129 C154.09,114.588,156.107,117.069,158.719,120.269 z M159.183,124.418 C161.843,127.119,164.503,129.82,167.163,132.521 C164.95,129.402,162.455,126.5,159.198,124.418 z M161.461,143.556 C159.089,140.896,156.717,138.236,154.344,135.576 C154.975,140.284,158.436,141.735,161.476,143.556 z"/>
        </defs>
        <use xlink:href="#3" style="fill:#000000;fill-opacity:1;fill-rule:evenodd;opacity:1;stroke:none;"/>
      </g>
    </defs>
    <use xlink:href="#2"/>
    <defs>
      <title>Shape 160</title>
      <g id="4">
        <defs>
          <path id="5" d="M105.369,149.969 C110.94,144.818,114.618,138.086,119.834,132.558 C119.972,135.51,117.426,137.085,116.207,139.232 C114.234,142.707,111.223,145.609,108.524,148.663 C107.755,149.519,106.899,150.955,105.267,149.903 z"/>
        </defs>
        <use xlink:href="#5" style="fill:#000000;fill-opacity:1;fill-rule:evenodd;opacity:1;stroke:none;"/>
      </g>
    </defs>
    <use xlink:href="#4"/>
    <defs>
      <title>Shape 187</title>
      <g id="6">
        <defs>
          <path id="7" d="M105.267,149.889 C103.337,152.972,102.017,156.476,99.1079,158.906 C101.147,155.896,101.545,151.761,105.361,149.961 z"/>
        </defs>
        <use xlink:href="#7" style="fill:#000000;fill-opacity:1;fill-rule:evenodd;opacity:1;stroke:none;"/>
      </g>
    </defs>
    <use xlink:href="#6"/>
    <defs>
      <title>Shape 192</title>
      <g id="8">
        <defs>
          <path id="9" d="M115.917,121.77 C115.975,125.115,114.19,127.53,111.477,129.46 z"/>
        </defs>
        <use xlink:href="#9" style="fill:#000000;fill-opacity:1;fill-rule:evenodd;opacity:1;stroke:none;"/>
      </g>
    </defs>
    <use xlink:href="#8"/>
    <defs>
      <title>Shape 200</title>
      <g id="10">
        <defs>
          <path id="11" d="M106.174,174.018 C108.66,172.107,111.146,170.197,113.632,168.287 C112.123,171.406,109.388,173.038,106.174,174.018 z"/>
        </defs>
        <use xlink:href="#11" style="fill:#000000;fill-opacity:1;fill-rule:evenodd;opacity:1;stroke:none;"/>
      </g>
    </defs>
    <use xlink:href="#10"/>
    <defs>
      <title>Shape 203</title>
      <g id="12">
        <defs>
          <path id="13" d="M38.5686,165.022 C41.2238,163.832,42.6021,160.669,46.6356,159.799 C43.7846,162.505,41.7388,164.63,38.5686,165.022 z"/>
        </defs>
        <use xlink:href="#13" style="fill:#000000;fill-opacity:1;fill-rule:evenodd;opacity:1;stroke:none;"/>
      </g>
    </defs>
    <use xlink:href="#12"/>
  </g>
</svg>
