<?xml version="1.0" encoding="UTF-8"?>
<!-- Generated by Pixelmator Pro 2.4.2 -->
<svg width="341" height="341" viewBox="0 0 341 341" xmlns="http://www.w3.org/2000/svg" xmlns:xlink="http://www.w3.org/1999/xlink">
    <path id="Path" fill="#413c43" stroke="none" d="M 139.001328 199.486679 C 136.409332 200.271988 135.537338 198.544006 134.979996 196.604004 C 134.018661 193.021347 133.606674 189.313339 133.754669 185.607986 C 133.801331 183.046677 133.362671 181.067993 130.832932 179.61467 C 126.811462 177.258667 127.0784 172.749329 126.402931 168.979996 C 125.617462 164.682663 125.79026 160.213333 125.523201 155.822662 C 125.444672 154.55867 125.837463 152.925339 124.38427 152.352005 C 123.056938 151.833328 122.491463 153.514664 121.721596 154.205338 C 116.388397 158.917343 112.594666 165.059998 107.834801 170.322662 C 103.483337 175.129333 98.369995 179.065323 93.04467 183.345337 C 94.018532 180.085327 94.945465 178.216003 99.846672 174.218674 C 109.547066 166.317337 114.503334 155.319992 119.820801 144.543991 C 121.784401 140.617325 121.556671 136.006668 121.996529 131.6548 C 122.782005 123.933868 125.452538 116.582001 125.986664 108.750931 C 126.348 103.425598 125.091194 98.492935 124.564934 92.821869 C 121.894402 99.537598 119.545868 105.711197 118.16346 112.309067 C 117.126671 117.233871 115.100136 122.802658 111.235741 125.536133 C 103.491203 131.034271 102.525063 140.028 97.883064 147.018661 C 93.767204 153.184006 89.502266 159.216003 84.805199 164.942673 C 84.135063 165.746658 83.223335 166.314667 82.20533 166.559998 C 79.526131 167.335999 77.296799 169.203995 76.063065 171.705338 C 73.054802 177.870667 67.776535 181.916 63.3936 186.817337 C 57.172932 193.768005 51.101334 200.88533 45.925201 208.684006 C 44.952534 210.390671 43.6432 211.882675 42.076401 213.067993 C 32.650932 219.217316 23.225466 225.273346 13.24236 231.737335 C 15.316001 226.73465 19.172533 224.330658 22.848534 222.311981 C 35.667065 215.11734 46.765598 206.360001 54.093868 193.250671 C 56.799866 188.349319 60.506268 184.073318 64.972534 180.698669 C 68.239998 178.23999 70.541328 174.870667 72.552132 171.398666 C 73.828667 168.981339 75.639198 166.88533 77.846138 165.272003 C 86.973061 159.161331 91.945068 149.88533 96.971863 140.655991 C 99.069069 136.806671 100.8992 132.801468 102.7528 128.83493 C 103.767998 126.758804 105.371468 125.026932 107.363464 123.855209 C 110.874397 121.553864 112.311867 117.375198 113.788536 113.54213 C 116.537598 106.42601 117.275871 98.61853 121.132538 91.839996 C 122.035736 90.269058 123.873726 88.980942 123.4888 86.671738 C 123.378807 85.98053 124.274269 85.242264 125.059731 85.23439 C 126.410667 85.23439 127.172668 86.145462 127.8088 87.300125 C 130.165207 91.628006 130.722931 96.67067 133.173462 100.998398 C 135.278671 104.721466 136.912003 108.695862 138.914658 112.481857 C 140.918671 116.267731 144.193329 118.859726 148.057327 120.60347 C 149.707993 121.349594 150.877335 122.276398 151.286667 124.090805 C 153.461334 133.838669 158.85733 142.155991 163.272003 150.906662 C 164.772003 153.898666 166.41333 156.844009 168.031998 159.766663 C 169.037338 161.549332 170.003998 162.185333 171.692001 160.072006 C 174.528 156.53067 177.709335 153.262665 180.771988 149.916 C 181.557327 149.053329 182.546677 147.890671 183.763992 148.478668 C 187.76268 150.434662 187.346664 147.450668 188.556015 145.109329 C 190.370667 141.606674 192.609329 138.300003 193.810669 134.498672 C 197.510666 122.810532 200.973328 111.04454 204.861328 99.419724 C 206.393326 94.848404 207.67334 89.994263 212.559998 87.237335 C 214.130676 86.373337 214.342667 86.059204 215.285339 87.692932 C 218.599991 93.403061 221.811996 99.152664 224.773331 105.059341 C 228.080002 111.657059 231.842667 118.027206 235.282669 124.546402 C 236.484009 126.816391 237.91333 128.64653 240.505325 129.400528 C 241.255997 129.630936 241.909348 130.099731 242.367996 130.73587 C 248.171997 139.454666 256.505341 146.311996 260.786652 156.169327 C 261.390656 157.574661 262.18399 158.973343 264.360016 158.195999 C 265.514679 157.786667 266.245331 158.753342 266.992004 159.875992 C 270.965332 165.845337 272.576019 172.969345 276.37735 178.962662 C 281.161346 186.510666 285.717316 194.23999 291.850677 200.845337 C 292.706665 201.771988 293.20932 202.99733 294.874664 201.630676 C 296.808014 200.059998 298.527985 200.728012 300.169342 202.643997 C 306.453339 210.012009 312.846649 217.306671 319.349335 224.526672 C 321.847992 227.308014 325.32666 229.145325 327.157318 232.601349 C 327.722687 233.661346 328.649323 234.957336 327.644012 235.743988 C 326.466675 236.717316 326.167999 234.957336 325.445343 234.376007 C 320.418671 230.386658 315.721344 226.034668 310.584015 221.934662 C 313.372009 226.034668 316.082672 230.166656 318.965332 234.20401 C 320.903992 236.797333 322.437347 239.670685 323.513336 242.725342 C 323.725342 243.37735 324.698669 244.17868 323.584015 244.64267 C 322.656006 245.027985 322.011993 244.43866 321.666656 243.330658 C 320.096008 238.193329 316.389343 234.376007 313.466675 230.049347 C 314.251984 234.014679 316.906647 236.992004 318.64267 240.447998 C 319.514679 242.175995 321.785339 244.751984 320.041351 245.656006 C 318.297333 246.558685 317.982666 243.181335 317.134674 241.64267 C 311.510651 231.470673 305.494659 221.534668 299.313324 211.693344 C 298.378662 210.208008 295.966675 209.171997 298.032013 206.580002 C 298.762665 205.651993 297.294647 205.510666 296.343994 205.919998 C 291.355988 208.080002 291.254669 208.024002 289.549347 202.730667 C 289.482666 202.346664 289.320007 201.984009 289.078674 201.678665 C 285.748016 198.780014 283.11734 195.276001 280.14798 191.977341 C 284.946686 200.5 289.746674 209.022659 294.545319 217.544006 C 291.065338 216.641327 290.320007 212.046677 285.794647 212.933334 C 293.649323 225.226654 302.101349 237.038666 309.610657 249.810669 C 306.059998 248.978668 301.984009 246.001343 302.133331 243.809326 C 302.509338 238.257324 298.291992 235.954681 296.202667 232.256012 C 293.925323 228.23465 291.152008 224.488007 288.584015 220.630676 C 282.134674 210.954666 275.654663 201.301331 269.237335 191.607986 C 258.029327 174.658676 247.198669 157.457336 236.986679 139.886673 C 230.514664 128.764404 224.294662 117.500931 217.421326 106.614532 C 217.154663 106.182541 216.82399 105.789734 216.203995 104.933609 C 215.301331 108.082001 215.645325 111.456802 217.162659 114.35907 C 227.718674 133.516006 239.296005 152.061325 251.266663 170.369324 C 264.721344 190.933334 278.843994 211.056015 292.636017 231.399994 C 294.152008 233.630676 296.822662 234.997345 297.444 237.966675 C 292.26001 239.434662 288.654663 235.742676 287.70401 232.365326 C 286.652008 228.618683 283.949341 229.286652 282.112 227.865326 C 278.96933 225.43866 275.828003 223.026672 272.442657 220.850677 C 281.639984 230.606659 291.741333 239.521332 300.609344 249.574677 C 300.278656 249.905334 299.957336 250.23465 299.634674 250.573334 C 299.634674 250.573334 270.37735 221.298676 270.37735 221.298676 C 270 223.293335 274.09201 224.895996 270.196014 225.64267 C 271.272003 226.773346 272.285339 227.998657 273.440002 229.027985 C 281.978668 236.842682 290.562653 244.602661 299.077332 252.449341 C 299.925323 253.235992 301.362671 253.817352 300.978668 256.698669 C 278.254669 236.473328 256.129333 216.750671 234.426682 194.930664 C 235.151993 199.305344 237.684006 203.17334 241.401321 205.58934 C 244.998657 207.835999 247.748001 210.686661 250.685349 213.444 C 258.727997 221 266.661346 228.666656 274.602661 236.317352 C 281.273346 242.741333 287.910675 249.193329 294.513336 255.670685 C 295.102661 256.235992 296.037323 256.730682 295.472015 259 C 277.618683 242.309326 260.661346 225.626678 243.388 208.378662 C 243.26268 212.202652 244.378662 214.614655 246.900009 216.609344 C 259.27066 226.412018 269.73999 238.201324 280.753326 249.410675 C 282.756012 251.451996 284.593353 253.652008 286.510651 255.779999 C 286.510651 255.779999 285.685333 256.644012 285.685333 256.644012 C 272.152008 243.233337 258.618683 229.824005 245.085327 216.41333 C 244.495987 219.554657 245.392014 221.20401 247.535995 222.96402 C 251.342667 226.23999 254.973328 229.713348 258.414673 233.370667 C 265.35202 240.540009 272.669342 247.332001 280.335999 253.714661 C 281.355988 254.484009 281.997345 255.653351 282.096008 256.926666 C 269.104004 248.03598 258.932007 236.096008 247.291992 224.85733 C 248.077332 229.451996 251.156006 231.81601 253.709335 234.345337 C 260.417328 241.005341 267.384003 247.406647 274.249329 253.902679 C 274.893341 254.507996 275.858673 254.940002 275.222687 256.401337 C 272.606659 255.285339 271.679993 251.954681 268.506683 251.294647 C 269.576019 255.921326 274.09201 258.113342 276.496002 262.817352 C 271.978668 261.137329 270.565338 257.554657 267.855988 254.829315 C 267.706665 257.12265 268.899994 258.843994 268.193329 260.721344 C 266.62265 260.303986 266.441315 258.803986 266.276001 257.720001 C 265.191986 250.557343 260.708008 245.395996 256.293335 240.149323 C 252.059998 235.114655 246.813339 230.873322 244.362671 224.220001 C 242.382675 225.791992 242.493332 228.587982 239.445328 229.718658 C 246.946671 216.774658 239.484009 207.890671 231.905334 198.582657 C 230.617325 204.301331 228.118668 209.085327 223.768005 212.846664 C 225.566666 209.469345 227.56134 206.186661 229.101334 202.698669 C 230.797348 198.850662 230.546677 194.632004 230.93866 190.517334 C 231.383987 186.304001 231.190674 182.049332 230.365341 177.894669 C 228.535995 182.356003 227.412003 186.181335 225.300003 189.58934 C 221.034668 196.462662 216.831985 203.342667 209.723999 207.781326 C 208.522659 208.526672 207.367996 209.352005 206.880005 210.883987 C 203.856003 220.992004 196.285339 228.257324 190.653336 236.741333 C 189.443985 238.562653 188.398666 240.518677 185.697327 241.037323 C 192.694656 249.197327 198.084 257.994659 204.877335 265.73999 C 192.875992 259.094666 189.254654 244.665314 177.818665 237.462677 C 184.534668 247.533325 192.553329 256.619995 199.968002 266.171997 C 198.774658 267.389343 197.965332 266.791992 197.266663 265.951996 C 185.265335 251.53067 173.702652 236.772003 163.358658 221.102661 C 159.848007 215.777313 156.501328 210.349319 152.716003 205.17334 C 152.118668 208.817337 152.613327 211.857346 155.259995 214.645325 C 161.584 221.298676 166.108002 229.412018 171.794662 236.662659 C 179.302673 246.27066 186.822678 255.872009 194.352005 265.465332 C 195.090652 266.40799 196.520004 267.098663 195.5 269.171997 C 180.041336 252.677338 166.931992 234.660004 154.860001 215.517334 C 153.933334 219.256012 154.341324 220.450653 157.066666 223.993317 C 161.654663 229.954681 166.138657 236.002655 170.734665 241.96402 C 176.892014 249.970673 183.08934 257.950653 189.325333 265.905334 C 190.490662 267.145325 191.23732 268.718658 191.462662 270.405334 C 186.789322 267.538666 184.754654 263.115997 181.761337 259.714661 C 178.509338 256.032013 175.528 252.11734 172.838669 248.003998 C 170.238663 243.990662 167.081329 240.346649 164.198669 236.489349 C 161.315994 232.633331 158.622665 228.737335 155.707993 224.708008 C 153.996002 232.027985 159.478668 236.049347 162.714676 240.855988 C 169.139999 250.399994 176.601334 259.165314 184.062668 267.915985 C 185.078674 269.170685 185.754654 270.666656 186.026672 272.258667 C 175.918655 262.12265 166.933334 250.925323 159.226669 238.861328 C 159.636002 244.164001 160.554672 245.615997 165.070663 251.231995 C 170.278671 257.697327 175.171997 264.412018 180.238663 270.994659 C 180.905334 271.858673 181.809326 272.880005 180.677322 273.625336 C 179.837341 274.18399 179.366653 272.918671 178.800003 272.20401 C 167.725327 258.27066 157.041336 244.048004 146.746658 229.538666 C 145.961334 228.391998 144.806671 227.393341 145.026657 225.335999 C 142.535995 226.961334 142.166672 228.477325 143.557327 230.425323 C 152.097336 242.46933 160.633331 254.513336 169.162674 266.556 C 170.018661 267.766663 171.44133 268.794647 170.388 271.190674 C 160.553329 258.764008 151.498672 245.73999 143.274673 232.193329 C 141.209335 234.432007 142.426666 235.885345 143.565338 237.605316 C 150.501328 248.052002 157.318665 258.56134 164.206665 269.022675 C 164.49733 269.470673 165.660004 269.581329 164.828003 270.374664 C 163.994675 271.167999 163.673325 270.562653 163.068008 269.824005 C 158.426666 264.082672 154.545334 257.814667 150.548004 251.633331 C 147.610672 247.093353 145.049332 242.309326 141.460007 237.989349 C 140.03067 239.615997 139.975998 240.895996 141.20134 242.56134 C 147.759995 251.484009 154.223999 260.477325 160.695999 269.470673 C 161.073334 269.997345 162.03067 270.750671 160.940002 271.380005 C 159.848007 272.007996 159.313339 271.238678 158.740005 270.405334 C 153.783997 263.131989 148.779999 255.890656 143.815994 248.633331 C 142.654663 246.928009 141.546677 245.199982 140.188004 243.134674 C 138.837326 245.121338 138.671997 246.339996 140.093338 248.294647 C 145.426666 255.623993 150.445328 263.179993 155.55867 270.67334 C 156.006668 271.317352 157.444 271.91333 156.344009 272.825348 C 155.245331 273.735992 154.545334 272.660004 153.917343 271.757324 C 150.053329 266.258667 146.125336 260.76001 142.709335 254.940002 C 141.538666 252.937347 140.155991 251.059998 138.837326 249.073334 C 136.479996 251.735992 137.572006 253.667999 139.370667 255.937347 C 143.612 261.286652 147.562668 266.862671 151.639999 272.337341 C 152.126663 272.951996 152.192001 273.800018 151.804001 274.482666 C 148.285324 272.298676 146.431992 268.779999 144.193329 265.638672 C 142.087997 262.677338 140.155991 259.597321 138.098663 256.605316 C 137.563995 255.820007 137.069336 254.398651 135.742661 255.434662 C 134.800003 256.220001 135.129333 257.170685 135.884003 258.167999 C 139.261337 262.621338 142.543991 267.146667 145.842667 271.654663 C 146.738663 272.579987 147.122665 273.886658 146.871994 275.149323 C 142.685333 271.175995 140.360001 266.604004 137.446671 262.582672 C 136.661331 261.545319 136.174667 260.35202 135.14534 259.511993 C 134.563995 259.032013 134.147995 257.548004 133.212936 259.056 C 132.757339 259.778656 132.22319 260.26535 133.2836 261.56134 C 136.686661 265.85202 139.765335 270.388 142.49733 275.134674 C 139.794662 274.529327 139.119995 272.062653 137.783997 270.233337 C 136.449326 268.402679 135.333328 266.549347 134.045334 264.73465 C 133.259995 263.690674 132.749329 261.631989 131.052795 262.786652 C 129.764664 263.666656 130.345871 265.14267 131.406265 266.454681 C 132.966537 268.515991 134.333328 270.717316 135.490662 273.029327 C 135.914658 273.814667 137.061325 274.600006 136.197342 276.108002 C 133.542664 274.097321 132.859467 270.750671 130.770126 268.473328 C 130.07106 267.688019 129.898392 265.85733 128.264542 266.941315 C 126.8508 267.884003 127.903198 269.007996 128.437332 270.013336 C 129.222794 271.426666 129.961075 272.839996 130.911606 274.615997 C 128.437332 274.418671 128.62587 272.20401 127.400536 271.473328 C 126.874397 271.152008 127.031464 269.541351 125.908264 270.484009 C 125.405464 270.899994 124.030937 271.787994 125.837463 272.762665 C 126.560127 273.146667 126.261597 274.426666 125.915993 275.778656 C 123.865997 272.20401 122.36573 274.945343 120.166534 275.817352 C 129.92186 262.033325 139.332001 248.216003 139.590668 230.984009 C 135.490662 235.38266 131.154938 240.330658 125.617607 244.022675 C 126.646538 240.385345 129.230667 237.809326 131.689072 235.38266 C 135.192001 231.855988 137.917343 227.756012 141.035995 223.953339 C 142.661331 221.966675 144.091995 221.809326 145.945328 223.309326 C 148.034668 225.006683 150.115997 226.710663 152.754669 228.870667 C 151.553329 216.766663 148.553329 205.746658 147.037338 194.656006 C 145.937332 194.231995 145.78801 194.908005 145.622665 195.285339 C 141.695999 204.230667 135.026657 210.892014 127.424133 216.609344 C 121.431068 221.118683 116.710396 226.860016 111.361473 231.989349 C 105.44706 237.667999 99.948799 243.534668 92.439873 247.636017 C 86.239067 250.898651 80.377068 254.769318 74.940002 259.189331 C 73.879738 257.374664 74.987198 256.754669 75.984665 256.110657 C 82.692398 251.798676 88.041466 245.609344 95.471863 242.246674 C 102.218933 239.199982 106.350403 233.136017 110.890266 227.691986 C 117.582397 219.67334 126.293068 213.891998 133.542664 206.524002 C 135.593338 204.434677 138.207993 202.659988 138.860001 199.455994 C 142.00267 196.054672 141.891998 195.32399 137.587997 193.281326 C 137.713333 194.302673 137.761337 195.32399 137.981339 196.297348 C 138.255997 197.32666 138.664001 198.394669 139.001328 199.486679 Z M 151.906662 191.678665 C 155.001328 197.217331 160.012009 200.964005 164.473343 205.251999 C 163.390671 200.790665 159.297333 198.810669 156.619995 195.685349 C 155.330673 194.169327 154.349335 191.875992 151.789337 191.757324 C 154.066666 190.091995 151.852005 188.616013 151.105331 188.050659 C 146.393326 184.350662 142.91333 179.535995 139.512009 174.815994 C 136.512009 170.637329 131.217728 169.105331 128.869202 163.386673 C 128.759338 168.516006 136.449326 177.541336 151.906662 191.678665 Z M 259.18399 164.91066 C 257.338654 164.91066 255.79866 164.125336 255.116013 162.460007 C 253.049332 157.425339 249.562668 153.309341 246.656006 148.817337 C 244.417343 145.353333 240.961319 141.850662 240.678665 138.166672 C 240.325333 133.453323 238.015991 132.903595 234.309326 131.780533 C 249.970657 158.761337 266.559998 184.405334 283.753326 209.886658 C 284.165314 208.850662 284.052002 207.679993 283.446686 206.744003 C 278.670685 198.520004 274.021332 190.202652 269.308014 181.970657 C 265.970673 176.197327 262.490662 170.510666 259.097321 164.777328 C 260.488007 164.470657 261.164001 165.217331 261.808014 166.348007 C 266.174652 173.94133 270.581329 181.521347 275.026672 189.08667 C 277.806671 193.838669 280.650665 198.559998 283.533325 203.41333 C 284.554657 202.195999 283.753326 201.599991 283.40799 200.986679 C 278.223999 191.639999 272.828003 182.418655 268.154663 172.789322 C 266.527985 169.434662 265.185333 165.326675 262.428009 163.269333 C 258.186676 160.128006 256.144012 155.783997 253.599991 151.651993 C 251.141342 147.725327 248.886658 143.546677 244.056015 141.685333 C 249.087997 149.429337 254.130676 157.171997 259.18399 164.91066 Z M 182.744003 167.605331 C 185.099991 163.968002 185.689331 159.617325 187.346664 155.737335 C 187.637329 155.045334 188.382675 153.380005 187.542664 153.184006 C 186.26268 152.901337 184.99733 151.472 183.505325 152.594666 C 183.070663 152.884003 182.668015 153.218674 182.304001 153.591995 C 179.059998 157.449326 175.776001 161.274673 172.626663 165.209335 C 171.692001 166.371994 171.97467 167.738663 172.328003 169.262665 C 173.372009 174.050659 173.576004 178.982666 172.933334 183.840012 C 172.477341 188.296005 172.477341 192.785339 172.933334 197.23999 C 173.664001 205.282669 177.049332 213.601349 172.037338 221.480011 C 171.472 222.358673 172.398666 222.861328 172.602661 223.553314 C 174.677322 230.496002 179.514664 235.287994 184.926682 239.686676 C 188.065323 233.720001 191.773331 228.071991 196.00267 222.822662 C 198.358658 219.774658 200.831985 216.750671 201.877335 212.854675 C 202.961319 208.794662 205.694656 206.037338 209.150681 203.681335 C 214.429337 200.091995 217.790665 194.813339 221.230667 189.110657 C 218.599991 189.110657 216.730667 188.843994 214.782669 189.574661 C 212.834671 190.305344 211.82933 189.574661 212.544006 187.217331 C 213.156006 185.254654 214.32666 182.953323 213.171997 181.185349 C 211.193344 178.169327 211.373337 174.862671 210.815994 170.97467 C 208.458664 176.253342 206.417343 181.028 203.133347 185.26268 C 202.725342 184.782669 202.553329 184.641342 202.576004 184.594666 C 204.979996 179.049332 207.602661 173.598679 209.708008 167.934662 C 210.320007 166.020004 211.811996 164.513336 213.721329 163.882675 C 220.531998 161.093338 222.722672 157.669327 220.972 151.369339 C 219.651993 146.657333 218.340012 141.944 218.010666 136.862671 C 212.810669 145.337326 209.754654 154.684006 202.906662 163.136002 C 203.039993 161.565338 202.906662 161.109329 203.118668 160.850662 C 208.403992 152.996002 212.425339 144.481339 216.203995 135.833328 C 216.486679 135.181335 216.785339 134.129333 217.71199 134.262665 C 218.638672 134.395996 218.953323 135.44133 219.377335 136.257339 C 228.590652 153.882675 239.964005 170.197342 250.261337 187.17067 C 253.717331 192.857346 259.600006 197.460007 258.822662 205.236008 C 258.801331 206.072006 259.390656 206.79866 260.213348 206.949341 C 263.928009 207.647995 265.813324 210.443985 267.785339 213.231995 C 268.845337 214.717316 270.353333 215.589325 272.967987 215.666656 C 252.960007 187.952011 234.853333 158.91333 218.771988 128.748932 C 224.616013 137.389328 229.989334 146.279999 235.377335 155.180008 C 243.294662 168.289337 251.596008 181.146667 260.048004 193.918655 C 266.087982 203.045334 272.937347 211.638672 278.113342 221.409332 C 279.362671 223.76535 282.041351 226.003998 286.399994 225.980011 C 261.917328 191.475998 238.97467 156.860001 218.442673 120.093338 C 216.769333 122.025467 218.763992 124.154129 216.942673 124.9552 C 211.82933 114.453735 212.693344 103.02533 211.970657 91.667603 C 204.06134 117.799332 194.658676 143.248001 182.744003 167.605331 Z M 171.449341 199.486679 C 169.979996 196.800003 170.246658 194.585327 170.246658 192.417343 C 170.328003 191.269333 169.942673 190.137329 169.178665 189.276001 C 156.52533 174.957336 143.636002 160.818665 131.956131 145.643997 C 129.73587 142.753342 127.507729 139.873337 125.271873 137.003998 C 125.565063 136.770676 125.858269 136.537338 126.151604 136.305328 C 140.03067 152.681335 153.375992 169.537338 168.566666 184.766663 C 153.979996 167.007996 139.503998 149.178665 126.230133 130.131058 C 123.253204 137.615997 124.494263 142.973343 129.819595 148.401337 C 137.776001 156.514664 144.649338 165.681335 152.031998 174.367996 C 157.240005 180.494675 162.391998 186.668015 168.205338 192.253342 C 168.990662 192.982666 169.776001 193.729324 169.233337 194.946671 C 168.692001 196.164001 167.662674 194.161331 166.956009 195.489334 C 168.149338 197.127991 169.681335 198.492004 171.449341 199.486679 Z M 170.718674 179.119995 C 171.166672 175.121338 169.800003 172.435989 167.961334 170.016006 C 155.346664 153.412003 142.182663 137.223999 130.023865 120.273605 C 129.599731 119.684525 129.104935 118.953995 127.101997 119.488129 C 140.761337 140.020004 155.685333 159.193329 170.718674 179.119995 Z M 138.875992 168.296005 C 139.134659 169.150665 139.47467 169.979996 139.889328 170.770676 C 144.189331 177.065323 149.153336 182.878662 154.694672 188.113342 C 160.193329 193.202652 163.845337 199.831985 168.762665 205.393326 C 169.124008 205.809326 169.453323 206.382675 168.912003 206.713333 C 165.97467 208.479996 168.55867 209.666672 169.360001 210.946671 C 170.160004 212.226669 171.794662 213.059998 171.322678 215.612 C 168.401337 212.666672 166.610672 209.328003 163.138657 207.67067 C 166.5 211.394669 167.773331 216.492004 171.464005 219.657318 C 173.301331 215.606659 173.203995 210.94133 171.197327 206.972 C 170.412003 205.306656 171.582657 203.304001 170.050674 201.529343 C 161.755997 191.922668 153.099991 182.638672 144.318665 173.479996 C 142.73201 171.814651 141.625336 169.576004 138.875992 168.296005 Z M 128.06813 123.407471 C 124.92627 126.91066 126.99987 129.157059 128.735733 131.419205 C 134.878662 139.414658 140.933334 147.46666 147.225327 155.319992 C 152.158676 161.486664 157.389328 167.416 162.486664 173.449341 C 151.632004 156.333328 138.294662 141.001328 128.068008 123.407608 Z M 119.325996 152.751999 C 120.802666 151.542664 121.407471 151.08667 121.965065 150.584 C 125.515327 147.442673 126.096672 147.559998 128.445068 151.722672 C 130.149597 154.740005 131.586929 158.006668 133.990662 160.503998 C 141.625336 168.461334 149.409332 176.268005 156.690659 184.554672 C 159.046677 187.273331 161.763992 189.708008 164.309341 192.268005 C 164.542664 191.529343 164.353333 190.721329 163.814667 190.162659 C 154.254669 180.093338 145.293335 169.513336 136.55867 158.745331 C 132.898666 154.229324 129.081329 149.845337 125.428932 145.32933 C 124.400002 144.057327 123.418266 143.421341 122.53067 145.101334 C 121.415337 147.198669 120.661339 149.5 119.325996 152.751999 Z M 256.513336 200.37468 C 245.422668 182.222672 233.837341 164.38533 222.738663 146.248001 C 225.181335 157.112 231.850662 165.58667 238.21199 174.226669 C 244.574661 182.866653 249.130676 192.528 256.513336 200.37468 Z M 234.198669 187.854675 C 233.122665 190.539993 233.5 192.748001 235.722672 194.484009 C 238.435989 196.55867 241.037338 198.776001 243.514664 201.127991 C 250.505325 207.898666 257.652008 214.481323 264.721344 221.17334 C 265.231995 221.652008 265.679993 222.556 266.82666 221.652008 Z M 154.341324 142.345337 C 147.366669 129.738266 137.901337 119.024673 129.874664 106.810928 C 128.979202 109.654266 129.772537 111.295868 131.147064 113.094528 C 135.167999 118.302139 138.702667 123.902405 142.881332 128.976395 C 146.613327 133.507996 149.67601 138.64534 154.341324 142.345337 Z M 253.87468 205.181335 C 248.957336 196.069336 240.922668 189.417343 234.143997 181.28801 C 233.633347 183.486679 233.554672 185.214661 235.007996 186.643997 Z M 129.536942 170.738663 C 129.827469 174.477341 130.503067 176.889343 133.464005 178.145325 C 134.945328 178.778671 135.968002 180.164001 136.134659 181.766663 C 136.503998 186.070663 139.990662 187.846664 142.584 190.406662 C 143.918671 191.742676 144.225327 190.52533 144.986664 190.045334 C 146.141342 189.322678 145.858658 188.632004 145.065338 187.893326 C 139.590668 182.811996 135.207993 176.723999 129.536942 170.738663 Z M 226.242676 179.937332 C 226.634659 177.422668 227.624008 176.229324 226.82399 174.783997 C 225.009338 171.531998 223.06134 168.335999 221.403992 164.99733 C 220.79866 163.779999 220.343994 164.391998 219.684006 164.612 C 218.709335 164.942673 218.057327 165.296005 218.763992 166.537338 C 221.097336 170.613342 223.352005 174.73732 226.242676 179.937332 Z M 232.462662 168.744003 C 229.91333 164.942673 227.362671 161.141342 224.811996 157.338669 C 221.922668 162.71199 226.556015 165.617325 228.229324 169.301331 C 229.367996 171.814651 230.986679 167.926666 232.462662 168.744003 Z M 145.638657 136.949326 C 140.203995 129.243469 134.996002 121.420395 129.034271 114.170532 C 133.11853 122.810532 139.394669 129.903336 145.638657 136.949326 Z M 216.478653 166.418671 C 215.481323 166.513336 214.82933 166.906662 215.23732 167.643997 C 217.923996 172.506668 220.084 177.666672 223.390671 182.174667 C 223.689331 182.584 224.129333 182.961319 224.632004 182.442673 C 225.138672 182.009338 225.261337 181.273331 224.922668 180.698669 C 222.754654 176.677322 220.657333 172.624008 218.434677 168.626663 C 217.872009 167.815994 217.216003 167.074661 216.478653 166.418671 Z M 149.50267 141.283997 C 149.265335 141.506668 149.026657 141.729324 148.78801 141.951996 C 153.673325 148.195999 158.559998 154.44133 163.445328 160.685333 C 160.381332 153.034668 154.875992 147.222672 149.50267 141.300003 Z M 223.634659 112.387604 C 221.244003 107.392136 218.853333 102.396667 216.462662 97.401199 C 214.994675 104.266006 220.728012 107.643463 223.634659 112.387604 Z M 165.605331 220.615997 C 164.380005 215.11734 160.609329 211.433334 156.783997 207.765335 Z M 233.37468 174.572006 C 232.446671 179.559998 236.20134 180.856003 238.651993 182.975998 Z M 214.397339 169.341324 C 214.657333 173.927994 215.70134 175.978653 219.518677 179.127991 C 217.62532 175.498657 216.149338 172.678665 214.397339 169.341324 Z M 297.868011 214.22934 C 303.365326 223.589325 308.863983 232.949341 314.362671 242.309326 C 313.982666 242.537323 313.602661 242.76535 313.223999 242.993317 C 307.698669 233.671997 302.158661 224.346649 296.602661 215.014679 Z M 297.129333 222.453339 C 299.81601 226.577332 302.698669 230.590668 305.11734 234.863983 C 306.342682 237.024017 308.26001 238.602661 309.406647 240.746674 C 309.712006 241.311981 310.309326 241.798676 309.594666 242.372009 C 308.880005 242.945343 308.486664 242.160004 308.149323 241.713348 C 303.671997 235.813324 299.917328 229.467987 296.115997 223.152008 Z M 86.250397 187.689331 C 83.454262 191.286667 80.5952 194.813339 76.039467 196.416 C 78.443062 192.346664 82.134666 189.770676 86.250397 187.689331 Z M 229.807999 248.32666 C 232.143997 244.20932 234.117325 239.895996 235.706665 235.437347 C 235.989334 239.450653 233.554672 244.862671 229.807999 248.32666 Z M 110.002533 259.660004 C 111.675598 257.398651 113.599998 255.458649 116.286263 254.5 C 114.699593 256.903992 112.92453 259 110.002533 259.660004 Z M 198.146667 189.574661 C 197.840012 194.522659 194.949341 198.073318 191.713333 201.442673 C 193.598679 197.350662 196.277328 193.674667 198.146667 189.574661 Z"/>
</svg>
