<?xml version="1.0" encoding="utf-8"?>
<svg x="0pt" y="0pt" width="256pt" height="256pt" viewBox="0 0 256 256" xmlns="http://www.w3.org/2000/svg" xmlns:xlink="http://www.w3.org/1999/xlink">
  <g id="1">
    <title>Layer 1</title>
    <defs>
      <title>Shape 115</title>
      <g id="2">
        <defs>
          <path id="3" d="M104.251,149.865 C102.307,150.454,101.653,149.158,101.235,147.703 C100.514,145.016,100.205,142.235,100.316,139.456 C100.351,137.535,100.022,136.051,98.1247,134.961 C95.1086,133.194,95.3088,129.812,94.8022,126.985 C94.2131,123.762,94.3427,120.41,94.1424,117.117 C94.0835,116.169,94.3781,114.944,93.2882,114.514 C92.2927,114.125,91.8686,115.386,91.2912,115.904 C87.2913,119.438,84.446,124.045,80.8761,127.992 C77.6125,131.597,73.7775,134.549,69.7835,137.759 C70.5139,135.314,71.2091,133.912,74.885,130.914 C82.1603,124.988,85.8775,116.74,89.8656,108.658 C91.3383,105.713,91.1675,102.255,91.4974,98.9911 C92.0865,93.2004,94.0894,87.6865,94.49,81.8132 C94.761,77.8192,93.8184,74.1197,93.4237,69.8664 C91.4208,74.9032,89.6594,79.5334,88.6226,84.4818 C87.845,88.1754,86.3251,92.352,83.4268,94.4021 C77.6184,98.5257,76.8938,105.271,73.4123,110.514 C70.3254,115.138,67.1267,119.662,63.6039,123.957 C63.1013,124.56,62.4175,124.986,61.654,125.17 C59.6446,125.752,57.9726,127.153,57.0473,129.029 C54.7911,133.653,50.8324,136.687,47.5452,140.363 C42.8797,145.576,38.326,150.914,34.4439,156.763 C33.7144,158.043,32.7324,159.162,31.5573,160.051 C24.4882,164.663,17.4191,169.205,9.93177,174.053 C11.487,170.301,14.3794,168.498,17.1364,166.984 C26.7503,161.588,35.0742,155.02,40.5704,145.188 C42.5999,141.512,45.3797,138.305,48.7294,135.774 C51.18,133.93,52.906,131.403,54.4141,128.799 C55.3715,126.986,56.7294,125.414,58.3846,124.204 C65.2298,119.621,68.9588,112.664,72.7289,105.742 C74.3018,102.855,75.6744,99.8511,77.0646,96.8762 C77.826,95.3191,79.0286,94.0202,80.5226,93.1414 C83.1558,91.4154,84.2339,88.2814,85.3414,85.4066 C87.4032,80.0695,87.9569,74.2139,90.8494,69.13 C91.5268,67.9518,92.9053,66.9857,92.6166,65.2538 C92.5341,64.7354,93.2057,64.1817,93.7948,64.1758 C94.808,64.1758,95.3795,64.8591,95.8566,65.7251 C97.6239,68.971,98.0422,72.753,99.8801,75.9988 C101.459,78.7911,102.684,81.7719,104.186,84.6114 C105.689,87.4508,108.145,89.3948,111.043,90.7026 C112.281,91.2622,113.158,91.9573,113.465,93.3181 C115.096,100.629,119.143,106.867,122.454,113.43 C123.579,115.674,124.81,117.883,126.024,120.075 C126.778,121.412,127.503,121.889,128.769,120.304 C130.896,117.648,133.282,115.197,135.579,112.687 C136.168,112.04,136.91,111.168,137.823,111.609 C140.822,113.076,140.51,110.838,141.417,109.082 C142.778,106.455,144.457,103.975,145.358,101.124 C148.133,92.3579,150.73,83.5334,153.646,74.8148 C154.795,71.3863,155.755,67.7457,159.42,65.678 C160.598,65.03,160.757,64.7944,161.464,66.0197 C163.95,70.3023,166.359,74.6145,168.58,79.0445 C171.06,83.9928,173.882,88.7704,176.462,93.6598 C177.363,95.3623,178.435,96.7349,180.379,97.3004 C180.942,97.4732,181.432,97.8248,181.776,98.3019 C186.129,104.841,192.379,109.984,195.59,117.377 C196.043,118.431,196.638,119.48,198.27,118.897 C199.136,118.59,199.684,119.315,200.244,120.157 C203.224,124.634,204.432,129.977,207.283,134.472 C210.871,140.133,214.288,145.93,218.888,150.884 C219.53,151.579,219.907,152.498,221.156,151.473 C222.606,150.295,223.896,150.796,225.127,152.233 C229.84,157.759,234.635,163.23,239.512,168.645 C241.386,170.731,243.995,172.109,245.368,174.701 C245.792,175.496,246.487,176.468,245.733,177.058 C244.85,177.788,244.626,176.468,244.084,176.032 C240.314,173.04,236.791,169.776,232.938,166.701 C235.029,169.776,237.062,172.875,239.224,175.903 C240.678,177.848,241.828,180.003,242.635,182.294 C242.794,182.783,243.524,183.384,242.688,183.732 C241.992,184.021,241.509,183.579,241.25,182.748 C240.072,178.895,237.292,176.032,235.1,172.787 C235.689,175.761,237.68,177.994,238.982,180.586 C239.636,181.882,241.339,183.814,240.031,184.492 C238.723,185.169,238.487,182.636,237.851,181.482 C233.633,173.853,229.121,166.401,224.485,159.02 C223.784,157.906,221.975,157.129,223.524,155.185 C224.072,154.489,222.971,154.383,222.258,154.69 C218.517,156.31,218.441,156.268,217.162,152.298 C217.112,152.01,216.99,151.738,216.809,151.509 C214.311,149.335,212.338,146.707,210.111,144.233 C213.71,150.625,217.31,157.017,220.909,163.408 C218.299,162.731,217.74,159.285,214.346,159.95 C220.237,169.17,226.576,178.029,232.208,187.608 C229.545,186.984,226.488,184.751,226.6,183.107 C226.882,178.943,223.719,177.216,222.152,174.442 C220.444,171.426,218.364,168.616,216.438,165.723 C211.601,158.466,206.741,151.226,201.928,143.956 C193.522,131.244,185.399,118.343,177.74,105.165 C172.886,96.8233,168.221,88.3757,163.066,80.2109 C162.866,79.8869,162.618,79.5923,162.153,78.9502 C161.476,81.3115,161.734,83.8426,162.872,86.0193 C170.789,100.387,179.472,114.296,188.45,128.027 C198.541,143.45,209.133,158.542,219.477,173.8 C220.614,175.473,222.617,176.498,223.083,178.725 C219.195,179.826,216.491,177.057,215.778,174.524 C214.989,171.714,212.962,172.215,211.584,171.149 C209.227,169.329,206.871,167.52,204.332,165.888 C211.23,173.205,218.806,179.891,225.457,187.431 C225.209,187.679,224.968,187.926,224.726,188.18 C224.726,188.18,202.783,166.224,202.783,166.224 C202.5,167.72,205.569,168.922,202.647,169.482 C203.454,170.33,204.214,171.249,205.08,172.021 C211.484,177.882,217.922,183.702,224.308,189.587 C224.944,190.177,226.022,190.613,225.734,192.774 C208.691,177.605,192.097,162.813,175.82,146.448 C176.364,149.729,178.263,152.63,181.051,154.442 C183.749,156.127,185.811,158.265,188.014,160.333 C194.046,166,199.996,171.75,205.952,177.488 C210.955,182.306,215.933,187.145,220.885,192.003 C221.327,192.427,222.028,192.798,221.604,194.5 C208.214,181.982,195.496,169.47,182.541,156.534 C182.447,159.402,183.284,161.211,185.175,162.707 C194.453,170.059,202.305,178.901,210.565,187.308 C212.067,188.839,213.445,190.489,214.883,192.085 C214.883,192.085,214.264,192.733,214.264,192.733 C204.114,182.675,193.964,172.618,183.814,162.56 C183.372,164.916,184.044,166.153,185.652,167.473 C188.507,169.93,191.23,172.535,193.811,175.278 C199.014,180.655,204.502,185.749,210.252,190.536 C211.017,191.113,211.498,191.99,211.572,192.945 C201.828,186.277,194.199,177.322,185.469,168.893 C186.058,172.339,188.367,174.112,190.282,176.009 C195.313,181.004,200.538,185.805,205.687,190.677 C206.17,191.131,206.894,191.455,206.417,192.551 C204.455,191.714,203.76,189.216,201.38,188.721 C202.182,192.191,205.569,193.835,207.372,197.363 C203.984,196.103,202.924,193.416,200.892,191.372 C200.78,193.092,201.675,194.383,201.145,195.791 C199.967,195.478,199.831,194.353,199.707,193.54 C198.894,188.168,195.531,184.297,192.22,180.362 C189.045,176.586,185.11,173.405,183.272,168.415 C181.787,169.594,181.87,171.691,179.584,172.539 C185.21,162.831,179.613,156.168,173.929,149.187 C172.963,153.476,171.089,157.064,167.826,159.885 C169.175,157.352,170.671,154.89,171.826,152.274 C173.098,149.388,172.91,146.224,173.204,143.138 C173.538,139.978,173.393,136.787,172.774,133.671 C171.402,137.017,170.559,139.886,168.975,142.442 C165.776,147.597,162.624,152.757,157.293,156.086 C156.392,156.645,155.526,157.264,155.16,158.413 C152.892,165.994,147.214,171.443,142.99,177.806 C142.083,179.172,141.299,180.639,139.273,181.028 C144.521,187.148,148.563,193.746,153.658,199.555 C144.657,194.571,141.941,183.749,133.364,178.347 C138.401,185.9,144.415,192.715,149.976,199.879 C149.081,200.792,148.474,200.344,147.95,199.714 C138.949,188.898,130.277,177.829,122.519,166.077 C119.886,162.083,117.376,158.012,114.537,154.13 C114.089,156.863,114.46,159.143,116.445,161.234 C121.188,166.224,124.581,172.309,128.846,177.747 C134.477,184.953,140.117,192.154,145.764,199.349 C146.318,200.056,147.39,200.574,146.625,202.129 C135.031,189.758,125.199,176.245,116.145,161.888 C115.45,164.692,115.756,165.588,117.8,168.245 C121.241,172.716,124.604,177.252,128.051,181.723 C132.669,187.728,137.317,193.713,141.994,199.679 C142.868,200.609,143.428,201.789,143.597,203.054 C140.092,200.904,138.566,197.587,136.321,195.036 C133.882,192.274,131.646,189.338,129.629,186.253 C127.679,183.243,125.311,180.51,123.149,177.617 C120.987,174.725,118.967,171.803,116.781,168.781 C115.497,174.271,119.609,177.287,122.036,180.892 C126.855,188.05,132.451,194.624,138.047,201.187 C138.809,202.128,139.316,203.25,139.52,204.444 C131.939,196.842,125.2,188.444,119.42,179.396 C119.727,183.373,120.416,184.462,123.803,188.674 C127.709,193.523,131.379,198.559,135.179,203.496 C135.679,204.144,136.357,204.91,135.508,205.469 C134.878,205.888,134.525,204.939,134.1,204.403 C125.794,193.953,117.781,183.286,110.06,172.404 C109.471,171.544,108.605,170.795,108.77,169.252 C106.902,170.471,106.625,171.608,107.668,173.069 C114.073,182.102,120.475,191.135,126.872,200.167 C127.514,201.075,128.581,201.846,127.791,203.643 C120.415,194.323,113.624,184.555,107.456,174.395 C105.907,176.074,106.82,177.164,107.674,178.454 C112.876,186.289,117.989,194.171,123.155,202.017 C123.373,202.353,124.245,202.436,123.621,203.031 C122.996,203.626,122.755,203.172,122.301,202.618 C118.82,198.312,115.909,193.611,112.911,188.975 C110.708,185.57,108.787,181.982,106.095,178.742 C105.023,179.962,104.982,180.922,105.901,182.171 C110.82,188.863,115.668,195.608,120.522,202.353 C120.805,202.748,121.523,203.313,120.705,203.785 C119.886,204.256,119.485,203.679,119.055,203.054 C115.338,197.599,111.585,192.168,107.862,186.725 C106.991,185.446,106.16,184.15,105.141,182.601 C104.128,184.091,104.004,185.005,105.07,186.471 C109.07,191.968,112.834,197.635,116.669,203.255 C117.005,203.738,118.083,204.185,117.258,204.869 C116.434,205.552,115.909,204.745,115.438,204.068 C112.54,199.944,109.594,195.82,107.032,191.455 C106.154,189.953,105.117,188.545,104.128,187.055 C102.36,189.052,103.179,190.501,104.528,192.203 C107.709,196.215,110.672,200.397,113.73,204.503 C114.095,204.964,114.144,205.6,113.853,206.112 C111.214,204.474,109.824,201.835,108.145,199.479 C106.566,197.258,105.117,194.948,103.574,192.704 C103.173,192.115,102.802,191.049,101.807,191.826 C101.1,192.415,101.347,193.128,101.913,193.876 C104.446,197.216,106.908,200.61,109.382,203.991 C110.054,204.685,110.342,205.665,110.154,206.612 C107.014,203.632,105.27,200.203,103.085,197.187 C102.496,196.409,102.131,195.514,101.359,194.884 C100.923,194.524,100.611,193.411,99.9097,194.542 C99.568,195.084,99.1674,195.449,99.9627,196.421 C102.515,199.639,104.824,203.041,106.873,206.601 C104.846,206.147,104.34,204.297,103.338,202.925 C102.337,201.552,101.5,200.162,100.534,198.801 C99.945,198.018,99.562,196.474,98.2896,197.34 C97.3235,198,97.7594,199.107,98.5547,200.091 C99.7249,201.637,100.75,203.288,101.618,205.022 C101.936,205.611,102.796,206.2,102.148,207.331 C100.157,205.823,99.6446,203.313,98.0776,201.605 C97.5533,201.016,97.4238,199.643,96.1984,200.456 C95.1381,201.163,95.9274,202.006,96.328,202.76 C96.9171,203.82,97.4708,204.88,98.1837,206.212 C96.328,206.064,96.4694,204.403,95.5504,203.855 C95.1558,203.614,95.2736,202.406,94.4312,203.113 C94.0541,203.425,93.0232,204.091,94.3781,204.822 C94.9201,205.11,94.6962,206.07,94.437,207.084 C92.8995,204.403,91.7743,206.459,90.1249,207.113 C97.4414,196.775,104.499,186.412,104.693,173.488 C101.618,176.787,98.3662,180.498,94.2132,183.267 C94.9849,180.539,96.923,178.607,98.7668,176.787 C101.394,174.142,103.438,171.067,105.777,168.215 C106.996,166.725,108.069,166.607,109.459,167.732 C111.026,169.005,112.587,170.283,114.566,171.903 C113.665,162.825,111.415,154.56,110.278,146.242 C109.453,145.924,109.341,146.431,109.217,146.714 C106.272,153.423,101.27,158.419,95.5681,162.707 C91.0733,166.089,87.5328,170.395,83.5211,174.242 C79.0853,178.501,74.9616,182.901,69.3299,185.977 C64.6793,188.424,60.2828,191.327,56.205,194.642 C55.4098,193.281,56.2404,192.816,56.9885,192.333 C62.0193,189.099,66.0311,184.457,71.6039,181.935 C76.6642,179.65,79.7628,175.102,83.1677,171.019 C88.1868,165.005,94.7198,160.669,100.157,155.143 C101.695,153.576,103.656,152.245,104.145,149.842 C106.502,147.291,106.419,146.743,103.191,145.211 C103.285,145.977,103.321,146.743,103.486,147.473 C103.692,148.245,103.998,149.046,104.251,149.865 z M113.93,144.009 C116.251,148.163,120.009,150.973,123.355,154.189 C122.543,150.843,119.473,149.358,117.465,147.014 C116.498,145.877,115.762,144.157,113.842,144.068 C115.55,142.819,113.889,141.712,113.329,141.288 C109.795,138.513,107.185,134.902,104.634,131.362 C102.384,128.228,98.4133,127.079,96.6519,122.79 C96.5695,126.637,102.337,133.406,113.93,144.009 z M194.388,123.933 C193.004,123.933,191.849,123.344,191.337,122.095 C189.787,118.319,187.172,115.232,184.992,111.863 C183.313,109.265,180.721,106.638,180.509,103.875 C180.244,100.34,178.512,99.9277,175.732,99.0854 C187.478,119.321,199.92,138.554,212.815,157.665 C213.124,156.888,213.039,156.01,212.585,155.308 C209.003,149.14,205.516,142.902,201.981,136.728 C199.478,132.398,196.868,128.133,194.323,123.833 C195.366,123.603,195.873,124.163,196.356,125.011 C199.631,130.706,202.936,136.391,206.27,142.065 C208.355,145.629,210.488,149.17,212.65,152.81 C213.416,151.897,212.815,151.45,212.556,150.99 C208.668,143.98,204.621,137.064,201.116,129.842 C199.896,127.326,198.889,124.245,196.821,122.702 C193.64,120.346,192.108,117.088,190.2,113.989 C188.356,111.044,186.665,107.91,183.042,106.514 C186.816,112.322,190.598,118.129,194.388,123.933 z M137.058,125.954 C138.825,123.226,139.267,119.963,140.51,117.053 C140.728,116.534,141.287,115.285,140.657,115.138 C139.697,114.926,138.748,113.854,137.629,114.696 C137.303,114.913,137.001,115.164,136.728,115.444 C134.295,118.337,131.832,121.206,129.47,124.157 C128.769,125.029,128.981,126.054,129.246,127.197 C130.029,130.788,130.182,134.487,129.7,138.13 C129.358,141.472,129.358,144.839,129.7,148.18 C130.248,154.212,132.787,160.451,129.028,166.36 C128.604,167.019,129.299,167.396,129.452,167.915 C131.008,173.122,134.636,176.716,138.695,180.015 C141.049,175.54,143.83,171.304,147.002,167.367 C148.769,165.081,150.624,162.813,151.408,159.891 C152.221,156.846,154.271,154.778,156.863,153.011 C160.822,150.319,163.343,146.36,165.923,142.083 C163.95,142.083,162.548,141.883,161.087,142.431 C159.626,142.979,158.872,142.431,159.408,140.663 C159.867,139.191,160.745,137.465,159.879,136.139 C158.395,133.877,158.53,131.397,158.112,128.481 C156.344,132.44,154.813,136.021,152.35,139.197 C152.044,138.837,151.915,138.731,151.932,138.696 C153.735,134.537,155.702,130.449,157.281,126.201 C157.74,124.765,158.859,123.635,160.291,123.162 C165.399,121.07,167.042,118.502,165.729,113.777 C164.739,110.243,163.755,106.708,163.508,102.897 C159.608,109.253,157.316,116.263,152.18,122.602 C152.28,121.424,152.18,121.082,152.339,120.888 C156.303,114.997,159.319,108.611,162.153,102.125 C162.365,101.636,162.589,100.847,163.284,100.947 C163.979,101.047,164.215,101.831,164.533,102.443 C171.443,115.662,179.973,127.898,187.696,140.628 C190.288,144.893,194.7,148.345,194.117,154.177 C194.101,154.804,194.543,155.349,195.16,155.462 C197.946,155.986,199.36,158.083,200.839,160.174 C201.634,161.288,202.765,161.942,204.726,162 C189.72,141.214,176.14,119.435,164.079,96.8117 C168.462,103.292,172.492,109.96,176.533,116.635 C182.471,126.467,188.697,136.11,195.036,145.689 C199.566,152.534,204.703,158.979,208.585,166.307 C209.522,168.074,211.531,169.753,214.8,169.735 C196.438,143.857,179.231,117.895,163.832,90.32 C162.577,91.7691,164.073,93.3656,162.707,93.9664 C158.872,86.0903,159.52,77.519,158.978,69.0007 C153.046,88.5995,145.994,107.686,137.058,125.954 z M128.587,149.865 C127.485,147.85,127.685,146.189,127.685,144.563 C127.746,143.702,127.457,142.853,126.884,142.207 C117.394,131.468,107.727,120.864,98.9671,109.483 C97.3019,107.315,95.6308,105.155,93.9539,103.003 C94.1738,102.828,94.3937,102.653,94.6137,102.479 C105.023,114.761,115.032,127.403,126.425,138.825 C115.485,125.506,104.628,112.134,94.6726,97.8483 C92.4399,103.462,93.3707,107.48,97.3647,111.551 C103.332,117.636,108.487,124.511,114.024,131.026 C117.93,135.621,121.794,140.251,126.154,144.44 C126.743,144.987,127.332,145.547,126.925,146.46 C126.519,147.373,125.747,145.871,125.217,146.867 C126.112,148.096,127.261,149.119,128.587,149.865 z M128.039,134.59 C128.375,131.591,127.35,129.577,125.971,127.762 C116.51,115.309,106.637,103.168,97.5179,90.4552 C97.1998,90.0134,96.8287,89.4655,95.3265,89.8661 C105.571,105.265,116.764,119.645,128.039,134.59 z M104.157,126.472 C104.351,127.113,104.606,127.735,104.917,128.328 C108.142,133.049,111.865,137.409,116.021,141.335 C120.145,145.152,122.884,150.124,126.572,154.295 C126.843,154.607,127.09,155.037,126.684,155.285 C124.481,156.61,126.419,157.5,127.02,158.46 C127.62,159.42,128.846,160.045,128.492,161.959 C126.301,159.75,124.958,157.246,122.354,156.003 C124.875,158.796,125.83,162.619,128.598,164.993 C129.976,161.955,129.903,158.456,128.398,155.479 C127.809,154.23,128.687,152.728,127.538,151.397 C121.317,144.192,114.825,137.229,108.239,130.36 C107.049,129.111,106.219,127.432,104.157,126.472 z M96.0511,92.8056 C93.6947,95.433,95.2499,97.1178,96.5518,98.8144 C101.159,104.811,105.7,110.85,110.419,116.74 C114.119,121.365,118.042,125.812,121.865,130.337 C113.724,117.5,103.721,106.001,96.051,92.8057 z M89.4945,114.814 C90.602,113.907,91.0556,113.565,91.4738,113.188 C94.1365,110.832,94.5725,110.92,96.3338,114.042 C97.6122,116.305,98.6902,118.755,100.493,120.628 C106.219,126.596,112.057,132.451,117.518,138.666 C119.285,140.705,121.323,142.531,123.232,144.451 C123.407,143.897,123.265,143.291,122.861,142.872 C115.691,135.32,108.97,127.385,102.419,119.309 C99.674,115.922,96.811,112.634,94.0717,109.247 C93.3,108.293,92.5637,107.816,91.898,109.076 C91.0615,110.649,90.496,112.375,89.4945,114.814 z M192.385,150.531 C184.067,136.917,175.378,123.539,167.054,109.936 C168.886,118.084,173.888,124.44,178.659,130.92 C183.431,137.4,186.848,144.646,192.385,150.531 z M175.649,141.141 C174.842,143.155,175.125,144.811,176.792,146.113 C178.827,147.669,180.778,149.332,182.636,151.096 C187.879,156.174,193.239,161.111,198.541,166.13 C198.924,166.489,199.26,167.167,200.12,166.489 z M115.756,107.009 C110.525,97.5537,103.426,89.5185,97.406,80.3582 C96.7344,82.4907,97.3294,83.7219,98.3603,85.0709 C101.376,88.9766,104.027,93.1768,107.161,96.9823 C109.96,100.381,112.257,104.234,115.756,107.009 z M190.406,154.136 C186.718,147.302,180.692,142.313,175.608,136.216 C175.225,137.865,175.166,139.161,176.256,140.233 z M97.1527,128.304 C97.3706,131.108,97.8773,132.917,100.098,133.859 C101.209,134.334,101.976,135.373,102.101,136.575 C102.378,139.803,104.993,141.135,106.938,143.055 C107.939,144.057,108.169,143.144,108.74,142.784 C109.606,142.242,109.394,141.724,108.799,141.17 C104.693,137.359,101.406,132.793,97.1527,128.304 z M169.682,135.203 C169.976,133.317,170.718,132.422,170.118,131.338 C168.757,128.899,167.296,126.502,166.053,123.998 C165.599,123.085,165.258,123.544,164.763,123.709 C164.032,123.957,163.543,124.222,164.073,125.153 C165.823,128.21,167.514,131.303,169.682,135.203 z M174.347,126.808 C172.435,123.957,170.522,121.106,168.609,118.254 C166.442,122.284,169.917,124.463,171.172,127.226 C172.026,129.111,173.24,126.195,174.347,126.808 z M109.229,102.962 C105.153,97.1826,101.247,91.3153,96.7757,85.8779 C99.8389,92.3579,104.546,97.6775,109.229,102.962 z M162.359,125.064 C161.611,125.135,161.122,125.43,161.428,125.983 C163.443,129.63,165.063,133.5,167.543,136.881 C167.767,137.188,168.097,137.471,168.474,137.082 C168.854,136.757,168.946,136.205,168.692,135.774 C167.066,132.758,165.493,129.718,163.826,126.72 C163.404,126.112,162.912,125.556,162.359,125.064 z M112.127,106.213 C111.949,106.38,111.77,106.547,111.591,106.714 C115.255,111.397,118.92,116.081,122.584,120.764 C120.286,115.026,116.157,110.667,112.127,106.225 z M167.726,84.5407 C165.933,80.7941,164.14,77.0475,162.347,73.3009 C161.246,78.4495,165.546,80.9826,167.726,84.5407 z M124.204,165.712 C123.285,161.588,120.457,158.825,117.588,156.074 z M175.031,131.179 C174.335,134.92,177.151,135.892,178.989,137.482 z M160.798,127.256 C160.993,130.696,161.776,132.234,164.639,134.596 C163.219,131.874,162.112,129.759,160.798,127.256 z"/>
        </defs>
        <use xlink:href="#3" style="fill:#000000;fill-opacity:1;fill-rule:evenodd;opacity:1;stroke:none;"/>
      </g>
    </defs>
    <use xlink:href="#2"/>
    <defs>
      <title>Shape 156</title>
      <g id="4">
        <defs>
          <path id="5" d="M223.401,160.922 C227.524,167.942,231.648,174.962,235.772,181.982 C235.487,182.153,235.202,182.324,234.918,182.495 C230.774,175.504,226.619,168.51,222.452,161.511 z"/>
        </defs>
        <use xlink:href="#5" style="fill:#000000;fill-opacity:1;fill-rule:evenodd;opacity:1;stroke:none;"/>
      </g>
    </defs>
    <use xlink:href="#4"/>
    <defs>
      <title>Shape 162</title>
      <g id="6">
        <defs>
          <path id="7" d="M222.847,167.09 C224.862,170.183,227.024,173.193,228.838,176.398 C229.757,178.018,231.195,179.202,232.055,180.81 C232.284,181.234,232.732,181.599,232.196,182.029 C231.66,182.459,231.365,181.87,231.112,181.535 C227.754,177.11,224.938,172.351,222.087,167.614 z"/>
        </defs>
        <use xlink:href="#7" style="fill:#000000;fill-opacity:1;fill-rule:evenodd;opacity:1;stroke:none;"/>
      </g>
    </defs>
    <use xlink:href="#6"/>
    <defs>
      <title>Shape 170</title>
      <g id="8">
        <defs>
          <path id="9" d="M64.6878,141.017 C62.5907,143.715,60.4464,146.36,57.0296,147.562 C58.8323,144.51,61.601,142.578,64.6878,141.017 z"/>
        </defs>
        <use xlink:href="#9" style="fill:#000000;fill-opacity:1;fill-rule:evenodd;opacity:1;stroke:none;"/>
      </g>
    </defs>
    <use xlink:href="#8"/>
    <defs>
      <title>Shape 177</title>
      <g id="10">
        <defs>
          <path id="11" d="M172.356,186.495 C174.108,183.407,175.588,180.172,176.78,176.828 C176.992,179.838,175.166,183.897,172.356,186.495 z"/>
        </defs>
        <use xlink:href="#11" style="fill:#000000;fill-opacity:1;fill-rule:evenodd;opacity:1;stroke:none;"/>
      </g>
    </defs>
    <use xlink:href="#10"/>
    <defs>
      <title>Shape 211</title>
      <g id="12">
        <defs>
          <path id="13" d="M82.5019,194.995 C83.7567,193.299,85.2,191.844,87.2147,191.125 C86.0247,192.928,84.6934,194.5,82.5019,194.995 z"/>
        </defs>
        <use xlink:href="#13" style="fill:#000000;fill-opacity:1;fill-rule:evenodd;opacity:1;stroke:none;"/>
      </g>
    </defs>
    <use xlink:href="#12"/>
    <defs>
      <title>Shape 220</title>
      <g id="14">
        <defs>
          <path id="15" d="M148.61,142.431 C148.38,146.142,146.212,148.805,143.785,151.332 C145.199,148.263,147.208,145.506,148.61,142.431 z"/>
        </defs>
        <use xlink:href="#15" style="fill:#000000;fill-opacity:1;fill-rule:evenodd;opacity:1;stroke:none;"/>
      </g>
    </defs>
    <use xlink:href="#14"/>
  </g>
</svg>
