<svg xmlns="http://www.w3.org/2000/svg" enable-background="new 0 0 512 256" version="1.1" viewBox="0 0 512 256" xml:space="preserve"><style type="text/css">.st0{fill:url(#i)}.st1{fill:url(#h)}.st2{fill:#fff}.st3{fill:url(#g)}.st4{fill:url(#f)}.st5{fill:url(#e)}.st6{fill:url(#d);stroke:#5e5e5e;stroke-miterlimit:10}.st7{fill:url(#c)}.st8{fill:#333}.st9{fill:url(#b)}.st10{fill:url(#a)}.st11{fill:url(#k)}.st12{fill:url(#j)}</style><linearGradient id="i" x1="112.55" x2="100.55" y1="21.089" y2="99.592" gradientTransform="matrix(1 0 0 -1 41 259)" gradientUnits="userSpaceOnUse"><stop offset="0" stop-color="#595459"/><stop offset="1" stop-color="#9B9398"/></linearGradient><polyline points="133.4 161.9 133.4 204.9 166.4 223.2 158 169.6" class="st0"/><linearGradient id="h" x1="112.55" x2="100.55" y1="-226.63" y2="-148.13" gradientTransform="translate(41 243.81)" gradientUnits="userSpaceOnUse"><stop offset="0" stop-color="#595459"/><stop offset="1" stop-color="#9B9398"/></linearGradient><polyline points="133.4 93.2 133.4 50.2 166.4 31.9 158 85.5" class="st1"/><circle cx="29.6" cy="127.1" r="18.6" class="st2"/><linearGradient id="g" x1="324.91" x2="353.95" y1="-118.94" y2="-183.61" gradientTransform="matrix(1.837e-16 1 1 -1.837e-16 297.77 -240.23)" gradientUnits="userSpaceOnUse"><stop offset="0" stop-color="#9B9398"/><stop offset="1" stop-color="#595459"/></linearGradient><path d="m168.4 71.1-33 10.3s-9.9 1.4-9.9 11.3v15.6l42.9 4.3v-41.5z" class="st3"/><linearGradient id="f" x1="324.45" x2="363.96" y1="187.76" y2="-131.12" gradientTransform="matrix(1.837e-16 1 1 -1.837e-16 297.77 -240.23)" gradientUnits="userSpaceOnUse"><stop offset="0" stop-color="#CDC4C9"/><stop offset="1" stop-color="#433E43"/></linearGradient><polygon points="178.4 77.5 424.9 67 500.9 127.1 178.4 127.1" class="st4"/><linearGradient id="e" x1="341.07" x2="370.88" y1="160.04" y2="-148.02" gradientTransform="matrix(1.837e-16 1 1 -1.837e-16 297.77 -240.23)" gradientUnits="userSpaceOnUse"><stop offset="0" stop-color="#E3B146"/><stop offset="1" stop-color="#FAD6A6"/></linearGradient><polygon points="178.4 101.3 416.2 91.9 461.2 127.1 178.4 127.1" class="st5"/><linearGradient id="d" x1="377.99" x2="357.64" y1="-306.94" y2="-173.8" gradientTransform="matrix(1.837e-16 1 1 -1.837e-16 297.77 -240.23)" gradientUnits="userSpaceOnUse"><stop offset="0" stop-color="#595459"/><stop offset="1" stop-color="#9B9398"/></linearGradient><path d="m41.5 141.4h79.7v-28.6h-79.7c-3.2-2.7-7.4-4.3-11.9-4.3-10.3 0-18.6 8.3-18.6 18.6s8.3 18.6 18.6 18.6c4.5 0 8.7-1.6 11.9-4.3z" class="st6"/><linearGradient id="c" x1="385.01" x2="420.61" y1="-120.07" y2="-175.59" gradientTransform="matrix(1.837e-16 1 1 -1.837e-16 297.77 -240.23)" gradientUnits="userSpaceOnUse"><stop offset="0" stop-color="#9D969A"/><stop offset="1" stop-color="#373737"/></linearGradient><path d="m168.4 183.1-33-10.3s-9.9-1.4-9.9-11.3v-15.6l42.9-4.3v41.5z" class="st7"/><polygon points="168.4 141.3 168.4 127.1 168.4 112.9 121.2 101.5 121.2 127.1 121.2 152.7" class="st8"/><path d="m178.4 190.9v-127.6c0-1.1-0.9-2-2-2h-5.9c-1.1 0-2 0.9-2 2v127.6c0 1.1 0.9 2 2 2h5.9c1.1 0 2-0.9 2-2z" class="st8"/><linearGradient id="b" x1="356.62" x2="425.55" y1="183.3" y2="-120.14" gradientTransform="matrix(1.837e-16 1 1 -1.837e-16 297.77 -240.23)" gradientUnits="userSpaceOnUse"><stop offset="0" stop-color="#C4BCC1"/><stop offset="1" stop-color="#333"/></linearGradient><polygon points="178.4 176.7 424.9 187.2 500.9 127.1 178.4 127.1" class="st9"/><linearGradient id="a" x1="394.19" x2="372.2" y1="-117.81" y2="162.24" gradientTransform="matrix(1.837e-16 1 1 -1.837e-16 297.77 -240.23)" gradientUnits="userSpaceOnUse"><stop offset="0" stop-color="#CFAD74"/><stop offset="1" stop-color="#BF9843"/></linearGradient><polygon points="178.4 153 416.2 162.4 461.2 127.1 178.4 127.1" class="st10"/><linearGradient id="k" x1="350.54" x2="382.9" y1="9.683" y2="-133.48" gradientTransform="matrix(1.837e-16 1 1 -1.837e-16 297.77 -240.23)" gradientUnits="userSpaceOnUse"><stop offset="0" stop-color="#B4ABB0"/><stop offset="1" stop-color="#3A393A"/></linearGradient><polygon points="301.4 138.6 189.2 138.6 189.2 127.1 189.2 115.7 301.4 115.7 279.1 103 178.4 105 178.4 127.1 178.4 149.3 279.1 151.2" class="st11"/><linearGradient id="j" x1="122.65" x2="143.33" y1="140.03" y2="123.7" gradientTransform="matrix(1 0 0 -1 41 259)" gradientUnits="userSpaceOnUse"><stop offset="0" stop-color="#FCFEFD"/><stop offset="1" stop-color="#B06813"/></linearGradient><circle cx="174.2" cy="127.3" r="8.5" class="st12"/></svg>