<?xml version="1.0" encoding="utf-8"?>
<svg x="0pt" y="0pt" width="160pt" height="160pt" viewBox="0 0 160 160" xmlns="http://www.w3.org/2000/svg" xmlns:xlink="http://www.w3.org/1999/xlink">
  <g id="1">
    <title>Group</title>
    <clipPath id="3">
      <use xlink:href="#2"/>
      <path id="2" d="M0,0 C0,0,160,0,160,0 C160,0,160,160,160,160 C160,160,0,160,0,160 C0,160,0,0,0,0 z"/>
    </clipPath>
    <g id="4" style="clip-path:url(#3);">
      <title>Clipping Group</title>
      <g id="5">
        <title>Group</title>
        <g id="6">
          <title>Group</title>
          <g id="7">
            <title>Group</title>
            <g id="8">
              <title>Group</title>
              <g id="9">
                <title>Group</title>
                <g id="10">
                  <title>Group</title>
                  <g id="11">
                    <title>Group</title>
                    <g id="12">
                      <title>Group</title>
                      <defs>
                        <title>Shape 15</title>
                        <g id="13">
                          <defs>
                            <path id="14" d="M159.378,79.6877 C159.378,123.699,123.701,159.375,79.6901,159.375 C35.6793,159.375,5.61882e-15,123.699,5.61882e-15,79.6877 C5.61882e-15,35.677,35.6793,-1.6984e-15,79.6901,-1.6984e-15 C123.701,-1.6984e-15,159.378,35.677,159.378,79.6877"/>
                          </defs>
                          <use xlink:href="#14" style="fill:#ffffff;fill-opacity:0.2281;fillRule:nonzero;opacity:1;stroke:none;"/>
                        </g>
                      </defs>
                      <use xlink:href="#13"/>
                    </g>
                  </g>
                </g>
                <g id="15">
                  <title>Group</title>
                  <g id="16">
                    <title>Group</title>
                    <g id="17">
                      <title>Group</title>
                      <defs>
                        <title>Shape 16</title>
                        <g id="18">
                          <defs>
                            <path id="19" d="M116.772,58.3809 C116.772,58.3809,114.745,52.1205,114.745,52.1205 C114.334,50.8473,113.329,49.8564,112.051,49.4658 C112.051,49.4658,105.76,47.5312,105.76,47.5312 C104.889,47.2652,104.882,46.0367,105.746,45.7566 C105.746,45.7566,112.008,43.7302,112.008,43.7302 C113.279,43.3184,114.27,42.3134,114.663,41.0355 C114.663,41.0355,116.595,34.7445,116.595,34.7445 C116.861,33.8761,118.09,33.8666,118.37,34.7327 C118.37,34.7327,120.396,40.9931,120.396,40.9931 C120.808,42.264,121.813,43.2548,123.091,43.6479 C123.091,43.6479,129.382,45.5801,129.382,45.5801 C130.253,45.8484,130.262,47.0746,129.396,47.3546 C129.396,47.3546,123.133,49.381,123.133,49.381 C121.863,49.7929,120.872,50.8002,120.479,52.0782 C120.479,52.0782,118.546,58.3668,118.546,58.3668 C118.28,59.2376,117.052,59.247,116.772,58.3809"/>
                          </defs>
                          <use xlink:href="#19" style="fill:#fafafa;fill-opacity:1;fillRule:nonzero;opacity:1;stroke:none;"/>
                        </g>
                      </defs>
                      <use xlink:href="#18"/>
                    </g>
                  </g>
                </g>
                <g id="20">
                  <title>Group</title>
                  <g id="21">
                    <title>Group</title>
                    <g id="22">
                      <title>Group</title>
                      <defs>
                        <title>Shape 17</title>
                        <g id="23">
                          <defs>
                            <path id="24" d="M7.24695,78.4251 C9.14153,74.7136,12.8883,71.9176,16.781,70.1501 C20.7138,68.4014,25.0372,67.3282,29.2829,66.9799 C37.8544,66.2056,46.2047,67.6389,53.8113,70.1172 C57.7299,71.2845,61.2366,72.9061,64.8587,74.5441 C66.6191,75.3914,68.2737,76.3516,69.9776,77.2789 C69.9776,77.2789,74.6846,80.0066,74.6846,80.0066 C79.853,83.1745,84.8636,85.9799,89.5706,88.1592 C94.2894,90.3197,98.554,91.7813,102.574,92.5274 C106.594,93.2828,110.679,93.2734,115.704,92.1202 C120.689,90.9929,126.297,88.5617,132.16,85.4433 C138.058,82.3225,144.106,78.4957,151.007,74.7559 C150.315,82.572,148.103,89.9008,144.648,96.9779 C141.108,103.97,136.184,110.791,129.006,116.314 C121.964,121.883,112.294,125.764,102.449,126.347 C92.5996,127.013,83.2302,124.843,75.2589,121.579 C67.2569,118.268,60.3423,113.916,54.2137,109.113 C52.5216,107.785,51.6131,107.032,50.3634,105.975 C50.3634,105.975,46.8731,102.918,46.8731,102.918 C44.522,101.078,42.2437,98.8771,39.9161,97.0532 C35.2726,93.1722,30.6786,89.2842,25.642,85.914 C23.1026,84.2006,20.4831,82.612,17.513,81.2046 C16.0373,80.5244,14.4699,79.8913,12.7871,79.3924 C11.0644,78.8299,9.31334,78.4957,7.24695,78.4251"/>
                          </defs>
                          <use xlink:href="#24" style="fill:#646464;fill-opacity:1;fillRule:nonzero;opacity:1;stroke:none;"/>
                        </g>
                      </defs>
                      <use xlink:href="#23"/>
                    </g>
                  </g>
                </g>
                <g id="25">
                  <title>Group</title>
                  <g id="26">
                    <title>Group</title>
                    <g id="27">
                      <title>Group</title>
                      <defs>
                        <title>Shape 18</title>
                        <g id="28">
                          <defs>
                            <path id="29" d="M7.24695,78.4251 C8.21425,70.3831,11.9634,62.8401,17.9719,56.4197 C23.9499,50.0605,33.2886,45.1581,43.6512,44.5085 C48.7653,44.1673,53.9572,44.7368,58.7301,46.0595 C63.4819,47.3775,67.9347,49.2979,71.9475,51.5597 C73.9527,52.6964,75.8284,53.9391,77.6971,55.1935 C77.6971,55.1935,82.6772,58.9638,82.6772,58.9638 C82.6772,58.9638,90.4508,65.0971,90.4508,65.0971 C95.4968,69.1146,100.312,72.8308,104.763,75.8997 C109.255,78.9734,113.082,81.2187,116.737,82.5343 C120.359,83.97,124.935,84.3371,130.983,82.8167 C133.986,82.1248,137.119,80.861,140.461,79.4912 C143.784,78.0885,147.234,76.4152,151.007,74.7559 C150.553,78.7993,149.731,82.8261,148.171,86.5894 C146.672,90.4045,144.697,94.1372,141.936,97.618 C140.524,99.3125,139.011,101.016,137.246,102.589 C135.481,104.123,133.525,105.58,131.364,106.858 C127.055,109.355,121.943,111.179,116.7,111.829 C111.456,112.488,106.191,112.158,101.397,111.141 C96.577,110.153,92.1854,108.56,88.1538,106.719 C80.1189,102.982,73.3973,98.284,67.4546,93.3111 C64.4704,90.8281,61.672,88.2345,59.022,85.6009 C59.022,85.6009,55.8918,82.459,55.8918,82.459 C54.948,81.5482,53.9949,80.6327,53.0511,79.7948 C49.2478,76.4316,45.7175,73.8616,41.8295,72.2589 C37.9698,70.5808,33.0297,69.8912,26.9694,71.0256 C20.9327,72.1482,14.3099,74.7583,7.24695,78.4251"/>
                          </defs>
                          <use xlink:href="#29" style="fill:#fafafa;fill-opacity:1;fillRule:nonzero;opacity:1;stroke:none;"/>
                        </g>
                      </defs>
                      <use xlink:href="#28"/>
                    </g>
                  </g>
                </g>
                <g id="30">
                  <title>Group</title>
                  <g id="31">
                    <title>Group</title>
                    <g id="32">
                      <title>Group</title>
                      <defs>
                        <title>Shape 19</title>
                        <g id="33">
                          <defs>
                            <path id="34" d="M39.095,119.896 C39.095,122.275,37.1651,124.205,34.7857,124.205 C32.4063,124.205,30.4788,122.275,30.4788,119.896 C30.4788,117.516,32.4063,115.586,34.7857,115.586 C37.1651,115.586,39.095,117.516,39.095,119.896"/>
                          </defs>
                          <use xlink:href="#34" style="fill:#fafafa;fill-opacity:1;fillRule:nonzero;opacity:1;stroke:none;"/>
                        </g>
                      </defs>
                      <use xlink:href="#33"/>
                    </g>
                  </g>
                </g>
                <g id="35">
                  <title>Group</title>
                  <g id="36">
                    <title>Group</title>
                    <g id="37">
                      <title>Group</title>
                      <defs>
                        <title>Shape 20</title>
                        <g id="38">
                          <defs>
                            <path id="39" d="M39.095,119.896 C39.095,122.275,37.1651,124.205,34.7857,124.205 C32.4063,124.205,30.4788,122.275,30.4788,119.896 C30.4788,117.516,32.4063,115.586,34.7857,115.586 C37.1651,115.586,39.095,117.516,39.095,119.896"/>
                          </defs>
                          <use xlink:href="#39" style="fill:#fafafa;fill-opacity:1;fillRule:nonzero;opacity:1;stroke:none;"/>
                        </g>
                      </defs>
                      <use xlink:href="#38"/>
                    </g>
                  </g>
                </g>
              </g>
            </g>
          </g>
        </g>
      </g>
    </g>
    <clipPath id="41">
      <use xlink:href="#40"/>
      <path id="40" d="M0,0 C0,0,160,0,160,0 C160,0,160,160,160,160 C160,160,0,160,0,160 C0,160,0,0,0,0 z"/>
    </clipPath>
    <g id="42" style="clip-path:url(#41);"/>
  </g>
</svg>
