<svg xmlns="http://www.w3.org/2000/svg" xmlns:xlink="http://www.w3.org/1999/xlink" width="256pt" height="256pt" x="0" y="0" viewBox="0 0 256 256"><g id="1"><defs><g id="2"><defs><path id="3" d="M128.036,19.4438 C128.036,19.4438,34.0004,73.7401,34.0004,73.7401 C34.0004,73.7401,34.0004,182.296,34.0004,182.296 C34.0004,182.296,128.036,236.556,128.036,236.556 C128.036,236.556,222,182.296,222,182.296 C222,182.296,222,73.7401,222,73.7401 C222,73.7401,128.036,19.4438,128.036,19.4438 z M194.16,166.211 C194.16,166.211,128.036,204.386,128.036,204.386 C128.036,204.386,61.8764,166.211,61.8764,166.211 C61.8764,166.211,61.8764,89.7888,61.8764,89.7888 C61.8764,89.7888,128.036,51.614,128.036,51.614 C128.036,51.614,194.16,89.7888,194.16,89.7888 C194.16,89.7888,194.16,166.211,194.16,166.211 z"/></defs><use xlink:href="#3" style="fill:#fff;fill-opacity:1;fill-rule:evenodd;opacity:1;stroke:none"/></g></defs><use xlink:href="#2"/><defs><g id="4"><defs><path id="5" d="M171.888,153.365 C171.888,153.365,128,178.694,128,178.694 C128,178.694,84.0753,153.365,84.0753,153.365 C84.0753,153.365,84.0753,102.671,84.0753,102.671 C84.0753,102.671,128,77.3065,128,77.3065 C128,77.3065,171.888,102.671,171.888,102.671 C171.888,102.671,153.62,113.225,153.62,113.225 C153.62,113.225,128,98.4136,128,98.4136 C128,98.4136,102.38,113.225,102.38,113.225 C102.38,113.225,102.38,142.775,102.38,142.775 C102.38,142.775,128,157.586,128,157.586 C128,157.586,153.62,142.775,153.62,142.775 C153.62,142.775,171.888,153.365,171.888,153.365 z"/></defs><use xlink:href="#5" style="fill:#fff;fill-opacity:1;fill-rule:evenodd;opacity:1;stroke:none"/></g></defs><use xlink:href="#4"/></g></svg>